<svg width="21" height="20" viewBox="0 0 21 20" fill="none" xmlns="http://www.w3.org/2000/svg">
<path d="M17.8333 17.5C17.8333 17.6657 17.7674 17.8247 17.6502 17.9419C17.533 18.0591 17.374 18.125 17.2083 18.125C16.5458 18.1229 15.9112 17.8589 15.4428 17.3905C14.9744 16.9221 14.7103 16.2874 14.7083 15.625V15C14.7083 14.6685 14.5766 14.3505 14.3421 14.1161C14.1077 13.8817 13.7898 13.75 13.4583 13.75H12.5208V16.875C12.5208 17.2065 12.6524 17.5244 12.8869 17.7589C13.1213 17.9933 13.4392 18.125 13.7708 18.125C13.9365 18.125 14.0955 18.1908 14.2127 18.308C14.3299 18.4252 14.3958 18.5842 14.3958 18.75C14.3958 18.9157 14.3299 19.0747 14.2127 19.1919C14.0955 19.3091 13.9365 19.375 13.7708 19.375C13.1083 19.3729 12.4737 19.1089 12.0053 18.6405C11.5369 18.1721 11.2728 17.5374 11.2708 16.875V13.75H9.39575V16.875C9.39369 17.5374 9.12964 18.1721 8.66124 18.6405C8.19285 19.1089 7.55816 19.3729 6.89575 19.375C6.72999 19.375 6.57102 19.3091 6.45381 19.1919C6.3366 19.0747 6.27075 18.9157 6.27075 18.75C6.27075 18.5842 6.3366 18.4252 6.45381 18.308C6.57102 18.1908 6.72999 18.125 6.89575 18.125C7.22727 18.125 7.54521 17.9933 7.77964 17.7589C8.01406 17.5244 8.14575 17.2065 8.14575 16.875V13.75H7.20825C6.87673 13.75 6.55879 13.8817 6.32437 14.1161C6.08995 14.3505 5.95825 14.6685 5.95825 15V15.625C5.95619 16.2874 5.69214 16.9221 5.22374 17.3905C4.75535 17.8589 4.12066 18.1229 3.45825 18.125C3.29249 18.125 3.13352 18.0591 3.01631 17.9419C2.8991 17.8247 2.83325 17.6657 2.83325 17.5C2.83325 17.3342 2.8991 17.1752 3.01631 17.058C3.13352 16.9408 3.29249 16.875 3.45825 16.875C3.78977 16.875 4.10772 16.7433 4.34214 16.5089C4.57656 16.2744 4.70825 15.9565 4.70825 15.625V15C4.70877 14.5797 4.81492 14.1662 5.01696 13.7976C5.219 13.429 5.51044 13.1171 5.8645 12.8906C5.31236 12.4857 4.86337 11.9564 4.55391 11.3456C4.24444 10.7348 4.0832 10.0597 4.08325 9.37498V8.74998C4.09105 7.97363 4.29819 7.21231 4.68481 6.53904C4.49435 5.92237 4.43351 5.27297 4.50611 4.63165C4.57871 3.99033 4.78319 3.37096 5.10669 2.81248C5.16011 2.7167 5.23838 2.63712 5.33326 2.58212C5.42813 2.52712 5.53609 2.49874 5.64575 2.49998C6.37378 2.49815 7.09214 2.66677 7.74331 2.99236C8.39448 3.31795 8.9604 3.79145 9.39575 4.37498H11.2708C11.7061 3.79145 12.272 3.31795 12.9232 2.99236C13.5744 2.66677 14.2927 2.49815 15.0208 2.49998C15.1304 2.49874 15.2384 2.52712 15.3332 2.58212C15.4281 2.63712 15.5064 2.7167 15.5598 2.81248C15.8833 3.37096 16.0878 3.99033 16.1604 4.63165C16.233 5.27297 16.1722 5.92237 15.9817 6.53904C16.3683 7.21231 16.5755 7.97363 16.5833 8.74998V9.37498C16.5833 10.0597 16.4221 10.7348 16.1126 11.3456C15.8031 11.9564 15.3541 12.4857 14.802 12.8906C15.1561 13.1171 15.4475 13.429 15.6495 13.7976C15.8516 14.1662 15.9577 14.5797 15.9583 15V15.625C15.9583 15.9565 16.0899 16.2744 16.3244 16.5089C16.5588 16.7433 16.8767 16.875 17.2083 16.875C17.374 16.875 17.533 16.9408 17.6502 17.058C17.7674 17.1752 17.8333 17.3342 17.8333 17.5Z" fill="white"/>
</svg>
