<svg width="20" height="20" viewBox="0 0 20 20" fill="none" xmlns="http://www.w3.org/2000/svg">
<path d="M19.1953 6.07032L16.8359 8.42189C16.3672 13.8828 11.7578 18.125 6.24996 18.125C5.11715 18.125 4.17965 17.9453 3.46871 17.5938C2.8984 17.3047 2.66403 17 2.60153 16.9063C2.54982 16.8277 2.51649 16.7385 2.50404 16.6453C2.4916 16.5521 2.50034 16.4573 2.52963 16.3679C2.55891 16.2786 2.60799 16.197 2.67319 16.1292C2.73839 16.0614 2.81805 16.0093 2.90621 15.9766C2.92184 15.9688 4.76559 15.2656 5.9609 13.9141C5.21961 13.3863 4.56805 12.7426 4.03121 12.0078C2.9609 10.5547 1.82809 8.03126 2.50778 4.26564C2.52914 4.15369 2.58035 4.04959 2.65598 3.96433C2.73161 3.87907 2.82886 3.81582 2.93746 3.78126C3.04641 3.74559 3.16307 3.74057 3.27468 3.76675C3.3863 3.79293 3.48856 3.8493 3.57028 3.9297C3.59371 3.96095 6.19528 6.52345 9.37496 7.35157V6.87501C9.37803 6.37947 9.47868 5.88939 9.67115 5.43275C9.86362 4.97611 10.1442 4.56185 10.4967 4.21363C10.8493 3.86541 11.267 3.59005 11.726 3.40326C12.185 3.21647 12.6763 3.12192 13.1718 3.12501C13.8222 3.13429 14.4591 3.31187 15.0205 3.64047C15.5818 3.96906 16.0485 4.43745 16.375 5.00001H18.75C18.8734 4.99963 18.9941 5.03577 19.097 5.1039C19.1999 5.17202 19.2803 5.26907 19.3281 5.38282C19.3731 5.49827 19.3845 5.6241 19.361 5.74577C19.3375 5.86743 19.2801 5.97996 19.1953 6.07032V6.07032Z" fill="white"/>
</svg>
