<svg width="21" height="20" viewBox="0 0 21 20" fill="none" xmlns="http://www.w3.org/2000/svg">
<path d="M16.9167 2.5H4.41675C4.08523 2.5 3.76728 2.6317 3.53286 2.86612C3.29844 3.10054 3.16675 3.41848 3.16675 3.75V15C3.16675 15.3315 3.29844 15.6495 3.53286 15.8839C3.76728 16.1183 4.08523 16.25 4.41675 16.25H5.66675V18.75C5.66641 18.8683 5.70011 18.9843 5.76383 19.084C5.82755 19.1838 5.9186 19.2631 6.02612 19.3125C6.10771 19.3561 6.19927 19.3776 6.29175 19.375C6.43846 19.3772 6.58064 19.3242 6.69019 19.2266L10.2683 16.25H13.5652C13.8566 16.2507 14.1389 16.1483 14.3621 15.9609L17.7136 13.1641C17.8553 13.0489 17.9695 12.9036 18.0479 12.7387C18.1263 12.5738 18.1669 12.3935 18.1667 12.2109V3.75C18.1667 3.41848 18.0351 3.10054 17.8006 2.86612C17.5662 2.6317 17.2483 2.5 16.9167 2.5V2.5ZM10.6667 10.625C10.6667 10.7908 10.6009 10.9497 10.4837 11.0669C10.3665 11.1842 10.2075 11.25 10.0417 11.25C9.87599 11.25 9.71702 11.1842 9.59981 11.0669C9.4826 10.9497 9.41675 10.7908 9.41675 10.625V6.875C9.41675 6.70924 9.4826 6.55027 9.59981 6.43306C9.71702 6.31585 9.87599 6.25 10.0417 6.25C10.2075 6.25 10.3665 6.31585 10.4837 6.43306C10.6009 6.55027 10.6667 6.70924 10.6667 6.875V10.625ZM14.4167 10.625C14.4167 10.7908 14.3509 10.9497 14.2337 11.0669C14.1165 11.1842 13.9575 11.25 13.7917 11.25C13.626 11.25 13.467 11.1842 13.3498 11.0669C13.2326 10.9497 13.1667 10.7908 13.1667 10.625V6.875C13.1667 6.70924 13.2326 6.55027 13.3498 6.43306C13.467 6.31585 13.626 6.25 13.7917 6.25C13.9575 6.25 14.1165 6.31585 14.2337 6.43306C14.3509 6.55027 14.4167 6.70924 14.4167 6.875V10.625Z" fill="white"/>
</svg>
