<svg xmlns="http://www.w3.org/2000/svg" width="16" height="16" fill="none"><path fill="#DF9947" fill-rule="evenodd" d="m4.845 9.527.72-1.8-1.3 1.625c.205.028.4.088.58.175Zm.878.806c.176.296.277.639.277 1 0 .436-.147.844-.394 1.177.537.05 1.149.105 1.774.16.794.071 1.593.14 2.286.196a2.32 2.32 0 0 1 .087-2.533h-4.03Zm5.944-1C12.933 9.333 14 10.4 14 11.667 14 12.933 12.933 14 11.667 14h-.014c-1.048-.006-7.986-.667-7.986-.667-.934-.133-1.667-1-1.667-2 0-.185.032-.382.087-.572.083-.287.22-.56.38-.761l4-5-.6-1 1.466-2h2.2L10 3H8l-.667 1L8 5h2l-.467 1h-2.2L6 9.333h5.667Zm0 3.667C12.4 13 13 12.4 13 11.667c0-.734-.6-1.334-1.333-1.334-.734 0-1.334.6-1.334 1.334 0 .733.6 1.333 1.334 1.333Zm-8.625-1.944a.934.934 0 0 0-.042.277c0 .534.467 1 1 1 .533 0 1-.466 1-1 0-.533-.467-1-1-1-.438 0-.831.315-.958.723Z" clip-rule="evenodd"/></svg>
