<svg xmlns="http://www.w3.org/2000/svg" width="16" height="16" fill="none"><path fill="#33A06F" fill-rule="evenodd" d="M8 6c0-1.131.5-3 1-4l1 1.5h2.5l1-1.5c.063.19.127.378.19.562.429 1.267.81 2.39.81 3.438 0 .724-.466 1.215-1.061 1.53l.061-.03c0 1 0 4-2 4H4c0 1 1.438 1 3.5 1 4 0 5.5.5 5.5 1.5 0 .816-.667.633-2 .266-.3-.082-.633-.174-1-.266-1-.25-2.25-.25-3.438-.25-1.187 0-2.312 0-3.062-.25-1.06-.354-1.5-1-1.5-3s.5-3.5 2.5-4c1.143-.286 2.286.082 3.429.449.237.076.475.153.713.223C8.257 6.878 8 6.492 8 6Zm5.5-1c0 .333 0 1.5-2 1.5 0-1.6 1.667-1.667 2-1.5ZM9 5c0 .333 0 1.5 2 1.5C11 4.9 9.333 4.833 9 5Z" clip-rule="evenodd"/></svg>
