<svg xmlns="http://www.w3.org/2000/svg" width="16" height="16" fill="none"><path fill="#29AED2" fill-rule="evenodd" d="M7.27 2.185a1.35 1.35 0 0 1 .67-.18c.244-.021.49.023.71.13l4.14 2.39a1.33 1.33 0 0 1 .67 1.15v4.78a1.35 1.35 0 0 1-.67 1.16l-4.14 2.39a1.34 1.34 0 0 1-1.34 0l-4.14-2.39a1.35 1.35 0 0 1-.67-1.16v-4.78a1.33 1.33 0 0 1 .67-1.15l4.1-2.34Zm4.897 4.148L8 3.833 6.75 5.5l1.667 1.667 1.25 2.083c1.666-.417 2.5-1.25 2.5-2.917Zm-8.284 4.304.83.63L8 8 6.83 6.75l-2.947 3.887Z" clip-rule="evenodd"/></svg>
