<svg xmlns="http://www.w3.org/2000/svg" id="Calque_1" data-name="Calque 1" viewBox="0 0 16 16"><defs><style>.cls-1{fill:#d68012}</style></defs><circle cx="8" cy="8" r="2" class="cls-1"/><path d="M8 4.5A3.5 3.5 0 0 1 11.5 8 3.5 3.5 0 1 1 8 4.5M8 2a5.8 5.8 0 0 0-1 .09L6.34 4l-1.79-.9a4.94 4.94 0 0 0-.79.66 4.94 4.94 0 0 0-.66.79L4 6.34 2.09 7a5.94 5.94 0 0 0 0 2L4 9.66l-.9 1.79a5.88 5.88 0 0 0 1.45 1.45l1.79-.9.66 1.91a5.94 5.94 0 0 0 2.06 0l.6-1.91 1.79.89a5.88 5.88 0 0 0 1.45-1.45L12 9.66 13.91 9a5.94 5.94 0 0 0 0-2.06L12 6.34l.89-1.79a4.94 4.94 0 0 0-.66-.79 4.94 4.94 0 0 0-.79-.66L9.66 4 9 2.09A5.8 5.8 0 0 0 8 2" class="cls-1"/></svg>
