<svg xmlns="http://www.w3.org/2000/svg" width="16" height="16" fill="none"><path fill="#0E8ADC" fill-rule="evenodd" d="M4.277 3.297a5.996 5.996 0 0 1 7.572.099A6.006 6.006 0 0 1 10.1 13.63l-.17.063.495-1.299.026-.014a5.012 5.012 0 0 0 2.554-4.59 5.016 5.016 0 0 0-2.942-4.352 5.006 5.006 0 0 0-6.785 2.895 5.018 5.018 0 0 0-.176 2.725l.016.064a5.036 5.036 0 0 0 4.878 3.89c.034 0 .068 0 .102-.002l.1-.002a.185.185 0 0 0 .16-.115l.226-.549.96-2.33-1.646-4.024h1.12l1.092 2.748 1.085-2.744h1.066l-2.73 6.645-.178.43-.083.204A1.175 1.175 0 0 1 8.237 14c-.079.005-.156.005-.238.005h-.013a6.044 6.044 0 0 1-2.551-.579l-.116-.05a6.002 6.002 0 0 1-3.158-6.75 6.005 6.005 0 0 1 2.116-3.33ZM6.83 7.059a1.05 1.05 0 0 0-.595-.172 1.036 1.036 0 0 0-.775.32 1.136 1.136 0 0 0-.318.817 1.121 1.121 0 0 0 .315.808 1.045 1.045 0 0 0 .775.319 1.03 1.03 0 0 0 .991-.646l.046-.107.958.325-.052.123a2.052 2.052 0 0 1-1.94 1.276A2.074 2.074 0 0 1 4.71 9.52a2.02 2.02 0 0 1-.619-1.497 2.033 2.033 0 0 1 .619-1.505 2.074 2.074 0 0 1 1.524-.602 2.052 2.052 0 0 1 1.942 1.277l.05.122-.954.325-.047-.103a1.052 1.052 0 0 0-.396-.478Z" clip-rule="evenodd"/></svg>
