<svg xmlns="http://www.w3.org/2000/svg" width="16" height="16" fill="none"><path fill="#2CB7F6" d="m8.794 2.76-5.18 5.181 1.602 1.603L12 2.761H8.794ZM8.758 7.537 5.984 10.31l1.61 1.634 1.6-1.6L12 7.538H8.758Z"/><path fill="#086EC5" d="m7.593 11.944 1.22 1.219H12l-2.806-2.818-1.6 1.599Z"/><path fill="#00B5F8" d="m5.966 10.329 1.603-1.603 1.625 1.619-1.6 1.599-1.628-1.615Z"/><path fill="#2CB7F6" fill-rule="evenodd" d="M13 3.2H3v9.6h10V3.2ZM3 2c-.552 0-1 .537-1 1.2v9.6c0 .663.448 1.2 1 1.2h10c.552 0 1-.537 1-1.2V3.2c0-.663-.448-1.2-1-1.2H3Z" clip-rule="evenodd"/></svg>
