<svg xmlns="http://www.w3.org/2000/svg" width="16" height="16" fill="none"><path fill="#CE3939" fill-rule="evenodd" d="M6.103 5.58A1.46 1.46 0 0 1 6 5a1.74 1.74 0 0 1 .65-1.35C6.89 3.4 7 3.28 7 3a.47.47 0 0 0-.5-.5v-1A1.46 1.46 0 0 1 8 3a1.74 1.74 0 0 1-.65 1.35C7.11 4.6 7 4.72 7 5a.47.47 0 0 0 .5.5v1a1.46 1.46 0 0 1-1.397-.92ZM5 5.5v1A1.46 1.46 0 0 1 3.5 5a1.74 1.74 0 0 1 .65-1.35c.24-.25.35-.37.35-.65h1a1.74 1.74 0 0 1-.65 1.35c-.24.25-.35.37-.35.65a.47.47 0 0 0 .5.5ZM2.5 7h9.38v.02a2.24 2.24 0 0 1 0 4.48h-.85a4.5 4.5 0 0 1-8.53-2V7Zm8.88 3.49h.5v.01a1.25 1.25 0 0 0 0-2.5h-.5v2.49ZM10 6.5v-1a.47.47 0 0 1-.5-.5c0-.28.11-.4.35-.65A1.74 1.74 0 0 0 10.5 3h-1c0 .28-.11.4-.35.65A1.74 1.74 0 0 0 8.5 5 1.46 1.46 0 0 0 10 6.5Z" clip-rule="evenodd"/></svg>
