<svg xmlns="http://www.w3.org/2000/svg" width="16" height="16" fill="none"><path fill="#FBB03B" d="M5.957 10.63a.552.552 0 0 0 .46-.198.888.888 0 0 0 .156-.568V6.261h1.056v3.603c.002.311-.067.62-.202.9a1.373 1.373 0 0 1-.588.595c-.285.142-.6.213-.92.208a1.983 1.983 0 0 1-.918-.19 1.498 1.498 0 0 1-.607-.531l.827-.559a.915.915 0 0 0 .708.343m4.807-4.432c.2-.001.401.02.597.063a3.437 3.437 0 0 1 1.14.486l-.432.847c-.2-.138-.42-.247-.652-.324a1.871 1.871 0 0 0-.653-.117 1.318 1.318 0 0 0-.717.153.474.474 0 0 0-.257.423.498.498 0 0 0 .128.36.922.922 0 0 0 .331.199c.138 0 .322.08.552.135h.147c.292.051.578.13.855.234.23.097.43.252.579.45.176.268.256.584.23.901.013.317-.07.63-.24.901-.172.25-.42.442-.707.55a2.92 2.92 0 0 1-1.112.189c-.254 0-.507-.027-.754-.081a2.998 2.998 0 0 1-.699-.217 2.49 2.49 0 0 1-.579-.36l.47-.82c.217.17.462.3.725.388.27.09.552.135.837.135.267.014.534-.042.772-.162a.536.536 0 0 0 .25-.647.457.457 0 0 0-.094-.155.748.748 0 0 0-.322-.18l-.505-.108h-.12c-.312-.041-.62-.11-.919-.208a1.316 1.316 0 0 1-.597-.513 1.402 1.402 0 0 1-.248-.9 1.57 1.57 0 0 1 .23-.902c.163-.25.4-.444.68-.558.346-.125.715-.18 1.084-.162ZM13.034 3H2.924a.929.929 0 0 0-.65.264.892.892 0 0 0-.27.637v8.107a.884.884 0 0 0 .235.696.92.92 0 0 0 .685.295h10.11a.936.936 0 0 0 .697-.263.9.9 0 0 0 .268-.683V3.946a.887.887 0 0 0-.285-.654.922.922 0 0 0-.68-.247"/></svg>
