<svg xmlns="http://www.w3.org/2000/svg" width="16" height="16" fill="none"><path fill="#DD497E" fill-rule="evenodd" d="M7.508 7.17c.161.09.357.25.468.399v-.037a1.324 1.324 0 0 1 1.954-.186c.219.198.429.455.646.72.534.652 1.109 1.355 1.965 1.355a.824.824 0 0 0 .463-1.39c.926 0 1.454 1.39.463 2.316-.969.905-2.51.992-3.704.463a4.23 4.23 0 0 1-1.787-1.38v-.01c-.469.61-1.143 1.094-1.852 1.39-1.213.537-2.778.463-3.704-.463-.732-.732-.463-2.315.463-2.315a.824.824 0 0 0 .463 1.389c.859 0 1.43-.696 1.963-1.346.22-.268.433-.528.657-.729a1.324 1.324 0 0 1 1.542-.176Z" clip-rule="evenodd"/></svg>
