<svg xmlns="http://www.w3.org/2000/svg" width="16" height="16" fill="none"><path fill="#76D04B" fill-rule="evenodd" d="M8.344 13.924a.567.567 0 0 1-.568 0L3.073 11.21a.568.568 0 0 1-.284-.492V5.285c0-.203.108-.39.284-.492l4.703-2.717a.569.569 0 0 1 .568 0l4.704 2.717c.175.101.284.289.284.492v5.432c0 .204-.109.391-.285.493l-4.703 2.714Zm2.552-7.34.21.121a.344.344 0 0 1 .172.3l-.005 4.425a.172.172 0 0 1-.258.15l-1.697-.973a.348.348 0 0 1-.173-.299V8.241a.344.344 0 0 0-.173-.299l-.722-.416a.336.336 0 0 0-.345 0l-.722.416a.344.344 0 0 0-.173.299v2.067a.348.348 0 0 1-.172.3l-1.698.971a.165.165 0 0 1-.171 0 .17.17 0 0 1-.086-.149l-.006-4.425c0-.125.066-.239.172-.3l.21-.12c-.322-.477-.516-1.192-.274-2.261 0 0 .545 1.525 1.639 1.475l1.281-.738a.34.34 0 0 1 .158-.045h.03a.334.334 0 0 1 .157.045L9.53 5.8c1.094.05 1.638-1.475 1.638-1.475.242 1.07.05 1.785-.273 2.26Z" clip-rule="evenodd"/></svg>
