<svg xmlns="http://www.w3.org/2000/svg" width="16" height="16" fill="none"><g clip-path="url(#a)"><path fill="#457CE7" d="m7.804 9.795-1.788 2.973-2.965-5.092L3.045 13H1V4h2.068l2.995 5.332V6.92l1.741 2.876Zm.689-3.75c.014-.025 0-2.02.004-2.045h-2.07c0 .031-.003 2.015 0 2.045h2.066Zm6.308 4.217a.431.431 0 0 0 .148-.166.464.464 0 0 0 .05-.223c-.005-1.805-1.383-3.35-3.082-3.35-.51 0-1.013.134-1.463.392a3.16 3.16 0 0 0-1.112 1.084c-.006-.016-.874-1.46-.883-1.476H6.43L8.39 9.795 6.476 13h2.018l.87-1.42.885 1.42h1.998l-1.812-3.033a.449.449 0 0 1-.047-.192c0-.212.039-.422.115-.618.076-.196.188-.374.33-.524.14-.15.307-.27.492-.35a1.44 1.44 0 0 1 .58-.124h.012c.854 0 .997.546 1.181.798.364.505 1.09.284 1.09.941.001.076.021.15.057.215a.42.42 0 0 0 .15.155.387.387 0 0 0 .405-.006Z"/></g><defs><clipPath id="a"><path fill="#fff" d="M1 4h14v9H1z"/></clipPath></defs></svg>
