<svg xmlns="http://www.w3.org/2000/svg" data-name="Calque 1" viewBox="0 0 16 16"><path d="M6.52 9.1a4.19 4.19 0 0 0-2 1.69c-.09.27-.08.46 0 .56a.71.71 0 0 0 .48.16h.15c.59-.17 1.09-1.15 1.31-2.39m4.92-1.92a7.41 7.41 0 0 0-2.73.8h.15a5.84 5.84 0 0 0 1.26.1 6 6 0 0 0 1.72-.1.32.32 0 0 0 .22-.37.5.5 0 0 0-.49-.45M5.11 4.5 5 4.56a1 1 0 0 0 0 1 3.77 3.77 0 0 0 1.63 1.86c-.06-1.24-.44-2.58-1.39-2.89h-.13m-1.62 6.55a2.39 2.39 0 0 1 .11-.6A4.79 4.79 0 0 1 6 8.23a4.69 4.69 0 0 1-2-2.2 2 2 0 0 1 .15-2.12 1.13 1.13 0 0 1 .95-.41 1.19 1.19 0 0 1 .45.08c1.25.41 2 1.83 2.08 3.83a9.18 9.18 0 0 1 3.79-1.23h.13A1.52 1.52 0 0 1 13 7.52a1.31 1.31 0 0 1-.83 1.39 6 6 0 0 1-2 .26A7 7 0 0 1 8.55 9l-.66-.16-.32-.08c-.19 1.65-.86 3.31-2 3.64a1.32 1.32 0 0 1-.47.08 1.77 1.77 0 0 1-1.16-.42 1.3 1.3 0 0 1-.41-.94v-.07M12.5 2h-9A1.54 1.54 0 0 0 2 3.54v9A1.54 1.54 0 0 0 3.5 14h9a1.54 1.54 0 0 0 1.5-1.5v-9A1.54 1.54 0 0 0 12.5 2" style="fill:#dd2a40"/></svg>
