<svg xmlns="http://www.w3.org/2000/svg" width="16" height="16" fill="none"><path fill="#FF437A" fill-rule="evenodd" d="M5.923 6.32V4l2.085 1.162-2.085 1.159Zm4.177.01 2.1 1.17-2.1 1.171V6.329ZM8.008 9.837 5.923 11V8.68l2.085 1.158Z" clip-rule="evenodd"/><path fill="#5EA9FB" fill-rule="evenodd" d="M2 4a2 2 0 0 1 2-2h8a2 2 0 0 1 2 2v8a2 2 0 0 1-2 2h-1l-.75-1.5h1.25a1 1 0 0 0 1-1v-7a1 1 0 0 0-1-1h-7a1 1 0 0 0-1 1v7a1 1 0 0 0 1 1h2.357L8 10.5l2 3.5H4a2 2 0 0 1-2-2V4Zm1.8 3.5 2.123 1.18V6.32L3.8 7.5Zm6.3 1.171L8.008 9.838 10.1 11V8.671ZM8.008 5.162 10.1 6.33V4L8.008 5.162Z" clip-rule="evenodd"/></svg>
