<svg xmlns="http://www.w3.org/2000/svg" width="16" height="16" fill="none"><g clip-path="url(#a)"><path fill="#8D1614" d="m8 8.962 6 1.423v1.122c0 .184-.11.353-.284.435L8.23 14.545a.538.538 0 0 1-.458 0l-5.487-2.603A.485.485 0 0 1 2 11.507v-1.122l6-1.423Z"/><path fill="#DC382C" d="M7.77 7.647a.538.538 0 0 1 .46 0L14 10.385l-5.77 2.737a.537.537 0 0 1-.46 0L2 10.385l5.77-2.738Z"/><path fill="#8D1614" d="m8 6.115 6 1.423v1.123c0 .184-.11.353-.284.435L8.23 11.7a.538.538 0 0 1-.458 0L2.284 9.096A.485.485 0 0 1 2 8.661V7.538l6-1.423Z"/><path fill="#DC382C" d="M7.77 4.801a.538.538 0 0 1 .46 0L14 7.538l-5.77 2.738a.538.538 0 0 1-.46 0L2 7.538l5.77-2.737Z"/><path fill="#8D1614" d="m8 3.27 6 1.422v1.123c0 .184-.11.352-.284.435L8.23 8.853a.538.538 0 0 1-.458 0L2.284 6.25A.485.485 0 0 1 2 5.815V4.692L8 3.27Z"/><path fill="#DC382C" d="M7.77 1.955a.538.538 0 0 1 .46 0L14 4.692 8.23 7.43a.538.538 0 0 1-.46 0L2 4.692l5.77-2.737Z"/></g><defs><clipPath id="a"><path fill="#fff" d="M0 0h16v16H0z"/></clipPath></defs></svg>
