<svg xmlns="http://www.w3.org/2000/svg" width="16" height="16" fill="none"><path fill="#D87A35" fill-rule="evenodd" d="M4 6.21h.751v3.56h-.75V11h3.73V9.77h-.95V8.6H8s1 0 1 1.2v.477c0-.015-.008.293.106.409.115.116.255.204.41.259.155.054.483.055.483.055h2V9.769c-.5 0-1.12-.216-1.12-.785a.97.97 0 0 0-.37-.718c.3-.214.53-.511.655-.854.126-.343.143-.716.05-1.068a1.805 1.805 0 0 0-.57-.91c-.28-.24-.627-.391-.995-.434H4v1.21ZM6.78 7.4h1.63a.62.62 0 0 0 .481-.145.6.6 0 0 0 .207-.45.592.592 0 0 0-.207-.45.613.613 0 0 0-.48-.145H6.78V7.4Z" clip-rule="evenodd"/><path fill="#D87A35" d="M3 2h10v1H3zM3 13h10v1H3z"/></svg>
