<svg xmlns="http://www.w3.org/2000/svg" width="16" height="16" fill="none"><path fill="#FFC131" d="M10 6.5a1.5 1.5 0 1 1-3 0 1.5 1.5 0 0 1 3 0Z"/><path fill="#24C8DB" d="M6.5 8a1.5 1.5 0 1 0 0 3 1.5 1.5 0 0 0 0-3Z"/><path fill="#FFC131" fill-rule="evenodd" d="M10.895 10.362A4.64 4.64 0 0 1 9.306 11a3.15 3.15 0 0 0 .154-1.44 3.206 3.206 0 0 0 1.886-1.704 3.156 3.156 0 0 0-.527-3.427 3.242 3.242 0 0 0-1.552-.96 3.277 3.277 0 0 0-1.831.026 3.239 3.239 0 0 0-1.524 1.002c.046-.063-.051.06 0 0-.616.068-1.36.426-1.912.693.18-.568.472-1.098.862-1.559A4.609 4.609 0 0 1 7.03 2.204a4.663 4.663 0 0 1 2.606-.036c.854.236 1.62.71 2.208 1.365a4.518 4.518 0 0 1 1.104 2.33 4.49 4.49 0 0 1-.354 2.549 4.561 4.561 0 0 1-1.7 1.95Zm-6.84-4.343 1.129.137c.027-.216.076-.428.145-.632a4.641 4.641 0 0 0-1.274.495Z" clip-rule="evenodd"/><path fill="#24C8DB" fill-rule="evenodd" d="M4.105 5.64A4.639 4.639 0 0 1 5.706 5a3.148 3.148 0 0 0-.18 1.446 3.205 3.205 0 0 0-1.872 1.7 3.155 3.155 0 0 0 .527 3.426c.413.46.952.794 1.552.96.6.165 1.235.156 1.83-.026.595-.183 1.038-.534 1.437-1.006-.047.064.051-.06 0 0 .617-.069 1.448-.426 2-.693a4.526 4.526 0 0 1-.863 1.563 4.609 4.609 0 0 1-2.168 1.426 4.663 4.663 0 0 1-2.605.036 4.613 4.613 0 0 1-2.208-1.365 4.49 4.49 0 0 1-.75-4.877 4.561 4.561 0 0 1 1.699-1.95Z" clip-rule="evenodd"/></svg>
