<svg xmlns="http://www.w3.org/2000/svg" width="16" height="16" fill="none"><path fill="#D86EAD" fill-rule="evenodd" d="M7.5 3.5v9h4.1l1.732 1.444A.998.998 0 0 1 13 14H7a1 1 0 0 1-1-1V3a1 1 0 0 1 1-1h6a1 1 0 0 1 1 1v4.298c-.403-.646-.947-1.066-1.5-1.225V3.5h-5ZM5 4H3a1 1 0 0 0-1 1v6a1 1 0 0 0 1 1h2v-1.5H3.5v-5H5V4Zm5.59 6.02L9.198 8.179c-.49.9-.384 2.014.337 2.735.595.596 1.743.582 2.533.348l1.11.98S13.925 13 14 13v-2.5l-.69-.545c.233-.79.095-1.928-.501-2.524-.72-.72-1.682-.77-2.582-.28l1.842 1.39-.338 1.142-1.142.338Z" clip-rule="evenodd"/></svg>
