<svg xmlns="http://www.w3.org/2000/svg" width="16" height="16" fill="none"><path fill="#CE84DA" fill-rule="evenodd" d="M12.608 4.157A6.002 6.002 0 0 0 9.538 2.2l.243 4.988 2.827-3.03Zm-7.526-1.4a5.973 5.973 0 0 1 3.473-.732l.18 4.04-3.653-3.309ZM2.258 6.254A6.007 6.007 0 0 1 4.22 3.339l2.966 2.648-4.93.268Zm.414 4.507a5.974 5.974 0 0 1-.626-3.51l3.902-.181-3.276 3.691Zm3.498 2.954a6.012 6.012 0 0 1-2.98-2.129l2.72-2.929.26 5.058Zm4.697-.444a5.973 5.973 0 0 1-3.674.674l-.2-4.088 3.874 3.414Zm2.927-3.707a6.005 6.005 0 0 1-2.076 3.145L8.542 9.897l5.252-.332Zm-.637-4.633a5.973 5.973 0 0 1 .811 3.688l-4.303.193 3.492-3.881Z" clip-rule="evenodd"/></svg>
