<?xml version="1.0" encoding="UTF-8"?>
<svg width="256px" height="332px" viewBox="0 0 256 332" version="1.1" xmlns="http://www.w3.org/2000/svg" preserveAspectRatio="xMidYMid">
    <title>Obsidian</title>
    <defs>
        <radialGradient cx="72.8188161%" cy="96.9336384%" fx="72.8188161%" fy="96.9336384%" r="163.793124%" gradientTransform="translate(0,7282, 0,9693), scale(1, 0,534), rotate(-104,5452), translate(-0,7282, -0,9693)" id="radialGradient-1">
            <stop stop-color="#FFFFFF" stop-opacity="0.4" offset="0%"></stop>
            <stop stop-color="#000000" stop-opacity="0.1" offset="100%"></stop>
        </radialGradient>
        <radialGradient cx="52.9165858%" cy="90.6316753%" fx="52.9165858%" fy="90.6316753%" r="190.361461%" gradientTransform="translate(0,5292, 0,9063), scale(1, 0,5013), rotate(-82,4659), translate(-0,5292, -0,9063)" id="radialGradient-2">
            <stop stop-color="#FFFFFF" stop-opacity="0.6" offset="0%"></stop>
            <stop stop-color="#FFFFFF" stop-opacity="0.1" offset="100%"></stop>
        </radialGradient>
        <radialGradient cx="31.1735808%" cy="97.1379223%" fx="31.1735808%" fy="97.1379223%" r="178.71402%" gradientTransform="translate(0,3117, 0,9714), scale(1, 0,5782), rotate(-77,6806), translate(-0,3117, -0,9714)" id="radialGradient-3">
            <stop stop-color="#FFFFFF" stop-opacity="0.8" offset="0%"></stop>
            <stop stop-color="#FFFFFF" stop-opacity="0.4" offset="100%"></stop>
        </radialGradient>
        <radialGradient cx="71.8134715%" cy="99.9936686%" fx="71.8134715%" fy="99.9936686%" r="92.0858865%" gradientTransform="translate(0,7181, 0,9999), scale(0,8704, 1), rotate(-120,7097), translate(-0,7181, -0,9999)" id="radialGradient-4">
            <stop stop-color="#FFFFFF" stop-opacity="0.3" offset="0%"></stop>
            <stop stop-color="#000000" stop-opacity="0.3" offset="100%"></stop>
        </radialGradient>
        <radialGradient cx="117.012845%" cy="34.768667%" fx="117.012845%" fy="34.768667%" r="328.728831%" gradientTransform="translate(1,1701, 0,3477), scale(1, 0,1938), rotate(102,0372), translate(-1,1701, -0,3477)" id="radialGradient-5">
            <stop stop-color="#FFFFFF" stop-opacity="0" offset="0%"></stop>
            <stop stop-color="#FFFFFF" stop-opacity="0.2" offset="100%"></stop>
        </radialGradient>
        <radialGradient cx="-9.43113772%" cy="8.71165644%" fx="-9.43113772%" fy="8.71165644%" r="153.492398%" gradientTransform="translate(-0,0943, 0,0871), scale(1, 0,8196), rotate(45,3951), translate(0,0943, -0,0871)" id="radialGradient-6">
            <stop stop-color="#FFFFFF" stop-opacity="0.2" offset="0%"></stop>
            <stop stop-color="#FFFFFF" stop-opacity="0.4" offset="100%"></stop>
        </radialGradient>
        <radialGradient cx="103.901931%" cy="-22.1716021%" fx="103.901931%" fy="-22.1716021%" r="394.770981%" gradientTransform="translate(1,039, -0,2217), scale(1, 0,2302), rotate(80,3803), translate(-1,039, 0,2217)" id="radialGradient-7">
            <stop stop-color="#FFFFFF" stop-opacity="0.1" offset="0%"></stop>
            <stop stop-color="#FFFFFF" stop-opacity="0.3" offset="100%"></stop>
        </radialGradient>
        <radialGradient cx="99.3483412%" cy="89.1929661%" fx="99.3483412%" fy="89.1929661%" r="203.824388%" gradientTransform="translate(0,9935, 0,8919), scale(0,5317, 1), rotate(-152,3144), translate(-0,9935, -0,8919)" id="radialGradient-8">
            <stop stop-color="#FFFFFF" stop-opacity="0.2" offset="0%"></stop>
            <stop stop-color="#FFFFFF" stop-opacity="0.2" offset="50%"></stop>
            <stop stop-color="#FFFFFF" stop-opacity="0.3" offset="100%"></stop>
        </radialGradient>
    </defs>
    <g>
        <path d="M209.055661,308.304559 C207.012625,323.234431 192.318488,334.942594 177.624351,330.856524 C156.801108,325.198888 132.677577,316.240965 110.989973,314.590821 L77.6727842,312.076316 C72.3205637,311.699652 67.2904402,309.380207 63.5286947,305.55432 L6.16655365,246.77777 C-0.0673651204,240.370851 -1.75016388,230.803829 1.92332678,222.654239 C1.92332678,222.654239 37.2835507,145.176059 38.6979597,141.168567 C39.9552121,137.161075 44.8270651,101.958008 47.655883,83.0992219 C48.4489959,78.0916875 50.9471638,73.511713 54.7279278,70.1338065 L122.462401,9.4713779 C126.972804,5.42536636 132.952134,3.41853659 138.990202,3.92418757 C145.028269,4.42983855 150.590539,7.4032062 154.365181,12.1430393 L211.413009,84.1207395 C214.605159,88.2312032 216.321201,93.2962949 216.284862,98.5005639 C216.284862,112.094606 217.463536,140.14705 225.085629,158.220053 C232.648708,174.474184 242.033478,189.816702 253.059495,203.952609 C255.790626,207.498396 256.101328,212.345343 253.845278,216.21082 C248.894846,224.618696 238.993984,240.805821 225.085629,261.471907 C216.280566,275.68132 210.775853,291.685264 208.977082,308.304559 L209.055661,308.304559 Z" fill-opacity="0.3" fill="#000000"></path>
        <path d="M209.605709,305.790054 C207.562673,320.798505 192.868536,332.506668 178.174398,328.499176 C157.429734,322.762962 133.384781,313.805038 111.618599,312.154895 L78.3799887,309.64039 C73.0152006,309.249857 67.9812082,306.90066 64.2358991,303.039815 L6.87375813,244.106108 C0.578575498,237.634624 -1.10568319,227.965732 2.63053126,219.746843 C2.63053126,219.746843 38.0693334,141.95435 39.4051641,137.86828 C40.7409948,133.860788 45.5342696,98.5791422 48.3630875,79.5631995 C49.1389856,74.5275023 51.638555,69.9171854 55.4351323,66.5192058 L123.169606,5.62104241 C127.690257,1.58395381 133.676047,-0.409503768 139.714539,0.111055907 C145.753031,0.631615582 151.309345,3.62008215 155.072385,8.37128204 L212.041635,80.6632954 C215.222941,84.7795838 216.937676,89.8408171 216.913488,95.0431198 C216.913488,108.71574 218.092162,136.846762 225.635677,154.998344 C233.193233,171.328985 242.577776,186.750214 253.609543,200.966635 C256.400618,204.512417 256.743277,209.403088 254.473904,213.303424 C249.444894,221.789878 239.62261,237.977003 225.635677,258.800246 C216.862771,273.075764 211.386344,289.129213 209.605709,305.790054 L209.605709,305.790054 Z" fill="#6C31E3"></path>
        <path d="M70.3650046,307.440198 C97.00304,253.456923 96.2958355,214.717833 84.9019856,187.215437 C74.5296532,161.756076 55.1208192,145.726107 39.8766338,135.746666 C39.5623207,137.239654 39.090851,138.654063 38.4622248,139.989893 L2.63053126,219.746843 C-1.08551495,227.981472 0.630300179,237.65243 6.9523364,244.106108 L64.2358991,303.039815 C66.0431995,304.847115 68.1648129,306.340102 70.3650046,307.440198 L70.3650046,307.440198 Z" fill="url(#radialGradient-1)"></path>
        <path d="M142.814175,197.902082 C149.964798,198.609287 156.958264,200.180852 163.873152,202.695357 C185.717913,210.867498 205.598217,229.254814 222.021076,264.693616 C223.19975,262.650581 224.378424,260.686124 225.635677,258.800246 C235.67199,243.907302 245.288515,228.735727 254.473904,213.303424 C256.765668,209.418888 256.454212,204.529015 253.688121,200.966635 C242.628964,186.75407 233.217968,171.332689 225.635677,154.998344 C218.092162,136.925341 216.992066,108.71574 216.913488,95.0431198 C216.913488,89.8569536 215.263344,84.7493657 212.041635,80.6632954 L155.072385,8.37128204 L154.129446,7.19260791 C158.294095,20.9438061 158.05836,31.9447647 155.465277,41.9242056 C153.107929,51.1964421 148.707545,59.6043176 144.071427,68.4836627 C142.499861,71.4696372 140.928296,74.5341899 139.435309,77.6773209 C132.04565,91.7909384 127.809555,107.34116 127.019941,123.252721 C126.234158,142.268663 130.084494,166.077881 142.735596,197.902082 L142.814175,197.902082 Z" fill="url(#radialGradient-2)"></path>
        <path d="M142.735596,197.902082 C130.084494,166.077881 126.234158,142.268663 127.019941,123.252721 C127.805724,104.393935 133.306203,90.249845 139.435309,77.6773209 L144.150005,68.4836627 C148.707545,59.6043176 153.02935,51.1964421 155.465277,41.9242056 C158.358357,30.4582958 157.89467,18.4024291 154.129446,7.19260791 C145.993296,-1.74678922 132.169155,-2.44852227 123.169606,5.62104241 L55.4351323,66.5192058 C51.638555,69.9171854 49.1389856,74.5275023 48.3630875,79.5631995 L40.1123686,134.253679 C40.1123686,134.803727 39.9552121,135.275197 39.8766338,135.825245 C55.1208192,145.726107 74.4510749,161.756076 84.9019856,187.136859 C86.9450207,192.165868 88.6737428,197.430613 89.9309952,203.166827 C107.10231,198.404947 124.958423,196.598079 142.735596,197.823504 L142.735596,197.902082 Z" fill="url(#radialGradient-3)"></path>
        <path d="M178.252977,328.499176 C192.868536,332.506668 207.562673,320.798505 209.605709,305.711476 C211.278825,291.400651 215.510766,277.507108 222.099654,264.693616 C205.598217,229.254814 185.717913,210.867498 163.951731,202.695357 C140.771139,194.051747 115.547513,196.959143 89.9309952,203.166827 C95.6672093,229.176236 92.2883435,263.200629 70.4435829,307.440198 C72.8795094,308.697451 75.6297491,309.404655 78.3799887,309.64039 L112.875852,312.233473 C131.577481,313.569304 159.472769,323.234431 178.252977,328.499176 L178.252977,328.499176 Z" fill="url(#radialGradient-4)"></path>
        <path d="M127.177098,122.074047 C126.312737,140.932833 128.670085,162.46328 141.321187,194.208903 L137.392274,193.816012 C125.998424,160.734558 123.483919,143.761651 124.34828,124.66713 C125.134063,105.572609 131.341746,90.8784712 137.470852,78.3059471 C139.042417,75.1628161 142.657018,69.2694455 144.228583,66.283471 C148.786123,57.4041259 151.850676,52.7680076 154.443759,44.6744453 C158.215516,33.3591736 157.429734,28.0158509 156.958264,22.6725282 C159.86566,41.9242056 148.786123,58.6613783 140.456826,75.712864 C132.745651,90.0358363 128.190777,105.843929 127.098519,122.074047 L127.177098,122.074047 Z" fill="url(#radialGradient-5)"></path>
        <path d="M88.6737428,188.551267 C90.2453083,192.008712 91.581139,194.83753 92.5240783,199.159335 L89.1452124,199.945117 C87.8093818,194.916108 86.7878642,191.301507 84.8234073,186.979702 C73.3509791,160.027354 54.9636627,146.118999 40.0337903,135.903823 C58.1067937,145.647529 76.7298449,160.970293 88.6737428,188.551267 Z" fill="url(#radialGradient-6)"></path>
        <path d="M92.6812348,202.616779 C98.9674969,232.083632 91.8954521,269.565469 71.0722091,306.025789 C88.5165862,269.879782 97.00304,235.226763 89.9309952,203.088248 L92.6812348,202.5382 L92.6812348,202.616779 Z" fill="url(#radialGradient-7)"></path>
        <path d="M164.658935,199.866539 C198.840485,212.674798 212.041635,240.727242 221.86392,264.222147 C209.684287,239.705725 192.789958,212.59622 163.401683,202.5382 C141.085452,194.83753 122.226666,195.780469 89.9309952,203.088248 L89.2237907,199.945117 C123.483919,192.08729 141.399766,191.144351 164.658935,199.945117 L164.658935,199.866539 Z" fill="url(#radialGradient-8)"></path>
    </g>
</svg>
