<svg xmlns="http://www.w3.org/2000/svg" width="16" height="16" fill="none"><path fill="#7C7CFF" fill-rule="evenodd" d="M2 8c0 4.84 1.16 6 6 6s6-1.16 6-6-1.16-6-6-6-6 1.16-6 6m4.183-2.875L4.169 9.453c-.09.21-.169.482-.169.717C4 11.245 4.797 12 5.935 12c.371 0 .68-.092.994-.186l.003-.001h.002c.324-.098.655-.197 1.066-.197.416 0 .738.098 1.057.195h.002l.003.002c.31.094.617.187 1.003.187C11.203 12 12 11.245 12 10.17c0-.235-.078-.507-.17-.717L9.817 5.125C9.477 4.395 8.824 4 8 4s-1.477.396-1.817 1.125m-.17 5.008L8 5.88l1.96 4.253c-.56-.26-1.267-.384-1.96-.384-.72 0-1.399.124-1.987.384" clip-rule="evenodd"/></svg>