<svg xmlns="http://www.w3.org/2000/svg" width="16" height="16" fill="none"><path fill="#7C7CFF" fill-rule="evenodd" d="m2.254 10.18 3.02-6.492C5.784 2.594 6.764 2 8 2c1.235 0 2.216.594 2.726 1.688l3.02 6.491c.137.316.254.723.254 1.076C14 12.868 12.804 14 11.098 14c-.581 0-1.043-.14-1.51-.282-.478-.146-.963-.293-1.588-.293-.618 0-1.114.148-1.602.295-.472.14-.937.28-1.496.28C3.196 14 2 12.868 2 11.255c0-.353.118-.76.255-1.076h-.001ZM8 4.82 5.02 11.2c.883-.39 1.902-.576 2.98-.576 1.04 0 2.099.186 2.942.575L7.999 4.82Z" clip-rule="evenodd"/></svg>
