<svg xmlns="http://www.w3.org/2000/svg" width="16" height="16" fill="none" viewBox="0 0 16 16"><path fill="#FF7E33" fill-rule="evenodd" d="M4 3h8a1 1 0 0 1 1 1v8a1 1 0 0 1-1 1H4a1 1 0 0 1-1-1V4a1 1 0 0 1 1-1M2 4a2 2 0 0 1 2-2h8a2 2 0 0 1 2 2v8a2 2 0 0 1-2 2H4a2 2 0 0 1-2-2zm7.924.905c-.095-.325-.143-.487-.236-.608a.8.8 0 0 0-.31-.24C9.238 4 9.075 4 8.75 4H7.26c-.326 0-.49 0-.627.058a.8.8 0 0 0-.31.239c-.094.12-.141.282-.237.606L4 12a8.4 8.4 0 0 1 2.493-.876l1.337-4.75a.18.18 0 0 1 .168-.132.18.18 0 0 1 .17.132l1.35 4.752c.881.161 1.715.46 2.483.874z" clip-rule="evenodd"/></svg>