<svg xmlns="http://www.w3.org/2000/svg" width="16" height="16" fill="none"><path fill="#B176E6" fill-rule="evenodd" d="M4 3h8a1 1 0 0 1 1 1v8a1 1 0 0 1-1 1H4a1 1 0 0 1-1-1V4a1 1 0 0 1 1-1ZM2 4a2 2 0 0 1 2-2h8a2 2 0 0 1 2 2v8a2 2 0 0 1-2 2H4a2 2 0 0 1-2-2V4Zm7.924.905c-.095-.325-.143-.487-.236-.608a.77.77 0 0 0-.31-.24C9.238 4 9.075 4 8.75 4H7.26c-.326 0-.49 0-.627.058a.77.77 0 0 0-.31.239c-.094.12-.141.282-.237.606L4 12a8.412 8.412 0 0 1 2.493-.876L7.83 6.374a.177.177 0 0 1 .168-.132c.078 0 .147.054.17.132l1.35 4.752c.881.161 1.715.46 2.483.874L9.924 4.905Z" clip-rule="evenodd"/></svg>
