<svg xmlns="http://www.w3.org/2000/svg" width="16" height="16" fill="none" viewBox="0 0 16 16"><path fill="#FF7E33" fill-rule="evenodd" d="M2.683 10.921 5.279 2.7a1 1 0 0 1 .954-.7h3.534a1 1 0 0 1 .954.699l2.596 8.222a1 1 0 0 1-.246 1.008l-1.778 1.778a1 1 0 0 1-.707.293H5.414a1 1 0 0 1-.707-.293L2.93 11.93a1 1 0 0 1-.246-1.008m7.24-7.016L12 10.377a8.4 8.4 0 0 0-2.482-.875L8.166 5.374a.18.18 0 0 0-.169-.132.18.18 0 0 0-.168.132L6.493 9.5c-.884.16-1.722.46-2.493.876l2.086-6.473c.096-.324.143-.486.236-.606a.8.8 0 0 1 .311-.24C6.771 3 6.933 3 7.26 3h1.49c.326 0 .49 0 .627.058a.8.8 0 0 1 .311.24c.093.12.14.282.236.607m.645 6.649c-.46.243-1.376.409-2.432.409-1.296 0-2.382-.25-2.67-.586a1.2 1.2 0 0 0-.126.554s-.068.692.708 1.173c0-.25.327-.452.73-.452.691 0 .69.373.69.677v.027c0 .46.454.854 1.099 1.02a.66.66 0 0 1-.15-.406c0-.439.415-.602.898-.792.385-.152.812-.32 1.106-.656a.9.9 0 0 0 .24-.591.8.8 0 0 0-.093-.377" clip-rule="evenodd"/></svg>