<svg xmlns="http://www.w3.org/2000/svg" width="16" height="16" fill="none" viewBox="0 0 16 16"><path fill="#909090" fill-opacity=".9" fill-rule="evenodd" d="M10.398 2.169a.5.5 0 0 1 .707 0l2.747 2.747a.5.5 0 0 1 .15.357v2.7a.5.5 0 0 1-.146.354l-2.743 2.745-.008.009-2.753 2.75a.5.5 0 0 1-.716-.008l-2.74-2.741-.002-.002-2.75-2.753a.5.5 0 0 1-.147-.354v-2.7a.5.5 0 0 1 .15-.358L4.895 2.17a.5.5 0 0 1 .707 0L8 4.566zm.354 1.06 2.043 2.044-2.043 2.046-2.046-2.046zM7.999 5.981l2.045 2.045L8 10.07 5.955 8.026zm-.708-.708L5.248 3.23 3.204 5.273 5.248 7.32z" clip-rule="evenodd"/></svg>