<svg xmlns="http://www.w3.org/2000/svg" data-name="Calque 1" viewBox="0 0 16 16"><path d="M8.83 4.39a.38.38 0 0 0 0 .1v2.56L7.18 8V3.1a.28.28 0 0 0 0-.09.11.11 0 0 0 0-.05L7 2.79 4.54 1.35a.43.43 0 0 0-.41 0L1.69 2.76h-.06V2.91a.34.34 0 0 0 0 .1v8.37a.38.38 0 0 0 .2.35l4.88 2.81h.27l4.89-2.82a.4.4 0 0 0 .2-.35V8.92l2.24-1.29a.38.38 0 0 0 .2-.35V4.49a.34.34 0 0 0 0-.1l-.07-.07L12 2.92a.43.43 0 0 0-.41 0L9 4.14l-.07.08Zm2.84 1.05L10 4.49l1.64-.94 1.63.94ZM4.33 4.05 2.7 3.11l1.63-.94L6 3.11Zm-.39 6.15H4v.06l2.24 1.27v2.07l-3.95-2.35V3.81l1.64.94v5.45Zm2.43-1.74-1.08.62-.55.32V4.75l1.63-.94Zm3.26-1.41V5.19l1.63.94V8Zm1.22 1.64L6.78 11l-1.63-.9 4.07-2.35Zm-3.67 3 4.08-2.33v1.86L7.18 13.6Zm6.53-6.53v1.89L12.07 8V6.13Z" style="fill:#d32222"/></svg>
