<svg xmlns="http://www.w3.org/2000/svg" width="16" height="16" fill="none"><path fill="#EEAC30" fill-rule="evenodd" d="M8 14A6 6 0 1 0 8 2a6 6 0 0 0 0 12ZM4.335 9.348c.24.138 1.105-.913 1.933-2.348.828-1.435 1.306-2.71 1.067-2.848-.24-.138-1.105.913-1.933 2.348-.829 1.435-1.306 2.71-1.067 2.848ZM6 11.464c.478.276 1.761-1.05 2.866-2.964C9.971 6.587 10.478 4.812 10 4.536 9.522 4.26 8.239 5.586 7.134 7.5 6.029 9.413 5.522 11.188 6 11.464ZM10.598 9.5c-.828 1.435-1.694 2.486-1.933 2.348-.24-.138.239-1.413 1.067-2.848.829-1.435 1.694-2.486 1.933-2.348.24.138-.238 1.413-1.067 2.848Z" clip-rule="evenodd"/></svg>
