<svg xmlns="http://www.w3.org/2000/svg" width="16" height="16" fill="none"><path fill="#EEAC30" fill-rule="evenodd" d="M8 14A6 6 0 1 0 8 2a6 6 0 0 0 0 12M4.335 9.348c.24.138 1.105-.913 1.933-2.348s1.306-2.71 1.067-2.848S6.23 5.065 5.402 6.5 4.096 9.21 4.335 9.348M6 11.464c.478.276 1.761-1.05 2.866-2.964S10.478 4.812 10 4.536 8.239 5.586 7.134 7.5 5.522 11.188 6 11.464M10.598 9.5c-.828 1.435-1.694 2.486-1.933 2.348S8.904 10.435 9.732 9c.829-1.435 1.694-2.486 1.933-2.348s-.238 1.413-1.067 2.848" clip-rule="evenodd"/></svg>