<svg xmlns="http://www.w3.org/2000/svg" data-name="Calque 1" viewBox="0 0 16 16"><circle cx="8" cy="8" r="6" style="fill:#fbb03b"/><path d="M12.25 6.47a.62.62 0 0 0-.55.32A2.71 2.71 0 0 1 10.29 5a5 5 0 0 1-.11-.47 5 5 0 0 1-.07-.58 3.5 3.5 0 0 0-.89.24 3.3 3.3 0 0 1 .13-1A3.7 3.7 0 0 0 7.77 4a4 4 0 0 1-.25-1 3.8 3.8 0 0 0-1.16 1.4 3.7 3.7 0 0 1-.59-.86 3.8 3.8 0 0 0-.59 1.73 4 4 0 0 1-.83-.58 3.6 3.6 0 0 0 .07 1.81 3.8 3.8 0 0 1-1-.23 3.8 3.8 0 0 0 .71 1.66 4.2 4.2 0 0 1-1 .14 3.8 3.8 0 0 0 1.26 1.3 3.8 3.8 0 0 1-.91.51 4 4 0 0 0 1.65.75 4 4 0 0 1-.66.77 3.9 3.9 0 0 0 1.8.13 3.8 3.8 0 0 1-.34 1A3.8 3.8 0 0 0 7.66 12a4.3 4.3 0 0 1 0 1 4.69 4.69 0 0 0 2.41-3.13 3.2 3.2 0 0 0 .13-1.06v-.22a9 9 0 0 0 2.11-.76 1.1 1.1 0 0 0 .39-.35.7.7 0 0 0 .13-.4.61.61 0 0 0-.58-.61m-.11 1a5.6 5.6 0 0 1-1.61.62h-.18c0-.37-.07-.71-.12-1a.45.45 0 0 0 0-.88.23.23 0 0 0-.14 0 3.2 3.2 0 0 1 0-.68 2.35 2.35 0 0 0 .67 1.06 3.8 3.8 0 0 0 1.42.86Zm-1.13-3.6"/><path d="M10.24 8.21a1.4 1.4 0 0 1 0-.25c0-.16-.08-.69-.1-.88v-.07h.1a.34.34 0 0 0 .23-.53.43.43 0 0 0-.28-.15h-.07l.08.07a.2.2 0 0 1 .07.13.23.23 0 0 1-.11.2s0 0-.06 0a4.5 4.5 0 0 1-.1-1.38c0-.1 0-.23.07-.29v-.11V5a2 2 0 0 0 0 .27A2.65 2.65 0 0 0 11.45 7a4 4 0 0 0 .72.34l.17.07s0 .09-.13.17a6 6 0 0 1-1.58.62c-.41.09-.38.08-.39.01" style="fill:#fff"/></svg>