<svg xmlns="http://www.w3.org/2000/svg" width="16" height="16" fill="none" viewBox="0 0 16 16"><path fill="#F4AA41" d="m10.848 3.443 1.055.41L13.6 5.844l1.055 2.52-.469 1.23c-.294.888-.825 1.683-1.698 2.343l-.586-.782s-.896 1.807-2.516 2.1c0 0-2.405.453-3.654-.206-.802-.422-1.035-1.034-1.035-1.034l-.8-.801-.372.547-.488-.02-1.27-1.699-.41-1.269.04-1.054.546-1.289 1.133-1.738s.625-1.152 1.914-.917c0 0 1.523-1.133 2.772-.957 1.25.176 1.074-.293 3.085.625"/><path fill="#EA5A47" d="m7.92 11.097.722.566h.586l.02.898-.177.82-.253.45-.664.35-1.074-.136-.371-.41-.234-.996.058-.937.469.059z"/><path fill="#49371F" d="M9.015 7.202s.61.42.928.226a.676.676 0 1 0-.703-1.154c-.318.194-.225.928-.225.928m-.141 4.573a.35.35 0 0 1 .698-.057zm-.356 2.3-.102-.334zm-1.436-.135-.228.266zm2.141-2.193.349-.028v.008l.006.091a6.3 6.3 0 0 1-.032 1.035c-.036.29-.103.614-.232.893-.128.276-.341.556-.693.664l-.205-.67c.085-.025.178-.104.263-.289.085-.183.14-.425.172-.683a5.4 5.4 0 0 0 .023-.993zm-.602 2.663c-.363.111-.72.126-1.02.085-.288-.04-.568-.136-.747-.29l.456-.53c.035.03.164.096.385.126.21.028.464.019.72-.06zm-1.767-.204a1.2 1.2 0 0 1-.258-.347 2.6 2.6 0 0 1-.205-.532 4 4 0 0 1-.067-1.633l.692.106a3.3 3.3 0 0 0 .05 1.344c.045.164.098.293.148.386a1 1 0 0 0 .066.108q.03.039.03.036zM6.617 7.19s-.603.416-.918.224a.668.668 0 0 1 .695-1.142c.315.192.223.919.223.919"/><path stroke="#49371F" stroke-linecap="round" stroke-width=".7" d="M10.35 10.063c.112.844-.475 1.4-1.003 1.603-.65.248-1.192-.097-1.476-.549-.218.435-.704.805-1.476.549-.48-.256-1.115-.76-1.004-1.603"/><path stroke="#49371F" stroke-linecap="round" stroke-width=".7" d="M11.68 6.67c.543 1.208.12 3.051-.028 3.602a.46.46 0 0 0 .03.32l.466.982c.146.308.56.364.78.104.748-.888 2.005-2.67 1.534-3.91-1.654-4.36-3.718-4.251-3.718-4.251-.666-.453-3.07-1.626-5.813.205 0 0-2.023-.403-3.5 3.968-.423 1.25.803 3.015 1.534 3.9.219.264.637.21.784-.1l.462-.976a.46.46 0 0 0 .03-.32c-.147-.55-.57-2.393-.028-3.602"/><path fill="#49371F" d="M5.595 12.337a.35.35 0 1 1-.384.585zm-1.572-1.425.318-.146v.001l.02.04.066.13c.06.109.146.261.259.43.228.344.542.728.91.97l-.385.585c-.483-.317-.859-.792-1.108-1.167a6 6 0 0 1-.39-.68l-.006-.012-.002-.004v-.001z"/><path stroke="#49371F" stroke-linecap="round" stroke-width=".7" d="M11.8 11.03s-.548 1.084-1.422 1.602"/><path fill="#49371F" d="M7.52 10.754a.35.35 0 1 1 .7 0zm0 .363v-.364h.7v.364zm1.077-2.788c.25 0 .475.155.563.39l.38 1.014-.87.358a.6.6 0 0 1-.49-.014c-.249-.123-.385-.128-.623 0a.6.6 0 0 1-.547-.006l-.81-.426.403-.95a.6.6 0 0 1 .554-.366z"/></svg>