<svg xmlns="http://www.w3.org/2000/svg" width="16" height="16" fill="none" viewBox="0 0 16 16"><path fill="#AAA596" fill-rule="evenodd" d="M6.616 2.266c-.318.297-.694.53-2.007 1.56C2.907 5.16 1.217 6.844 1.217 9.067c0 2.467 1.77 4.933 6.488 4.933 4.864 0 7.078-1.85 7.078-4.933 0-2.466-1.622-4.008-3.392-5.24-.29-.203-.61-.41-.938-.62-1.005-.65-2.1-1.356-2.748-2.207-.621.752-.836 1.029-1.09 1.266m3.645 7.212a1.13 1.13 0 1 0 0-2.26 1.13 1.13 0 0 0 0 2.26m-4.522 0a1.13 1.13 0 1 0 0-2.26 1.13 1.13 0 0 0 0 2.26m1.13 1.13c0 .377.227 1.131 1.131 1.131s1.13-.754 1.13-1.13z" clip-rule="evenodd"/></svg>