<svg xmlns="http://www.w3.org/2000/svg" width="16" height="16" fill="none" viewBox="0 0 16 16"><mask id="path-1-inside-1_1712_15" fill="#fff"><path d="M4.609 3.826C6.968 1.976 6.304 2.696 7.705 1c.86 1.13 2.507 2.004 3.686 2.826 1.77 1.233 3.392 2.775 3.392 5.241 0 3.083-2.214 4.933-7.078 4.933-4.718 0-6.488-2.466-6.488-4.933 0-2.223 1.69-3.907 3.392-5.24"/></mask><path fill="#AAA596" d="M7.705 1 8.9.092 7.753-1.414 6.55.045zM4.61 3.826l.925 1.18zm10.174 5.241h-1.5zm-3.392-5.24.858-1.232zM6.55.044c-.761.921-.834 1.02-1.015 1.176-.103.09-.236.19-.545.423-.294.221-.705.53-1.306 1.002l1.851 2.36c.578-.453.97-.748 1.258-.965.274-.206.506-.378.706-.552.427-.37.724-.76 1.364-1.534zm-2.866 2.6C1.991 3.973-.283 6.06-.283 9.068h3c0-1.438 1.107-2.72 2.817-4.06zM-.283 9.068c0 1.598.581 3.26 1.974 4.509C3.074 14.815 5.093 15.5 7.705 15.5v-3c-2.106 0-3.33-.548-4.012-1.159-.672-.601-.976-1.406-.976-2.274zM7.705 15.5c2.583 0 4.72-.484 6.247-1.599 1.606-1.172 2.33-2.89 2.33-4.834h-3c0 1.14-.382 1.888-1.099 2.411-.796.582-2.197 1.022-4.478 1.022zm8.578-6.433c0-3.254-2.192-5.187-4.034-6.472l-1.715 2.462c1.696 1.182 2.749 2.332 2.749 4.01zm-4.034-6.472c-.321-.223-.67-.448-.997-.659a35 35 0 0 1-.969-.64C9.647.855 9.181.463 8.9.092L6.51 1.908c.578.76 1.365 1.37 2.062 1.853.358.248.722.483 1.053.696.34.22.64.413.908.6z" mask="url(#path-1-inside-1_1712_15)"/><path fill="#AAA596" d="M9.13 10.609H6.87c0 .377.226 1.13 1.13 1.13s1.13-.754 1.13-1.13"/><path fill="#AAA596" fill-rule="evenodd" d="M10.26 9.478a1.13 1.13 0 1 0 0-2.26 1.13 1.13 0 0 0 0 2.26m-4.52 0a1.13 1.13 0 1 0 0-2.26 1.13 1.13 0 0 0 0 2.26" clip-rule="evenodd"/></svg>