<svg xmlns="http://www.w3.org/2000/svg" width="16" height="16" fill="none"><path fill="#567ED6" d="M8.17 1C6.458 1 3.5 1.5 2 4c1.5-1 3.222-.74 4.207-.31a4.667 4.667 0 0 1 4.95 7.746c.2.042.41.064.629.064 1.772 0 3.205-1.502 3.205-3.354l.003-.009c.003-.005.006-.012.006-.016C14.984 4.195 11.928 1 8.17 1Z"/><path fill="#8FB3FD" d="M9.97 10.894a3.5 3.5 0 0 0-2.528-6.35c.786.835 1.131 2.027 1.142 3.45.008 1.14.52 2.245 1.385 2.9Z"/><path fill="#61AF30" d="M4.843 4.564a4.667 4.667 0 0 0 5.093 7.684C10.906 12.688 12 13 14 12c-1.333 2.5-4.459 3-6.17 3C4.073 15 1.017 11.805 1 7.88c0-.005.003-.012.006-.017l.003-.01c0-1.85 1.433-3.353 3.205-3.353.218 0 .428.022.629.064Z"/><path fill="#61AF30" d="M6.03 5.106c.759.575 1.246 1.495 1.36 2.482-.76.304-1.81.965-2.45 2.113a3.496 3.496 0 0 1 1.09-4.595ZM7.478 8.83c.142.98.537 1.895 1.249 2.594a3.486 3.486 0 0 1-2.963-.732c.359-.942 1.097-1.54 1.714-1.863Z"/></svg>
