<svg xmlns="http://www.w3.org/2000/svg" width="16" height="16" fill="none" viewBox="0 0 16 16"><path fill="#AE7F64" d="M11.88 7H2.5v2.5a4.5 4.5 0 0 0 8.53 2h.85a2.24 2.24 0 1 0 0-4.48zm0 3.49h-.5V8h.5a1.25 1.25 0 0 1 0 2.5zM5.722 2.154v1.06c-.142.03-.293.123-.418.198a.86.86 0 0 0-.302.296.85.85 0 0 0-.115.456q0 .363.209.61a.67.67 0 0 0 .54.242q.286.003.465-.158.18-.163.294-.54l.239-.841q.2-.7.635-1.042t1.138-.347q.618.004 1.09.274.469.266.734.742.264.476.264 1.092 0 .907-.503 1.46c-.338.368-.953.605-1.555.675V5.18q.443-.077.669-.328.225-.251.225-.652 0-.415-.225-.666a.72.72 0 0 0-.559-.253.67.67 0 0 0-.464.163q-.183.162-.281.502l-.235.842q-.195.71-.66 1.05-.47.341-1.185.338-.605.003-1.048-.247a1.75 1.75 0 0 1-.69-.704 2.15 2.15 0 0 1-.248-1.045q0-.867.49-1.365c.327-.335.715-.561 1.496-.661"/></svg>