<svg xmlns="http://www.w3.org/2000/svg" width="16" height="16" fill="none"><path fill="#50B2DD" fill-rule="evenodd" d="M3 2a1 1 0 0 0-1 1v7a1 1 0 0 0 1 1h10a1 1 0 0 0 1-1V3a1 1 0 0 0-1-1H3Zm9.688 8V8.687h-1.279V3H8.788v1.313h1.343v4.375H8.852V10h3.835ZM5.941 3.875c1.444 0 2.344.806 2.484 2.137H7.198c-.103-.663-.572-1.029-1.256-1.029-.884 0-1.369.626-1.369 1.766v.446c0 1.14.485 1.766 1.369 1.766.69 0 1.148-.35 1.256-.992h1.228C8.291 9.269 7.392 10 5.953 10c-1.687 0-2.64-.965-2.64-2.694v-.668c0-1.724.943-2.763 2.629-2.763Z" clip-rule="evenodd"/><path fill="#CE3D40" fill-rule="evenodd" d="m8 11.5 2.25 1.5H14v.5a1 1 0 0 1-1 1H9.75L8 13.5l-1.75 1H3a1 1 0 0 1-1-1V13h3.75L8 11.5Z" clip-rule="evenodd"/></svg>
