<svg xmlns="http://www.w3.org/2000/svg" width="16" height="16" fill="none" viewBox="0 0 16 16"><path fill="#909090" fill-opacity=".9" d="M6.868 13.974q-.713-.166-1.422-.336l-2.262-.541.024-.127q.054-.263.07-.53v-.02q.1-.533.31-1.04a.1.1 0 0 0-.009-.098 48 48 0 0 1-.603-1.247l-.013.01a.4.4 0 0 1-.246.102.3.3 0 0 1-.103-.02c-.117-.045-.155-.153-.181-.241l-.028-.075-.014-.027V9.78l-.005-.017a1 1 0 0 0-.044-.08.47.47 0 0 1-.09-.312c.02-.146.172-.205.285-.247l.061-.024v-.008l-.192-.524a39 39 0 0 1-.517-1.454 39 39 0 0 1-.633-2.036 8 8 0 0 1-.254-1.225.9.9 0 0 1 .057-.375q.026-.082.042-.157v-.02a.2.2 0 0 1 .09-.108.25.25 0 0 1 .143-.037h.026a.84.84 0 0 1 .452.075q.163.079.271.215.22.244.388.518c.173.28.353.56.526.833q.234.364.47.743c.26-.34.491-.683.734-1.045l.068-.103q.225-.311.485-.6c.127-.145.248-.282.358-.427.14-.178.353-.229.523-.27h.008a.3.3 0 0 1 .07-.009.3.3 0 0 1 .154.047q.067.042.133.08.197.102.348.256l.039-.01c1.487-.394 2.575-.78 3.528-1.257a4 4 0 0 1 .388-.163.6.6 0 0 1 .208-.039.4.4 0 0 1 .165.03q.078.03.136.087a.44.44 0 0 1 .096.17.4.4 0 0 1 .01.192.97.97 0 0 1-.35.63l-.146.125c-.388.336-.794.683-1.227.993-.035.028-.033.032-.026.053q.066.187.125.373a7 7 0 0 0 .321.845l.016-.008 1.576-.886c1.345-.757 2.741-1.543 4.12-2.31.104-.06.167-.097.252-.097.116 0 .182.07.274.164l.02.021.01.026.013.011q.05.035.078.087a.2.2 0 0 1 .026.11.25.25 0 0 1-.055.113.3.3 0 0 1-.106.078l-.998.583-1.034.603c-.398.24-.808.478-1.205.708l-.283.167a.84.84 0 0 1 .328.234c.146.14.287.312.287.542v.009c-.012.178-.052.38-.255.523a10 10 0 0 0-.93.84q-.16.158-.32.31a1 1 0 0 0-.101.14l-.046.07c-.441.58-.795 1.221-1.137 1.841-.155.28-.31.57-.48.85a1.5 1.5 0 0 1-.603.56q-.434.238-.893.437h-.008a.17.17 0 0 0-.105.063.14.14 0 0 0-.026.112c.029.273-.14.439-.31.564a.2.2 0 0 0-.047.076q-.167.4-.258.82a8 8 0 0 1-.14.511l.053.05-.05.082q-.101.214-.243.411l-.06.087zm-2.821-1.37q.125.017.246.047c.763.184 1.48.35 2.197.5l.023.005.018.01.219-.652.233-.69.007-.027a.4.4 0 0 1 .14-.226l.005-.005a.6.6 0 0 0 .19-.204.5.5 0 0 0 .064-.26 1 1 0 0 1 .026-.18l.018-.087c0-.076.024-.151.072-.214a.4.4 0 0 1 .193-.14 4 4 0 0 0 1.364-.917v-.01a1 1 0 0 0 .208-.259c.297-.619.697-1.183 1.046-1.679.348-.496.84-1.119 1.483-1.657a.66.66 0 0 0 .215-.36.15.15 0 0 0-.005-.1.17.17 0 0 0-.066-.08.25.25 0 0 0-.12-.042.14.14 0 0 0-.085.03c-.558.375-1.193.63-1.808.881l-.192.078-.116.049c-.255.106-.495.205-.613.433l-.012.022-.02.017a.2.2 0 0 1-.067.041l-.011.007c-.233.13-.49.22-.76.264a1 1 0 0 1-.099.007v-.14.14a.2.2 0 0 0-.07.008c-1.416.802-2.863 1.605-4.255 2.384l-.01.006.187.36q.282.57.628 1.112a.3.3 0 0 1 .068.192.3.3 0 0 1-.076.19c-.26.323-.363.704-.465 1.132zM1.834 4.2l.04.222q.042.281.118.556c.33 1.12.734 2.231 1.126 3.31l.166.46 1.729-.878 2-1.016h.007l-.104-.06c-.298-.174-.603-.35-.893-.554l-.045.165a.2.2 0 0 1-.07.121.26.26 0 0 1-.137.06h-.048a.4.4 0 0 1-.157-.04.34.34 0 0 1-.12-.1l-.034-.035c-.164-.148-.139-.28-.108-.34q.08-.162.135-.33.045-.133.103-.266v-.01c.055-.123.107-.24.256-.24.087 0 .155.046.257.11l.01.007.052.047c.398.382.867.698 1.386.933q.14.075.302.085a.43.43 0 0 0 .256-.095l.016-.011-.016-.041a.3.3 0 0 0-.078-.13c-.26-.21-.525-.434-.834-.712L7 5.284c-.336-.3-.684-.61-.94-.992a1.2 1.2 0 0 0-.265-.312.2.2 0 0 0-.066-.044.2.2 0 0 0-.079-.018.2.2 0 0 0-.1.028.2.2 0 0 0-.07.069c-.116.189-.25.369-.381.542-.13.174-.258.344-.368.524-.111.18-.225.338-.34.498a7 7 0 0 0-.45.694.1.1 0 0 0 0 .117q.052.116.104.222.136.257.219.534c.07.198-.064.28-.15.305a.3.3 0 0 1-.1.02.26.26 0 0 1-.128-.039.23.23 0 0 1-.086-.093l-.005-.007a12 12 0 0 0-.201-.303 9 9 0 0 1-.291-.447c-.155-.258-.31-.526-.46-.785-.305-.539-.622-1.094-1.009-1.597m6.86 1.782.319-.177q-.063-.16-.124-.323a11 11 0 0 0-.335-.818q-.214.106-.396.25-.143.11-.3.204zm-1.81-1.963.217.254q.133.159.27.315.134-.063.265-.117.247-.09.461-.233A29 29 0 0 0 9.874 2.87c.07-.054.089-.089.085-.103v-.049h-.006a1 1 0 0 0-.113.057l-.039.021q-.21.107-.412.204-.646.34-1.335.603l-.364.131a21 21 0 0 1-.805.285"/></svg>