<svg xmlns="http://www.w3.org/2000/svg" width="16" height="16" fill="none"><path fill="#E28C4D" d="M6.868 13.974c-.475-.11-.949-.223-1.422-.336l-2.262-.541.024-.127c.036-.175.06-.352.07-.53v-.02c.066-.355.17-.703.31-1.04a.103.103 0 0 0-.009-.098 47.766 47.766 0 0 1-.603-1.247l-.013.01a.414.414 0 0 1-.246.102.274.274 0 0 1-.103-.02c-.117-.045-.155-.153-.181-.241a.701.701 0 0 0-.028-.075l-.014-.027V9.78c0-.006-.004-.011-.005-.017a.887.887 0 0 0-.044-.08.466.466 0 0 1-.09-.312c.02-.146.172-.205.285-.247l.061-.024v-.008l-.192-.524a38.83 38.83 0 0 1-.517-1.454 39.176 39.176 0 0 1-.633-2.036 7.763 7.763 0 0 1-.254-1.225.876.876 0 0 1 .057-.375c.017-.055.032-.107.042-.157v-.02a.213.213 0 0 1 .09-.108.251.251 0 0 1 .143-.037h.026a.843.843 0 0 1 .452.075c.108.052.2.125.271.215.146.162.276.336.388.518.173.28.353.56.526.833.155.243.314.49.47.743.26-.34.491-.683.734-1.045l.068-.103c.15-.207.311-.408.485-.6.127-.145.248-.282.358-.427.14-.178.353-.229.523-.27h.008a.261.261 0 0 1 .07-.009c.055.002.109.018.154.047s.089.054.133.08c.13.067.248.154.348.256l.039-.01c1.487-.394 2.575-.78 3.528-1.257a4.43 4.43 0 0 1 .388-.163.632.632 0 0 1 .208-.039.433.433 0 0 1 .165.03c.051.02.098.05.136.087a.44.44 0 0 1 .096.17.412.412 0 0 1 .01.192.972.972 0 0 1-.35.63l-.146.125c-.388.336-.794.683-1.227.993-.035.028-.033.032-.026.053.045.125.085.249.125.373a6.96 6.96 0 0 0 .321.845l.016-.008 1.576-.886c1.345-.757 2.741-1.543 4.12-2.31.104-.06.167-.097.252-.097.116 0 .182.07.274.164l.02.021.01.026.013.011c.033.023.06.053.078.087a.22.22 0 0 1 .026.11.248.248 0 0 1-.055.113.286.286 0 0 1-.106.078l-.998.583-1.034.603c-.398.24-.808.478-1.205.708l-.283.167a.844.844 0 0 1 .328.234c.146.14.287.312.287.542v.009c-.012.178-.052.38-.255.523a9.85 9.85 0 0 0-.93.84c-.107.104-.213.21-.32.31a1 1 0 0 0-.101.14l-.046.07c-.441.58-.795 1.221-1.137 1.841-.155.28-.31.57-.48.85a1.483 1.483 0 0 1-.603.56c-.29.159-.587.304-.893.437h-.008a.17.17 0 0 0-.105.063.14.14 0 0 0-.026.112c.029.273-.14.439-.31.564a.217.217 0 0 0-.047.076c-.111.266-.198.54-.258.82a7.806 7.806 0 0 1-.14.511l.053.05-.05.082c-.067.143-.149.28-.243.411l-.06.087-.107-.026Zm-2.821-1.37c.083.012.165.027.246.047.763.184 1.48.35 2.197.5l.023.005.018.01.219-.652.233-.69.007-.027a.394.394 0 0 1 .14-.226l.005-.005a.582.582 0 0 0 .19-.204.518.518 0 0 0 .064-.26.855.855 0 0 1 .026-.18 1.25 1.25 0 0 0 .018-.087c0-.076.024-.151.072-.214a.414.414 0 0 1 .193-.14 4.012 4.012 0 0 0 1.364-.917v-.01a1 1 0 0 0 .208-.259c.297-.619.697-1.183 1.046-1.679.348-.496.84-1.119 1.483-1.657a.66.66 0 0 0 .215-.36.153.153 0 0 0-.005-.1.172.172 0 0 0-.066-.08.253.253 0 0 0-.12-.042.143.143 0 0 0-.085.03c-.558.375-1.193.63-1.808.881l-.192.078-.116.049c-.255.106-.495.205-.613.433l-.012.022-.02.017a.245.245 0 0 1-.067.041l-.011.007c-.233.13-.49.22-.76.264a.558.558 0 0 1-.099.007v-.14.14a.163.163 0 0 0-.07.008c-1.416.802-2.863 1.605-4.255 2.384l-.01.006.187.36c.188.38.397.751.628 1.112a.293.293 0 0 1 .068.192.295.295 0 0 1-.076.19c-.26.323-.363.704-.465 1.132v.014ZM1.834 4.2l.04.222c.028.187.067.373.118.556.33 1.12.734 2.231 1.126 3.31l.166.46 1.729-.878a646.444 646.444 0 0 0 2-1.016h.007l-.104-.06c-.298-.174-.603-.35-.893-.554l-.045.165a.213.213 0 0 1-.07.121.255.255 0 0 1-.137.06h-.048a.383.383 0 0 1-.157-.04.343.343 0 0 1-.12-.1.389.389 0 0 0-.034-.035c-.164-.148-.139-.28-.108-.34.053-.108.098-.218.135-.33.031-.088.063-.178.103-.266v-.01c.055-.123.107-.24.256-.24.087 0 .155.046.257.11l.01.007.052.047c.398.382.867.698 1.386.933.092.05.195.078.302.085a.425.425 0 0 0 .256-.095l.016-.011a.54.54 0 0 1-.016-.041.287.287 0 0 0-.078-.13c-.26-.21-.525-.434-.834-.712L7 5.284c-.336-.3-.684-.61-.94-.992a1.165 1.165 0 0 0-.265-.312.205.205 0 0 0-.066-.044.224.224 0 0 0-.079-.018.216.216 0 0 0-.1.028.19.19 0 0 0-.07.069c-.116.189-.25.369-.381.542-.13.174-.258.344-.368.524-.111.18-.225.338-.34.498a6.875 6.875 0 0 0-.45.694.104.104 0 0 0 0 .117c.034.078.07.15.104.222.09.171.164.35.219.534.07.198-.064.28-.15.305a.285.285 0 0 1-.1.02.264.264 0 0 1-.128-.039.229.229 0 0 1-.086-.093l-.005-.007a12.128 12.128 0 0 0-.201-.303 9.26 9.26 0 0 1-.291-.447c-.155-.258-.31-.526-.46-.785-.305-.539-.622-1.094-1.009-1.597Zm6.86 1.782.319-.177c-.043-.107-.083-.215-.124-.323a10.815 10.815 0 0 0-.335-.818c-.142.07-.275.154-.396.25-.095.073-.195.141-.3.204l.836.864Zm-1.81-1.963.217.254c.09.105.178.212.27.315.089-.043.178-.08.265-.117.164-.06.319-.138.461-.233.63-.448 1.21-.895 1.777-1.368.07-.054.089-.089.085-.103v-.049h-.006a.973.973 0 0 0-.113.057l-.039.021c-.141.07-.276.14-.412.204-.43.227-.876.428-1.335.603l-.364.131c-.256.096-.531.195-.805.285Z"/></svg>
