<svg xmlns="http://www.w3.org/2000/svg" width="16" height="16" fill="none" viewBox="0 0 16 16"><path fill="#909090" fill-opacity=".9" d="m14.493 10.128-4.714 4.321c-.02.017-.047.026-.066.017l-6.44-1.584c-.028-.009-.047-.026-.047-.044L1.491 6.933c-.01-.026 0-.044.019-.061l4.714-4.321c.02-.017.047-.026.066-.017l6.44 1.584c.028.009.047.026.047.044l1.725 5.905c.02.026.01.044-.01.061M8.176 5.426l-6.327 1.55c-.009 0-.018.017-.009.026l4.63 4.243c.009.009.028.009.028-.009l1.697-5.801c.01 0-.01-.018-.02-.01"/></svg>