<svg xmlns="http://www.w3.org/2000/svg" width="16" height="16" fill="none" viewBox="0 0 16 16"><path fill="#B75FAF" d="M12.892 4.489 8.716 2.078a1.35 1.35 0 0 0-1.352 0l-4.176 2.41a1.34 1.34 0 0 0-.676 1.161v4.822a1.36 1.36 0 0 0 .676 1.17l4.176 2.411a1.35 1.35 0 0 0 1.352 0l4.176-2.41a1.36 1.36 0 0 0 .676-1.171V5.649a1.34 1.34 0 0 0-.676-1.16M11.53 7.324H10.2l-.323 1.402h1.291v1.008H9.644l-.363 1.594H8l.373-1.593H6.759l-.373 1.583H5.094l.364-1.594h-1.01V8.716H5.69l.292-1.392h-1.15v-1.01h1.402l.363-1.593H7.9l-.363 1.614H9.13l.364-1.594h1.3l-.372 1.594h1.11zM6.99 8.726h1.585l.322-1.402H7.304zm.324-1.402L6.99 8.726h1.584l.322-1.402zm0 0L6.99 8.726h1.584l.322-1.402z"/></svg>