<svg xmlns="http://www.w3.org/2000/svg" width="16" height="16" fill="none"><mask id="a" width="12" height="12" x="2" y="2" maskUnits="userSpaceOnUse" style="mask-type:alpha"><path fill="#fff" d="m4.2 12.15-2-1.5a.495.495 0 0 1-.2-.4v-4.5a.496.496 0 0 1 .2-.4l2-1.5a.453.453 0 0 0-.137.4v7.5a.453.453 0 0 0 .137.4Z"/><path fill="#fff" d="M13.777 4.083a.503.503 0 0 0-.622.057l-.035.035L9.13 8l-2.208 2.117-2.042 1.958-.035.035a.486.486 0 0 1-.345.14.502.502 0 0 1-.3-.1l-2-1.5a.5.5 0 0 0 .68-.075L5.1 7.998l1.823-2.115 3.192-3.708A.492.492 0 0 1 10.492 2c.1 0 .196.028.278.083l3.008 2Z"/><path fill="#fff" d="m13.777 11.917-3 2a.506.506 0 0 1-.657-.09l-3.197-3.71L5.1 7.997 2.88 5.423a.502.502 0 0 0-.68-.072l2-1.5a.502.502 0 0 1 .486-.064c.06.024.114.06.159.104l.035.035 2.043 1.958L9.13 8l3.99 3.825.035.035a.484.484 0 0 0 .345.14.503.503 0 0 0 .277-.083Z"/><path fill="#fff" d="M14 4.5v7a.502.502 0 0 1-.223.417l-3 2A.502.502 0 0 0 11 13.5v-11a.506.506 0 0 0-.23-.418l3.008 2A.505.505 0 0 1 14 4.5Z"/></mask><g mask="url(#a)"><path fill="#583F85" d="m4.2 12.15-2-1.5a.496.496 0 0 1-.2-.4v-4.5a.496.496 0 0 1 .2-.4l2-1.5a.453.453 0 0 0-.137.4v7.5a.453.453 0 0 0 .137.4Z"/><g filter="url(#b)"><path fill="#6D4EA3" d="M13.777 4.083a.502.502 0 0 0-.622.057l-.035.035-2.125 2.038L9.13 8l-2.208 2.117-2.042 1.958-.035.035a.486.486 0 0 1-.345.14.502.502 0 0 1-.3-.1l-2-1.5a.5.5 0 0 0 .68-.075L4 9.275l1.1-1.277 1.822-2.115 3.193-3.708A.493.493 0 0 1 10.492 2c.1 0 .196.028.278.083l3.007 2Z"/></g><g filter="url(#c)"><path fill="#A377D9" d="m13.777 11.917-3 2a.506.506 0 0 1-.657-.09l-3.198-3.71L5.1 7.997 4 6.724l-1.12-1.3a.502.502 0 0 0-.68-.073l2-1.5a.502.502 0 0 1 .486-.064c.06.024.114.06.159.104l.035.035 2.042 1.958L9.13 8l1.868 1.79 2.122 2.035.035.035a.486.486 0 0 0 .345.14.5.5 0 0 0 .277-.083Z"/></g><g filter="url(#d)"><path fill="#D59DFF" d="M14 4.5v7a.502.502 0 0 1-.223.417l-3 2A.501.501 0 0 0 11 13.5v-11a.506.506 0 0 0-.23-.418l3.008 2A.505.505 0 0 1 14 4.5Z"/></g></g><defs><filter id="b" width="21.939" height="20.612" x="-2.981" y="-1.886" color-interpolation-filters="sRGB" filterUnits="userSpaceOnUse"><feFlood flood-opacity="0" result="BackgroundImageFix"/><feColorMatrix in="SourceAlpha" result="hardAlpha" values="0 0 0 0 0 0 0 0 0 0 0 0 0 0 0 0 0 0 127 0"/><feOffset dy=".246"/><feGaussianBlur stdDeviation=".246"/><feColorMatrix values="0 0 0 0 0 0 0 0 0 0 0 0 0 0 0 0 0 0 0.24 0"/><feBlend in2="BackgroundImageFix" result="effect1_dropShadow_821_59"/><feColorMatrix in="SourceAlpha" result="hardAlpha" values="0 0 0 0 0 0 0 0 0 0 0 0 0 0 0 0 0 0 127 0"/><feOffset dy="1.295"/><feGaussianBlur stdDeviation="2.59"/><feColorMatrix values="0 0 0 0 0 0 0 0 0 0 0 0 0 0 0 0 0 0 0.22 0"/><feBlend in2="effect1_dropShadow_821_59" result="effect2_dropShadow_821_59"/><feBlend in="SourceGraphic" in2="effect2_dropShadow_821_59" result="shape"/></filter><filter id="c" width="21.939" height="20.612" x="-2.981" y="-.136" color-interpolation-filters="sRGB" filterUnits="userSpaceOnUse"><feFlood flood-opacity="0" result="BackgroundImageFix"/><feColorMatrix in="SourceAlpha" result="hardAlpha" values="0 0 0 0 0 0 0 0 0 0 0 0 0 0 0 0 0 0 127 0"/><feOffset dy=".246"/><feGaussianBlur stdDeviation=".246"/><feColorMatrix values="0 0 0 0 0 0 0 0 0 0 0 0 0 0 0 0 0 0 0.24 0"/><feBlend in2="BackgroundImageFix" result="effect1_dropShadow_821_59"/><feColorMatrix in="SourceAlpha" result="hardAlpha" values="0 0 0 0 0 0 0 0 0 0 0 0 0 0 0 0 0 0 127 0"/><feOffset dy="1.295"/><feGaussianBlur stdDeviation="2.59"/><feColorMatrix values="0 0 0 0 0 0 0 0 0 0 0 0 0 0 0 0 0 0 0.22 0"/><feBlend in2="effect1_dropShadow_821_59" result="effect2_dropShadow_821_59"/><feBlend in="SourceGraphic" in2="effect2_dropShadow_821_59" result="shape"/></filter><filter id="d" width="34.316" height="42.921" x="-4.773" y="-13.46" color-interpolation-filters="sRGB" filterUnits="userSpaceOnUse"><feFlood flood-opacity="0" result="BackgroundImageFix"/><feColorMatrix in="SourceAlpha" result="hardAlpha" values="0 0 0 0 0 0 0 0 0 0 0 0 0 0 0 0 0 0 127 0"/><feOffset/><feGaussianBlur stdDeviation=".13"/><feColorMatrix values="0 0 0 0 0 0 0 0 0 0 0 0 0 0 0 0 0 0 0.24 0"/><feBlend in2="BackgroundImageFix" result="effect1_dropShadow_821_59"/><feColorMatrix in="SourceAlpha" result="hardAlpha" values="0 0 0 0 0 0 0 0 0 0 0 0 0 0 0 0 0 0 127 0"/><feOffset/><feGaussianBlur stdDeviation="7.771"/><feColorMatrix values="0 0 0 0 0 0 0 0 0 0 0 0 0 0 0 0 0 0 0.3 0"/><feBlend in2="effect1_dropShadow_821_59" result="effect2_dropShadow_821_59"/><feBlend in="SourceGraphic" in2="effect2_dropShadow_821_59" result="shape"/></filter></defs></svg>
