<svg xmlns="http://www.w3.org/2000/svg" width="16" height="16" fill="none"><path fill="#67CB65" d="M5 9V8h2v1H5ZM8 9V8h2v1H8ZM5 10v1h2v-1H5ZM8 10v1h2v-1H8Z"/><path fill="#67CB65" fill-rule="evenodd" d="M2 3.917C2 3.41 2.448 3 3 3h4l1.083 1h5c.553 0 1 .41 1 .917L14 13.083c0 .507-.448.917-1 .917H3c-.552 0-1-.41-1-.917V3.917ZM4.5 6a.5.5 0 0 1 .5.5V7h2v-.5a.5.5 0 0 1 1 0V7h2v-.5a.5.5 0 0 1 1 0V7h1.5a.5.5 0 0 1 0 1H11v1h1.5a.5.5 0 0 1 0 1H11v1h1.5a.5.5 0 0 1 0 1H11v.5a.5.5 0 0 1-1 0V12H8v.5a.5.5 0 0 1-1 0V12H5v.5a.5.5 0 0 1-1 0V12h-.5a.5.5 0 0 1 0-1H4v-1h-.5a.5.5 0 0 1 0-1H4V8h-.5a.5.5 0 0 1 0-1H4v-.5a.5.5 0 0 1 .5-.5Z" clip-rule="evenodd"/></svg>
