<svg xmlns="http://www.w3.org/2000/svg" width="16" height="16" fill="none"><path fill="#2FAD62" fill-rule="evenodd" d="M7.906 14.485c-.328.09-.662.16-1 .21v-1.727A6.038 6.038 0 1 1 9.95 1.31c.083.024.165.055.246.086l.077.03.005.001.11.044a5.024 5.024 0 0 1 .695.346c1.913 1.123 3.048 3.436 2.905 5.701-.217 3.415-2.88 6.09-6.082 6.966ZM6.757 3.115a.663.663 0 0 0-.329-.042.734.734 0 0 0-.476.238.78.78 0 0 0-.202.504c.007.183.052.362.132.525.158.298.374.559.633.767.26.208.559.358.877.443.303-.449.158-1.248-.087-1.805a1.645 1.645 0 0 0-.276-.434.684.684 0 0 0-.272-.196ZM4.734 6.507a2.922 2.922 0 0 1-.463-.29.692.692 0 0 1-.233-.34.714.714 0 0 1-.001-.418.692.692 0 0 1 .232-.342.657.657 0 0 1 .38-.142.69.69 0 0 1 .121 0c.189.003.375.046.547.126.29.125.55.31.769.541.218.233.388.508.5.81a2.141 2.141 0 0 1-1.852.055Zm.818.932c.349-.018.795-.04 1.034.124-.078.52-.724 1.187-1.27 1.43a1.22 1.22 0 0 1-.546.125.671.671 0 0 1-.422-.088.705.705 0 0 1-.289-.33.733.733 0 0 1 .176-.824c.133-.128.29-.227.462-.29.2-.087.415-.134.632-.137.067-.002.142-.006.223-.01Zm1.183 1.446c.243-.236.529-.419.842-.538.31.48.218 1.416-.017 1.939a2.935 2.935 0 0 1-.266.477.702.702 0 0 1-.802.182.73.73 0 0 1-.332-.283.766.766 0 0 1-.118-.427c.003-.178.045-.354.121-.514.135-.316.33-.6.572-.836Zm2.643-3.812a2.234 2.234 0 0 1-.831.465v-.002c-.35-.44-.266-1.241-.03-1.803.074-.168.163-.328.267-.478a.675.675 0 0 1 .607-.251.718.718 0 0 1 .49.242c.127.142.195.33.191.524a1.304 1.304 0 0 1-.121.527 2.321 2.321 0 0 1-.573.776Zm.644 4.686c.077.164.118.344.122.527.039.602-.86.959-1.29.477-.112-.13-.201-.28-.266-.44a2.171 2.171 0 0 1 .085-1.845c.3.102.576.27.808.49.233.221.417.49.54.79Zm1.254-2.209c.162.077.316.169.462.275a.727.727 0 0 1 .212.823.7.7 0 0 1-.285.34.665.665 0 0 1-.426.094 1.356 1.356 0 0 1-.547-.125c-.286-.12-.546-.3-.762-.529a2.345 2.345 0 0 1-.496-.798 2.361 2.361 0 0 1 1.21-.217c.217.003.432.05.632.137Z" clip-rule="evenodd"/></svg>
