<svg xmlns="http://www.w3.org/2000/svg" width="16" height="16" fill="none"><path fill="#2FAD62" fill-rule="evenodd" d="M7.906 14.485q-.492.135-1 .21v-1.727A6.038 6.038 0 1 1 9.95 1.31q.124.038.246.086l.077.03.005.001.11.044a5 5 0 0 1 .695.346c1.913 1.123 3.048 3.436 2.905 5.701-.217 3.415-2.88 6.09-6.082 6.966ZM6.757 3.115a.66.66 0 0 0-.329-.042.73.73 0 0 0-.476.238.78.78 0 0 0-.202.504c.007.183.052.362.132.525.158.298.374.559.633.767.26.208.559.358.877.443.303-.449.158-1.248-.087-1.805a1.7 1.7 0 0 0-.276-.434.7.7 0 0 0-.272-.196M4.734 6.507a3 3 0 0 1-.463-.29.7.7 0 0 1-.233-.34.7.7 0 0 1-.001-.418.7.7 0 0 1 .232-.342.66.66 0 0 1 .38-.142 1 1 0 0 1 .121 0c.189.003.375.046.547.126.29.125.55.31.769.541.218.233.388.508.5.81a2.14 2.14 0 0 1-1.852.055m.818.932c.349-.018.795-.04 1.034.124-.078.52-.724 1.187-1.27 1.43a1.2 1.2 0 0 1-.546.125.67.67 0 0 1-.422-.088.7.7 0 0 1-.289-.33.73.73 0 0 1 .176-.824c.133-.128.29-.227.462-.29.2-.087.415-.134.632-.137zm1.183 1.446c.243-.236.529-.419.842-.538.31.48.218 1.416-.017 1.939a3 3 0 0 1-.266.477.7.7 0 0 1-.802.182.73.73 0 0 1-.332-.283.77.77 0 0 1-.118-.427 1.25 1.25 0 0 1 .121-.514c.135-.316.33-.6.572-.836m2.643-3.812a2.2 2.2 0 0 1-.831.465v-.002c-.35-.44-.266-1.241-.03-1.803q.111-.253.267-.478a.68.68 0 0 1 .607-.251.72.72 0 0 1 .49.242c.127.142.195.33.191.524a1.3 1.3 0 0 1-.121.527 2.3 2.3 0 0 1-.573.776m.644 4.686c.077.164.118.344.122.527.039.602-.86.959-1.29.477a1.6 1.6 0 0 1-.266-.44 2.17 2.17 0 0 1 .085-1.845c.3.102.576.27.808.49.233.221.417.49.54.79Zm1.254-2.209q.243.116.462.275a.73.73 0 0 1 .212.823.7.7 0 0 1-.285.34.67.67 0 0 1-.426.094 1.4 1.4 0 0 1-.547-.125 2.2 2.2 0 0 1-.762-.529 2.35 2.35 0 0 1-.496-.798 2.36 2.36 0 0 1 1.21-.217c.217.003.432.05.632.137" clip-rule="evenodd"/></svg>