<svg xmlns="http://www.w3.org/2000/svg" width="16" height="16" fill="none"><path fill="#FBB03B" fill-rule="evenodd" d="M4.277 3.297a5.996 5.996 0 0 1 7.572.099A6.006 6.006 0 0 1 10.1 13.63l-.17.063.495-1.299.026-.014a5.01 5.01 0 0 0 2.554-4.59 5.02 5.02 0 0 0-2.942-4.352 5.006 5.006 0 0 0-6.785 2.895 5 5 0 0 0-.176 2.725l.016.064a5.036 5.036 0 0 0 4.878 3.89l.102-.002.1-.002a.19.19 0 0 0 .16-.115l.226-.549.96-2.33L7.898 5.99h1.12l1.092 2.748 1.085-2.744h1.066l-2.73 6.645-.178.43-.083.204A1.18 1.18 0 0 1 8.237 14q-.117.006-.238.005h-.013a6 6 0 0 1-2.551-.579l-.116-.05a6 6 0 0 1-3.158-6.75 6 6 0 0 1 2.116-3.33ZM6.83 7.059a1.05 1.05 0 0 0-.595-.172 1.04 1.04 0 0 0-.775.32 1.14 1.14 0 0 0-.318.817 1.12 1.12 0 0 0 .315.808 1.05 1.05 0 0 0 .775.319 1.03 1.03 0 0 0 .991-.646l.046-.107.958.325-.052.123a2.05 2.05 0 0 1-1.94 1.276A2.07 2.07 0 0 1 4.71 9.52a2.02 2.02 0 0 1-.619-1.497 2.03 2.03 0 0 1 .619-1.505 2.07 2.07 0 0 1 1.524-.602 2.05 2.05 0 0 1 1.942 1.277l.05.122-.954.325-.047-.103a1.05 1.05 0 0 0-.396-.478Z" clip-rule="evenodd"/></svg>