<svg xmlns="http://www.w3.org/2000/svg" width="16" height="16" fill="none"><path fill="#03589C" d="M13.151 7.015v4.72h-2l-.06-.07-7.41-7.43h6.61q.14.047.26.13l.12.1 2.41 2.48z"/><path fill="#41C4FF" d="m10.681 4.565-.12-.1a1 1 0 0 0-.26-.13h-6.62l3.58-1.92a1.4 1.4 0 0 1 .68-.15c.314.022.61.157.83.38z"/><path fill="#2CB7F6" d="m11.111 11.735-3.54-1.17-3.25 1.17-.23-.22-.07-.08a1.6 1.6 0 0 1-.29-.38 1.4 1.4 0 0 1-.05-.55v-6.28z"/><path fill="#02589B" d="m3.871 11.225-1.81-1.79a1.36 1.36 0 0 1-.38-.91v-.27l.08-.2 1.92-3.83v6.28a1.3 1.3 0 0 0 .08.48 1 1 0 0 0 .11.24"/><path fill="#2CB7F6" d="M11.111 11.695h-6.79l3.25-1.13z"/><path fill="#41C4FF" d="M11.111 11.695v2.04h-4.75l-2.04-2.04z"/></svg>