<svg xmlns="http://www.w3.org/2000/svg" width="16" height="16" fill="none" viewBox="0 0 16 16"><path fill="#F04B8A" d="M9.5 15c-.443-1.636-1.783-3-4-3-2.586-1.779-1.479-6 2.512-6S11.945 9.7 12 10.5h-.5s0-.5-.5-1-2.175-.4-3.444-.227V10c.258 0 3.052-.136 3.944 1.5V14z"/><path fill="#F04B8A" d="M8 2.139q.59-.04 1.188-.01L9.5 4l.595-1.787q.459.061.905.162V4.5l1.087-1.813c.72.255 1.374.591 1.913 1l-2.372 2.706C10 5 6.723 5.163 5.5 6c-1.584 1.083-2 2.5-2 4H3l-.977-.651a6 6 0 0 1-.037-.596L3 8.5l-.996-.332c.026-.379.08-.772.17-1.168H3.5l-1.17-.586q.116-.386.28-.762L4 6 2.959 4.959c.2-.343.433-.668.7-.965L5 5l-.773-1.547a4.8 4.8 0 0 1 .95-.606L6.5 4.5l-.34-2.037q.39-.116.802-.193L8 4z"/></svg>