<svg xmlns="http://www.w3.org/2000/svg" width="16" height="16" fill="none" viewBox="0 0 16 16"><path fill="#C84E72" d="M10.278 4.055a5.6 5.6 0 0 0-1.946.07 3 3 0 0 0-4.208 4.208 5.5 5.5 0 0 0-.07 1.945 4.5 4.5 0 1 1 6.224-6.224M9.5 6.5a3 3 0 0 1-3.996 2.83L5.5 9.5c0 .508.095.994.267 1.44q.358.06.733.06a4.5 4.5 0 0 0 4.44-5.233 4 4 0 0 0-1.61-.263c.11.311.17.647.17.996"/><path fill="#6FC278" d="M7.668 11.876a5.5 5.5 0 0 1-1.946.07 4.5 4.5 0 1 0 6.224-6.224 5.6 5.6 0 0 1-.07 1.946 3 3 0 0 1-4.208 4.208m-.998-1.379-.17.003c-.508 0-.994-.095-1.44-.267a4.5 4.5 0 0 1 5.173-5.173 4 4 0 0 1 .263 1.61 3 3 0 0 0-3.827 3.827"/><path fill="#C84E72" d="M10.983 6.892a4.6 4.6 0 0 0-.176-1.7 4.5 4.5 0 0 0-1.699-.175c.25.437.392.943.392 1.483.54 0 1.046.142 1.483.392"/><path fill="#6FC278" d="M6.5 9.5c-.54 0-1.046-.142-1.483-.392a4.6 4.6 0 0 0 .176 1.7 4.5 4.5 0 0 0 1.699.175A3 3 0 0 1 6.5 9.5"/></svg>