<svg xmlns="http://www.w3.org/2000/svg" width="16" height="16" fill="none"><path fill="#6FC278" fill-rule="evenodd" d="M13 4H8.89a.94.94 0 0 0-.69.29C7.51 5 6 6.53 5.29 7.21a1 1 0 0 0-.29.7V13a1 1 0 0 0 1 1h7a1 1 0 0 0 1-1V5a1 1 0 0 0-1-1ZM8.667 7.3a.3.3 0 0 1 .3-.3h1.066a.3.3 0 0 1 .3.3v1.367H11.7a.3.3 0 0 1 .3.3v1.066a.3.3 0 0 1-.3.3h-1.367V11.7a.3.3 0 0 1-.3.3H8.967a.3.3 0 0 1-.3-.3v-1.367H7.3a.3.3 0 0 1-.3-.3V8.967a.3.3 0 0 1 .3-.3h1.367V7.3Z" clip-rule="evenodd"/><path fill="#C84E72" fill-rule="evenodd" d="M5.89 2H10a1 1 0 0 1 1 1H7.89a.94.94 0 0 0-.69.29C6.51 4 5 5.53 4.29 6.21a1 1 0 0 0-.29.7V12H3a1 1 0 0 1-1-1V5.91a1 1 0 0 1 .29-.7C3 4.53 4.51 3 5.2 2.29A.94.94 0 0 1 5.89 2Z" clip-rule="evenodd"/></svg>
