<svg xmlns="http://www.w3.org/2000/svg" id="Calque_1" data-name="Calque 1" viewBox="0 0 16 16"><defs><style>.cls-1{fill:#2396ec}</style></defs><path d="M7.01 4h1.5v1.5h-1.5zM5.01 4h1.5v1.5h-1.5zM5.01 6h1.5v1.5h-1.5zM7.01 6h1.5v1.5h-1.5zM9.01 6h1.5v1.5h-1.5zM3.01 6h1.5v1.5h-1.5z" class="cls-1"/><path d="M4.76 9.5a.75.75 0 0 1 0 1.5.76.76 0 0 1-.76-.73.76.76 0 0 1 .75-.73M12.51 5A2 2 0 0 0 12 7.5c0 .5-1 .5-1 .5H1s-1 5.49 4.5 5.5a8.31 8.31 0 0 0 7.5-5s2 0 2.5-1.5a2.06 2.06 0 0 0-1-.22 2.61 2.61 0 0 0-1 .22s0-1.5-1-2" class="cls-1"/></svg>
