<svg xmlns="http://www.w3.org/2000/svg" width="16" height="16" fill="none"><path fill="#88BA12" fill-rule="evenodd" d="M4.575 6.304a.75.75 0 0 1 .417.975l-2 5A.75.75 0 1 1 1.6 11.72l2-5a.75.75 0 0 1 .975-.417ZM8.181 4.304a.75.75 0 0 1 .418.975l-2 5a.75.75 0 1 1-1.392-.558l2-5a.75.75 0 0 1 .974-.417ZM10.278 6.304a.75.75 0 0 1 .418.975l-2 5a.75.75 0 1 1-1.392-.558l2-5a.75.75 0 0 1 .974-.417ZM13.886 4.304a.75.75 0 0 1 .417.975l-2 5a.75.75 0 0 1-1.392-.558l2-5a.75.75 0 0 1 .975-.417Z" clip-rule="evenodd"/></svg>
