<svg xmlns="http://www.w3.org/2000/svg" width="16" height="16" fill="none" viewBox="0 0 16 16"><path fill="#909090" fill-opacity=".9" fill-rule="evenodd" d="M7.661 3H4a1 1 0 0 0-1 1v8a1 1 0 0 0 1 1h5.155a15 15 0 0 1-.375-1.685c-1.893.284-3.401-.372-4.092-.925a.5.5 0 1 1 .624-.78c.494.395 1.722.957 3.324.715q-.075-.594-.134-1.281c-.01-.104-.036-.115-.042-.118h-.001c-.036-.022-.125-.051-.305-.051-.17 0-.363.025-.567.057l-.074.011A4 4 0 0 1 7 9a.5.5 0 0 1-.5-.5c0-2.078.518-3.975 1.161-5.5m.986 0 .088.04c-.612 1.352-1.13 3.04-1.221 4.891.19-.028.417-.056.64-.056.248 0 .559.033.828.199.303.186.482.493.516.882q.053.604.116 1.128a6.6 6.6 0 0 0 1.138-.518.5.5 0 0 1 .496.868 7.5 7.5 0 0 1-1.492.656c.12.73.265 1.344.443 1.91H12a1 1 0 0 0 1-1V4a1 1 0 0 0-1-1zM4 2a2 2 0 0 0-2 2v8a2 2 0 0 0 2 2h8a2 2 0 0 0 2-2V4a2 2 0 0 0-2-2zm1.5 4a.5.5 0 0 0-1 0v1a.5.5 0 0 0 1 0zm5.5-.5a.5.5 0 0 1 .5.5v1a.5.5 0 0 1-1 0V6a.5.5 0 0 1 .5-.5" clip-rule="evenodd"/></svg>