<svg xmlns="http://www.w3.org/2000/svg" width="16" height="16" fill="none"><path fill="#909090" d="M14.35 7.38a3.51 3.51 0 0 1-2.46 1.33 3.84 3.84 0 0 0-.09-1.58.44.44 0 0 0 0-.1c-.07-.23-.15-.44-.24-.66 1.35-1.57 3.24-.72 2.79 1.01ZM8.33 3.65a7.54 7.54 0 0 0-2.33.2c0-1.96 3.83-3.1 2.33-.2ZM5.62 7.35c0 .65-3-.08-2.79-.83C3 6 5.5 6.5 5.62 7.35Z"/><path fill="#909090" d="M11.16 7.77C11.08 4.53 6.61 3 4.7 5.67c.73.28 1.53.76 1.66 1.59.12 1.3-1.95 1.24-2.84.85-3.71 8.53 7.7 4.54 7.64-.34ZM10.35 9c0 .08-.07.18-.12.26a.68.68 0 0 1-.17.21 1.4 1.4 0 0 1-.48.29 2.64 2.64 0 0 1-1.28.07 3.46 3.46 0 0 1-1.24-.47 1.47 1.47 0 0 1-.68-.83.77.77 0 0 1 0-.37 2.4 2.4 0 0 1 .17-.4.86.86 0 0 1 .34-.34 1.11 1.11 0 0 1 .62-.16c.22 0 .45.06.67.07.241.024.48.074.71.15a2.6 2.6 0 0 1 1.43.76.66.66 0 0 1 .03.76Z"/><path fill="#909090" d="M9.64 8.7c.35.84-3.18.29-2.41-.53.02-.29 2.15.05 2.41.53Z"/></svg>
