<svg xmlns="http://www.w3.org/2000/svg" width="16" height="16" fill="none"><path fill="#EB3B30" fill-rule="evenodd" d="m1.76 12.43 3.67-8.9h1.06l2.22 8.9H7L6.71 11H4l-.54 1.43h-1.7Zm3.96-5.9-1.14 3h1.8l-.66-3Zm7.33-.28a1.6 1.6 0 0 1 .75.75c.172.368.241.776.2 1.18l-.31 4.21H12.2v-.67c-.04.082-.09.16-.15.23a1.58 1.58 0 0 1-.63.4c-.26.093-.534.14-.81.14A1.64 1.64 0 0 1 9.28 12a1.86 1.86 0 0 1-.34-1.36 2 2 0 0 1 .68-1.47 2.53 2.53 0 0 1 1.69-.5h1.18v-.44a.64.64 0 0 0-.19-.57 1 1 0 0 0-.66-.2 1.46 1.46 0 0 0-1.05.47l-1.13-.66a2.2 2.2 0 0 1 .9-.94A3 3 0 0 1 11.78 6a2.69 2.69 0 0 1 1.27.25Zm-.84 4.606a.589.589 0 0 0 .09-.286h.05v-.65h-1.12a.88.88 0 0 0-.57.17.76.76 0 0 0-.24.54.5.5 0 0 0 .16.44.94.94 0 0 0 .58.15c.285.011.57-.043.83-.16a.59.59 0 0 0 .22-.204Z" clip-rule="evenodd"/></svg>
