<svg xmlns="http://www.w3.org/2000/svg" width="16" height="16" fill="none" viewBox="0 0 16 16"><path fill="#E483E0" d="M9.089 8.709a.4.4 0 0 1 .491.281 1.09 1.09 0 0 1-2.104.573.4.4 0 0 1 .772-.21.29.29 0 0 0 .56-.152.4.4 0 0 1 .28-.492m-2.99-1.026a.827.827 0 1 1 0 1.654.827.827 0 0 1 0-1.654m4.37-.828a.827.827 0 1 1 0 1.655.827.827 0 0 1 0-1.655"/><path fill="#E483E0" d="M5.967 2.46a1.5 1.5 0 0 1 2.366-.312l1.793 1.803.07.058a.5.5 0 0 0 .248.088l2.536.19a1.5 1.5 0 0 1 1.301 2l-.078.18-1.16 2.263a.5.5 0 0 0-.042.347l.604 2.47a1.5 1.5 0 0 1-1.696 1.837l-2.511-.404a.5.5 0 0 0-.263.029l-.08.04-2.163 1.337a1.5 1.5 0 0 1-2.27-1.045l-.392-2.513a.5.5 0 0 0-.108-.241l-.062-.063-1.94-1.645a1.5 1.5 0 0 1 .291-2.483l2.27-1.149.075-.047a.5.5 0 0 0 .161-.21l.964-2.353zm1.656.393a.5.5 0 0 0-.788.104l-.029.06-.964 2.353a1.5 1.5 0 0 1-.593.704l-.118.066-2.268 1.149a.5.5 0 0 0-.098.827l1.94 1.644.1.092c.22.223.364.51.413.822l.392 2.513a.5.5 0 0 0 .757.349l2.162-1.338.119-.066a1.5 1.5 0 0 1 .909-.14l2.51.406a.5.5 0 0 0 .566-.613l-.603-2.471a1.5 1.5 0 0 1 .123-1.04l1.16-2.263.026-.06a.5.5 0 0 0-.434-.667l-2.536-.19a1.5 1.5 0 0 1-.852-.346l-.1-.092z"/></svg>