<svg xmlns="http://www.w3.org/2000/svg" width="16" height="16" fill="none" viewBox="0 0 16 16"><path fill="#E483E0" d="M6.629 2.13a.5.5 0 0 1 .817-.163l2.457 2.468a.5.5 0 0 0 .318.147l3.473.26a.5.5 0 0 1 .408.726l-1.59 3.1a.5.5 0 0 0-.04.347l.826 3.383a.5.5 0 0 1-.566.613l-3.438-.554a.5.5 0 0 0-.343.068l-2.963 1.831a.5.5 0 0 1-.757-.347l-.536-3.443a.5.5 0 0 0-.17-.304L1.866 8.01a.5.5 0 0 1 .098-.828l3.107-1.574a.5.5 0 0 0 .237-.257zm2.46 6.579a.4.4 0 0 0-.281.492.29.29 0 0 1-.56.152.4.4 0 0 0-.772.21A1.09 1.09 0 0 0 9.58 8.99a.4.4 0 0 0-.491-.281m-2.99-1.026a.827.827 0 1 0 0 1.654.827.827 0 0 0 0-1.654m4.37-.828a.827.827 0 1 0 0 1.655.827.827 0 0 0 0-1.655"/></svg>