<svg xmlns="http://www.w3.org/2000/svg" width="16" height="16" fill="none"><path fill="#1D9BB7" fill-rule="evenodd" d="M13.348 3.633A1.8 1.8 0 0 0 12.035 3c-.493-.01-.97.199-1.331.581a.213.213 0 0 0-.042.067.236.236 0 0 0-.016.08c0 .057.02.11.054.15l.237.279c.03.035.072.056.115.06a.167.167 0 0 0 .122-.041.997.997 0 0 1 1.26-.04c.18.135.32.328.403.555.083.226.104.475.062.716-.042.24-.146.461-.3.634-.627.713-1.342.3-2.292-.25C8.97 5.02 7.17 3.98 4.497 5.423a.636.636 0 0 0-.204.174.736.736 0 0 0-.125.252.797.797 0 0 0 .052.563l.784 1.54a.64.64 0 0 0 .373.327c.158.05.326.026.468-.064l.02-.013-.015.013.347-.222a8.139 8.139 0 0 0 1.095-.928.18.18 0 0 1 .126-.053.18.18 0 0 1 .125.053.199.199 0 0 1 .05.07.232.232 0 0 1 .003.173.21.21 0 0 1-.045.072 8.371 8.371 0 0 1-1.154.972h-.011l-.348.22a.882.882 0 0 1-.482.143.91.91 0 0 1-.498-.15 1.076 1.076 0 0 1-.366-.411l-.74-1.455c-1.425 1.142-2.29 3.342-1.826 6.134.008.047.03.089.063.12a.17.17 0 0 0 .114.047h.846a.168.168 0 0 0 .119-.051.214.214 0 0 0 .06-.128c.037-.34.183-.652.409-.878.226-.227.517-.351.818-.351.302 0 .593.124.819.35.226.227.371.54.409.879.006.05.027.095.06.128a.17.17 0 0 0 .12.051h.823a.168.168 0 0 0 .12-.051.214.214 0 0 0 .06-.128c.038-.339.184-.65.41-.875.226-.226.517-.35.818-.35.3 0 .59.124.817.35.226.225.372.536.411.875.005.05.027.095.06.128A.168.168 0 0 0 9.6 13h.813a.17.17 0 0 0 .127-.059.218.218 0 0 0 .053-.142c.02-1.301.329-2.795 1.21-3.544 3.053-2.593 2.25-4.815 1.544-5.622ZM9.795 7.998 9 7.556a.6.6 0 0 1 .063-.271.534.534 0 0 1 .174-.202.46.46 0 0 1 .488-.023.52.52 0 0 1 .19.184.606.606 0 0 1 .04.539.546.546 0 0 1-.16.217v-.002Z" clip-rule="evenodd"/></svg>
