<svg xmlns="http://www.w3.org/2000/svg" width="16" height="16" fill="none"><path fill="#1D9BB7" fill-rule="evenodd" d="M13.348 3.633A1.8 1.8 0 0 0 12.035 3c-.493-.01-.97.199-1.331.581a.2.2 0 0 0-.042.067.2.2 0 0 0-.016.08c0 .057.02.11.054.15l.237.279c.03.035.072.056.115.06a.17.17 0 0 0 .122-.041 1 1 0 0 1 1.26-.04c.18.135.32.328.403.555.083.226.104.475.062.716-.042.24-.146.461-.3.634-.627.713-1.342.3-2.292-.25C8.97 5.02 7.17 3.98 4.497 5.423a.6.6 0 0 0-.204.174.7.7 0 0 0-.125.252.8.8 0 0 0 .052.563l.784 1.54a.64.64 0 0 0 .373.327c.158.05.326.026.468-.064l.02-.013-.015.013.347-.222a8 8 0 0 0 1.095-.928.18.18 0 0 1 .126-.053.18.18 0 0 1 .125.053.2.2 0 0 1 .05.07.23.23 0 0 1 .003.173.2.2 0 0 1-.045.072 8.4 8.4 0 0 1-1.154.972h-.011l-.348.22a.9.9 0 0 1-.482.143.9.9 0 0 1-.498-.15 1.1 1.1 0 0 1-.366-.411l-.74-1.455c-1.425 1.142-2.29 3.342-1.826 6.134q.013.072.063.12a.17.17 0 0 0 .114.047h.846a.17.17 0 0 0 .119-.051.2.2 0 0 0 .06-.128c.037-.34.183-.652.409-.878.226-.227.517-.351.818-.351.302 0 .593.124.819.35.226.227.371.54.409.879q.01.077.06.128a.17.17 0 0 0 .12.051h.823a.17.17 0 0 0 .12-.051.2.2 0 0 0 .06-.128c.038-.339.184-.65.41-.875.226-.226.517-.35.818-.35s.59.124.817.35.372.536.411.875a.2.2 0 0 0 .06.128A.17.17 0 0 0 9.6 13h.813a.17.17 0 0 0 .127-.059.22.22 0 0 0 .053-.142c.02-1.301.329-2.795 1.21-3.544 3.053-2.593 2.25-4.815 1.544-5.622ZM9.795 7.998 9 7.556a.6.6 0 0 1 .063-.271.53.53 0 0 1 .174-.202.46.46 0 0 1 .488-.023.5.5 0 0 1 .19.184.6.6 0 0 1 .04.539.55.55 0 0 1-.16.217z" clip-rule="evenodd"/></svg>