<svg xmlns="http://www.w3.org/2000/svg" width="16" height="16" fill="none"><path fill="#1D9BB7" fill-rule="evenodd" d="M12.035 3a1.8 1.8 0 0 1 1.313.633c.49.559 1.025 1.797.293 3.367H10.5c-1.5 0-2 .5-2 2v2.64a1.1 1.1 0 0 0-.306-.044c-.301 0-.592.124-.818.35a1.472 1.472 0 0 0-.41.875.214.214 0 0 1-.06.128.168.168 0 0 1-.12.051h-.823a.17.17 0 0 1-.12-.051.216.216 0 0 1-.06-.128 1.472 1.472 0 0 0-.41-.878 1.157 1.157 0 0 0-.818-.351c-.301 0-.592.124-.818.35a1.472 1.472 0 0 0-.41.879.214.214 0 0 1-.059.128.168.168 0 0 1-.12.051h-.845a.17.17 0 0 1-.114-.048.215.215 0 0 1-.063-.119c-.464-2.792.4-4.992 1.825-6.134l.741 1.455c.089.17.215.312.366.41a.91.91 0 0 0 .498.151.882.882 0 0 0 .482-.143l.348-.22h.01c.41-.285.796-.61 1.155-.972a.21.21 0 0 0 .045-.072.232.232 0 0 0-.003-.173.199.199 0 0 0-.05-.07.18.18 0 0 0-.125-.053.18.18 0 0 0-.126.053c-.34.344-.707.655-1.095.928l-.347.222.015-.013-.02.013a.557.557 0 0 1-.468.064.64.64 0 0 1-.373-.327l-.784-1.54a.775.775 0 0 1-.052-.563.736.736 0 0 1 .125-.252.636.636 0 0 1 .204-.174c2.674-1.444 4.474-.404 5.81.368.95.55 1.665.963 2.293.25.153-.173.257-.394.3-.634.041-.24.02-.49-.063-.716a1.216 1.216 0 0 0-.403-.556.997.997 0 0 0-1.26.04.167.167 0 0 1-.122.041.173.173 0 0 1-.115-.06l-.237-.278a.232.232 0 0 1-.054-.15c0-.027.006-.054.016-.08a.213.213 0 0 1 .042-.067c.36-.382.838-.59 1.331-.58Z" clip-rule="evenodd"/><path fill="url(#a)" fill-rule="evenodd" d="M9.294 8.76v3.48a.997.997 0 0 0 1 1h3.273a.5.5 0 0 0 .353-.854L12.034 10.5l1.886-1.886a.5.5 0 0 0-.353-.854H10.294a1 1 0 0 0-1 1Zm2.74 1.74-1.827 1.827-.62.62.62-.62 1.827-1.827Z" clip-rule="evenodd"/><defs><linearGradient id="a" x1="9.505" x2="13.909" y1="7.988" y2="13.137" gradientUnits="userSpaceOnUse"><stop stop-color="#95A6FF"/><stop offset="1" stop-color="#6938D0"/></linearGradient></defs></svg>
