<svg xmlns="http://www.w3.org/2000/svg" width="16" height="16" fill="none"><path fill="#1D9BB7" d="M12.035 3a1.8 1.8 0 0 1 1.313.633c.49.559 1.025 1.797.293 3.367H10.5c-1.5 0-2 .5-2 2v2.64a1.1 1.1 0 0 0-.306-.044c-.301 0-.592.124-.818.35a1.47 1.47 0 0 0-.41.875.2.2 0 0 1-.06.128.17.17 0 0 1-.12.051h-.823a.17.17 0 0 1-.12-.051.22.22 0 0 1-.06-.128 1.47 1.47 0 0 0-.41-.878 1.16 1.16 0 0 0-.818-.351c-.301 0-.592.124-.818.35a1.47 1.47 0 0 0-.41.879.2.2 0 0 1-.059.128.17.17 0 0 1-.12.051h-.845a.17.17 0 0 1-.114-.048.2.2 0 0 1-.063-.119c-.464-2.792.4-4.992 1.825-6.134l.741 1.455c.089.17.215.312.366.41a.9.9 0 0 0 .498.151.9.9 0 0 0 .482-.143l.348-.22h.01q.616-.428 1.155-.972a.2.2 0 0 0 .045-.072.23.23 0 0 0-.003-.173.2.2 0 0 0-.05-.07.18.18 0 0 0-.125-.053.18.18 0 0 0-.126.053q-.511.517-1.095.928l-.347.222.015-.013-.02.013a.56.56 0 0 1-.468.064.64.64 0 0 1-.373-.327l-.784-1.54a.78.78 0 0 1-.052-.563.7.7 0 0 1 .125-.252.6.6 0 0 1 .204-.174c2.674-1.444 4.474-.404 5.81.368.95.55 1.665.963 2.293.25.153-.173.257-.394.3-.634.041-.24.02-.49-.063-.716a1.2 1.2 0 0 0-.403-.556 1 1 0 0 0-1.26.04.17.17 0 0 1-.122.041.17.17 0 0 1-.115-.06l-.237-.278a.23.23 0 0 1-.054-.15q0-.04.016-.08a.2.2 0 0 1 .042-.067 1.78 1.78 0 0 1 1.331-.58Z"/><path fill="#2DA3F9" d="M9.5 9.5V8l3.208 2.5L9.5 13v-1.5l1.5-1z"/><rect width="2" height="1" x="12" y="12" fill="#2DA3F9" rx=".5"/></svg>