<svg xmlns="http://www.w3.org/2000/svg" width="16" height="16" fill="none"><path fill="#68B2E4" d="M8.382 4.536V3.373c-3.908 1.744-3.85 5.99-1.303 5.232 1.954-.581 3.448-2.836 3.908-4.07.8-2.14-.677-3.327-1.302-3.488-.37-.095-3.04-.58-5.21 2.326C2.302 6.28 3.171 9.768 3.171 9.768S3.5 11.512 6 11.512c2.294 0 5.066-3.043 5.5-4.012.651 1.163-.243 2.878-1.5 4-1.257 1.122-2.92 1.175-5.526 1.175.651.58 1.303 1.744 1.303 2.325 1.302 0 4.791-.18 6.513-3.488 1.21-2.326.651-4.07-.651-5.814C11 7 9.15 8.5 8.382 9.186c-.769.687-1.869.912-3.257.582-1.433-.341-1.302-3.488 0-5.232C6.428 2.792 7.731 2.21 8.382 2.21c.651 0 1.954.582 1.303 2.326-.305.815-1.303 2.906-2.606 2.906-1.698 0 0-2.325 1.303-2.906Z"/></svg>
