<svg xmlns="http://www.w3.org/2000/svg" width="16" height="16" fill="none" viewBox="0 0 16 16"><path fill="#68B2E4" fill-rule="evenodd" d="M9.972 1.582c.88.535 1.141 1.538 1.141 2.338 0 .754-.293 1.486-.68 2.102a6.3 6.3 0 0 1-1.452 1.6c-.521.405-1.147.745-1.753.798a1.53 1.53 0 0 1-1.001-.235c-.328-.22-.52-.555-.61-.919-.26-1.054.236-2.086.791-2.776.29-.36.631-.675.981-.906.331-.218.753-.414 1.188-.414v1.5a.4.4 0 0 0-.1.027q-.107.04-.263.14a2.9 2.9 0 0 0-.637.593c-.427.532-.6 1.083-.504 1.477l.006.02h.016c.189-.017.54-.159.967-.49a4.8 4.8 0 0 0 1.101-1.213c.297-.472.45-.928.45-1.304 0-.558-.185-.913-.42-1.056-.225-.137-.806-.27-2.062.367C6 3.804 5.258 4.84 4.934 5.904c-.336 1.1-.18 2.048.205 2.516.428.521.91.735 1.413.775.528.043 1.13-.105 1.753-.407 1.27-.618 2.363-1.752 2.725-2.486l1.37.057c.524 1.327.524 3.275-.45 4.854-1.014 1.644-2.988 2.747-6.11 2.503l.117-1.495c2.682.209 4.057-.725 4.717-1.795a4.04 4.04 0 0 0 .573-1.951 8.6 8.6 0 0 1-2.286 1.661c-.772.376-1.649.625-2.53.554-.906-.072-1.763-.481-2.451-1.317-.828-1.007-.895-2.548-.481-3.906.425-1.394 1.405-2.79 2.954-3.574 1.422-.72 2.627-.853 3.519-.31M7.034 6.926h.002Z" clip-rule="evenodd"/><path fill="#68B2E4" d="M5.864 13.982C5.72 13.834 5.346 13.062 5 12c5.166.705 6.186-2.124 6.051-3.75.432-1.186 1.795-2.642 1.449 1.25s-4.763 4.63-6.636 4.482"/></svg>