<svg xmlns="http://www.w3.org/2000/svg" data-name="Calque 1" viewBox="0 0 16 16"><path d="M9.08 4 10 2.5h1.5v-1h-2v.06l-1.32 2-.35.44-.66 1-.34.5H5.5l.33-.5.63-.94c-1.73.14-3 .51-3 .94a.22.22 0 0 0 0 .08L4.5 11c0 .2.33.38.87.51l.3 2c0 .29 1 .52 2.33.52s2.33-.23 2.33-.52l.3-2c.54-.13.87-.31.87-.51l1-5.92V5c0-.47-1.45-.86-3.42-1Zm-2 2.87a2.71 2.71 0 0 1 1.77-1h.21a1.1 1.1 0 0 1 .81.59l.06.22a.52.52 0 0 1-.27.44h-.22A.51.51 0 0 1 9 7h-.09c-.12 0-.46.08-1.06.68a4.36 4.36 0 0 0-.7.93 3.24 3.24 0 0 0-.26.63 2.71 2.71 0 0 0-.12.75 1.4 1.4 0 0 0 .16.71c.1.15.16.17.26.18h.16a2.31 2.31 0 0 0 1.16-1 4.23 4.23 0 0 0 .31-.59A3.6 3.6 0 0 0 9 8.7v-.08a.19.19 0 0 1 0-.08.5.5 0 0 1 .46-.29h.13a.49.49 0 0 1 .36.39s0 .06 0 .09V9.14L9 12.39a.49.49 0 0 1-.48.36h-.08a.49.49 0 0 1-.44-.5v-.14l.18-.64a2.65 2.65 0 0 1-.54.25 1.53 1.53 0 0 1-.45.08 1.32 1.32 0 0 1-1.11-.65 2.34 2.34 0 0 1-.31-1.23 4.09 4.09 0 0 1 .08-.76c0-.16.09-.32.14-.48A4.88 4.88 0 0 1 7.12 6.9Z" style="fill:#e34e48"/></svg>
