<svg xmlns="http://www.w3.org/2000/svg" width="16" height="16" fill="none"><path fill="#C8BC79" d="m5.534 2.108.207.414c-.451.143-.991.349-1.473.554l-.234-.468s-.23-.257.5-.5 1 0 1 0Z"/><path fill="#C8BC79" fill-rule="evenodd" d="M4.646 3.83c.505-.189 1.047-.372 1.496-.507l1.392 2.785 2.48-1.86c.515.416 1.135.964 1.635 1.437l-.7.545c0 .136.01.29.031.45.063.474.211.878.408 1.075l.018.018c.242.242.674.674.9 1.2.12.282.194.614.136.972-.059.363-.243.705-.554 1.017-.453.452-1.032.525-1.575.416-.527-.106-1.069-.387-1.567-.715a10.054 10.054 0 0 1-.57-.407l-.642 3.852c-.5.167-1.8.2-3-1 .327-.98 1.12-3.136 1.672-4.621l-.025-.025.055-.056.298-.798-1.888-3.777Zm3.719 5.296c.302.253.618.495.932.702.456.3.87.501 1.212.57.324.065.524.004.672-.143.188-.19.254-.347.274-.469a.75.75 0 0 0-.068-.418c-.143-.335-.444-.644-.706-.906-.397-.397-.586-.995-.67-1.503L8.534 8.11l-.17 1.017Z" clip-rule="evenodd"/><path fill="#C8BC79" d="m12.548 4.986.486-.378s0-.5-.5-1-1-.5-1-.5l-.675.507c.553.394 1.237.94 1.689 1.371Z"/></svg>
