<svg xmlns="http://www.w3.org/2000/svg" width="16" height="16" fill="none"><path fill="#F0772B" fill-rule="evenodd" d="M7.495 5.183c.174.098.386.271.505.431v-.04a1.43 1.43 0 0 1 2.11-.2c.237.214.464.49.698.777.576.704 1.197 1.463 2.122 1.463a.89.89 0 0 0 .5-1.5c1 0 1.57 1.5.5 2.5-1.046.978-2.711 1.071-4 .5A4.57 4.57 0 0 1 8 7.624v-.01c-.506.657-1.235 1.181-2 1.5-1.31.58-2.918.583-4-.5-.79-.79-.5-2.5.5-2.5a.89.89 0 0 0 .5 1.5c.927 0 1.544-.752 2.12-1.453.237-.29.468-.57.71-.787a1.43 1.43 0 0 1 1.665-.19Z" clip-rule="evenodd"/><path fill="#F0772B" d="M7.5 7.614a.5.5 0 1 1 1 0V12.5a.5.5 0 0 1-1 0V7.614Z"/></svg>
