<svg xmlns="http://www.w3.org/2000/svg" width="16" height="16" fill="none"><path fill="#E4BA1E" d="m8 4.25-2.801-.256L2.999 3h2.5L8 4.25M8 4.25l2.969-.344L13 3h-2.5L8 4.249"/><path fill="#E08628" d="m8 11.75 2.5.299L13 13h-2.5L8 11.75"/><path fill="#DC642F" d="m8 11.75-2.5.27L3 13h2.5L8 11.75"/><path fill="#E8DD17" d="m4.25 8-.37 2.936L3 13v-2.5l1.25-2.502"/><path fill="#E8DD17" d="m4.25 8-.281-2.688L2.999 3v2.5L4.25 8"/><path fill="#DB5433" d="m11.75 8 .36-2.717L13 3v2.5L11.75 8M11.75 8l.244 2.76L13 13v-2.5L11.75 8"/><path fill="#E4A921" d="m3 3 5 1.25-.458 3.405-3.292.343L3 3.003"/><path fill="#E29724" d="m3 13 1.25-5 3.35.33.4 3.418-5 1.248"/><path fill="#DE762C" d="m13 3-1.25 5-3.27-.52L8 4.25l5-1.247"/><path fill="#DC642F" d="m13 13-5-1.25.508-3.362L11.75 8 13 12.995"/><path fill="#E08628" d="M8 4.25 4.25 8 8 11.75 11.75 8 8 4.25"/></svg>
