<svg xmlns="http://www.w3.org/2000/svg" width="16" height="16" fill="none" viewBox="0 0 16 16"><path fill="#909090" fill-opacity=".9" fill-rule="evenodd" d="M5.255 9.162a15 15 0 0 1 0-2.324H3.019a5.1 5.1 0 0 0 0 2.324zm.179 1.395H3.57a5.13 5.13 0 0 0 2.521 2.189c-.28-.612-.504-1.356-.657-2.189m3.71 0a8 8 0 0 1-.453 1.496c-.209.486-.42.79-.585.952a1 1 0 0 1-.106.09 1 1 0 0 1-.106-.09c-.164-.163-.376-.466-.585-.952a8 8 0 0 1-.454-1.496zm-2.49-1.395a13.7 13.7 0 0 1 0-2.324h2.692a13.7 13.7 0 0 1 0 2.324zm3.912 1.395c-.153.833-.378 1.577-.657 2.189a5.13 5.13 0 0 0 2.52-2.189zm2.415-1.395h-2.236a15 15 0 0 0 0-2.324h2.236a5.1 5.1 0 0 1 0 2.324M7.31 3.947c-.18.418-.336.923-.455 1.496h2.29a8 8 0 0 0-.454-1.496c-.209-.486-.42-.79-.585-.952A1 1 0 0 0 8 2.905a1 1 0 0 0-.106.09c-.164.163-.376.466-.585.952m3.256 1.496h1.864a5.13 5.13 0 0 0-2.521-2.189c.28.612.504 1.356.657 2.189m-6.996 0h1.864c.153-.833.378-1.577.657-2.189a5.13 5.13 0 0 0-2.52 2.189M8 1.491A6.509 6.509 0 1 1 8 14.51 6.509 6.509 0 0 1 8 1.49" clip-rule="evenodd"/></svg>