<svg xmlns="http://www.w3.org/2000/svg" width="16" height="16" fill="none" viewBox="0 0 16 16"><path fill="#9D633C" d="M8 2.75c.453 0 1.117.13 1.688.541.61.44 1.062 1.165 1.062 2.209q0 .125-.016.267a3 3 0 0 1 1.76 2.905A2.998 2.998 0 0 1 11.5 14.5h-7a3 3 0 0 1-.995-5.828 3 3 0 0 1 1.76-2.905A3 3 0 0 1 5.25 5.5c0-.213-.07-.55-.259-.812-.16-.223-.435-.438-.991-.438v-1.5zm4.034 7.349A3 3 0 0 1 9.5 11.5h-3a3 3 0 0 1-2.535-1.401 1.5 1.5 0 0 0 .382 2.893L4.5 13h7l.153-.008a1.5 1.5 0 0 0 .381-2.893m-1.825-2.91C9.769 7.798 9.044 8.25 8 8.25s-1.77-.452-2.209-1.062l-.006-.008A1.5 1.5 0 0 0 6.5 10h3a1.5 1.5 0 0 0 .714-2.82zM6.465 4.25c.211.45.285.91.285 1.25 0 .213.07.55.259.812.16.223.435.438.991.438s.83-.215.991-.438c.189-.262.259-.599.259-.812 0-.556-.215-.83-.438-.991A1.5 1.5 0 0 0 8 4.25z"/></svg>