<svg xmlns="http://www.w3.org/2000/svg" width="16" height="16" fill="none"><path fill="#3ADECA" fill-rule="evenodd" d="M4 2h5.11a.94.94 0 0 1 .69.29c.69.71 2.2 2.24 2.91 2.92a1 1 0 0 1 .29.7V13a1 1 0 0 1-1 1H4a1 1 0 0 1-1-1V3a1 1 0 0 1 1-1Zm4.189 2.543a.2.2 0 0 0-.378 0l-.706 2.031a.2.2 0 0 1-.185.134l-2.149.044a.2.2 0 0 0-.117.36L6.367 8.41a.2.2 0 0 1 .071.218l-.623 2.057a.2.2 0 0 0 .306.222L7.886 9.68a.2.2 0 0 1 .228 0l1.765 1.228a.2.2 0 0 0 .306-.222l-.623-2.057a.2.2 0 0 1 .07-.218l1.714-1.298a.2.2 0 0 0-.117-.36l-2.15-.044a.2.2 0 0 1-.184-.134l-.706-2.03Z" clip-rule="evenodd"/></svg>
