<svg xmlns="http://www.w3.org/2000/svg" width="16" height="16" fill="none" viewBox="0 0 16 16"><path fill="#909090" fill-opacity=".9" d="M3.976 8.298c.35-.095.727-.06 1.248.201l.576.284c.135.064.223.102.296.126.1.034.15.037.404.037v1c-.246 0-.447.003-.72-.089a4 4 0 0 1-.408-.17l-.596-.293c-.36-.18-.483-.146-.538-.131-.078.021-.096.037-.247.091a1.4 1.4 0 0 1-.491.092v-1a.4.4 0 0 0 .151-.032c.04-.014.2-.082.325-.116m0-2c.35-.095.727-.06 1.248.201l.576.284c.135.064.223.102.296.126.1.034.15.037.404.037v1c-.246 0-.447.003-.72-.089a4 4 0 0 1-.408-.17l-.596-.293c-.36-.18-.483-.146-.538-.131-.078.021-.096.037-.247.091a1.4 1.4 0 0 1-.491.092v-1a.4.4 0 0 0 .151-.032c.04-.014.2-.082.325-.116m6.8.201c.52-.26.899-.296 1.248-.201.124.034.285.102.325.116a.4.4 0 0 0 .151.032v1c-.204 0-.366-.046-.491-.092-.15-.054-.169-.07-.247-.091-.055-.015-.178-.05-.538.13l-.596.294a4 4 0 0 1-.407.17c-.274.092-.475.09-.721.09v-1c.254 0 .303-.004.404-.038a3 3 0 0 0 .296-.126z"/><path fill="#909090" fill-opacity=".9" fill-rule="evenodd" d="M12 3c1.403 0 2.27.737 2.61 1.304l.06.111.08.158v8.677h-1.5v-.016a.3.3 0 0 0-.048-.036C13.078 13.121 12.745 13 12 13c-.617 0-.979.178-1.54.433-.452.205-.975.425-1.71.52V14h-1.5v-.048c-.735-.094-1.258-.314-1.71-.52C4.979 13.179 4.617 13 4 13c-.745 0-1.078.12-1.202.198a.3.3 0 0 0-.048.036v.016h-1.5V4.573l.08-.158.06-.111C1.73 3.737 2.598 3 4 3c.935 0 1.58.326 2.117.564C6.637 3.796 7.151 4 8 4s1.362-.204 1.883-.436C10.42 3.326 11.065 3 12 3M4 4.5c-.708 0-1.094.304-1.25.48v6.648A5.4 5.4 0 0 1 4 11.5c.983 0 1.621.322 2.16.567.336.153.663.29 1.09.368V5.453c-.742-.093-1.28-.312-1.742-.517C4.92 4.674 4.565 4.5 4 4.5m8 0c-.565 0-.92.174-1.508.436-.462.205-1 .424-1.742.517v6.982c.427-.078.754-.215 1.09-.368.539-.245 1.177-.567 2.16-.567q.712-.001 1.25.128V4.979c-.156-.175-.542-.479-1.25-.479" clip-rule="evenodd"/></svg>