<svg xmlns="http://www.w3.org/2000/svg" width="16" height="16" fill="none"><path fill="#CE3939" fill-rule="evenodd" d="M4 3h2.5a1 1 0 0 1 .8.4l.9 1.2A1 1 0 0 0 9 5h4a1 1 0 0 1 1 1v6a1 1 0 0 1-1 1H4a1 1 0 0 1-1-1V4a1 1 0 0 1 1-1Zm3.5 6.5A1.46 1.46 0 0 0 9 11v-1a.47.47 0 0 1-.5-.5c0-.28.11-.4.35-.65A1.74 1.74 0 0 0 9.5 7.5 1.46 1.46 0 0 0 8 6v1a.47.47 0 0 1 .5.5c0 .28-.11.4-.35.65A1.74 1.74 0 0 0 7.5 9.5Zm-1 .5v1A1.46 1.46 0 0 1 5 9.5a1.74 1.74 0 0 1 .65-1.35c.24-.25.35-.37.35-.65h1a1.74 1.74 0 0 1-.65 1.35c-.24.25-.35.37-.35.65a.47.47 0 0 0 .5.5Zm5 0v1A1.46 1.46 0 0 1 10 9.5a1.74 1.74 0 0 1 .65-1.35c.24-.25.35-.37.35-.65h1a1.74 1.74 0 0 1-.65 1.35c-.24.25-.35.37-.35.65a.468.468 0 0 0 .5.5Z" clip-rule="evenodd"/></svg>
