<svg xmlns="http://www.w3.org/2000/svg" width="16" height="16" fill="none"><path fill="#F0D6B7" d="m10.765 11.927-1.208.18-1.63.185-1.054.025-1.03-.032-.785-.243-.697-.754-.543-1.54-.122-.333-.722-.242-.422-.697-.3-.997.332-.876.786-.275.633.3.3.665.365-.057.121-.153-.121-.697-.032-.876.179-1.208-.007-.69.55-.882.965-.697 1.688-.722 1.872.275 1.63 1.176.754 1.208.486.875.122 2.174-.365 1.872-.665 1.662-.626.889"/><path fill="#6D6B6D" d="m2.584 6.616.786-.275.633.3.3.665.365-.057.09-.365-.18-.696.18-1.662-.154-.908.543-.632 1.176-.934-.332-.453-1.662.818-.697.543-.39.844-.6.818-.18.965z"/><path fill="#D33833" d="M11.45 13.934a5.6 5.6 0 0 1-1.381-.191c.025-.167-.026-.326.019-.448.115-.083.3-.083.473-.102a.8.8 0 0 0-.524-.058c-.007-.115-.058-.185-.09-.274.288-.103.965-.774 1.349-.557.185.11.262.71.275 1.01.013.243-.026.486-.122.62M9.001 13.1q.002.058-.006.115c-.16.103-.416.103-.595.192.256.013.46.077.64.16-.007.096-.007.198-.013.294-.294.198-.563.498-.908.69-.166.09-.735.32-.907.275-.096-.026-.109-.147-.147-.262-.083-.243-.275-.64-.294-1.01-.02-.466-.07-1.253.434-1.157.41.077.882.262 1.195.435.199.115.307.243.601.268m.288.553c-.045-.256-.096-.326-.077-.55.684-.454.806.78.077.55"/><path fill="#231F20" d="M7.902 4.162c-.825-.192-1.234.345-1.483.9-.224-.05-.134-.357-.077-.51.147-.403.742-.947 1.228-.87.204.026.485.217.332.48m4.007.933h.039c.185.383.345.792.582 1.137-.16.371-1.19.69-1.177.039.224-.096.608-.02.806-.147-.115-.313-.275-.582-.25-1.03Zm-3.592.013c.18.325.237.664.486.907.115.109.332.243.224.55-.026.07-.211.23-.32.262-.39.115-1.304.025-.997-.467.326.013.76.211 1.004-.025-.186-.294-.518-.882-.397-1.227m3.445 3.285c-.588.377-1.246.792-2.217.696-.205-.178-.288-.581-.084-.843.103.179.039.511.333.562.55.096 1.189-.339 1.585-.485.243-.416-.02-.563-.243-.831-.454-.544-1.054-1.221-1.035-2.033.185-.134.198.205.223.262.237.55.831 1.26 1.26 1.732.108.115.28.23.3.307.057.217-.147.486-.122.633m-7.785-.396c-.185-.11-.23-.57-.447-.582-.313-.02-.256.6-.256.965-.21-.192-.249-.793-.095-1.1-.18-.089-.256.097-.358.16.134-.926 1.361-.428 1.156.557m8.156.786c-.275.524-.665 1.099-1.47 1.118-.02-.166-.032-.428 0-.53.62-.064 1.004-.377 1.47-.588m-3.86.338c.511.269 1.457.3 2.16.282.038.153.038.345.038.53-.9.038-1.962-.185-2.198-.812m-.096.499c.358.895 1.578.793 2.607.767-.044.115-.14.256-.268.3-.332.135-1.24.237-1.7-.006-.288-.153-.48-.505-.64-.71-.07-.095-.453-.345 0-.351"/><path fill="#F0D6B7" d="M10.222 12.279c-.217.14-.396.313-.607.466-.46.026-.71-.031-1.042-.293.006-.02.038-.013.038-.039.493.217 1.119-.09 1.611-.134"/><path fill="#000" fill-rule="evenodd" d="M12 10.655a4 4 0 0 1 .18-.325c.051-.086.099-.166.128-.228a5.4 5.4 0 0 0 .288-.824l.019-.065c.511-1.802.569-4.276-.166-5.752-.275-.563-1.049-1.336-1.534-1.7C9.77.898 7.655.802 6.28 1.307l-.105.038c-.346.126-.68.248-.988.429q-.218.127-.437.246c-.756.416-1.466.808-1.692 1.703-.658.294-.856 1.138-.824 2.116.002.078.022.163.042.25.028.124.057.25.035.357a.6.6 0 0 1-.107.18 1 1 0 0 0-.06.088c-.32.748-.064 1.739.3 2.276.218.32.589.607 1.068.683.02.288.09.537.224.831.022.05.061.111.104.178.083.128.18.278.199.416l.328.8c.1.098.234.257.35.393.11.129.203.238.233.259.351.25.773.458 1.195.665l.346.172c.032.237.108.55.236.965l.046.147c.123.406.262.866.73.671l.066-.035 1.209-.714.292-.248.06-.07.083-.096c.143.06.257.004.364-.05.075-.037.148-.073.225-.065a.45.45 0 0 1 .205.088l1.181.171.043.018a.7.7 0 0 1 .16.067l.308-.227c.325-.631.169-2.524-.664-2.124.054-.081.15-.155.251-.232a1.3 1.3 0 0 0 .296-.278l-.003-.007.42-.713Zm-2.758 2.8a.9.9 0 0 1-.034-.35c.684-.453.805.78.077.55-.015-.082-.03-.145-.043-.2m-2.04-1.052c.408.076.881.262 1.194.434q.077.044.143.088a.93.93 0 0 0 .458.18q-.008.059-.006.116a1 1 0 0 1-.314.105c-.1.023-.2.045-.28.087.261.012.46.07.639.16q-.005.071-.007.146-.002.076-.006.147c-.116.081-.228.177-.343.274a3.3 3.3 0 0 1-.565.417c-.16.09-.735.313-.907.274-.077-.02-.1-.102-.127-.193a5 5 0 0 0-.098-.277c-.09-.232-.202-.522-.216-.801l-.003-.05c-.02-.47-.05-1.2.437-1.107Zm-.761.537c-.314-.02-1.31-.377-1.049-.646.172.12.452.14.73.159.136.009.272.018.395.04a.5.5 0 0 1-.033.213 1 1 0 0 0-.043.234m2.173-.524c0 .014-.01.018-.02.022q-.013.004-.019.016c.34.262.588.32 1.042.294q.129-.095.255-.2c.113-.092.228-.186.352-.267-.16.015-.332.056-.51.098-.375.09-.77.184-1.1.037m2.678-.116c.185.11.262.716.275 1.01.012.25-.026.492-.122.62-.511-.019-.978-.076-1.38-.191a1 1 0 0 0 .007-.236c-.004-.078-.008-.15.012-.212.094-.068.234-.08.376-.093l.097-.01a.8.8 0 0 0-.524-.057.5.5 0 0 0-.058-.197l-.032-.077c.088-.032.213-.117.354-.213.32-.22.729-.499.995-.344M2.766 6.234c-.045-.58-.105-1.348.274-1.77.365-.409.87-.658 1.49-.71.17.433.093.907.016 1.39-.068.423-.138.854-.042 1.27q.02.083.05.177c.078.25.162.52-.114.526.006-.767-.946-1.26-1.668-.806zm.696-2.594c.37-.812 1.528-1.47 2.429-1.726.051-.013.096.02.134.064-.005.106-.086.132-.167.158l-.076.027c-.074.091-.167.159-.264.23-.093.068-.19.14-.28.237a2 2 0 0 0-.209.315c-.13.221-.274.462-.43.503a.6.6 0 0 1-.228-.002.7.7 0 0 0-.142-.01c-.152.01-.28.056-.411.103-.111.04-.224.08-.356.1Zm3.605-1.911c.997-.499 2.582-.102 3.522.428.478.27.842.753 1.18 1.2l.136.18c-.53-.16-.984.11-.9.55.447-.409 1.207 0 1.43.448.191.375.215.912.24 1.47l.01.236c.077 1.553-.287 3.151-1.067 4.276a6 6 0 0 0-.145.213c-.155.231-.308.462-.533.618-.71.499-1.783.946-2.703.64-1.168-.394-1.721-1.16-2.358-2.041L5.8 9.84c.02.511.377.927.729 1.316.307.34.678.723 1.08.882-.332-.076-.844-.102-.984.199-.78-.052-1.502-.128-1.873-.659-.287-.415-.581-1.125-.716-1.668-.032-.115-.076-.352-.064-.415.018-.091.09-.162.164-.234.119-.116.24-.233.137-.438-.162 0-.257.078-.353.156-.086.07-.172.14-.306.151-.728.07-1.24-.965-1.208-1.591.026-.53.48-1.042 1.093-.972.435.051.582.524.665.946.25.013.607-.006.729-.204-.01-.229-.064-.434-.116-.635-.058-.219-.115-.432-.108-.663.011-.288.073-.566.134-.84.114-.511.225-1.01 0-1.538.371-.837 1.458-1.502 2.263-1.904Z" clip-rule="evenodd"/></svg>