<svg xmlns="http://www.w3.org/2000/svg" width="16" height="16" fill="none"><path fill="#DC3E3E" fill-rule="evenodd" d="M2 3.5v1c.762.109 1.608.175 2.5.195v1.468A14.839 14.839 0 0 1 3 6v1c.386.097.903.174 1.5.23v3.27h-1V9h-1v4h1v-1.5h1V13l1 .008v-1.5l1.5-.031v1.5L8 13v-1.5l1.5-.023v1.5l1 .023v-1.5h1V13h1V9h-1v1.5h-1V6.971c.597-.122 1.114-.278 1.5-.471v-1c-.34.114-.862.227-1.5.33V4.045c1.103-.264 2.13-.61 3-1.046V2C10 3.5 5 4 2 3.5Zm7.5 6.977V7.172c-1.13.118-2.87.185-4 .154v3.182l1.5-.031v-1.5L8 9v1.5l1.5-.023Zm0-6.153c-1.15.191-2.843.333-4 .371v1.52c1.186 0 2.914-.103 4-.215V4.324Z" clip-rule="evenodd"/></svg>
