<svg xmlns="http://www.w3.org/2000/svg" width="16" height="16" fill="none"><path fill="#FBB03B" d="M5.957 10.63a.55.55 0 0 0 .46-.198.9.9 0 0 0 .156-.568V6.261h1.056v3.603c.002.311-.067.62-.202.9a1.37 1.37 0 0 1-.588.595c-.285.142-.6.213-.92.208a2 2 0 0 1-.918-.19 1.5 1.5 0 0 1-.607-.531l.827-.559a.92.92 0 0 0 .708.343m4.807-4.432q.302-.002.597.063a3.4 3.4 0 0 1 1.14.486l-.432.847c-.2-.138-.42-.247-.652-.324a1.9 1.9 0 0 0-.653-.117 1.3 1.3 0 0 0-.717.153.47.47 0 0 0-.257.423.5.5 0 0 0 .128.36.9.9 0 0 0 .331.199c.138 0 .322.08.552.135h.147q.439.077.855.234c.23.097.43.252.579.45.176.268.256.584.23.901.013.317-.07.63-.24.901-.172.25-.42.442-.707.55a2.9 2.9 0 0 1-1.112.189q-.382 0-.754-.081a3 3 0 0 1-.699-.217 2.5 2.5 0 0 1-.579-.36l.47-.82c.217.17.462.3.725.388.27.09.552.135.837.135.267.014.534-.042.772-.162a.536.536 0 0 0 .25-.647.5.5 0 0 0-.094-.155.75.75 0 0 0-.322-.18l-.505-.108h-.12a5 5 0 0 1-.919-.208 1.3 1.3 0 0 1-.597-.513 1.4 1.4 0 0 1-.248-.9 1.57 1.57 0 0 1 .23-.902c.163-.25.4-.444.68-.558.346-.125.715-.18 1.084-.162M13.034 3H2.924a.93.93 0 0 0-.65.264.9.9 0 0 0-.27.637v8.107a.88.88 0 0 0 .235.696.92.92 0 0 0 .685.295h10.11a.94.94 0 0 0 .697-.263.9.9 0 0 0 .268-.683V3.946a.9.9 0 0 0-.285-.654.92.92 0 0 0-.68-.247"/></svg>