<svg xmlns="http://www.w3.org/2000/svg" width="16" height="16" fill="none"><path fill="#F15A24" d="M12.001 2a2.5 2.5 0 0 0-1 .202 2.5 2.5 0 0 0-.832.58A2.36 2.36 0 0 0 9.5 4.448a.4.4 0 0 0 0 .135c.08.476.248.933.495 1.35A22.6 22.6 0 0 0 12 9s2.492-3.194 2.492-4.553c0-.649-.262-1.271-.73-1.73A2.52 2.52 0 0 0 12.001 2m0 3.671a1.26 1.26 0 0 1-.694-.202 1.23 1.23 0 0 1-.463-.547 1.2 1.2 0 0 1 .264-1.337 1.27 1.27 0 0 1 1.359-.27c.228.093.423.25.56.452a1.21 1.21 0 0 1 .12 1.148 1.2 1.2 0 0 1-.67.663 1.3 1.3 0 0 1-.476.093"/><path fill="#FBB03B" d="M9.751 7.779a.47.47 0 0 0 .13.315l.146.117c-.092-.144-.184-.28-.276-.432m-3.797 2.853a.55.55 0 0 0 .46-.198.9.9 0 0 0 .156-.567v-3.6h1.058v3.6c.002.31-.068.618-.203.9-.128.253-.334.46-.588.594-.285.141-.6.212-.92.207a2 2 0 0 1-.919-.19 1.5 1.5 0 0 1-.607-.53l.828-.558a.92.92 0 0 0 .708.342m3.025-7.605-6.031.027a.93.93 0 0 0-.65.264.9.9 0 0 0-.27.636v8.1a.88.88 0 0 0 .253.665.92.92 0 0 0 .667.28h10.113a.94.94 0 0 0 .697-.263.9.9 0 0 0 .268-.682v-4.14a17 17 0 0 1-1.36 1.89l-.065.09v.08c.013.317-.07.63-.24.9-.172.25-.42.442-.707.55a2.9 2.9 0 0 1-1.113.189 3.5 3.5 0 0 1-.753-.081 3 3 0 0 1-.7-.216 2.5 2.5 0 0 1-.578-.36l.469-.82c.217.17.463.3.726.388.27.09.552.135.836.135a1.54 1.54 0 0 0 .773-.162.6.6 0 0 0 .23-.243l-.332-.45-.294-.378-.275-.054h-.12a5 5 0 0 1-.92-.207 1.3 1.3 0 0 1-.588-.441 1.4 1.4 0 0 1-.248-.9 1.57 1.57 0 0 1 .23-.9 1.4 1.4 0 0 1 .175-.216s0-.09-.074-.126a5.2 5.2 0 0 1-.552-1.593 1.3 1.3 0 0 1 0-.297c.001-.594.16-1.177.46-1.692"/></svg>