<svg xmlns="http://www.w3.org/2000/svg" width="16" height="16" fill="none" viewBox="0 0 16 16"><path fill="#909090" fill-opacity=".9" d="M8 5.5c.5.5 2.553.5 3 .5v2.5C11 10 8.833 11 8 11z"/><path fill="#909090" fill-opacity=".9" fill-rule="evenodd" d="M8.75 2c0 .213.07.55.259.812.16.223.435.438.991.438h3.75V8c0 1.197-.527 2.615-1.479 3.735C11.306 12.873 9.858 13.75 8 13.75s-3.305-.877-4.271-2.015C2.777 10.615 2.25 9.197 2.25 8V3.25H6c.556 0 .83-.215.991-.438.189-.262.259-.599.259-.812zM8 3.94c-.447.478-1.106.81-2 .81H3.75V8c0 .803.373 1.885 1.121 2.765.733.862 1.786 1.485 3.129 1.485s2.396-.623 3.129-1.485c.748-.88 1.121-1.962 1.121-2.765V4.75H10c-.894 0-1.553-.332-2-.81" clip-rule="evenodd"/></svg>