<svg xmlns="http://www.w3.org/2000/svg" width="16" height="16" fill="none"><path fill="#F57637" d="M14.922 8.767 13.2 7.935l1.632-.764c.127-.06.201-.216.114-.362l-.17-.196c-.11-.12-.228-.207-.373-.15l-1.213.457a.13.13 0 0 1-.082.003l-.47-.133a.1.1 0 0 0-.098.025l-.502.476a4.1 4.1 0 0 0-.752-1.743l.734-.005c.032 0 .06-.018.076-.046l.26-.471a.13.13 0 0 1 .06-.055l1.202-.512c.074-.032.12-.185.105-.284l-.04-.359c-.031-.103-.176-.194-.245-.168l-1.807.63.614-1.695a.25.25 0 0 0-.175-.336l-.26-.019c-.161-.007-.307.015-.37.158l-.533 1.18a.13.13 0 0 1-.056.062l-.426.238a.1.1 0 0 0-.053.086l-.018.693a4.1 4.1 0 0 0-1.764-.701l.515-.524a.09.09 0 0 0 .022-.085l-.15-.517a.13.13 0 0 1 .005-.082l.487-1.212c.03-.074-.046-.215-.127-.275l-.281-.226c-.096-.05-.262-.012-.293.055L7.935 2.8 7.17 1.17c-.06-.127-.216-.201-.362-.114l-.196.17c-.12.11-.207.228-.15.373L6.92 2.81q.015.04.003.082l-.133.47c-.01.035 0 .072.025.098l.476.503a4.1 4.1 0 0 0-1.743.751l-.005-.734a.09.09 0 0 0-.046-.076l-.471-.26a.13.13 0 0 1-.055-.06L4.46 2.382c-.032-.074-.185-.12-.284-.105l-.359.04c-.103.031-.194.176-.168.245l.63 1.807-1.694-.614c-.132-.048-.295.01-.337.175l-.019.26c-.007.161.015.307.158.369l1.18.534a.13.13 0 0 1 .062.056l.238.426a.1.1 0 0 0 .086.053l.693.018a4.1 4.1 0 0 0-.701 1.764l-.524-.515a.09.09 0 0 0-.085-.022l-.517.15a.13.13 0 0 1-.082-.005l-1.212-.487c-.074-.03-.215.047-.275.127l-.226.281c-.05.096-.012.262.055.293l1.723.832-1.632.764c-.127.06-.201.216-.114.362l.17.196c.11.12.228.207.373.15L2.81 9.08a.13.13 0 0 1 .082-.003l.47.133c.035.01.072 0 .098-.025l.503-.476a4.1 4.1 0 0 0 .751 1.743l-.734.005a.09.09 0 0 0-.076.046l-.26.471a.13.13 0 0 1-.06.055l-1.202.512c-.074.032-.12.185-.105.284l.04.359c.031.103.176.194.245.168l1.807-.63-.614 1.694c-.048.132.01.295.175.337l.26.019c.161.007.307-.015.369-.158l.534-1.18a.13.13 0 0 1 .056-.062l.426-.238a.1.1 0 0 0 .053-.086l.018-.693a4.1 4.1 0 0 0 1.764.701l-.515.524a.09.09 0 0 0-.022.085l.15.517a.13.13 0 0 1-.005.082l-.487 1.212c-.03.074.046.215.127.275l.281.226c.096.05.262.012.293-.055l.832-1.723.764 1.632c.06.127.216.201.362.114l.196-.17c.12-.11.207-.228.15-.373L9.08 13.19a.13.13 0 0 1-.003-.082l.133-.47a.1.1 0 0 0-.025-.098l-.476-.503a4.1 4.1 0 0 0 1.743-.751l.005.734c0 .032.018.06.046.076l.471.26a.13.13 0 0 1 .055.06l.512 1.202c.032.074.185.12.284.105l.359-.04c.103-.031.194-.176.168-.245l-.63-1.807 1.694.614c.132.048.295-.01.337-.175l.019-.26c.007-.161-.015-.307-.158-.369l-1.18-.534a.13.13 0 0 1-.062-.056l-.238-.426a.1.1 0 0 0-.086-.053l-.693-.018a4.1 4.1 0 0 0 .701-1.764l.524.515c.022.023.055.03.085.022l.517-.15a.13.13 0 0 1 .082.005l1.212.487c.074.03.215-.047.275-.127l.226-.281c.05-.096.012-.262-.055-.293ZM10.94 7.543h-.872a2.1 2.1 0 0 0-.353-.785l.611-.61c.316.395.533.872.614 1.395m-1.8-1.328a2.1 2.1 0 0 0-.805-.306v-.863a2.96 2.96 0 0 1 1.42.553zM9.031 8a1.032 1.032 0 1 1-2.064 0 1.032 1.032 0 0 1 2.064 0m-1.49-2.939v.872a2.1 2.1 0 0 0-.784.353l-.61-.611a2.96 2.96 0 0 1 1.395-.614Zm-1.327 1.8c-.153.24-.26.513-.306.805h-.863a2.96 2.96 0 0 1 .553-1.42zM5.061 8.458h.872c.063.288.185.554.353.785l-.611.61a2.96 2.96 0 0 1-.614-1.395m1.8 1.328c.24.153.513.26.805.306v.863a2.96 2.96 0 0 1-1.42-.553zm1.596 1.154v-.872c.288-.063.554-.185.785-.353l.61.611a2.96 2.96 0 0 1-1.395.614m1.328-1.8c.153-.24.26-.513.306-.805h.864a2.96 2.96 0 0 1-.554 1.42z"/></svg>