<svg xmlns="http://www.w3.org/2000/svg" width="16" height="16" fill="none" viewBox="0 0 16 16"><path fill="#E86F12" fill-rule="evenodd" d="M9.05 3.312c.467-.808 1.885-2.144 3.825-1.024L9.299 7.011 15 6.333C15 8.466 13.134 9 12.2 9H7.794l-.923 1.22q.256.067.498.205a2.1 2.1 0 1 1-2.869.768L5.767 9H3.1C1.94 9 1 8.104 1 7s.94-2 2.1-2 2.1.895 2.1 2q-.002.264-.071.508l1.61-.193zm-2.381 8.326a.7.7 0 1 0-.7 1.212.7.7 0 0 0 .7-1.212m-3.57-5.305c-.386 0-.699.299-.699.667s.313.667.7.667.7-.299.7-.667-.314-.667-.7-.667" clip-rule="evenodd"/></svg>