<svg xmlns="http://www.w3.org/2000/svg" width="16" height="16" fill="none"><path fill="url(#a)" fill-rule="evenodd" d="M3.71 3.805A6 6 0 1 0 5.93 2.367l.023.021c1.285 1.198 2.513 2.342 4.19 4.62.438-.046.897.109 1.233.503.874 1.026 1.093 3.848-1.094 4.489.547-.641 0-1.924-.546-2.565-.293-.344-1.03-1.21-.607-1.845C7.65 6.78 5.186 5.068 3.71 3.805Zm5.211 5.704A3.997 3.997 0 0 1 3.62 8.14a4.418 4.418 0 0 0 5.664 4.182c.143-.335.216-.759.216-1.322 0-.377-.262-.882-.544-1.424l-.035-.067Z" clip-rule="evenodd"/><defs><radialGradient id="a" cx="0" cy="0" r="1" gradientTransform="matrix(0 8.5 -8.5 0 8 5.5)" gradientUnits="userSpaceOnUse"><stop offset=".326" stop-color="#69DEAD"/><stop offset=".696" stop-color="#69B4F9"/><stop offset="1" stop-color="#2E99E7"/></radialGradient></defs></svg>
