<svg xmlns="http://www.w3.org/2000/svg" width="16" height="16" fill="none" viewBox="0 0 16 16"><path fill="#A459FF" d="M8.085 8.45c1.824-1.134 2.11.236 3.25.218q.242-.063.475-.08c.881-.056 1.885.935 1.69 1.912-.5 2.5-3.658 3.825-5.5 4-1.574.15-2.494-1.504-1.665-2.51.125-.152.244-.287.362-.416.818-1.185-.483-1.962 1.388-3.125m-5.827-.041c-.767.443.115 2.006.742 3.092.836 1.448 2.031 1.027 2.973 0S5.096 9.78 4.63 8.97c-.627-1.085-1.604-1.005-2.37-.562M4 4.475C3.233 4.918 3.373 5.914 4 7c.836 1.448 2.496 1.975 2.996.475.44-1.322-.533-1.19-1-2-.628-1.086-1.229-1.443-1.996-1M6.5 2.5c.695-.695 2.941.843 3.5 1.5.852 1.002-.5 2.5-1.65 2.42-1.542-.106-.912-1.122-1.645-1.855-.984-.983-.9-1.37-.205-2.065m5.398 1.05c.767-.443 1.873.914 2.5 2 .836 1.448-.557 2.827-1.898 2.45-1.602-.45-.635-1.64-1.102-2.45-.627-1.086-.267-1.557.5-2"/></svg>