<svg xmlns="http://www.w3.org/2000/svg" id="Calque_1" data-name="Calque 1" viewBox="0 0 16 16"><defs><style>.cls-1{fill:#39c}</style></defs><path d="M14.49 7A1.49 1.49 0 0 1 13 5.5v-1c0-2-2.5-2-2.5-2V4a1 1 0 0 1 1 1v1A2.22 2.22 0 0 0 13 8a2.22 2.22 0 0 0-1.52 2v1a1 1 0 0 1-1 1v1.5c2.5 0 2.5-2 2.5-2V10c0-1 1.52-1 1.52-1ZM8.49 9.5v-7h-3C3 2.51 3 4.5 3 4.5V6c0 1-1.5 1-1.5 1v2A1.49 1.49 0 0 1 3 10.5v1c0 2 2.5 2 2.5 2V12a1 1 0 0 1-1-1v-1A2.22 2.22 0 0 0 3 8a2.22 2.22 0 0 0 1.52-2V5a1 1 0 0 1 1-1H7v5.5c0 2 2.5 2 2.5 2V10c-1.01 0-1.01-.5-1.01-.5Z" class="cls-1"/></svg>
