<svg xmlns="http://www.w3.org/2000/svg" id="Calque_1" data-name="Calque 1" viewBox="0 0 16 16"><defs><style>.cls-1{fill:#797cff}</style></defs><path d="m13.38 7.21-1-1.4.62-1.63-1.58-.66-.43-1.66-1.68.3L8 1 6.74 2.16l-1.68-.3-.43 1.66-1.58.66.53 1.63-1 1.4 1.36 1.08V10l1.42.16V15L8 12.85 10.69 15v-4.84l1.42-.16V8.29ZM11 9l-1.24.14-.64 1.07L8 9.7l-1.12.55-.64-1.07L5 9V7.79L4.07 7l.7-1-.39-1.21 1.16-.49.31-1.2 1.23.21.92-.85.92.85 1.23-.21.31 1.2 1.16.49L11.23 6l.7 1-1 .78Z" class="cls-1"/><path d="M7.43 7.02 6.29 5.87l-.76.76 1.9 1.91 3.04-3.05-.76-.76-2.28 2.29z" class="cls-1"/></svg>
