<svg xmlns="http://www.w3.org/2000/svg" data-name="Calque 1" viewBox="0 0 16 16"><g style="opacity:.45"><path d="M9.12 7.64C7.74 6.93 5.06 8 6.86 9.35 9 11 12.41 8.82 9.12 7.64Zm.5 1.2c-.38.57-2.34.23-2.5-.5.34-.5 2.37-.04 2.5.5Z"/><path d="M14.78 5.66c-.94-1.4-2.25-1.06-3.57 0a3.21 3.21 0 0 0-2.13-1.85c1.67-3.73-3.67-3.44-4 .35A4.35 4.35 0 0 0 4 5.5c-2.18-.06-2.43 1.4-1.16 2.3-3.66 8.68 6.34 6.69 8.8 1.71 2.08-.32 4.55-1.41 3.14-3.85Zm-7-3.78c1.12.14 1.1.44.51 1.77a7.57 7.57 0 0 0-2.29.2c.26-.94.81-1.97 1.82-1.97Zm-5 4.67C3 6 5.55 6.41 5.6 7.41c-.06.59-3.09-.13-2.78-.86Zm5.71 5.2c-4.25 2.62-7 1.55-5-3.64C6.22 9.22 7.63 6.75 4.7 5.67c4.3-4.5 9.78 3.04 3.83 6.08Zm5.82-4.37a3.51 3.51 0 0 1-2.46 1.33 4 4 0 0 0-.09-1.58.44.44 0 0 0 0-.1c-.07-.23-.15-.44-.24-.66 1.39-1.56 3.29-.72 2.83 1.01Z"/></g></svg>
