<svg xmlns="http://www.w3.org/2000/svg" width="16" height="16" fill="none"><path fill="#CF3954" d="M8 1a7 7 0 1 0 3.677 12.957c-.069-.04-.072-.066.143-.114l.056-.013a7 7 0 0 0 .57-.424 1 1 0 0 0-.175-.103c-.104-.054-.156-.081.096-.138q.155-.037.314-.045.115-.193.22-.389a1 1 0 0 0-.082-.049l-.049-.026c-.104-.054-.156-.08.099-.137q.081-.02.164-.03a10 10 0 0 0 .208-.43l-.09-.04-.052-.02c-.111-.042-.166-.062.076-.146q.087-.03.179-.054a7 7 0 0 0 .136-.35l.012-.037-.049-.01c-.117-.026-.175-.038.049-.157l.055-.027q.065-.247.114-.495c-.087-.004-.114-.022.026-.14.335-1.952-.125-3.89-1.182-5.182-.76-.882-1.85-1.468-3.27-1.533-.74-.034-1.336.062-1.803.247l-.016.01.01-.008c-.979.393-1.373 1.193-1.287 2.05a6.2 6.2 0 0 1 1.9 1.28c1.275 1.269 1.073 1.812.966 1.957l-.008.018v-.007l-.033.036.006.056v.018c.023.246.123.481.29.679q.105.112.226.21.118.09.218.161c.086.062.16.114.208.16.047.042.078.082.078.115 0 .129-.853.818-1.172.796a.7.7 0 0 1-.173-.04q-.108.03-.222.04.054-.044.103-.09a2 2 0 0 1-.146-.082c-.131.065-.378.167-.625.158q.239-.123.413-.312a3.8 3.8 0 0 1-.69-.75c-.292-.408-.488-.452-.488-.452s-.44.064-.267.86c.09.425.25.733.366.955.1.195.166.322.121.403-.098.172-.586.28-.952.214-.366-.064-.806-.149-.586-.58.181-.355.181-1.042-.055-1.383a.7.7 0 0 0-.194-.17c-.185-.088-1.054-.534-1.205-.723-.19-.234-.174-1.248.021-1.484a5 5 0 0 1-.22-1.098A6 6 0 0 1 4 6.513v-.012c-.012-1.189.494-2.154 1.324-2.853.035-.234.09-.439.144-.582.146-.395.144-.291.14-.101a4 4 0 0 0 .015.455q.105-.076.215-.143.095-.386.3-.737c.158-.251.155-.213.145-.075-.004.054-.01.124-.007.198a.45.45 0 0 0 .118.314q.092-.043.19-.083c.05-.223.14-.437.268-.634.128-.191.137-.121.159.046l.006.047a.48.48 0 0 0 .176.323l.198-.054c.037-.133.25-.38.452-.543.07-.057.098-.083.105-.078.01.007-.017.072-.029.196-.008.077.035.162.07.232l.029.058.097-.014-.093.003s.062-.012.165-.027q.11-.177.292-.303c.198-.15.193-.1.183.006a1 1 0 0 0 .002.248q.136-.008.3-.013.056-.05.117-.098c.228-.172.222-.12.179.059q-.005.018-.004.04l.257.003c1.477.043 3.148.671 4.422 1.896A7 7 0 0 0 8 1"/></svg>