<svg xmlns="http://www.w3.org/2000/svg" width="16" height="16" fill="none"><path fill="#CF3954" d="M8 1a7 7 0 1 0 3.677 12.957c-.069-.04-.072-.066.143-.114l.056-.013c.198-.132.388-.273.57-.424a1.064 1.064 0 0 0-.175-.103c-.104-.054-.156-.081.096-.138.103-.025.208-.04.314-.045.076-.129.15-.258.22-.389a1.075 1.075 0 0 0-.082-.049l-.049-.026c-.104-.054-.156-.08.099-.137.054-.013.109-.023.164-.03a9.64 9.64 0 0 0 .208-.43l-.09-.04a1.976 1.976 0 0 0-.052-.02c-.111-.042-.166-.062.076-.146.058-.02.118-.039.179-.054a6.64 6.64 0 0 0 .136-.35l.012-.037-.049-.01c-.117-.026-.175-.038.049-.157l.055-.027c.044-.164.081-.33.114-.495-.087-.004-.114-.022.026-.14.335-1.952-.125-3.89-1.182-5.182-.76-.882-1.85-1.468-3.27-1.533-.74-.034-1.336.062-1.803.247l-.016.01.01-.008c-.979.393-1.373 1.193-1.287 2.05a6.24 6.24 0 0 1 1.9 1.28c1.275 1.269 1.073 1.812.966 1.957l-.008.018v-.007a.297.297 0 0 1-.033.036l.006.056v.018c.023.246.123.481.29.679.07.075.145.145.226.21.078.06.152.114.218.161.086.062.16.114.208.16.047.042.078.082.078.115 0 .129-.853.818-1.172.796a.674.674 0 0 1-.173-.04c-.072.02-.146.034-.222.04.036-.029.07-.06.103-.09-.05-.025-.099-.053-.146-.082-.131.065-.378.167-.625.158.158-.081.298-.187.413-.312a3.815 3.815 0 0 1-.69-.75c-.292-.408-.488-.452-.488-.452s-.44.064-.267.86c.09.425.25.733.366.955.1.195.166.322.121.403-.098.172-.586.28-.952.214-.366-.064-.806-.149-.586-.58.181-.355.181-1.042-.055-1.383a.718.718 0 0 0-.194-.17c-.185-.088-1.054-.534-1.205-.723-.19-.234-.174-1.248.021-1.484a4.857 4.857 0 0 1-.22-1.098A5.481 5.481 0 0 1 4 6.513v-.012c-.012-1.189.494-2.154 1.324-2.853.035-.234.09-.439.144-.582.146-.395.144-.291.14-.101a3.822 3.822 0 0 0 .015.455c.07-.051.141-.098.215-.143.063-.257.164-.504.3-.737.158-.251.155-.213.145-.075-.004.054-.01.124-.007.198a.453.453 0 0 0 .118.314c.061-.029.125-.056.19-.083.05-.223.14-.437.268-.634.128-.191.137-.121.159.046a6.9 6.9 0 0 0 .006.047.484.484 0 0 0 .176.323l.198-.054c.037-.133.25-.38.452-.543.07-.057.098-.083.105-.078.01.007-.017.072-.029.196-.008.077.035.162.07.232l.029.058.097-.014-.093.003s.062-.012.165-.027c.073-.117.172-.22.292-.303.198-.15.193-.1.183.006a1.147 1.147 0 0 0 .002.248c.092-.005.19-.01.3-.013.037-.034.076-.066.117-.098.228-.172.222-.12.179.059-.004.012-.004.025-.004.04l.257.003c1.477.043 3.148.671 4.422 1.896A6.995 6.995 0 0 0 8 1Z"/></svg>
