<svg xmlns="http://www.w3.org/2000/svg" width="16" height="16" fill="none"><path fill="#909090" fill-rule="evenodd" d="M2 3a1 1 0 0 1 1-1h10a1 1 0 0 1 1 1v6h-2V4h-2L8 6.5 6 4H4v8h2V7l2 2.5L10 7v2.275c-.534.317-1 .952-1 2.125V14H3a1 1 0 0 1-1-1V3Zm9.52 6.91a2.055 2.055 0 0 1 .708 0l.234.678.63-.32c.102.069.196.147.28.235.088.085.167.178.235.28l-.316.634.677.212c.043.242.043.489 0 .73l-.677.234.32.63c-.14.2-.315.375-.514.515l-.635-.316-.212.677a2.105 2.105 0 0 1-.73 0l-.234-.677-.634.32c-.2-.14-.374-.315-.514-.515l.319-.634-.677-.234a2.105 2.105 0 0 1 0-.708l.677-.234-.32-.634c.069-.102.147-.195.235-.28.085-.088.178-.166.28-.234l.634.319.234-.677Z" clip-rule="evenodd"/></svg>
