<svg xmlns="http://www.w3.org/2000/svg" width="16" height="16" fill="none"><path fill="url(#a)" fill-rule="evenodd" d="M12.034 1c-.09.718-.571 1.086-1.333 1.668C9.063 3.919 6.129 6.162 3 15c.268-.14.49-.223.682-.27.382-1.04 1.097-2.295 2.35-3.25.515-.394 2.07-.518 3.16-.115.282-.306.551-.621.807-.943-.68-.334-1.417-.501-2.679-.5 0-.437 1.711-.544 3.316-.354.31-.444.595-.895.85-1.348-.891-.14-1.968-.146-2.99-.133-.452-.46 1.687-.914 3.502-.853.23-.487.424-.97.578-1.44a5.783 5.783 0 0 0-3.263.122c.844-.578 2.016-1.062 3.476-.863.101-.416.169-.817.199-1.197-.79.014-1.634.15-2.582.391A7.313 7.313 0 0 1 13 3.146c-.048-.915-.355-1.666-.966-2.146ZM7.503 8.101l.485-.007.497-.007-.98.011-.002.003Z" clip-rule="evenodd"/><path fill="url(#b)" d="M8.588 3.612c-.5.314-2.091 2.015-4.458 6.31-.839-2.308.604-4.265 4.458-6.31Z"/><defs><radialGradient id="a" cx="0" cy="0" r="1" gradientTransform="matrix(-8.658 9.297 -6.7482 -6.2844 12.47 2.866)" gradientUnits="userSpaceOnUse"><stop stop-color="#F7A668"/><stop offset="1" stop-color="#8F2C99"/></radialGradient><radialGradient id="b" cx="0" cy="0" r="1" gradientTransform="matrix(-8.658 9.297 -6.7482 -6.2844 12.47 2.866)" gradientUnits="userSpaceOnUse"><stop stop-color="#F7A668"/><stop offset="1" stop-color="#8F2C99"/></radialGradient></defs></svg>
