<svg xmlns="http://www.w3.org/2000/svg" width="16" height="16" fill="none" viewBox="0 0 16 16"><path fill="#E23063" d="M13.995 3.006c-1.297-.061-2.577.338-3.656 1.141C9.261 4.95 8.442 6.115 8 7.471c-.442-1.356-1.261-2.52-2.34-3.324s-2.358-1.202-3.655-1.14a7.4 7.4 0 0 0 .644 3.329A6.6 6.6 0 0 0 4.665 8.9c.44.335.8.785 1.047 1.31.248.526.377 1.11.376 1.703V14h3.825v-2.087a4 4 0 0 1 .375-1.702A3.55 3.55 0 0 1 11.335 8.9a6.6 6.6 0 0 0 2.017-2.564 7.4 7.4 0 0 0 .643-3.33"/><path fill="#E23063" d="M5 11.994a2.26 2.26 0 0 0-.245-1.035 2.2 2.2 0 0 0-.687-.798A7.7 7.7 0 0 1 2 8v3a3 3 0 0 0 3 3zm6 0a2.25 2.25 0 0 1 .245-1.035c.162-.32.398-.594.687-.798A7.7 7.7 0 0 0 14 8v3a3 3 0 0 1-3 3z"/></svg>