<svg xmlns="http://www.w3.org/2000/svg" width="16" height="16" fill="none"><path fill="#60BCD9" fill-rule="evenodd" d="M13 3H3v10h10V3ZM3 2c-.552 0-1 .537-1 1.2v9.6c0 .663.448 1.2 1 1.2h10c.552 0 1-.537 1-1.2V3.2c0-.663-.448-1.2-1-1.2H3Z" clip-rule="evenodd"/><path fill="#60BCD9" fill-rule="evenodd" d="M9 3c-.791 0-1.395.526-1.51 1.098l-.002.012-.003.011c-.103.411-.373.987-.875 1.41-.525.445-1.273.694-2.231.454-.652-.163-.948.018-1.103.195C3.082 6.4 3 6.74 3 7H2c0-.407.118-1.017.524-1.48.445-.506 1.15-.742 2.097-.505.642.16 1.06-.008 1.344-.247.303-.256.481-.624.547-.88C6.737 2.8 7.796 2 9 2v1Z" clip-rule="evenodd"/><path fill="#60BCD9" fill-rule="evenodd" d="M12.1 3.427c-.046.088-.1.252-.1.573 0 .443-.19.776-.486 1.003-.263.202-.593.308-.867.383-.124.034-.236.062-.34.088-.162.04-.308.076-.464.126-.243.079-.397.16-.49.254-.1.1-.167.212-.287.413-.044.075-.096.162-.16.266a6.949 6.949 0 0 1-1.052 1.32c-.233.233-.47.403-.732.517a2.27 2.27 0 0 1-.79.176 7.815 7.815 0 0 1-.865-.016c-.285-.014-.599-.03-.967-.03-.637 0-.987.254-1.194.542A1.736 1.736 0 0 0 3 10H2c0-.413.12-1.022.494-1.542C2.887 7.912 3.537 7.5 4.5 7.5c.394 0 .73.017 1.014.031l.044.003c.3.015.523.025.717.013.186-.01.324-.04.449-.094.124-.054.26-.143.422-.307.467-.466.723-.837.909-1.139l.105-.175c.138-.233.29-.488.486-.686.261-.26.597-.403.89-.497.182-.06.397-.113.586-.16l.261-.067c.263-.072.426-.138.521-.212.063-.048.096-.094.096-.21 0-.43.071-.765.213-1.036.144-.276.337-.44.487-.551l.117-.087c.077-.056.107-.078.136-.115.013-.016.047-.058.047-.211h1c0 .344-.09.616-.266.836-.123.153-.29.274-.388.343l-.046.034a.616.616 0 0 0-.2.214Z" clip-rule="evenodd"/><path fill="#60BCD9" fill-rule="evenodd" d="M12.57 6.715c-.03.041-.07.122-.07.285 0 .577-.145 1.102-.521 1.479-.377.376-.902.521-1.479.521-.407 0-.666.098-.875.265-.227.182-.438.479-.678.959-.156.311-.364.57-.642.76a2.035 2.035 0 0 1-.937.325c-.662.074-1.49-.074-2.49-.324-.641-.16-1.06.008-1.343.247-.307.26-.486.634-.55.89l-.97-.243c.103-.411.373-.987.875-1.41.525-.445 1.273-.694 2.231-.454 1.002.25 1.673.352 2.136.3.22-.024.372-.081.485-.158a.952.952 0 0 0 .31-.38c.261-.52.55-.974.948-1.292.416-.333.907-.485 1.5-.485.423 0 .648-.105.771-.229.124-.123.229-.348.229-.771 0-.337.086-.631.259-.87.17-.237.398-.381.618-.47.403-.16.86-.16 1.1-.16h.023v1c-.267 0-.543.006-.752.09a.386.386 0 0 0-.179.125ZM11.746 10.61c-.382.096-.624.265-.799.614a.593.593 0 0 0-.032.098l-.026.103-.03.123c-.046.178-.12.421-.282.655-.355.51-.996.797-2.077.797-1.396 0-1.493.511-1.5.51v-.01H6c0-.762.806-1.5 2.5-1.5.919 0 1.166-.239 1.256-.368.059-.085.097-.189.134-.334l.021-.083a8.84 8.84 0 0 1 .038-.152 1.52 1.52 0 0 1 .104-.287c.325-.65.833-.982 1.45-1.136.561-.14 1.238-.14 1.949-.14h.048v1c-.772 0-1.327.003-1.754.11Z" clip-rule="evenodd"/></svg>
