<svg xmlns="http://www.w3.org/2000/svg" width="16" height="16" fill="none"><path fill="#F36B4D" d="M14 12.25a1.25 1.25 0 1 1-2.5 0 1.25 1.25 0 1 1 2.5 0m-12-4a1.25 1.25 0 1 1 2.5 0 1.25 1.25 0 1 1-2.5 0m12-4a1.25 1.25 0 1 1-2.5 0 1.25 1.25 0 1 1 2.5 0m-4 8c0 .69-.56 1.25-1.25 1.25h-5.5a1.25 1.25 0 1 1 0-2.5h5.5c.69 0 1.25.56 1.25 1.25m-4-4C6 7.56 6.56 7 7.25 7h5.5a1.25 1.25 0 1 1 0 2.5h-5.5C6.56 9.5 6 8.94 6 8.25m4-4c0 .69-.56 1.25-1.25 1.25h-5.5a1.25 1.25 0 1 1 0-2.5h5.5C9.44 3 10 3.56 10 4.25"/></svg>