<svg xmlns="http://www.w3.org/2000/svg" width="16" height="16" fill="none"><path fill="#F36B4D" d="M14 12.25a1.25 1.25 0 1 1-2.5 0 1.25 1.25 0 1 1 2.5 0ZM2 8.25a1.25 1.25 0 1 1 2.5 0 1.25 1.25 0 1 1-2.5 0ZM14 4.25a1.25 1.25 0 1 1-2.5 0 1.25 1.25 0 1 1 2.5 0ZM10 12.25c0 .69-.56 1.25-1.25 1.25h-5.5a1.25 1.25 0 1 1 0-2.5h5.5c.69 0 1.25.56 1.25 1.25ZM6 8.25C6 7.56 6.56 7 7.25 7h5.5a1.25 1.25 0 1 1 0 2.5h-5.5C6.56 9.5 6 8.94 6 8.25ZM10 4.25c0 .69-.56 1.25-1.25 1.25h-5.5a1.25 1.25 0 1 1 0-2.5h5.5C9.44 3 10 3.56 10 4.25Z"/></svg>
