<svg xmlns="http://www.w3.org/2000/svg" width="16" height="16" fill="none" viewBox="0 0 16 16"><path fill="#909090" fill-opacity=".9" d="M11.75 2c.966 0 1.75.784 1.75 1.75V10c0 .594 0 1.5-1 1.5v1c.5 0 1 0 1 .75s-.5.75-1 .75H4.75c-.616 0-1.215-.155-1.655-.595S2.5 12.365 2.5 11.75v-8C2.5 2.784 3.284 2 4.25 2zM4 11.75c0 .384.096.535.155.595.06.06.21.155.595.155H11v-1H4.25a2 2 0 0 1-.25-.02zm.25-8.25a.25.25 0 0 0-.25.25v6c0 .138.112.25.25.25h7.5a.25.25 0 0 0 .25-.25v-6a.25.25 0 0 0-.25-.25zm5.164 1.242a.67.67 0 0 1 .665-.084.7.7 0 0 1 .421.646V9H9.25V6.624l-.768.67C8.355 7.427 8 7.5 8 7.5s-.355-.074-.482-.205l-.768-.671V9H5.5V5.304l.009-.105a.7.7 0 0 1 .412-.54.67.67 0 0 1 .742.152L8 6.18l1.337-1.37z"/></svg>