<svg xmlns="http://www.w3.org/2000/svg" width="16" height="16" fill="none" viewBox="0 0 16 16"><path fill="#909090" fill-opacity=".9" d="M8.391 2.822c.839-.055 1.624.395 2.353.83 1.405.837 2.876 1.748 3.872 3.035.489.632.464 1.54-.064 2.135L10.92 12.91c-.393.442-.795.892-1.305 1.176-.871.485-1.95.412-2.873.046-.923-.367-1.724-.998-2.51-1.62l-2.238-1.77c-.254-.2-.514-.407-.693-.682-.412-.63-.313-1.51.055-2.17.512-.916 1.454-1.5 2.21-2.14.73-.618 1.512-1.164 2.309-1.683.76-.494 1.573-1.183 2.515-1.245m1.351 2.632a2.589 2.589 0 1 0 0 5.177 2.589 2.589 0 0 0 0-5.177m0 1.45a1.139 1.139 0 1 1 0 2.278 1.139 1.139 0 0 1 0-2.278"/></svg>