<svg xmlns="http://www.w3.org/2000/svg" width="16" height="16" fill="none"><path fill="#2CADEF" fill-rule="evenodd" d="M2.095 8.983c.445 2.212 2.39 3.664 4.67 4.017 3.235.5 8.852-1.105 6.414-2.462-.091-.077-.32-.179-.57-.29-.525-.232-1.141-.505-.77-.677 4.257-.985 2.512-1.733 1.22-2.288-.369-.158-.7-.3-.846-.427-.228-.199.2-.214.794-.234.577-.02 1.31-.046 1.753-.25C16.012 5.796 12 2.5 6.766 3.012c-1.54.151-2.841.827-3.694 1.871.436-.139.92-.216 1.428-.216 1.933 0 3.5 1.119 3.5 2.5 0 1.38-1.567 2.5-3.5 2.5-.931 0-1.777-.26-2.405-.684Z" clip-rule="evenodd"/><path fill="url(#a)" fill-rule="evenodd" d="M2.045 8.948C2.278 11.256 3.488 13 7.155 13c2.97 0 5.703-1.718 3.065-3.077-.601-.238-1.618-.89-1.401-1.52.087-.254.418-.649.808-1.112C11.046 5.602 13.233 3 7.156 3c-2.326 0-3.71.794-4.45 2.02A4.585 4.585 0 0 1 4.5 4.666c1.933 0 3.5 1.119 3.5 2.5 0 1.38-1.567 2.5-3.5 2.5-.957 0-1.823-.274-2.455-.719Z" clip-rule="evenodd"/><circle cx="5" cy="7" r="1" fill="#B72DB8"/><ellipse cx="2.5" cy="7" fill="#B72DB8" rx=".5" ry="1"/><defs><linearGradient id="a" x1="6.665" x2="6.665" y1="3" y2="13" gradientUnits="userSpaceOnUse"><stop stop-color="#7126EC"/><stop offset="1" stop-color="#E93894"/></linearGradient></defs></svg>
