<svg xmlns="http://www.w3.org/2000/svg" width="16" height="16" fill="none"><path fill="#CAA773" fill-rule="evenodd" d="M12 3.5H4a.5.5 0 0 0-.5.5v8a.5.5 0 0 0 .5.5h8a.5.5 0 0 0 .5-.5V4a.5.5 0 0 0-.5-.5ZM4 2a2 2 0 0 0-2 2v8a2 2 0 0 0 2 2h8a2 2 0 0 0 2-2V4a2 2 0 0 0-2-2H4Z" clip-rule="evenodd"/><path fill="#CAA773" fill-rule="evenodd" d="M7.028 6.76a1.78 1.78 0 0 0-.278.84v2.9h-1.5V7.6c0-.396.134-1.067.522-1.66C6.186 5.306 6.905 4.75 8 4.75c1.095 0 1.814.557 2.227 1.19.389.593.523 1.264.523 1.66v2.9h-1.5V7.6a1.78 1.78 0 0 0-.278-.84c-.186-.284-.467-.51-.972-.51-.505 0-.786.226-.972.51Z" clip-rule="evenodd"/></svg>
