<svg xmlns="http://www.w3.org/2000/svg" width="16" height="16" fill="none" viewBox="0 0 16 16"><path fill="#EF7C35" d="M6.483 2.88a2.55 2.55 0 0 1 3.288.27l.114.115a2.1 2.1 0 0 1 2.944.022l.145.16a2.1 2.1 0 0 1-.122 2.784l.176.176.163.178c.71.858.78 2.085.172 3.018l-.142.195-1.066 1.34-.02.025-.024.024a.8.8 0 0 1-.209.15.6.6 0 0 1-.443.03.6.6 0 0 1-.322-.245.8.8 0 0 1-.094-.195c-.03-.095-.048-.2-.06-.278-.011-.072-.027-.194-.039-.27-.059-.403-.148-.752-.354-.958-.223-.223-.426-.293-.585-.293s-.36.07-.584.293-.293.425-.293.584c0 .16.07.362.293.585.22.22.526.354.859.513.075.036.16.077.236.122.071.041.17.105.256.196a.7.7 0 0 1 .192.504.73.73 0 0 1-.22.476l-.02.02-.022.017-.892.735a2.55 2.55 0 0 1-3.243-.002l-.181-.164-.155-.155a2.1 2.1 0 0 1-2.785.122l-.159-.145a2.1 2.1 0 0 1-.022-2.944L3.15 9.77a2.55 2.55 0 0 1-.116-3.483l.844-.964.013-.014.013-.014a.7.7 0 0 1 .501-.219.65.65 0 0 1 .526.29 1.2 1.2 0 0 1 .133.274c.027.076.052.162.075.237.1.337.198.63.388.818l.082.077c.19.163.362.215.502.215.159 0 .361-.068.584-.292l.077-.083c.162-.19.215-.362.215-.502 0-.139-.052-.311-.215-.501l-.077-.082c-.156-.157-.437-.251-.802-.367a5 5 0 0 1-.248-.085 1.2 1.2 0 0 1-.276-.14.67.67 0 0 1-.289-.5.7.7 0 0 1 .215-.53l.014-.014.014-.013.964-.844zm2.51 1.048a1.45 1.45 0 0 0-1.87-.153l-.11.087-.423.37c.284.104.627.26.884.517l.137.148c.3.352.478.767.478 1.215 0 .447-.178.862-.478 1.214l-.137.148c-.382.382-.85.615-1.362.615-.448 0-.863-.178-1.215-.478l-.148-.137a2.4 2.4 0 0 1-.53-.87l-.357.409a1.45 1.45 0 0 0 .066 1.98l1.114 1.115-.701.335a1 1 0 0 0-.144.085l-.132.11a1 1 0 0 0 0 1.414l.076.068a1 1 0 0 0 1.338-.068l.111-.132a1 1 0 0 0 .084-.143l.335-.703 1.154 1.155.103.093a1.45 1.45 0 0 0 1.845.001l.43-.355c-.27-.132-.62-.322-.898-.6-.382-.383-.615-.851-.615-1.363s.233-.98.615-1.362.85-.614 1.362-.615c.512 0 .98.233 1.362.615.302.302.463.682.555 1.02l.438-.55.08-.11a1.45 1.45 0 0 0-.097-1.717l-.093-.1-1.176-1.177.703-.335a1 1 0 0 0 .275-.195l.068-.076a1 1 0 0 0 0-1.262l-.068-.076a1 1 0 0 0-1.338-.069l-.075.069a1 1 0 0 0-.111.132l-.085.144-.335.701z"/></svg>