<svg xmlns="http://www.w3.org/2000/svg" width="16" height="16" fill="none" viewBox="0 0 16 16"><path fill="#A577FF" d="M3.5 2.5a1.5 1.5 0 0 1 .446 2.933l-.046.01c.002.218.015.42.038.617q.027.22.076.44A1.5 1.5 0 0 1 5.49 8.161c.394.182.735.317 1.078.389A1.501 1.501 0 0 1 9.5 9c0 .653-.418 1.206-1 1.412v1.175a1.5 1.5 0 1 1-1 0v-1.175a1.5 1.5 0 0 1-.888-.844c-.544-.076-1.042-.266-1.557-.504A1.5 1.5 0 1 1 3.063 6.83a6 6 0 0 1-.118-.65 7 7 0 0 1-.045-.805A1.5 1.5 0 0 1 3.5 2.5M12 6.366a1.5 1.5 0 1 1 0 3 1.5 1.5 0 0 1 0-3m.5-3.866a1.5 1.5 0 1 1 0 3 1.5 1.5 0 0 1 0-3"/></svg>