<svg xmlns="http://www.w3.org/2000/svg" width="16" height="16" fill="none" viewBox="0 0 16 16"><path fill="#51BAA2" d="M10.5 8.5h3.985c-.2 3.707-2.654 6-6.485 6-3.473 0-5.814-1.885-6.371-5h1.53c.21.931.619 1.657 1.152 2.19C5.1 12.48 6.316 13 8 13s2.899-.52 3.69-1.31c.46-.461.828-1.066 1.055-1.824H10.5l.5 2-3.5-2.5 3.5-3z"/><path fill="#51BAA2" d="M8.114 1.926c3.473 0 5.815 1.885 6.371 5h-1.529c-.21-.93-.62-1.656-1.152-2.189-.791-.79-2.006-1.31-3.69-1.31-1.683 0-2.898.52-3.69 1.31a4.2 4.2 0 0 0-1.013 1.69h2.203l-.5-2 3.5 2.5-3.5 3 .5-2H1.63c.201-3.708 2.655-6 6.485-6"/></svg>