<svg xmlns="http://www.w3.org/2000/svg" width="16" height="16" fill="none" viewBox="0 0 16 16"><path fill="#3CC27B" d="M13.026 1.918a.75.75 0 0 1 1.056 1.056l-.052.056-2 2-.03.028v5.883l.03.029 2 2 .052.056a.75.75 0 0 1-1.056 1.056l-.056-.052-2-2-.028-.03H8.75v2a.75.75 0 0 1-1.5 0v-2H5a1 1 0 0 1-1-1V8.75H2a.75.75 0 1 1 0-1.5h2V5.058l-.03-.028-2-2-.052-.056a.75.75 0 0 1 1.056-1.056l.056.052 2 2 .028.03h5.884l.028-.03 2-2zM8.046 5q-.923 0-1.61.378a2.67 2.67 0 0 0-1.06 1.056Q5 7.11 5 8.008q0 .92.376 1.593.376.669 1.072 1.036.699.363 1.668.363.777 0 1.37-.22a2.54 2.54 0 0 0 .974-.62q.38-.4.503-.938l-1.611-.098a1 1 0 0 1-.262.37q-.172.152-.413.228-.242.075-.531.075-.438 0-.757-.17a1.2 1.2 0 0 1-.495-.484 1.53 1.53 0 0 1-.172-.746v-.004H11v-.442q0-.741-.225-1.294-.225-.555-.63-.923a2.6 2.6 0 0 0-.94-.549A3.5 3.5 0 0 0 8.046 5m.03 1.203q.38 0 .666.155.29.151.454.42.165.27.164.616H6.726q.014-.313.171-.57.172-.285.475-.451.306-.17.703-.17"/></svg>