<svg xmlns="http://www.w3.org/2000/svg" width="16" height="16" fill="none" viewBox="0 0 16 16"><path fill="#E85677" d="M12.96 10.918c.343.165.54.354.54.559v1.119l-.005.057c-.108.591-1.355 1.06-3.495 1.06-1.64 0-3.387-.469-3.495-1.06l-.005-.057v-1.12c0-.204.197-.393.538-.558.693.334 1.984.558 2.962.558 1.478 0 2.268-.225 2.96-.558"/><path fill="#E85677" d="M5.5 2.5c2 0 2 2 3.5 2h3q1.5 0 1.5 1.5h-4c-3 0-2.874-2-4-2H4v8h1.5v1.5H4q-1.5 0-1.5-1.5V4q0-1.5 1.5-1.5z"/><path fill="#E85677" d="M10 7c2.21 0 3.5.501 3.5 1.12v1.118l-.005.058c-.107.591-1.355 1.061-3.495 1.061-1.64 0-3.388-.47-3.495-1.061L6.5 9.238V8.12C6.5 7.501 8.29 7 10 7"/></svg>