<svg xmlns="http://www.w3.org/2000/svg" width="16" height="16" fill="none" viewBox="0 0 16 16"><path fill="#8FB45B" d="M8 2c1.222 0 1.696 0 1.881 1.369 1.783-1.604 2.08-1.308 3.069-.319s1.284 1.285-.32 3.068C14 6.303 14 6.778 14 8s0 1.696-1.37 1.88c1.605 1.784 1.309 2.08.32 3.07-.99.989-1.286 1.285-3.069-.32C9.696 14 9.222 14 8.001 14c-1.224 0-1.699 0-1.883-1.373-1.737 1.552-2.088 1.303-3.068.323-.99-.99-1.287-1.287.324-3.076C2.047 9.684 2 9.207 2 8c0-1.223 0-1.698 1.371-1.882-1.55-1.736-1.3-2.088-.32-3.068.99-.99 1.286-1.286 3.074.325C6.315 2.047 6.793 2 8 2m0 2.75c-.312 0-.925-.006-1.465.156a1.95 1.95 0 0 0-.856.495A1.55 1.55 0 0 0 5.25 6.5c0 .615.155 1.215.595 1.655s1.04.595 1.655.595H9c.486 0 1 .25.595.844-.06.06-.21.156-.595.156H7.5c-.38 0-.584-.095-.674-.162a.24.24 0 0 1-.07-.074l-.006-.012V9.5h-1.5c0 1.1 1.05 1.75 2.25 1.75H9c.616 0 1.216-.155 1.656-.595s.594-1.04.594-1.655a1.63 1.63 0 0 0-.356-1.052 1.76 1.76 0 0 0-.755-.526C9.663 7.244 9.159 7.25 9 7.25H7.5c-.384 0-.535-.096-.594-.156-.216-.215-.26-.654.06-.75.293-.088.68-.094 1.034-.094h.978c.389.02.606.116.705.187.089.065.067.091.067.063h1.5c0-.529-.275-.979-.688-1.278-.352-.254-.801-.403-1.307-.455l-.22-.016-.017-.001z"/></svg>