<svg xmlns="http://www.w3.org/2000/svg" width="16" height="16" fill="none" viewBox="0 0 16 16"><path fill="#E37ABF" d="M5.528 13.713q-1.128-.39-1.906-1.146a4.9 4.9 0 0 1-1.187-1.838q-.407-1.086-.407-2.472 0-1.367.407-2.48a5.3 5.3 0 0 1 1.2-1.911A5.3 5.3 0 0 1 5.56 2.634q1.141-.43 2.6-.43 1.348 0 2.408.394 1.064.394 1.801 1.123.742.724 1.128 1.725.39.996.385 2.205c.013 2.467-1.244 3.7-3.758 3.839-1.176.091-1.547.086-2.726.013a2.66 2.66 0 0 1-1.86-.878c-.489-.549-.787-1.358-.793-2.422q.005-.788.222-1.372.222-.585.584-.982a2.9 2.9 0 0 1 1.716-.915c.639-.096 1.777-.026 2.35.29 1.874.938 1.317 4.388 1.317 4.388.549.29 1.096-.223 1.173-.643.072-.38.151-.84.151-1.429a4.4 4.4 0 0 0-.244-1.485 2.9 2.9 0 0 0-.623-1.046 3.1 3.1 0 0 0-.89-.727c-.353-.19-.683-.401-1.097-.489a6 6 0 0 0-1.268-.131q-1.127 0-1.969.344a3.8 3.8 0 0 0-1.403.955 4 4 0 0 0-.843 1.445 5.7 5.7 0 0 0-.28 1.797q.004 1.073.299 1.901.299.825.878 1.386.58.562 1.43.85c1.46.498 2.608.405 4.209.227.194.33.393.613.626.935-.38.217-.916.399-1.733.514-1.262.188-2.614.118-3.821-.303m2.363-3.7q.552 0 .878-.212a1.16 1.16 0 0 0 .471-.63q.145-.42.136-1.036a2.8 2.8 0 0 0-.14-.92 1.04 1.04 0 0 0-.458-.574q-.321-.2-.896-.2-.502 0-.856.214a1.4 1.4 0 0 0-.534.597 2.1 2.1 0 0 0-.186.897q.005.48.154.91.15.425.494.692.345.263.937.263"/></svg>