<svg xmlns="http://www.w3.org/2000/svg" width="16" height="16" fill="none" viewBox="0 0 16 16"><path fill="#E7476B" fill-rule="evenodd" d="M10.87 1.32c.41 1.305-.142 3.025-1.516 3.828.425 0 1.516-.557 1.704-.877.819.042 2.394.384 3.197 2.305-.495-.438-1.221-.741-1.782-.741 1.315.873 2.587 2.273 2.094 4.826-.195-.423-.385-.872-.959-1.346.454 1.36.555 3.02-1.456 4.268.416-.76.468-2.07.442-2.63-.03.81-.603 2.668-2.663 3.614.61-.857.88-2.207.94-2.774-.218.446-.744 1.173-1.491 1.719-.932.68-1.636.895-1.741 1.726-.61-.474-.503-1.228.105-2.51s.386-1.622.275-1.7c-.707-.501-2.043.888-2.78 1.142-.328.111-.829-.4-.879-.825-.207-.158-.7-.672-.5-1.262.155.386.768.533 1.01.49.24-.043.995-.29.969-1.187-.026-.898-.57-1.879-1.756-1.791-.799.06-1.1.987-.892 1.25-.363.136-1.205-.233-1.206-1.062-.468-.242-.502-.79-.416-1.082a.46.46 0 0 1-.246-.402c0-.316.975-.996 1.686-1.232.1-.402.771-1.41 2.326-1.846 1.244-.35 2.267-.174 2.613-.065.801-.89 2.516-.939 2.922-1.837m-.118 5.576c.674.82.737 1.903.7 2.274-.593-.522-1.337-.374-1.561-.315.583.038 1.791.99 2.127 1.8.434-.758.774-2.692-1.266-3.76M7.018 4.729c-.815.094-2.084.415-2.504.771.089.16.665.582.739.54.41-.24.513-.18 1.765-1.311" clip-rule="evenodd"/></svg>