<svg xmlns="http://www.w3.org/2000/svg" width="16" height="16" fill="none" viewBox="0 0 16 16"><path fill="#F6816A" d="M9 10.5v2l1 1.5H6l1-1.5v-2zM4.554 5.51a.5.5 0 0 1 .255.136l.854.854H6v1h-.544c-.1 0-.196-.03-.277-.084l-.077-.062L4.25 6.5H3.061l1.03 1.17a.5.5 0 0 1 0 .66L3.062 9.5H4.25l.853-.854.077-.062a.5.5 0 0 1 .277-.084H6v1h-.337l-.854.854a.5.5 0 0 1-.353.146h-2.5a.501.501 0 0 1-.375-.83L3.05 8 1.58 6.33a.5.5 0 0 1 .375-.83h2.5zm6.432.05a.5.5 0 0 1 .514.024l3 2 .05.038a.5.5 0 0 1-.05.794l-3 2a.501.501 0 0 1-.777-.416v-.5H10v-1h1.223a.5.5 0 0 1 .5.5v.065L13.32 8l-1.598-1.066V7a.5.5 0 0 1-.5.5H10v-1h.723V6l.004-.068a.5.5 0 0 1 .26-.372M8 6.5a1 1 0 0 1 1 1v1a1 1 0 1 1-2 0v-1a1 1 0 0 1 1-1m1-3v2H7v-2L6 2h4z"/></svg>