<svg xmlns="http://www.w3.org/2000/svg" width="16" height="16" fill="none"><path fill="#9A5DFB" fill-rule="evenodd" d="M9.066 2a.758.758 0 0 0-.242.044.685.685 0 0 1 .288.404c.003.022.01.037.013.06a.343.343 0 0 1 .006.055c.012.274-.071.308-.13.47a.667.667 0 0 0 .043.613c.01.022.022.046.037.068-.118-.787.536-.905.657-1.15.01-.216-.167-.359-.307-.458A.683.683 0 0 0 9.066 2Zm.985.177c-.012.072-.003.053-.006.09-.003.025-.003.057-.006.081-.006.025-.013.05-.022.075a.668.668 0 0 1-.025.075l-.034.071c-.009.013-.015.025-.025.038l-.018.028c-.016.021-.031.043-.047.062-.018.019-.034.04-.055.056v.003c-.019.016-.038.034-.06.05-.064.05-.139.087-.207.134-.022.015-.043.028-.062.046a.454.454 0 0 0-.059.05c-.021.019-.037.037-.056.06-.015.018-.034.04-.046.061a.796.796 0 0 0-.043.066l-.035.071c-.009.025-.018.047-.024.072-.01.028-.016.053-.022.078-.003.012-.003.028-.006.04-.003.013-.003.025-.006.037l-.003.078c0 .019 0 .038.003.056 0 .025.003.05.009.078a.64.64 0 0 0 .015.075c.01.025.016.05.025.074.006.016.016.031.022.044l-.713-.277a7.65 7.65 0 0 0-.36-.093l-.195-.047a5.732 5.732 0 0 0-.564-.084c-.006 0-.009-.003-.015-.003a5.518 5.518 0 0 0-1.528.056 6.22 6.22 0 0 0-.418.087l-.14.037c-.046.019-.09.04-.133.06l-.102.046c-.006.003-.013.003-.016.006-.03.016-.059.028-.087.044a1.362 1.362 0 0 0-.118.06c-.021.008-.043.02-.061.03a1.849 1.849 0 0 0-.183.109c-.022.016-.044.028-.062.044-.003.003-.006.003-.01.006a.714.714 0 0 0-.058.043l-.006.006-.047.038c-.006.003-.012.01-.019.012-.015.013-.03.028-.046.04-.003.007-.01.01-.012.013-.02.019-.038.034-.056.053-.003 0-.003.003-.006.006a.873.873 0 0 0-.056.053c-.003.003-.003.006-.006.006a.729.729 0 0 0-.047.05l-.022.019a.873.873 0 0 1-.052.056c-.003.006-.01.01-.013.015l-.07.075a2.343 2.343 0 0 1-.527.417 2.228 2.228 0 0 1-.397.168c-.13.028-.264.08-.379.09-.024 0-.052.006-.077.01l-.077.018-.075.028c-.025.01-.05.022-.074.034-.022.016-.047.028-.068.044a.507.507 0 0 0-.062.053c-.022.015-.044.037-.062.056-.019.022-.038.04-.053.062-.016.025-.034.047-.047.072a.548.548 0 0 0-.043.071c-.012.028-.025.053-.034.081-.01.025-.019.053-.028.081-.006.025-.012.05-.015.075 0 .003-.004.006-.004.009-.006.028-.006.065-.009.084-.003.022-.006.04-.006.062a.332.332 0 0 0 .037.156v.003c.01.019.022.037.034.056.013.019.025.037.04.056a.823.823 0 0 0 .053.05.454.454 0 0 0 .06.05c.074.065.092.087.188.136.016.01.031.016.05.025.003 0 .006.003.01.003a.64.64 0 0 0 .043.165c.009.019.015.038.024.056.003.006.006.013.01.016.012.025.024.046.037.068l.046.066c.016.018.034.04.053.059.018.018.037.034.059.053 0 0 .003.003.006.003.019.015.037.03.056.043a.493.493 0 0 0 .068.04.503.503 0 0 0 .071.035c.019.01.04.016.062.022.003.003.006.003.013.006l.04.01c-.01.167-.013.326.012.382.028.062.165-.128.3-.345-.018.214-.03.466 0 .541.035.078.22-.165.382-.432 2.197-.51 4.202 1.014 4.413 3.167-.04-.336-.452-.523-.641-.476-.093.23-.251.525-.506.71a2.003 2.003 0 0 0-.03-.623 2.016 2.016 0 0 1-.385.784.865.865 0 0 1-.744-.336c-.012-.01-.015-.028-.024-.04-.01-.022-.019-.044-.025-.066a.26.26 0 0 1-.019-.065c-.003-.022-.003-.044-.003-.069v-.046c.003-.022.01-.044.016-.066a.538.538 0 0 1 .021-.065c.013-.022.022-.044.037-.065.053-.15.053-.271-.043-.343a.352.352 0 0 0-.059-.03l-.04-.013-.025-.01c-.022-.006-.043-.012-.065-.015a.235.235 0 0 0-.065-.01.505.505 0 0 0-.068-.006c-.016 0-.031.003-.047.003a.24.24 0 0 0-.068.01.533.533 0 0 0-.13.034l-.062.028c-.019.01-.037.022-.059.031-.722.473-.291 1.58.202 1.901-.186.034-.375.075-.428.115l-.006.006c.133.081.272.15.418.209.198.065.41.124.502.15v.002c.257.053.518.072.781.056a2.953 2.953 0 0 0 2.702-2.526l.019.08c.01.057.022.116.028.175v.003c.006.028.01.056.012.081v.013a.766.766 0 0 1 .006.08c.004.035.007.069.007.103v.05l.003.05c0 .018-.003.037-.003.056v.043c0 .022-.003.04-.003.063 0 .012 0 .024-.004.04 0 .022-.003.043-.003.068-.003.01-.003.02-.003.028l-.009.072c0 .01 0 .019-.003.028-.003.031-.01.06-.013.09v.007l-.018.087v.009l-.019.084-.003.012a.834.834 0 0 1-.022.084v.01c-.009.03-.018.059-.024.087-.003.003-.003.006-.003.006l-.028.093c-.013.031-.022.06-.034.09-.013.032-.022.063-.034.09l-.038.091h-.003c-.012.028-.025.06-.04.087a.148.148 0 0 1-.01.022c-.002.003-.002.006-.006.01a2.942 2.942 0 0 1-.87 1.045c-.025.015-.05.034-.075.053-.006.006-.015.009-.021.015l-.069.047.01.018h.003l.13-.018h.003c.08-.013.161-.028.242-.044a.524.524 0 0 0 .068-.015l.043-.01c.022-.003.044-.009.065-.012l.056-.016c.31-.074.61-.177.899-.298A4.968 4.968 0 0 1 7.615 14a5.079 5.079 0 0 0 1.057-.184 4.955 4.955 0 0 0 2.929-2.349 4.975 4.975 0 0 1-.834 2.001 4.883 4.883 0 0 0 2.132-3.335c.106.491.137.999.09 1.5 2.238-3.134.186-6.382-.672-7.237-.004-.007-.007-.01-.007-.016-.003.003-.003.003-.003.006 0-.003 0-.003-.003-.006 0 .037-.003.075-.006.112-.01.072-.019.14-.031.209a4.994 4.994 0 0 1-.053.205 2.593 2.593 0 0 1-.074.199 2.121 2.121 0 0 1-.205.367c-.04.06-.083.115-.127.168a2.32 2.32 0 0 1-.145.156 1.99 1.99 0 0 1-.09.077c-.025.022-.047.04-.071.063a1.73 1.73 0 0 1-.174.121c-.059.037-.12.075-.183.106l-.195.087a2.166 2.166 0 0 1-.41.112 2.374 2.374 0 0 1-.36.031 2.317 2.317 0 0 1-.628-.096H9.55a2.293 2.293 0 0 0 .412-.072 2.178 2.178 0 0 0 .583-.255c.059-.04.118-.081.173-.125.056-.043.109-.09.159-.14.052-.046.099-.1.145-.152a3.07 3.07 0 0 0 .13-.168l.019-.031c.031-.05.062-.1.09-.15a2.148 2.148 0 0 0 .22-.59c.012-.072.025-.14.03-.209.007-.072.013-.143.013-.212a2.405 2.405 0 0 0-.03-.357 2.261 2.261 0 0 0-.047-.209c-.022-.065-.044-.134-.068-.199a2.153 2.153 0 0 0-.087-.193c-.034-.062-.068-.124-.106-.183-.04-.06-.08-.116-.123-.172-.047-.052-.093-.105-.143-.158a1.943 1.943 0 0 0-.08-.078 5.708 5.708 0 0 0-.431-.305.576.576 0 0 0-.062-.031 1.203 1.203 0 0 0-.295-.13Z" clip-rule="evenodd"/></svg>
