<svg xmlns="http://www.w3.org/2000/svg" width="16" height="16" fill="none"><path fill="#33ACC5" fill-rule="evenodd" d="M8.376 3.173c-.23.243-.56.394-.925.394-.696 0-1.261-.552-1.261-1.234 0-.682.565-1.234 1.261-1.234.659 0 1.2.493 1.257 1.123.761.357 1.29.965 1.661 1.611.455.793.696 1.681.854 2.335.425 1.767.045 4.06-.267 5.195a.5.5 0 1 1-.964-.266c.296-1.076.625-3.173.258-4.695-.154-.641-.369-1.41-.748-2.07-.284-.495-.646-.905-1.126-1.159ZM2.06 4.411c1.033-.892 2.486-.971 3.627-.629a.5.5 0 0 1-.287.958c-.924-.277-1.988-.175-2.686.428-.341.295-.674 1.025-.154 1.793a.5.5 0 1 1-.828.56 2.342 2.342 0 0 1 .328-3.11Zm9.603-.594a.5.5 0 0 0 0 1c.17 0 .52.037.869.17.348.133.632.338.775.635.478.989.02 2.377-1.26 3.7a.5.5 0 0 0 .719.696c1.357-1.404 2.207-3.248 1.442-4.83-.296-.613-.84-.952-1.319-1.135a3.644 3.644 0 0 0-1.226-.236ZM8.745 5.092a.5.5 0 1 0-.224-.975C7.29 4.4 5.08 5.43 3.584 7.014 2.598 8.057 2.02 9.089 1.768 10.1a4.98 4.98 0 0 0-.08 2.056c-.414.202-.7.621-.7 1.105 0 .682.565 1.235 1.262 1.235.697 0 1.262-.553 1.262-1.235 0-.527-.339-.978-.816-1.154a3.99 3.99 0 0 1 .042-1.765c.202-.811.68-1.696 1.572-2.641 1.345-1.424 3.374-2.365 4.435-2.609ZM4.45 9.205a.5.5 0 0 0-.774.633c.544.665 1.988 2.209 4.92 2.976 1.491.39 2.778.289 3.768-.001a5.65 5.65 0 0 0 .872-.335c.212.158.477.252.764.252.697 0 1.262-.553 1.262-1.234 0-.682-.565-1.235-1.262-1.235-.697 0-1.262.553-1.262 1.235 0 .037.002.073.005.11a4.68 4.68 0 0 1-.66.247c-.824.242-1.926.336-3.234-.006-2.669-.699-3.944-2.086-4.4-2.642Zm.432 2.805a.5.5 0 0 1 .604.368c.16.662.786 1.417 1.58 1.51.654.078 1.219-.222 1.6-.564a.5.5 0 0 1 .668.743c-.508.458-1.347.937-2.386.815-1.324-.157-2.206-1.327-2.434-2.269a.5.5 0 0 1 .368-.603Zm2.75-2.514a1 1 0 1 0 0-2 1 1 0 0 0 0 2Z" clip-rule="evenodd"/></svg>
