<svg xmlns="http://www.w3.org/2000/svg" width="16" height="16" fill="none"><path fill="#6EBBF2" d="M6.36 6 3.1 11.59l-.77-1.31.91-1.59H1.42L1 8l.42-.69H4L4.76 6h1.6Zm.73 4.41h6.44l-.77 1.31h-1.82l.91 1.59-.42.69h-.77L9.4 11.72H7.9l-.81-1.31Zm3.47-2.87L7.3 2h1.54l.91 1.59.91-1.59h.77l.42.69-1.33 2.21.85 1.31-.81 1.33Z"/><path fill="#5588F1" d="M8.88 5.59H2.4l.77-1.31h1.82l-.91-1.59L4.5 2h.77L6.6 4.21h1.5l.78 1.38ZM9.64 10l3.26-5.59.77 1.31-.91 1.59h1.82L15 8l-.42.69h-2.59L11.24 10h-1.6ZM5.46 8.57l3.24 5.36H7.16l-.91-1.58-.77 1.58h-.91l-.42-.69 1.33-2.2-.75-1.17.73-1.3Z"/></svg>
