<svg xmlns="http://www.w3.org/2000/svg" width="16" height="16" fill="none" viewBox="0 0 16 16"><path fill="#3F9F61" d="M6.89 1.74a2 2 0 0 1 2.22 0l4 2.666A2 2 0 0 1 14 6.07v3.86l-.004.125a2 2 0 0 1-.887 1.539l-4 2.667-.128.078c-.608.343-1.43.213-2.217-.197-.518-.293-.642-.42-.844-.588.542-.235.844-.47 1.135-.786.413.316.926.482 1.38.173l3.842-2.595a.5.5 0 0 0 .223-.416V6.07a.5.5 0 0 0-.223-.416l-4-2.667a.5.5 0 0 0-.489-.036l-.065.036-4 2.667a.5.5 0 0 0-.223.416v3.86c0 .976.549 1.326 1.116 1.344.434-.047.645-.197.752-.315a.87.87 0 0 0 .206-.576V5.246h1.5v5.137a2.36 2.36 0 0 1-.594 1.583 2.4 2.4 0 0 1-1.074.67c-.328.112-.683.17-1.044.154l-.038.002v-.004a2.47 2.47 0 0 1-1.628-.748c-.443-.443-.692-1.032-.692-1.985L2 9.93V6.07a2 2 0 0 1 .79-1.591l.1-.073z"/><path fill="#3F9F61" d="m9.714 5.16.274.02c.617.074 1.08.316 1.396.667.34.38.353.815.353 1.101h-1.412c0 .023-.001-.037-.057-.1-.034-.036-.145-.142-.461-.178l-.149-.01c-.393-.016-.542.08-.583.115-.034.03-.064.076-.064.173 0 .084.03.172.09.234.051.051.198.163.584.163.486 0 .997.11 1.41.396.44.305.73.79.73 1.396 0 1.016-.885 1.892-2.14 1.892-1.095 0-2.174-.64-2.174-1.72h1.5c0-.046-.023-.01.075.064.094.07.286.156.6.156.538 0 .639-.313.64-.392a.2.2 0 0 0-.02-.096.2.2 0 0 0-.066-.067c-.09-.063-.275-.13-.555-.13-.699 0-1.265-.215-1.656-.614a1.83 1.83 0 0 1-.518-1.282c0-.454.164-.947.584-1.308.413-.357.977-.504 1.619-.48"/></svg>