<svg xmlns="http://www.w3.org/2000/svg" width="16" height="16" fill="none" viewBox="0 0 16 16"><path fill="#52C38F" d="M8.772 12.577h4.76a.9.9 0 0 0 .429-.129c.131-.075.267-.17.343-.3a.87.87 0 0 0 .129-.429.87.87 0 0 0-.129-.429l-3.216-5.532a.8.8 0 0 0-.3-.3 1.04 1.04 0 0 0-.472-.129.9.9 0 0 0-.43.13.8.8 0 0 0-.3.3l-.814 1.414-1.63-2.744c-.076-.13-.168-.268-.3-.343S6.565 4 6.413 4s-.297.01-.429.086a1 1 0 0 0-.343.343L1.653 11.29c-.076.13-.086.279-.086.429s.01.299.086.429.212.225.343.3a.9.9 0 0 0 .43.129h3.001c1.19 0 2.055-.534 2.659-1.544l1.458-2.53.772-1.33 2.358 4.031h-3.13zm-3.388-1.373H3.283l3.13-5.403L8 8.503l-1.051 1.832c-.4.656-.858.87-1.565.87"/></svg>