<svg xmlns="http://www.w3.org/2000/svg" width="16" height="16" fill="none" viewBox="0 0 16 16"><path fill="#76B900" fill-rule="evenodd" d="M3.72 4.307C4.676 3.69 5.816 3.25 7 3.25c1.64 0 2.786.414 3.666 1.001.647.432 1.155.971 1.551 1.392q.17.181.313.327l.435.434-.341.512-.061.092c-.471.707-.999 1.5-1.63 2.112-.678.659-1.534 1.169-2.647 1.169-.98 0-1.808-.233-2.487-.683-.675-.45-1.15-1.08-1.48-1.79L4.1 7.34l.37-.37c.884-.884 1.822-1.22 2.718-1.22.863 0 1.614.312 2.148.58l-.67 1.34c-.466-.232-.965-.42-1.477-.42-.367 0-.784.096-1.236.42q.287.426.677.686c.393.261.922.432 1.657.432.601 0 1.102-.259 1.602-.744.405-.393.769-.894 1.152-1.46-.373-.395-.717-.759-1.206-1.085C9.214 5.086 8.36 4.75 7 4.75c-.817 0-1.677.309-2.47.818a6.8 6.8 0 0 0-1.726 1.595c.527 2.152 2.056 3.848 4.416 4.09 2.214.229 3.6-.45 4.496-1.22.713-.614 1.1-1.247 1.396-1.73.101-.164.191-.312.28-.434l1.216.878a4 4 0 0 0-.125.2c-.265.44-.856 1.42-1.788 2.222-1.194 1.028-2.986 1.85-5.629 1.577-3.278-.337-5.254-2.82-5.802-5.601l-.06-.304.172-.257a8.2 8.2 0 0 1 2.343-2.277" clip-rule="evenodd"/></svg>