<svg xmlns="http://www.w3.org/2000/svg" width="16" height="16" fill="none"><g clip-path="url(#a)"><path fill="#457CE7" d="m7.804 9.795-1.788 2.973-2.965-5.092L3.045 13H1V4h2.068l2.995 5.332V6.92zm.689-3.75c.014-.025 0-2.02.004-2.045h-2.07c0 .031-.003 2.015 0 2.045zm6.308 4.217a.43.43 0 0 0 .148-.166.46.46 0 0 0 .05-.223c-.005-1.805-1.383-3.35-3.082-3.35-.51 0-1.013.134-1.463.392a3.16 3.16 0 0 0-1.112 1.084c-.006-.016-.874-1.46-.883-1.476H6.43l1.96 3.272L6.476 13h2.018l.87-1.42.885 1.42h1.998l-1.812-3.033a.45.45 0 0 1-.047-.192c0-.212.039-.422.115-.618s.188-.374.33-.524c.14-.15.307-.27.492-.35a1.4 1.4 0 0 1 .58-.124h.012c.854 0 .997.546 1.181.798.364.505 1.09.284 1.09.941q.002.116.057.215a.4.4 0 0 0 .15.155.39.39 0 0 0 .405-.006Z"/></g><defs><clipPath id="a"><path fill="#fff" d="M1 4h14v9H1z"/></clipPath></defs></svg>