<svg xmlns="http://www.w3.org/2000/svg" width="16" height="16" fill="none"><path fill="#D9295E" fill-rule="evenodd" d="M8 1.75a.75.75 0 0 1 .75.75v2.036l3.585 1.793A.75.75 0 0 1 12.75 7v3.537l1.585.792a.75.75 0 1 1-.67 1.342L12 11.839 8.335 13.67a.75.75 0 0 1-.67 0L4 11.839l-1.665.832a.75.75 0 1 1-.67-1.342l1.585-.793V7a.75.75 0 0 1 .415-.67L7.25 4.535V2.5A.75.75 0 0 1 8 1.75Zm0 4.089L5.677 7 8 8.161 10.323 7 8 5.839Zm3.25 2.375-2.5 1.25v2.322l2.5-1.25V8.215Zm-4 3.572V9.465l-2.5-1.25v2.322l2.5 1.25Z" clip-rule="evenodd"/></svg>
