<svg xmlns="http://www.w3.org/2000/svg" width="16" height="16" fill="none"><path fill="#DF9947" fill-rule="evenodd" d="M2 3.2C2 2.537 2.448 2 3 2h10c.552 0 1 .537 1 1.2v9.6c0 .663-.448 1.2-1 1.2H6.683v-3.75s3.512-.5 4.196-3.5c0 0 1.27.15 1.756-.35.487-.5.487-1.65 0-1.65h-2.049c-.391-1-2.147-1-2.147 0v1c0 1.6-.586 2-1.17 2-.586 0-1.172 0-1.172-1 0-2-1.17-2-1.756-2-.966 0-1.223.606-1.455 1.151-.188.445-.36.849-.886.849V3.2Zm0 7.3v2.3c0 .663.448 1.2 1 1.2h1.927l-.586-3.75L2 10.5Z" clip-rule="evenodd"/></svg>
