<svg xmlns="http://www.w3.org/2000/svg" width="16" height="16" fill="none"><path fill="#4CA4DA" fill-rule="evenodd" d="M10 3c1.188 0 2.295.288 3.227.784C11.93 2.683 10.133 2 8.144 2 4.198 2 1 4.686 1 8s3.198 6 7.144 6c1.989 0 3.787-.682 5.083-1.784A6.868 6.868 0 0 1 10 13c-3.314 0-6-2.239-6-5s2.686-5 6-5Zm-1.412 7.828c-.269.114-.54.172-.814.172-.432 0-.82-.076-1.166-.229a2.498 2.498 0 0 1-.873-.63 2.8 2.8 0 0 1-.545-.944A3.516 3.516 0 0 1 5 8.028c0-.428.063-.826.19-1.193.125-.366.307-.686.543-.96a2.49 2.49 0 0 1 .872-.642A2.81 2.81 0 0 1 7.771 5c.29 0 .57.044.842.133.271.088.516.219.735.39.218.172.399.384.541.635.142.252.23.54.261.866H8.965c-.074-.32-.217-.56-.427-.721a1.23 1.23 0 0 0-.767-.24c-.28 0-.516.054-.711.164-.195.11-.353.257-.475.442-.12.185-.209.395-.264.63a3.177 3.177 0 0 0 0 1.434c.055.227.144.432.265.614.121.182.28.328.475.438.195.11.432.165.712.165.412 0 .73-.106.953-.316.225-.21.355-.516.392-.916H7.87v-.941h2.367v3.094H9.45l-.126-.649c-.22.289-.466.49-.735.606Zm3.662-5.683v4.66H15v1.062h-3.989V5.145h1.239Z" clip-rule="evenodd"/></svg>
