<svg xmlns="http://www.w3.org/2000/svg" width="16" height="16" fill="none"><path fill="#4CA4DA" fill-rule="evenodd" d="M10 3c1.188 0 2.295.288 3.227.784C11.93 2.683 10.133 2 8.144 2 4.198 2 1 4.686 1 8s3.198 6 7.144 6c1.989 0 3.787-.682 5.083-1.784A6.9 6.9 0 0 1 10 13c-3.314 0-6-2.239-6-5s2.686-5 6-5m-1.412 7.828a2.1 2.1 0 0 1-.814.172q-.647 0-1.166-.229a2.5 2.5 0 0 1-.873-.63 2.8 2.8 0 0 1-.545-.944A3.5 3.5 0 0 1 5 8.028q0-.642.19-1.193.188-.549.543-.96a2.5 2.5 0 0 1 .872-.642A2.8 2.8 0 0 1 7.771 5q.434 0 .842.133.407.133.735.39.328.258.541.635t.261.866H8.965q-.111-.48-.427-.721a1.23 1.23 0 0 0-.767-.24q-.42 0-.711.164a1.36 1.36 0 0 0-.475.442q-.18.277-.264.63a3.2 3.2 0 0 0 0 1.434q.083.34.265.614t.475.438q.292.165.712.165.618 0 .953-.316.337-.316.392-.916H7.87v-.941h2.367v3.094H9.45l-.126-.649q-.33.433-.735.606Zm3.662-5.683v4.66H15v1.062h-3.989V5.145z" clip-rule="evenodd"/></svg>