<svg xmlns="http://www.w3.org/2000/svg" width="16" height="16" fill="none" viewBox="0 0 16 16"><path fill="#AC4C19" d="M10 4q-.002-.072-.008-.142l-.01-.108A2 2 0 0 1 8 5.5V6a2 2 0 0 0 2-2"/><path fill="#AC4C19" d="M9 5.73C8.706 5.9 8.365 6 8 6v-.5h1z"/><path fill="#AC4C19" d="M9.007 9.57c-.004.451 0 1.93 1.493 1.93.724 0 1.772-.41 2.336-1.97l-.803-.029C12.5 9 13.15 7.899 13.5 7l.207.212c.52.554 1.23 1.538.793 3.288l-.577-.595C13.368 13.154 9.84 14 8 14V5.5h1c0 1 .007 1.5.007 4.07"/><path fill="#FF945A" d="M8 5v9c-1.812 0-5.264-.82-5.899-3.947L1.5 10.5c-.5-2 .5-3 1-3.5.35.899 1.266 2 1.733 2.501l-1.066.04c.565 1.55 1.61 1.959 2.333 1.959 1.492 0 1.497-1.479 1.493-1.93C6.993 7 7 6 7 5z"/><path fill="#FF945A" d="m5 7 3-.5 3 .5v1l-3 .5L5 8zm3-5a2 2 0 1 1 0 4 2 2 0 0 1 0-4m0 1a1 1 0 1 0 0 2 1 1 0 0 0 0-2"/><path fill="#AC4C19" d="M9.003 6.83 8 7.5v-1h1.003zM8 7.5v1l3-.5v-.5zm0 0-1.2.8L5 8v-.5z"/><path fill="#FF945A" d="M13.5 7c.5 4.5-2.5 5.5-4.5 5.5.72 0 1.114-.48 1.315-1.009q.089.008.185.009c.724 0 1.772-.41 2.336-1.97l-.803-.029C12.5 9 13.15 7.899 13.5 7"/></svg>