<svg xmlns="http://www.w3.org/2000/svg" width="16" height="16" fill="none" viewBox="0 0 16 16"><path fill="#EEAC30" d="M10.174 3.286c-.917-.295-1.851-.336-2.804-.24a5.6 5.6 0 0 0-1.54.39c-1.068.45-1.87 1.232-2.349 2.408-.343.842-.467 1.738-.48 2.657-.013.97.095 1.928.267 2.877.156.86.363 1.704.66 2.519.029.077.064.104.139.103l2.814-.002h.834l.067-.003.04-.002-.015-.042-.026-.07-.206-.488q-.229-.526-.437-1.063c-.412-1.089-.727-2.21-.824-3.397-.042-.524-.036-1.045.093-1.555.148-.584.465-.995.991-1.168.475-.16.981-.154 1.453.017.429.157.708.486.828.978.09.379.09.76.022 1.143-.054.293-.161.56-.354.775-.345.384-.777.473-1.24.444a4 4 0 0 1-.25-.026l-.12-.014.002.04a.4.4 0 0 0 .006.068l.058.268c.045.215.09.431.15.642q.17.623.397 1.214a6.3 6.3 0 0 0 3.118-1.104l.044-.03a3.2 3.2 0 0 0 1.07-1.255c.408-.857.487-1.773.366-2.72-.125-.976-.515-1.795-1.186-2.437a4.04 4.04 0 0 0-1.588-.927"/></svg>