<svg xmlns="http://www.w3.org/2000/svg" width="16" height="16" fill="none"><path fill="#61C5BA" fill-rule="evenodd" d="M7.895 2.305c.169.844.277 2.876 0 4.127-.797 3.596-.822 6.567 1.71 7.58 2.531 1.013 4.987-2.14 4.152-4.665-.77-2.33-2.355-3.258-3.165-3.731l-.186-.11a25.597 25.597 0 0 0-.82-.47c-.419-.232-.77-.428-.914-.566-.051-.28-.09-.564-.125-.833-.116-.872-.208-1.568-.652-1.332Zm1.16 3.61c1.503.688 3.667 2.38 3.667 4.381 0 2.001-1.176 2.51-2.036 2.732.416-.782.763-1.642.433-3.62-.234-1.404-.948-2.218-1.717-3.093a37.41 37.41 0 0 1-.348-.4Z" clip-rule="evenodd"/><path fill="#61C5BA" d="M7.445 4.997c.391-2.033-.072-3.742-.235-3.905-.323.093-.223.255-.19.458.157.973.104 1.443.104 2.198 0 1.955-2.255 3.387-2.52 5.243-.174 1.22-.096 2.267.832 3.44.929 1.173 2.791 1.33 2.01.744C6.662 12.59 5.783 11.35 5.783 10c0-1.952 1.173-2.462 1.661-5.003Z"/><path fill="#61C5BA" d="M6.225 5.124c.528-.675.546-1.999.455-2.58-.23 0-.128.675-.328 1.323-.268.867-.688 1.23-1.21 1.6-1.06.748-2.893 2.66-3.042 4.236-.047.5-.13 1.922.94 3.266 1.268 1.592 4.188 1.374 3.712 1.162-1.842-.822-3.03-1.643-3.31-3.527-.33-2.219 2.122-4.636 2.783-5.48Z"/></svg>
