<svg xmlns="http://www.w3.org/2000/svg" id="Calque_1" data-name="Calque 1" viewBox="0 0 16 16"><path d="M12.5 14h-9A1.55 1.55 0 0 1 2 12.5v-9A1.55 1.55 0 0 1 3.5 2h9a1.55 1.55 0 0 1 1.55 1.5v9A1.55 1.55 0 0 1 12.5 14" style="fill:#001d37"/><path d="M3.91 4.43h1.24v7H3.91Zm.57 3.08h1.68a.7.7 0 0 0 .33-.08.6.6 0 0 0 .21-.25.84.84 0 0 0 .08-.37v-.46A.9.9 0 0 0 6.7 6a.56.56 0 0 0-.54-.34H4.48V4.43h1.68a2.1 2.1 0 0 1 1 .22 1.55 1.55 0 0 1 .66.63 2 2 0 0 1 .22 1v.66a2 2 0 0 1-.22 1 1.5 1.5 0 0 1-.66.62 2.1 2.1 0 0 1-1 .22H4.48Zm4.89 3.83a1.5 1.5 0 0 1-.65-.43 1.5 1.5 0 0 1-.34-.69l1-.42a.93.93 0 0 0 .36.42 1.1 1.1 0 0 0 .55.14.87.87 0 0 0 .46-.11A.35.35 0 0 0 11 10a.35.35 0 0 0-.1-.27.53.53 0 0 0-.25-.15l-.43-.12h-.36a4.5 4.5 0 0 1-.69-.25 1.13 1.13 0 0 1-.45-.42 1.4 1.4 0 0 1-.19-.78 1.53 1.53 0 0 1 .21-.81 1.4 1.4 0 0 1 .6-.54 2.1 2.1 0 0 1 .91-.18 2.5 2.5 0 0 1 .84.14 1.6 1.6 0 0 1 .6.42 1.6 1.6 0 0 1 .32.66L11 8a.72.72 0 0 0-.29-.35.8.8 0 0 0-.44-.13.7.7 0 0 0-.41.11.34.34 0 0 0 0 .53.6.6 0 0 0 .27.15 4 4 0 0 0 .45.12h.12a3.5 3.5 0 0 1 .76.23 1.13 1.13 0 0 1 .5.43 1.55 1.55 0 0 1 .2.85 1.5 1.5 0 0 1-.22.83 1.4 1.4 0 0 1-.63.54 2.2 2.2 0 0 1-1 .2 2.3 2.3 0 0 1-.94-.17" style="fill:#278dd4"/></svg>