<svg xmlns="http://www.w3.org/2000/svg" width="16" height="16" fill="none"><g clip-path="url(#a)"><path fill="#E2574C" d="M6.384 11.4a3.998 3.998 0 0 1-.001.004v-.003Zm-.424-.79.014.032a1.252 1.252 0 0 1-.021-.05l.007.019Zm-.195-.586c.01.04.021.082.034.123-.011-.04-.024-.082-.034-.123Zm-.054-.213a4.29 4.29 0 0 0 .001 0Zm-.103 1.282a5.332 5.332 0 0 1-.343-1.157l-1.306.36s.16-.893 1.198-1.33c-.059-1.409.186-2.747.629-4.066-3.005 1.599-4.912.081-4.78.923.238 2.117 1.452 6.277 4.842 5.742-.09-.152-.17-.31-.24-.472ZM2.387 7.528l1.968-.505c-.078.983-1.41 1.3-1.968.505Zm3.73-2.818-.01.03c.004-.01.008-.02.01-.03Zm-.035.111.024-.08c-.006.026-.016.052-.024.08Zm-.034.116.018-.058-.02.056.002.002Zm-.322 1.307.009-.048-.01.048Zm-.022.124c0-.018.005-.034.009-.051l-.01.052v-.001Zm-.013.088.014-.087-.015.088v-.001Zm-.056.362c.004-.03.009-.061.012-.092l-.012.092Zm0 .022v-.022a.201.201 0 0 0-.004.021l.004.001Zm-.015.094v-.025a.07.07 0 0 1 0 .025Zm-.013.11c0-.015.003-.028.005-.042-.003.015-.003.029-.005.043v-.001Zm-.035.383.01-.116a.931.931 0 0 0-.01.116ZM5.556 8.67c0 .054.006.109.01.163a8.086 8.086 0 0 1-.018-.316c.004.05.005.1.008.153Z"/><path fill="#2EAD33" d="M13.928 5.152c-.51.088-1.73.196-3.24-.196L9.45 9.584l-2.336-.636 4.53 1.234c-.662.575-1.273.84-2.508.579l-.559 2.094-.074-.016c3.261 1 5.525-2.95 6.076-5.243.268-.974.385-1.711.416-2.187.038-.537-.34-.38-1.068-.257Zm-1.253 3.456-2.012-.558c.922-1.253 2.486-.478 2.557.71l-.545-.152ZM9.279 7.603Zm-.053-.267Zm-.092-.253Zm-3.043 3.819-.034-.071a3.896 3.896 0 0 1 .034.07Zm.026-6.19-.01.03a.636.636 0 0 0 .01-.031Zm-.029.09c0 .007-.004.013-.006.02l.013-.039a.15.15 0 0 0-.007.018v.001Zm-.031.103-.009.03.018-.057a.213.213 0 0 0-.009.026v.001Zm-.097 5.707.014.031a1.247 1.247 0 0 1-.021-.05l.007.019Zm-.256-4.244c0-.018.005-.034.009-.051a1.609 1.609 0 0 0-.01.052v-.001Zm-.013.088.014-.087-.015.088v-.001Zm-.12.97c.005-.038.007-.077.01-.115a.931.931 0 0 0-.01.116ZM5.557 8.67c.004.057.006.111.012.167a9.632 9.632 0 0 1-.019-.32l.007.153Z"/><path fill="#1D8D22" d="M10.688 4.956C9.177 4.567 8.146 3.863 7.75 3.539c-.475-.39-.729-.68-.943-.467-.934 1.715-1.354 3.81-1.239 5.763.037.547.147 1.087.328 1.607.121.338.285.66.49.958.522.748 1.235 1.224 2.196 1.457l.552-2.095c-1.251-.38-1.74-.956-2.018-1.811l2.335.636 1.237-4.631Zm-1.41 2.65-2.557-.708c.793-1.148 2.448-.633 2.558.708Z"/></g><defs><clipPath id="a"><path fill="#fff" d="M1 3h14v10H1z"/></clipPath></defs></svg>
