<svg xmlns="http://www.w3.org/2000/svg" width="16" height="16" fill="none"><g clip-path="url(#a)"><path fill="#E2574C" d="m6.384 11.4-.001.004v-.003Zm-.424-.79.014.032-.021-.05zm-.195-.586q.015.06.034.123-.018-.06-.034-.123m-.157 1.069a5.3 5.3 0 0 1-.343-1.157l-1.306.36s.16-.893 1.198-1.33c-.059-1.409.186-2.747.629-4.066-3.005 1.599-4.912.081-4.78.923.238 2.117 1.452 6.277 4.842 5.742q-.135-.228-.24-.472M2.387 7.528l1.968-.505c-.078.983-1.41 1.3-1.968.505m3.73-2.818-.01.03zm-.035.111.024-.08q-.01.038-.024.08m-.034.116.018-.058-.02.056zm-.322 1.307.009-.048zm-.022.124q.001-.026.009-.051zm-.013.088.014-.087zm-.056.362q.007-.045.012-.092zm0 .022v-.022l-.004.021zm-.015.094v-.025zm-.013.11q.001-.022.005-.042zm-.035.383.01-.116a1 1 0 0 0-.01.116M5.556 8.67c0 .054.006.109.01.163a8 8 0 0 1-.018-.316q.005.074.008.153"/><path fill="#2EAD33" d="M13.928 5.152c-.51.088-1.73.196-3.24-.196L9.45 9.584l-2.336-.636 4.53 1.234c-.662.575-1.273.84-2.508.579l-.559 2.094-.074-.016c3.261 1 5.525-2.95 6.076-5.243.268-.974.385-1.711.416-2.187.038-.537-.34-.38-1.068-.257Zm-1.253 3.456-2.012-.558c.922-1.253 2.486-.478 2.557.71zm-6.584 2.294-.034-.071zm.026-6.19-.01.03zm-.029.09q-.001.01-.006.02l.013-.039zm-.031.103-.009.03.018-.057-.009.026zm-.097 5.707.014.031-.021-.05zm-.256-4.244q.002-.026.009-.051zm-.013.088.014-.087-.015.088zm-.12.97q.007-.057.01-.115a1 1 0 0 0-.01.116ZM5.557 8.67q.005.084.012.167a10 10 0 0 1-.019-.32z"/><path fill="#1D8D22" d="M10.688 4.956C9.177 4.567 8.146 3.863 7.75 3.539c-.475-.39-.729-.68-.943-.467-.934 1.715-1.354 3.81-1.239 5.763.037.547.147 1.087.328 1.607.121.338.285.66.49.958.522.748 1.235 1.224 2.196 1.457l.552-2.095c-1.251-.38-1.74-.956-2.018-1.811l2.335.636zm-1.41 2.65-2.557-.708c.793-1.148 2.448-.633 2.558.708Z"/></g><defs><clipPath id="a"><path fill="#fff" d="M1 3h14v10H1z"/></clipPath></defs></svg>