<svg xmlns="http://www.w3.org/2000/svg" width="16" height="16" fill="none" viewBox="0 0 16 16"><path fill="url(#paint0_linear_1852_142)" d="M8 2c1.626 2.167 4.391 5.5 4.88 7.5.59 2.425-.977 4.5-4.88 4.5v-2c1.638 0 2.4-.437 2.697-.74.211-.215.359-.532.285-1.051l-.046-.235c-.142-.582-.729-1.627-1.703-3.008a60 60 0 0 0-1.289-1.744 37 37 0 0 0-1.16 1.595c-.839 1.226-1.413 2.259-1.642 2.905l-.078.252c-.16.661-.002 1.04.239 1.286.298.303 1.06.74 2.697.74v2c-3.781 0-5.37-1.947-4.928-4.273l.05-.227C3.608 7.5 6.373 3.833 8 2"/><defs><linearGradient id="paint0_linear_1852_142" x1="8" x2="8" y1="2" y2="14" gradientUnits="userSpaceOnUse"><stop stop-color="#0ED0CD"/><stop offset="1" stop-color="#25BE74"/></linearGradient></defs></svg>