<svg xmlns="http://www.w3.org/2000/svg" width="16" height="16" fill="none"><path fill="#0092C6" d="M7.4 11.49a.498.498 0 0 1-.352-.854.5.5 0 0 1 .352-.146h2.404a.5.5 0 0 1 .49.49.49.49 0 0 1-.49.48H7.4zm-3.99-.54a.48.48 0 0 1 .21-.39L7.89 7.5 5.065 5.41a.53.53 0 0 1-.11-.7.46.46 0 0 1 .39-.21c.103 0 .203.032.289.09l3.371 2.5a.52.52 0 0 1 0 .82l-4.828 3.5a.47.47 0 0 1-.28.09.46.46 0 0 1-.398-.21.5.5 0 0 1-.08-.29l-.01-.05ZM13.176 3H4.198a.8.8 0 0 0-.698.59l-2.464 8.35A.822.822 0 0 0 1.804 13h8.978a.8.8 0 0 0 .758-.59l2.424-8.35A.822.822 0 0 0 13.176 3"/></svg>