<svg xmlns="http://www.w3.org/2000/svg" width="16" height="16" fill="none"><path fill="#EC4B5E" d="M7 8.5c0-.828-.672-1-1.5-1S4 7.672 4 8.5a1.5 1.5 0 1 0 3 0ZM12 8.5c0-.828-.672-1-1.5-1S9 7.672 9 8.5a1.5 1.5 0 1 0 3 0ZM8 11.5 7 10l1-.5 1 .5-1 1.5Z"/><path fill="#EC4B5E" fill-rule="evenodd" d="M2.507 2.085C3 3.5 3.255 5.5 2.677 6.681c-.032.062-.061.122-.09.181C2.233 7.572 2 8.042 2 9.49c0 2.605 2.11 3.307 3.862 3.89.946.315 1.788.595 2.138 1.121.35-.526 1.192-.806 2.138-1.12C11.89 12.796 14 12.094 14 9.49c0-1.192-.169-1.873-.845-3.064C12.479 5.234 13 3 13.239 2c-.394.397-1.52 1.345-2.873 1.957-1.866.543-3.589.514-4.901 0-.507-.198-1.809-.85-2.958-1.872ZM5.5 11a2.49 2.49 0 0 0 1.097-.253L8 12.5l1.403-1.753A2.5 2.5 0 1 0 8 8.5 2.5 2.5 0 1 0 5.5 11Z" clip-rule="evenodd"/></svg>
