<svg xmlns="http://www.w3.org/2000/svg" width="16" height="16" fill="none" viewBox="0 0 16 16"><path fill="#909090" fill-opacity=".9" d="M4.47 5.47a.75.75 0 0 1 1.004-.052l.056.052L8.06 8l-2.53 2.53a.75.75 0 1 1-1.06-1.06L5.94 8 4.47 6.53l-.052-.056A.75.75 0 0 1 4.47 5.47M11 9.25a.75.75 0 0 1 0 1.5H8.5a.75.75 0 0 1 0-1.5z"/><path fill="#909090" fill-opacity=".9" fill-rule="evenodd" d="M13 3a1 1 0 0 1 1 1v8a1 1 0 0 1-1 1h-3l-2 2-2-2H3a1 1 0 0 1-1-1V4a1 1 0 0 1 1-1zm-9.5 8.5h3.121L8 12.879 9.379 11.5H12.5v-7h-9z" clip-rule="evenodd"/></svg>