<svg xmlns="http://www.w3.org/2000/svg" width="16" height="16" fill="none"><path fill="#AA6363" fill-rule="evenodd" d="M2 4c0-1.5.5-2 2-2h8c1.5 0 2 .5 2 2v8c0 1.5-.5 2-2 2H4c-1.5 0-2-.5-2-2V4Zm6.031 6.563c.282.291.64.437 1.074.437.535 0 1.027-.121 1.475-.364.605-.33 1.078-.866 1.42-1.608h-.596a1.574 1.574 0 0 1-.512.676c-.236.177-.49.266-.762.266-.259 0-.453-.068-.582-.203-.143-.146-.242-.389-.298-.729l-.131-.744c.383-.312.688-.567.914-.765.23-.198.422-.38.575-.546.166-.18.288-.352.367-.516.078-.166.118-.33.118-.494 0-.118-.019-.234-.056-.349a1.036 1.036 0 0 0-.145-.317.781.781 0 0 0-.256-.224.696.696 0 0 0-.34-.083c-.282 0-.506.04-.672.12-.194.1-.29.236-.29.406 0 .18.05.319.152.416.11.118.281.177.512.177.07 0 .15-.007.243-.021-.023.198-.134.42-.333.666-.198.243-.498.533-.9.87l-.125-.813c-.046-.347-.168-.626-.367-.837-.272-.285-.663-.427-1.17-.427-.592 0-1.13.182-1.614.546-.42.32-.78.76-1.08 1.322-.25.454-.467.989-.652 1.603h.596c.23-.816.542-1.468.935-1.957.17-.212.337-.371.498-.479a.867.867 0 0 1 .465-.16c.129-.001.23.056.304.17.083.133.162.37.236.714l.228 1.191-2.867 2.43H5.42l1.953-1.79c.13.625.349 1.097.658 1.416Z" clip-rule="evenodd"/></svg>
