<svg xmlns="http://www.w3.org/2000/svg" width="16" height="16" fill="none"><path fill="#AA6363" fill-rule="evenodd" d="M2 4c0-1.5.5-2 2-2h8c1.5 0 2 .5 2 2v8c0 1.5-.5 2-2 2H4c-1.5 0-2-.5-2-2zm6.031 6.563Q8.454 11 9.105 11q.803 0 1.475-.364.907-.495 1.42-1.608h-.596a1.6 1.6 0 0 1-.512.676q-.354.266-.762.266-.388 0-.582-.203-.214-.219-.298-.729l-.131-.744q.575-.468.914-.765.345-.297.575-.546.249-.27.367-.516.117-.249.118-.494 0-.177-.056-.349a1 1 0 0 0-.145-.317.8.8 0 0 0-.256-.224.7.7 0 0 0-.34-.083q-.423 0-.672.12-.29.15-.29.406 0 .27.152.416.165.177.512.177.104 0 .243-.021-.035.297-.333.666-.297.365-.9.87l-.125-.813q-.069-.52-.367-.837-.409-.427-1.17-.427-.888 0-1.614.546-.63.48-1.08 1.322-.375.682-.652 1.603h.596q.345-1.224.935-1.957.256-.317.498-.479a.87.87 0 0 1 .465-.16.34.34 0 0 1 .304.17q.125.199.236.714l.228 1.191-2.867 2.43H5.42l1.953-1.79q.195.938.658 1.416" clip-rule="evenodd"/></svg>