<svg xmlns="http://www.w3.org/2000/svg" width="16" height="16" fill="none" viewBox="0 0 16 16"><path fill="#EA4335" fill-rule="evenodd" d="M6.707 5.293a1 1 0 0 1 0 1.414l-3 3a1 1 0 0 1-1.414-1.414l3-3a1 1 0 0 1 1.414 0" clip-rule="evenodd"/><path fill="#FBBC04" fill-rule="evenodd" d="M9.293 12.707a1 1 0 0 1 0-1.414l3-3a1 1 0 1 1 1.414 1.414l-3 3a1 1 0 0 1-1.414 0" clip-rule="evenodd"/><path fill="#0F9D58" fill-rule="evenodd" d="M9.293 5.293a1 1 0 0 0 0 1.414l3 3a1 1 0 0 0 1.414-1.414l-3-3a1 1 0 0 0-1.414 0" clip-rule="evenodd"/><path fill="#4285F4" fill-rule="evenodd" d="M6.707 12.707a1 1 0 0 0 0-1.414l-3-3a1 1 0 0 0-1.414 1.414l3 3a1 1 0 0 0 1.414 0" clip-rule="evenodd"/></svg>