<svg xmlns="http://www.w3.org/2000/svg" id="Calque_1" data-name="Calque 1" viewBox="0 0 16 16"><defs><style>.cls-1{fill:#e3c6a1}.cls-2{fill:#000105}.cls-3{fill:#50332c}.cls-4{fill:#fff}</style></defs><path d="M8 3.41s-6.14-.56-5.58 2.78c0 2 0 5.24 1.86 6.25a8.73 8.73 0 0 0 3.72 1M8 3.41s6.69-.56 5.57 2.78c0 2 0 5.24-1.85 6.25a8.73 8.73 0 0 1-3.72 1" class="cls-1"/><path d="M6.32 7.59a1.38 1.38 0 0 1-.18.7A3.89 3.89 0 0 0 5.08 9a.39.39 0 0 1-.15 0 1.4 1.4 0 1 1 1.39-1.41ZM10.92 9a.34.34 0 0 0 .14 0 1.39 1.39 0 1 0-1.2-.69Z" class="cls-2"/><path d="M11.15 10.45A2 2 0 0 0 10.23 9a6.37 6.37 0 0 0-.85-.36c-.13 0-.27 0-.41-.08A.88.88 0 0 0 8.54 8a1.41 1.41 0 0 0-.44-.14 1.2 1.2 0 0 0-.66.14.82.82 0 0 0-.3.26 1.45 1.45 0 0 0-.1.25 3.65 3.65 0 0 0-1.17.38 2.2 2.2 0 0 0-.94 1.25 3.32 3.32 0 0 0-.1 1.86 2.09 2.09 0 0 0 .91 1.45 4.56 4.56 0 0 0 .85.37A4.88 4.88 0 0 0 8 14a3.93 3.93 0 0 0 .48 0 4.5 4.5 0 0 0 1.63-.48 2.13 2.13 0 0 0 .89-1.11 3.38 3.38 0 0 0 .23-1.34 3.19 3.19 0 0 0-.08-.62Z" class="cls-3"/><path d="M5.77 3.4h4.46l1.67 1.12H4.09L5.77 3.4z" class="cls-1"/><path d="M10.23 3.41A7.58 7.58 0 0 1 13 4c1.79.9 2.4 3.68 2.4 3.68a1.64 1.64 0 0 1-1.06 2.12 1.23 1.23 0 0 1-1.06 0 5.27 5.27 0 0 0-3.05-6.39ZM5.85 3.41A7.58 7.58 0 0 0 3.06 4C1.27 4.86.66 7.64.66 7.64a1.64 1.64 0 0 0 1.06 2.12c.72.24 1 0 1 0a5.36 5.36 0 0 1 3.13-6.35Z" class="cls-3"/><circle cx="5.27" cy="7.25" r=".5" class="cls-4"/><circle cx="11.28" cy="7.25" r=".5" class="cls-4"/><path d="M8.37 10.32V9a.38.38 0 0 0-.75 0v1.34a2 2 0 0 0-1.67 2 .38.38 0 0 0 .75 0 1.3 1.3 0 1 1 2.6 0 .37.37 0 0 0 .37.37.38.38 0 0 0 .38-.37 2.05 2.05 0 0 0-1.68-2.02ZM10.92 9a4 4 0 0 0-1.06-.67Z" class="cls-2"/></svg>
