<svg xmlns="http://www.w3.org/2000/svg" width="16" height="16" fill="none"><path fill="#828A96" d="M9.741 7.998a1.741 1.741 0 1 1-3.482 0 1.741 1.741 0 0 1 3.482 0ZM13.183 5.004a5.913 5.913 0 0 0-.918-1.2l-1.35.78a4.514 4.514 0 0 0-1.409-.817 5.54 5.54 0 0 0-1.09 1.557c1.503-.103 3.054.442 4.495 1.567l.85-.49a5.942 5.942 0 0 0-.578-1.397ZM8 13.982a6.005 6.005 0 0 0 1.497-.195v-1.559a4.486 4.486 0 0 0 1.412-.812 5.546 5.546 0 0 0-.803-1.723c-.663 1.352-1.91 2.424-3.604 3.108v.98a5.81 5.81 0 0 0 1.498.2ZM2.817 5.006A5.946 5.946 0 0 0 2.238 6.4l1.35.78c-.1.538-.1 1.09-.003 1.628.617.164 1.258.22 1.894.167-.84-1.25-1.145-2.866-.891-4.676l-.85-.491c-.357.358-.666.76-.92 1.198Z"/><path fill="#00B4FF" d="M13.183 10.99c.252-.438.445-.907.579-1.395l-1.349-.779a4.5 4.5 0 0 0 .003-1.629 5.551 5.551 0 0 0-1.893-.167c.84 1.25 1.144 2.866.89 4.676l.85.492c.356-.36.665-.762.92-1.198ZM2.817 10.99c.253.437.562.84.918 1.199l1.35-.78c.416.356.894.633 1.409.818.45-.452.82-.979 1.09-1.557-1.503.103-3.054-.442-4.495-1.567l-.85.49c.134.489.328.958.578 1.397ZM8 2.012a6 6 0 0 0-1.497.195v1.559a4.486 4.486 0 0 0-1.412.812c.167.616.438 1.2.803 1.723.663-1.352 1.91-2.424 3.604-3.108v-.98A5.954 5.954 0 0 0 8 2.012Z"/></svg>
