<svg xmlns="http://www.w3.org/2000/svg" width="16" height="16" fill="none" viewBox="0 0 16 16"><path fill="#909090" fill-opacity=".9" d="M9.741 7.998a1.741 1.741 0 1 1-3.482 0 1.741 1.741 0 0 1 3.482 0m3.442-2.994a6 6 0 0 0-.918-1.2l-1.35.78a4.5 4.5 0 0 0-1.409-.817 5.5 5.5 0 0 0-1.09 1.557c1.503-.103 3.054.442 4.495 1.567l.85-.49a6 6 0 0 0-.578-1.397M8 13.982a6 6 0 0 0 1.497-.195v-1.559a4.5 4.5 0 0 0 1.412-.812 5.6 5.6 0 0 0-.803-1.723c-.663 1.352-1.91 2.424-3.604 3.108v.98a5.8 5.8 0 0 0 1.498.2M2.817 5.006A6 6 0 0 0 2.238 6.4l1.35.78c-.1.538-.1 1.09-.003 1.628.617.164 1.258.22 1.894.167-.84-1.25-1.145-2.866-.891-4.676l-.85-.491c-.357.358-.666.76-.92 1.198"/><path fill="#00B4FF" d="M13.183 10.99c.252-.438.445-.907.579-1.395l-1.349-.779c.1-.544.1-1.095.003-1.629a5.6 5.6 0 0 0-1.893-.167c.84 1.25 1.144 2.866.89 4.676l.85.492a6 6 0 0 0 .92-1.198m-10.366 0c.253.437.562.84.918 1.199l1.35-.78c.416.356.894.633 1.409.818a5.5 5.5 0 0 0 1.09-1.557c-1.503.103-3.054-.442-4.495-1.567l-.85.49c.134.489.328.958.578 1.397M8 2.012a6 6 0 0 0-1.497.195v1.559a4.5 4.5 0 0 0-1.412.812c.167.616.438 1.2.803 1.723.663-1.352 1.91-2.424 3.604-3.108v-.98A6 6 0 0 0 8 2.012"/></svg>