<svg xmlns="http://www.w3.org/2000/svg" width="16" height="16" fill="none" viewBox="0 0 16 16"><path fill="#909090" fill-opacity=".9" fill-rule="evenodd" d="M13.063 11.108C14.263 10.3 15 9.205 15 8c0-1.039-.547-1.995-1.467-2.757q.144.569.143 1.187c0 .865-.206 1.668-.678 2.354q-.332.485-.788.849zM3.023 4.835C1.774 5.648 1 6.766 1 8s.773 2.352 2.024 3.165z" clip-rule="evenodd"/><path fill="#009EF0" fill-rule="evenodd" d="M4.477 3v10h2.598V9.7h.9l1.68 3.3h2.822l-1.943-3.728a2.83 2.83 0 0 0 1.168-1.062q.457-.737.457-1.812 0-1.065-.443-1.826a2.95 2.95 0 0 0-1.243-1.167Q9.673 3 8.608 3zm2.598 4.59h.916q.459 0 .78-.117a1 1 0 0 0 .5-.386q.179-.264.178-.689 0-.43-.177-.698a1 1 0 0 0-.5-.4 2.1 2.1 0 0 0-.78-.132h-.917z" clip-rule="evenodd"/></svg>