<svg xmlns="http://www.w3.org/2000/svg" width="16" height="16" fill="none"><path fill="#CF2D4A" d="M8.147 14q-1.463 0-2.604-.397-1.14-.393-1.93-1.155a4.95 4.95 0 0 1-1.2-1.853Q2 9.5 2 8.103q0-1.38.413-2.502a5.3 5.3 0 0 1 1.214-1.926 5.3 5.3 0 0 1 1.948-1.241Q6.73 1.999 8.206 2q1.366 0 2.439.397a5.05 5.05 0 0 1 1.824 1.132 4.8 4.8 0 0 1 1.141 1.74q.395 1.004.39 2.222a7 7 0 0 1-.147 1.543q-.151.703-.476 1.228a2.4 2.4 0 0 1-.844.826q-.522.3-1.265.342-.531.042-.862-.077A1.05 1.05 0 0 1 9.902 11a1.3 1.3 0 0 1-.22-.552h-.055q-.11.273-.43.497a2.5 2.5 0 0 1-.785.343q-.457.119-.976.086a2.9 2.9 0 0 1-1.027-.25 2.6 2.6 0 0 1-.857-.635 3 3 0 0 1-.586-1.027q-.212-.612-.216-1.415.005-.794.225-1.383.225-.59.591-.99a2.92 2.92 0 0 1 1.737-.922q.518-.078.981 0 .463.077.78.25.32.173.398.375h.064v-.512h1.435V9.32q.004.315.142.489a.45.45 0 0 0 .371.173.64.64 0 0 0 .527-.278q.216-.279.321-.854.11-.575.11-1.465 0-.858-.229-1.506a3.2 3.2 0 0 0-.632-1.11 3.3 3.3 0 0 0-.94-.748 4.4 4.4 0 0 0-1.164-.42 6 6 0 0 0-1.284-.132q-1.14 0-1.994.347a3.8 3.8 0 0 0-1.42.963 4.1 4.1 0 0 0-.853 1.456 5.7 5.7 0 0 0-.284 1.812q.005 1.081.302 1.917.303.831.89 1.397.585.566 1.448.858.861.292 1.98.292.527 0 1.031-.078.504-.073.912-.182.408-.105.656-.206l.454 1.324q-.29.165-.784.306a7.6 7.6 0 0 1-1.11.233A8.6 8.6 0 0 1 8.148 14Zm-.211-4.126q.56 0 .889-.215a1.17 1.17 0 0 0 .477-.634q.146-.425.137-1.046a2.8 2.8 0 0 0-.142-.926 1.05 1.05 0 0 0-.463-.58q-.326-.2-.907-.2-.51-.001-.867.214a1.4 1.4 0 0 0-.54.602 2.1 2.1 0 0 0-.188.904q.005.485.155.918.152.428.5.698.348.265.949.265"/></svg>