<svg xmlns="http://www.w3.org/2000/svg" width="16" height="16" fill="none"><circle cx="8" cy="8" r="1" fill="#FBB03B"/><path stroke="#FBB03B" d="M14.5 8c0 .245-.114.52-.406.817-.294.298-.745.59-1.341.845-1.191.51-2.871.838-4.753.838-1.882 0-3.562-.328-4.753-.838-.596-.256-1.047-.547-1.341-.845C1.614 8.52 1.5 8.245 1.5 8s.114-.52.406-.817c.294-.298.745-.59 1.341-.845C4.438 5.828 6.118 5.5 8 5.5c1.882 0 3.562.328 4.753.838.596.256 1.047.547 1.341.845.292.297.406.572.406.817Z"/><path stroke="#FBB03B" d="M11.25 13.63c-.212.122-.508.16-.91.056-.405-.106-.883-.35-1.403-.74C7.9 12.172 6.776 10.88 5.835 9.25c-.941-1.63-1.497-3.249-1.65-4.535-.077-.644-.05-1.18.06-1.584.111-.401.293-.638.505-.76.212-.123.508-.162.91-.057.405.106.883.35 1.403.74C8.1 3.828 9.224 5.12 10.165 6.75c.941 1.63 1.497 3.249 1.65 4.535.077.644.05 1.18-.06 1.584-.111.401-.293.638-.505.76Z"/><path stroke="#FBB03B" d="M4.75 13.63c-.212-.123-.394-.36-.504-.76-.111-.405-.138-.94-.062-1.585.154-1.286.71-2.905 1.65-4.535.942-1.63 2.066-2.92 3.103-3.697.52-.389.998-.633 1.403-.739.402-.105.698-.066.91.057.212.122.394.359.504.76.111.404.138.94.062 1.584-.154 1.286-.71 2.905-1.65 4.535-.942 1.63-2.066 2.92-3.103 3.697-.52.389-.998.633-1.403.739-.402.105-.698.066-.91-.057Z"/></svg>
