<svg xmlns="http://www.w3.org/2000/svg" width="16" height="16" fill="none"><path fill="#0E8ADC" fill-rule="evenodd" d="M5 13.196c-.066-.038-.185-.143-.272-.46-.089-.321-.12-.787-.047-1.392q.039-.322.114-.676c.478.106.989.188 1.523.245q.477.653.974 1.197a8 8 0 0 1-.529.437c-.487.364-.906.57-1.23.655-.316.083-.467.032-.533-.006m3-.378c-1.331 1.213-2.645 1.738-3.5 1.244-.855-.493-1.057-1.894-.673-3.653C2.112 9.862 1 8.987 1 8s1.112-1.862 2.827-2.409c-.384-1.76-.182-3.16.673-3.653.855-.494 2.169.031 3.5 1.244 1.331-1.213 2.645-1.738 3.5-1.244.855.493 1.057 1.894.672 3.653C13.888 6.138 15 7.013 15 8s-1.112 1.862-2.828 2.409c.385 1.76.183 3.16-.672 3.653-.855.494-2.169-.031-3.5-1.244m3.205-7.486a8 8 0 0 0 .114-.676c.072-.605.041-1.071-.047-1.393-.087-.316-.206-.421-.272-.46-.066-.037-.217-.088-.534-.005-.323.084-.742.291-1.23.655a8 8 0 0 0-.528.437q.497.544.974 1.197c.534.057 1.045.14 1.523.245M7.292 3.89a8 8 0 0 0-.529-.437c-.487-.364-.906-.57-1.23-.655-.316-.083-.467-.032-.533.006s-.185.143-.272.46c-.089.321-.12.787-.047 1.392q.039.322.114.676c.478-.106.989-.188 1.523-.245q.477-.653.974-1.197m.356 1.114q.176-.211.352-.406.176.195.352.406a17 17 0 0 0-.704 0M5.581 6.197q-.27.046-.527.102.08.25.175.507a17 17 0 0 1 .352-.609M5.739 8a15 15 0 0 1 1.13-1.958 15 15 0 0 1 2.262 0A15 15 0 0 1 10.26 8a15 15 0 0 1-1.13 1.958 15 15 0 0 1-2.262 0A15 15 0 0 1 5.74 8ZM4.637 8a14 14 0 0 1-.55-1.442 8 8 0 0 0-.643.24c-.56.24-.948.5-1.182.737C2.032 7.768 2 7.924 2 8s.032.232.262.465c.234.238.623.497 1.182.737q.3.128.643.24.222-.702.55-1.442m.417 1.7q.08-.248.175-.506a17 17 0 0 0 .352.609q-.27-.046-.527-.102Zm4.628 1.213c.534-.057 1.045-.14 1.523-.245a8 8 0 0 1 .114.676c.072.605.041 1.071-.047 1.393-.087.316-.206.421-.272.46-.066.037-.217.088-.534.005-.323-.084-.742-.291-1.23-.655a8 8 0 0 1-.528-.437q.497-.544.974-1.197m-1.33.083q-.176.211-.352.406-.176-.195-.352-.406a17 17 0 0 0 .704 0m2.067-1.193a17 17 0 0 0 .352-.61q.095.258.175.508-.255.055-.527.102M11.363 8c.219.491.402.975.55 1.442q.344-.112.643-.24c.56-.24.948-.5 1.182-.737.23-.233.262-.389.262-.465s-.032-.232-.262-.465c-.234-.238-.623-.497-1.182-.737a8 8 0 0 0-.643-.24q-.222.702-.55 1.442m-.592-1.194q.095-.256.175-.507-.255-.055-.527-.102a17 17 0 0 1 .352.61ZM8 9a1 1 0 1 0 0-2 1 1 0 0 0 0 2" clip-rule="evenodd"/></svg>