<svg xmlns="http://www.w3.org/2000/svg" width="16" height="16" fill="none" viewBox="0 0 16 16"><path fill="#2DBCC5" d="M2.791 2.004c1.131 0 3.233.348 5.164 1.673.736-.575 1.593-.967 2.416-1.224a9.9 9.9 0 0 1 2.837-.45h.781V12.09h-.78c-.552 0-1.422.105-2.317.38-.9.275-1.754.699-2.34 1.284L8 14.308l-.552-.553c-1.2-1.199-3.131-1.508-4.734-1.668l-.704-.07V2.003zM7.99 12.16l.01.01.013-.01zm4.437-8.549c-.49.055-1.04.161-1.59.333-.764.239-1.49.592-2.055 1.074v6.648a8.7 8.7 0 0 1 1.653-.692c.7-.214 1.396-.344 1.992-.405zM3.573 10.61c1.094.138 2.448.4 3.646 1.055V5.068a8.24 8.24 0 0 0-3.646-1.444z"/></svg>