<svg xmlns="http://www.w3.org/2000/svg" width="16" height="16" fill="none"><path fill="#86B4C2" d="M4 1c-1.2 2.8.167 4.5 1 5L4 8C.5 5.5 1.5 2 4 1Z"/><path fill="#497581" d="M12 1c1.2 2.8-.167 4.5-1 5l1 2c3.5-2.5 2.5-6 0-7Z"/><path fill="#497581" fill-rule="evenodd" d="M12.5 11.5V8c0-1.333-.9-4-4.5-4v3a1 1 0 0 1 0 2v6c.333-.833 1.7-2.7 4.5-3.5Z" clip-rule="evenodd"/><path fill="#86B4C2" fill-rule="evenodd" d="M3.5 8v3.5c2.8.8 4.167 2.667 4.5 3.5V9a1 1 0 0 1 0-2V4C4.4 4 3.5 6.667 3.5 8Z" clip-rule="evenodd"/></svg>
