<svg xmlns="http://www.w3.org/2000/svg" width="16" height="16" fill="none" viewBox="0 0 16 16"><path fill="#5BAA1D" fill-rule="evenodd" d="M1 4a1 1 0 0 1 1-1h12a1 1 0 0 1 1 1v8a1 1 0 0 1-1 1H2a1 1 0 0 1-1-1zm10.805 1.021q.41-.052.74.027.198.052.41.145.476.238.608.7.027.093.026.305 0 .237-.026.33-.12.396-.383.687-.37.37-1.11.569-.609.145-1.653.185H10.1l-.027.079q-.132.727-.132.7-.066.477-.013.847.146.7.78.766a.5.5 0 0 0 .119.013 2.5 2.5 0 0 0 1.322-.383q.317-.185.647-.515.239-.24.33-.212l.186.185q.185.211.145.304-.066.12-.45.476-.634.489-1.48.674-.33.08-.78.08a2.2 2.2 0 0 1-.687-.093 2 2 0 0 1-.714-.45 2 2 0 0 1-.37-.541q-.25-.49-.29-1.164-.04-1.348.78-2.379.25-.317.555-.542a3.6 3.6 0 0 1 1.784-.793m.436.635q-.555-.106-1.097.264-.476.305-.74.978-.146.357-.146.436 0 .054.952-.026a1 1 0 0 0 .159-.013q.871-.093 1.203-.49a.9.9 0 0 0 .185-.436q.066-.476-.344-.66a.6.6 0 0 0-.172-.053m-7.35-.609q-.345-.079-.57-.013a1.3 1.3 0 0 0-.396.172q-.503.357-.846 1.507L3 7.03q0 .066.04.106l.04.04h.29q.291 0 .317-.027a.5.5 0 0 0 .053-.092q.199-.755.33-1.071a.9.9 0 0 1 .252-.317.2.2 0 0 1 .132-.04q.12.027.172.119.066.159.026.502-.026.185-.542 2.181-.502 2.022-.502 2.142.027.317.357.41a.67.67 0 0 0 .648-.199.4.4 0 0 0 .066-.08q.08-.118.555-2.035.475-1.863.529-1.97.435-.859.912-1.03a.82.82 0 0 1 .581.026q.212.08.251.159 0 .026-.079.066-.212.092-.357.357a.9.9 0 0 0-.092.41.5.5 0 0 0 .052.211.46.46 0 0 0 .225.238q.384.21.833-.12.304-.236.344-.74.012-.224-.053-.422-.225-.687-1.11-.833-.503-.08-.979.159a2.5 2.5 0 0 0-.502.357l-.119.118-.053-.079a1.05 1.05 0 0 0-.304-.33 1.3 1.3 0 0 0-.423-.199" clip-rule="evenodd"/></svg>