<svg id="Calque_1" data-name="Calque 1" xmlns="http://www.w3.org/2000/svg" viewBox="0 0 16 16"><defs><style>.cls-1{fill:#75b600;}</style></defs><path class="cls-1" d="M4.5,10.5V6A1.47,1.47,0,0,1,6,4.5H7V3H6A2.94,2.94,0,0,0,3,6v.5a1,1,0,0,1-1,1H1.5V9H2a1,1,0,0,1,1,1v.5a2.94,2.94,0,0,0,3,3H7V12H6A1.47,1.47,0,0,1,4.5,10.5Z"/><path class="cls-1" d="M14,7.5a1,1,0,0,1-1-1V6a2.94,2.94,0,0,0-3-3H9V4.5h1A1.47,1.47,0,0,1,11.5,6v4.5A1.47,1.47,0,0,1,10,12H9v1.5h1a2.94,2.94,0,0,0,3-3V10a1,1,0,0,1,1-1h.5V7.5Z"/><path class="cls-1" d="M9.27,7.44,10,6.38A1.23,1.23,0,0,0,9.6,6.1,1.43,1.43,0,0,0,9,6a1.15,1.15,0,0,0-.71.24,1.58,1.58,0,0,0-.43.52V6.07H6.5V11H7.9V8.21a1.06,1.06,0,0,1,.21-.7.77.77,0,0,1,.61-.26A1,1,0,0,1,9,7.3.59.59,0,0,1,9.27,7.44Z"/></svg>