<svg xmlns="http://www.w3.org/2000/svg" id="Calque_1" data-name="Calque 1" viewBox="0 0 16 16"><defs><style>.cls-1{fill:#75b600}</style></defs><path d="M4.5 10.5V6A1.47 1.47 0 0 1 6 4.5h1V3H6a2.94 2.94 0 0 0-3 3v.5a1 1 0 0 1-1 1h-.5V9H2a1 1 0 0 1 1 1v.5a2.94 2.94 0 0 0 3 3h1V12H6a1.47 1.47 0 0 1-1.5-1.5m9.5-3a1 1 0 0 1-1-1V6a2.94 2.94 0 0 0-3-3H9v1.5h1A1.47 1.47 0 0 1 11.5 6v4.5A1.47 1.47 0 0 1 10 12H9v1.5h1a2.94 2.94 0 0 0 3-3V10a1 1 0 0 1 1-1h.5V7.5Z" class="cls-1"/><path d="M9.27 7.44 10 6.38a1.2 1.2 0 0 0-.4-.28A1.4 1.4 0 0 0 9 6a1.15 1.15 0 0 0-.71.24 1.6 1.6 0 0 0-.43.52v-.69H6.5V11h1.4V8.21a1.06 1.06 0 0 1 .21-.7.77.77 0 0 1 .61-.26A1 1 0 0 1 9 7.3a.6.6 0 0 1 .27.14" class="cls-1"/></svg>