<svg xmlns="http://www.w3.org/2000/svg" id="Calque_1" data-name="Calque 1" viewBox="0 0 16 16"><defs><linearGradient id="Dégradé_sans_nom_4" x1="6.91" x2="9.88" y1="-54.36" y2="-55.05" gradientTransform="matrix(1 0 0 -1 0 -46)" gradientUnits="userSpaceOnUse"><stop offset="0" stop-color="#ff6533"/><stop offset=".16" stop-color="#ff5633"/><stop offset=".43" stop-color="#ff4333"/><stop offset=".71" stop-color="#ff3733"/><stop offset="1" stop-color="#f33"/></linearGradient><style>.cls-3{fill:#e83e3b}</style></defs><path d="M12.24 6.12a3.58 3.58 0 0 0-.47-1.78c-.79-.81-2.51-1-2.94 0a1.65 1.65 0 0 0 1.25 2.07c.66-.11-.08-1.62-.08-1.62 1 1.89.77 1.31-1 3.05s-3.74 5.39-4 5.55h7.1a.17.17 0 0 0 .15-.25l-1.89-3.66a.16.16 0 0 1 .06-.22 3.6 3.6 0 0 0 1.82-3.14Z" style="fill:url(#Dégradé_sans_nom_4)"/><path d="M12.24 6.12a3.58 3.58 0 0 0-.47-1.78c-.79-.81-2.51-1-2.94 0a1.65 1.65 0 0 0 1.25 2.07c.66-.11-.08-1.62-.08-1.62 1 1.89.77 1.31-1 3.05s-3.74 5.39-4 5.55h7.1a.17.17 0 0 0 .15-.25l-1.89-3.66a.16.16 0 0 1 .06-.22 3.6 3.6 0 0 0 1.82-3.14Z" style="fill:#bf3338"/><path d="M5 13.39c.27-.16 2.12-3.82 3.94-5.55s2-1.16 1-3c0 0-3.84 5.38-5.23 8" class="cls-3"/><path d="M5.53 8.57c2.59-4.76 2.93-5.24 4.28-5.24a2.45 2.45 0 0 1 1.89.89 3.62 3.62 0 0 0-3-1.72H4.27a.17.17 0 0 0-.16.17v8.87a25.21 25.21 0 0 1 1.42-2.97Z" class="cls-3"/><path d="M8.93 7.84C7.11 9.57 5.26 13.23 5 13.39a.82.82 0 0 1-1-.1c-.26-.29-.66-.75 1.5-4.72 2.62-4.76 2.96-5.24 4.31-5.24a2.45 2.45 0 0 1 1.89.89l.07.12c-.79-.81-2.51-1-2.94 0a1.65 1.65 0 0 0 1.25 2.07c.66-.11-.08-1.62-.08-1.62 1 1.89.74 1.31-1.07 3.05Z" style="fill:#fbb040"/></svg>
