<svg xmlns="http://www.w3.org/2000/svg" width="16" height="16" fill="none" viewBox="0 0 16 16"><path fill="#F4BC2C" d="M8.953 2.081c.07.012.132.057.174.126a.39.39 0 0 1 .029.337l-.072.188-.559 1.445a.3.3 0 0 1-.104.14.23.23 0 0 1-.149.045 4 4 0 0 0-.544-.001.23.23 0 0 1-.149-.045.3.3 0 0 1-.104-.14L6.916 2.73l-.072-.188a.39.39 0 0 1 .043-.358.3.3 0 0 1 .082-.076.2.2 0 0 1 .077-.028 5.7 5.7 0 0 1 1.907 0z"/><path fill="#909090" fill-opacity=".9" d="M3.7 9.67H2.3a.3.3 0 0 0-.3.3v3.7a.3.3 0 0 0 .3.3h1.4a.3.3 0 0 0 .3-.3v-3.7a.3.3 0 0 0-.3-.3m10 0h-1.4a.3.3 0 0 0-.3.3v3.7a.3.3 0 0 0 .3.3h1.4a.3.3 0 0 0 .3-.3v-3.7a.3.3 0 0 0-.3-.3"/><path fill="#F4BC2C" d="M11 9.17v4.5a.3.3 0 0 1-.3.3H9.3a.3.3 0 0 1-.3-.3v-5c0-.5-.5-1-1-1s-1 .5-1 1v5a.3.3 0 0 1-.3.3H5.3a.3.3 0 0 1-.3-.3v-4.5c0-2.5 1-3.5 3-3.5s3 1 3 3.5"/><path fill="#909090" fill-opacity=".9" d="M3.7 8.67H2.3a.29.29 0 0 1-.294-.3c.13-3.298 2.39-5.041 3.736-5.37.14-.034.274.053.32.189.345 1.033.067.173.39 1.14a.324.324 0 0 1-.183.395C4.993 5.283 4.1 6.639 4.008 8.369a.313.313 0 0 1-.308.3m8.6.001h1.4c.165 0 .3-.135.294-.3-.13-3.298-2.39-5.041-3.737-5.37-.139-.034-.274.053-.319.189-.345 1.033-.067.173-.391 1.14a.324.324 0 0 0 .184.395c1.276.559 2.168 1.915 2.26 3.645.01.166.143.3.309.3"/></svg>