<svg xmlns="http://www.w3.org/2000/svg" width="16" height="16" fill="none" viewBox="0 0 16 16"><path fill="#D83F35" fill-rule="evenodd" d="m14 10.49-.74-1.4v-.08L14.5 8l-1.22-1v-.08L14 5.51 12.49 5h-.05l.16-1.6-1.6.16v-.05L10.49 2l-1.4.74H9L8 1.5 7 2.72h-.09L5.51 2 5 3.51v.05L3.4 3.4 3.56 5h-.05L2 5.51l.74 1.4v.08L1.5 8l1.22 1v.08L2 10.49l1.51.51.05.06-.16 1.54 1.6-.16.06.05.45 1.51 1.4-.74H7l1 1.24 1-1.22h.08l1.4.74.52-1.53.06-.05 1.58.16-.2-1.6.05-.06zM5.583 4.794c.311-.224.67-.294.917-.294h1v1h-1a.6.6 0 0 0-.333.106C6.087 5.663 6 5.763 6 6v1a1.6 1.6 0 0 1-.359 1q.034.04.065.083C5.93 8.394 6 8.753 6 9v1c0 .087.03.228.106.333.057.08.157.167.394.167h1v1h-1c-.563 0-.963-.246-1.206-.583A1.6 1.6 0 0 1 5 10V9a.6.6 0 0 0-.106-.333c-.057-.08-.157-.167-.394-.167H4v-1h.5c.237 0 .337-.088.394-.167A.6.6 0 0 0 5 7V6c0-.563.246-.963.583-1.206M9.5 11.5c.247 0 .606-.07.917-.294.337-.243.583-.643.583-1.206V9c0-.087.03-.228.106-.333.057-.08.157-.167.394-.167h.5v-1h-.5c-.237 0-.337-.088-.394-.167A.6.6 0 0 1 11 7V6c0-.247-.07-.606-.294-.917-.243-.337-.643-.583-1.206-.583h-1v1h1c.237 0 .337.088.394.167A.6.6 0 0 1 10 6v1a1.62 1.62 0 0 0 .359 1l-.065.083C10.07 8.394 10 8.753 10 9v1c0 .237-.088.337-.167.394a.6.6 0 0 1-.333.106h-1v1zM9 8a1 1 0 1 1-2 0 1 1 0 0 1 2 0" clip-rule="evenodd"/></svg>