<svg xmlns="http://www.w3.org/2000/svg" width="16" height="16" fill="none"><path fill="#D87A35" d="m14 10.49-.74-1.4v-.08L14.5 8l-1.22-1v-.08L14 5.51 12.49 5h-.05l.16-1.6-1.6.16v-.05L10.49 2l-1.4.74H9L8 1.5 7 2.72h-.09L5.51 2 5 3.51v.05L3.4 3.4 3.56 5h-.05L2 5.51l.74 1.4v.08L1.5 8l1.22 1v.08L2 10.49l1.51.51.05.06-.16 1.54 1.6-.16.06.05.45 1.51 1.4-.74H7l1 1.24 1-1.22h.08l1.4.74.52-1.53.06-.05 1.58.16-.2-1.6.05-.06 1.51-.45ZM3.62 8c0-.555.105-1.105.31-1.62h.82V10h-.62a4.25 4.25 0 0 1-.51-2Zm4.8-.41H6.78V6.38h1.63a.61.61 0 1 1 0 1.21h.01ZM6.78 10V8.81H8s1 0 1 1.22v.485c0-.015-.008.298.107.416.193.198.255.207.41.263.154.055.217.056.483.056h.89a4.34 4.34 0 0 1-5.84 0h2.68V10h-.95Zm5.1 0c-.34 0-1-.19-1-.8a1 1 0 0 0-.37-.73 1.84 1.84 0 0 0-.86-3.32H4.68A4.37 4.37 0 0 1 12.38 8a4.29 4.29 0 0 1-.5 2Z"/></svg>
