<svg xmlns="http://www.w3.org/2000/svg" width="16" height="16" fill="none"><path fill="#D87A35" fill-rule="evenodd" d="M4 6.21h.751v3.56h-.75V11h3.73V9.77h-.95V8.6H8s1 0 1 1.2v.477c0-.015-.008.293.106.409.115.116.255.204.41.259.155.054.483.055.483.055h2V9.769c-.5 0-1.12-.216-1.12-.785a.97.97 0 0 0-.37-.718c.3-.214.53-.511.655-.854a1.8 1.8 0 0 0 .05-1.068 1.8 1.8 0 0 0-.57-.91A1.86 1.86 0 0 0 9.649 5H4zM6.78 7.4h1.63a.62.62 0 0 0 .481-.145.6.6 0 0 0 .207-.45.6.6 0 0 0-.207-.45.6.6 0 0 0-.48-.145H6.78z" clip-rule="evenodd"/><path fill="#D87A35" d="M3 2h10v1H3zm0 11h10v1H3z"/></svg>