<svg xmlns="http://www.w3.org/2000/svg" width="16" height="16" fill="none" viewBox="0 0 16 16"><path fill="#4CA3E1" d="M5 3c1 0 1.884.49 2.429 1.243a2.497 2.497 0 0 1 3.3 1.129 3.459 3.459 0 1 1-.455 6.581 2.99 2.99 0 0 1-3.514.777q.147-.135.273-.3.33-.438.448-1.093L7.785 9.4H9.08l.223-1.347H8.009l.072-.434a.96.96 0 0 1 .244-.51q.186-.185.578-.185.165 0 .31.03.15.029.25.063l.535-1.349a4 4 0 0 0-.488-.114 4 4 0 0 0-.746-.063q-.607 0-1.13.232a2.2 2.2 0 0 0-.871.695q-.35.463-.464 1.167l-.078.468h-.912L5.085 9.4h.91l-.293 1.87a.93.93 0 0 1-.232.468q-.186.186-.577.186-.165 0-.313-.03a2 2 0 0 1-.249-.063L3.88 12.97q-.187.03-.38.03a2.5 2.5 0 0 1-.651-4.912A3 3 0 0 1 5 3"/></svg>