<svg xmlns="http://www.w3.org/2000/svg" data-name="Calque 1" viewBox="0 0 16 16"><path d="M7.35 6A3.65 3.65 0 0 0 9.2 7.12a2.81 2.81 0 0 0 1.89-.36 1.68 1.68 0 0 0 1-1.21 1.32 1.32 0 0 0-.85-1.13A7 7 0 0 0 7 3.92a5 5 0 0 0-2 .8 2.06 2.06 0 0 0-.81 1.65 2.47 2.47 0 0 0 .93 1.7c.57.51 1.27.93 2 1.5A3.41 3.41 0 0 1 8 10.74a2.12 2.12 0 0 1 .18.87 1.78 1.78 0 0 1-.29.92 2.6 2.6 0 0 1-1.33 1 4.15 4.15 0 0 1-1.48.25 2.78 2.78 0 0 1-1.61-.48 1.82 1.82 0 0 1-.64-.91 1.66 1.66 0 0 1 .07-1.09A3 3 0 0 1 4 10a4.32 4.32 0 0 1 1.33-.61 6 6 0 0 1 5.11 1.07.27.27 0 0 1 0 .39.27.27 0 0 1-.32.08 6 6 0 0 0-4.4-.22 2.43 2.43 0 0 0-1.37 1.09c0 .17 0 .07.07.19a1.48 1.48 0 0 0 .72.2 2.13 2.13 0 0 0 1.64-.45.57.57 0 0 0 .08-.57 1.88 1.88 0 0 0-.56-.77c-.55-.51-1.27-.94-1.95-1.5A3.6 3.6 0 0 1 3 6.43a3.46 3.46 0 0 1 1.11-2.72 6.21 6.21 0 0 1 2.5-1.25 8 8 0 0 1 5.4.45 3.38 3.38 0 0 1 1.23 1 2.62 2.62 0 0 1 .51 1.72 3.09 3.09 0 0 1-2 2.46 3.76 3.76 0 0 1-2.91.11 3.85 3.85 0 0 1-2-1.91A.27.27 0 0 1 7 6a.26.26 0 0 1 .31 0Z" style="fill:#e8367e"/></svg>
