<svg xmlns="http://www.w3.org/2000/svg" width="16" height="16" fill="none"><g clip-path="url(#a)"><path fill="#DB322F" d="M4 5.938V2.895c.304-.107.623-.138.938-.182 1.389-.194 2.781-.36 4.16-.619.704-.133 1.407-.277 2.081-.533.316-.123.626-.257.821-.561v2.99a.615.615 0 0 1-.207.275c-.08.06-.161.117-.242.174a.58.58 0 0 0-.087.027c-.333.165-.687.267-1.042.362-.946.251-1.909.41-2.875.55-.966.138-1.933.267-2.898.407-.219.032-.445.049-.649.153ZM12 9.062v3.016c-.092.22-.276.338-.474.439-.348.177-.72.293-1.096.39-1.517.395-3.07.583-4.617.801-.606.085-1.218.138-1.813.294v-3.018c.132-.066.275-.087.417-.107.887-.127 1.773-.253 2.66-.377.08-.04.164-.018.246-.03.678-.105 1.357-.206 2.03-.344.678-.139 1.355-.282 1.996-.556.26-.111.509-.241.651-.508ZM4 9.97V6.925c.474-.124.96-.173 1.443-.24.558-.078 1.116-.156 1.673-.232.048-.005.096-.007.144-.015.54-.087 1.08-.167 1.619-.263.758-.136 1.516-.286 2.242-.555.336-.124.678-.252.879-.59v3.043c-.116.173-.278.31-.466.397-.328.175-.68.282-1.036.378-.902.244-1.82.397-2.742.54-.942.145-1.888.26-2.831.398-.31.045-.627.068-.925.182Z"/><path fill="#7F0D1D" d="M12 5.03c-.201.338-.543.466-.88.59-.725.27-1.483.419-2.241.555-.538.097-1.079.177-1.62.263-.047.008-.095.01-.143.015-.042-.01-.084-.023-.127-.029-.61-.083-1.222-.16-1.831-.248-.389-.056-.781-.09-1.158-.21v-.028c.204-.104.43-.12.649-.153.965-.14 1.932-.268 2.898-.407.965-.14 1.93-.298 2.874-.549.356-.094.71-.197 1.042-.362a.58.58 0 0 1 .087-.027c.193.097.366.217.45.43v.16ZM4 9.97c.298-.115.614-.138.925-.183.943-.138 1.889-.253 2.831-.398.921-.143 1.84-.296 2.742-.54.355-.096.708-.203 1.036-.378.197.097.371.22.466.43v.16c-.142.268-.391.398-.651.508-.641.274-1.319.417-1.996.556-.673.138-1.352.239-2.03.343-.082.013-.168-.01-.246.031-.011-.034-.042-.024-.065-.026-.762-.107-1.524-.209-2.285-.319-.245-.035-.496-.054-.727-.158v-.027Z"/></g><defs><clipPath id="a"><path fill="#fff" d="M4 1h8v13H4z"/></clipPath></defs></svg>
