<svg xmlns="http://www.w3.org/2000/svg" width="16" height="16" fill="none"><path fill="#256F44" fill-rule="evenodd" d="M9.68 8.79v.07l-.06-.03z" clip-rule="evenodd"/><path fill="#2977E0" fill-rule="evenodd" d="M8 12.87v1.96l-6-3.45.03-6.9v-.01l1.69.98.04.02v4.95zm5.97-8.4v6.93l-5.95 3.44-.02-.01v-1.96l2.17-1.25 2.07-1.25v-4.9l.04-.02z" clip-rule="evenodd"/><path fill="#2977E0" fill-rule="evenodd" d="M5.89 9.1v1.96l-.87-.5-.8-.46V8.14zm4.29.05v1.96l-.44-.25V9.43l-.47-.28-.1-.06.45-.26.06.03zm-2.1 1.24v1.96l-.87-.5-.8-.46V9.43l1.14.66zM8.01 5.3v.57l-.46.26v-.62L6.34 4.8v-.46zM5.89 6.48v1.96l-.87-.5-.24-.14-.56-.32V5.51zm4.29.05v1.96l-.44-.25V6.8l-.46-.27-.77-.45v-.51l1.17.67zm-2.1 1.24v1.96l-.07-.04-.46-.26-.34-.2-.24-.14-.53-.31-.03-.02V6.8l.09.05h.01l1.04.61z" clip-rule="evenodd"/><path fill="#46B9FD" fill-rule="evenodd" d="m14 4.46-.03.01v.01l-1.69.97L8 3.01 3.72 5.45l-1.69-.97v-.01L2 4.46 8.02 1zM6.44 8.78l-.1.06-.45.26-1.67-.96.56-.34.24.14.87.5.45-.26.07-.04v.62zm5.41-.59-1.67.96-.5-.29-.06-.03.06-.04.06-.03v-.52l.44.25 1.1-.63zM9.74 9.43l-1.23.71-.43.25-.53-.3-1.14-.66v-.02l.39-.22.17-.1.24.14.34.2.46.26.07.04.43-.25.66-.39.1.06z" clip-rule="evenodd"/><path fill="#46B9FD" fill-rule="evenodd" d="m9.71 4.32-1.7.98-1.67-.96v-.02l1.67-.96.02-.01.84.49zM7.55 5.51l-1.21.71-.45.26-1.67-.97.84-.49.83-.48.45.26zm4.3.06-1.67.96-.5-.29-1.17-.67v-.02l.85-.48.34-.2.48-.28zM9.74 6.8l-.14.08-1.09.64-.43.25-.53-.31-1.04-.61H6.5l-.09-.05v-.01l.39-.23.45-.26.3-.17.46-.26.07-.04.43.25.77.45z" clip-rule="evenodd"/></svg>