<svg xmlns="http://www.w3.org/2000/svg" width="16" height="16" fill="none" viewBox="0 0 16 16"><path fill="#909090" fill-opacity=".9" d="m8.525 4.326 2.145 1.188a.113.113 0 0 1 0 .199L8.12 7.125a.25.25 0 0 1-.24 0L5.332 5.713a.114.114 0 0 1 0-.2l2.144-1.187V2L2 5.032v6.064l2.1-1.162V7.558c-.002-.084.102-.145.18-.1l2.549 1.413c.077.043.12.12.12.2v2.823c.002.085-.102.145-.179.1l-2.146-1.188-2.1 1.162L8 15l5.476-3.032-2.1-1.162-2.146 1.188c-.076.044-.182-.014-.18-.1V9.07c0-.084.05-.16.121-.199l2.55-1.412c.076-.045.182.012.18.1v2.375L14 11.096V5.032L8.525 2z"/></svg>