<svg xmlns="http://www.w3.org/2000/svg" width="16" height="16" fill="none" viewBox="0 0 16 16"><path fill="#32B9DC" d="M13.888 4.077c.386.447-.22 1.788-2.087 3.515A23 23 0 0 0 9.69 5.98c-.351-.237-.71-.456-1.061-.675 2.621-1.411 4.752-1.823 5.26-1.227"/><path fill="#00728D" d="M8.005 1.482c.631 0 1.307 1.017 1.727 2.595q-.857.37-1.727.859a20 20 0 0 0-1.727-.86c.42-1.586 1.087-2.594 1.727-2.594"/><path fill="#0286AA" d="M2.017 4.55q-.039-.313.105-.482c.14-.167.43-.254.842-.254.947 0 2.525.464 4.419 1.481-.36.22-.72.439-1.061.675a24 24 0 0 0-2.113 1.614C2.824 6.312 2.105 5.208 2.017 4.55"/><path fill="#00728D" d="M2.114 11.932c-.097-.114-.132-.272-.106-.482.088-.658.807-1.762 2.192-3.034.325.281.667.562 1.026.833.053.842.167 1.614.316 2.306-2.052.824-3.13.719-3.428.377"/><path fill="#0286AA" d="M8.005 14.518c-.841 0-1.823-1.78-2.113-4.786l.421.289c1.096.736 2.28 1.403 3.41 1.894-.411 1.595-1.087 2.603-1.718 2.603"/><path fill="#32B9DC" d="M13.888 11.932c-.631.736-3.752-.07-7.224-2.41a22 22 0 0 1-2-1.518c.57-.49 1.237-1 2-1.516q.684-.46 1.341-.842.684.395 1.342.842c.815.552 1.569 1.13 2.226 1.718 2.052 1.824 2.718 3.253 2.315 3.726"/></svg>