<svg xmlns="http://www.w3.org/2000/svg" id="Calque_1" data-name="Calque 1" viewBox="0 0 16 16"><path d="M8 11.22A12.7 12.7 0 0 1 5.36 11 6.3 6.3 0 0 1 3 10v2.5c0 .83 2.24 1.5 5 1.5s5-.67 5-1.5V10a6.3 6.3 0 0 1-2.36.95 12.7 12.7 0 0 1-2.64.27m4.81-8.14c-.55-.56-2.14-1-4.11-1.06L8 2h-.7c-2 .08-3.56.5-4.11 1.06A.62.62 0 0 0 3 3.5v1C3 5.33 5.24 6 8 6s5-.67 5-1.5v-1a.62.62 0 0 0-.19-.42M8 7.22A12.5 12.5 0 0 1 5.47 7 6.4 6.4 0 0 1 3 6v2.5C3 9.33 5.24 10 8 10s5-.67 5-1.5V6a6.4 6.4 0 0 1-2.47 1A12.5 12.5 0 0 1 8 7.22" style="fill:#0096c8"/></svg>