<svg xmlns="http://www.w3.org/2000/svg" width="16" height="16" fill="none"><path fill="#E7437A" fill-rule="evenodd" d="m2.633 2.782.4 10.662a.65.65 0 0 0 .62.625l8.668.389h.03A.65.65 0 0 0 13 13.81V2.191l-.001-.04a.65.65 0 0 0-.69-.608l-9.068.567a.65.65 0 0 0-.608.672Zm7.992 3.583c-.229.177-1.93.298-1.93.046.035-.964-.396-1.006-.636-1.006-.227 0-.611.069-.611.585 0 .526.56.823 1.218 1.172.935.496 2.066 1.095 2.066 2.604 0 1.446-1.174 2.245-2.673 2.245-1.547 0-2.898-.625-2.746-2.795.06-.255 2.027-.194 2.027 0-.024.895.18 1.159.695 1.159.395 0 .576-.218.576-.586 0-.556-.584-.883-1.256-1.26-.91-.511-1.982-1.113-1.982-2.493 0-1.377.947-2.295 2.638-2.295 1.691 0 2.614.904 2.614 2.624Zm1.313-4.799-1.865.117L10 3.819a.2.2 0 0 0 .028.113c.048.076.138.09.2.033l.836-.766.706.671a.13.13 0 0 0 .093.037c.077-.005.14-.084.137-.179l-.062-2.162Z" clip-rule="evenodd"/></svg>
