<svg xmlns="http://www.w3.org/2000/svg" width="16" height="16" fill="none"><path fill="#FF3E00" fill-rule="evenodd" d="M4 2a2 2 0 0 0-2 2v8a2 2 0 0 0 2 2h8a2 2 0 0 0 2-2V4a2 2 0 0 0-2-2zm5.15 2.133h-.09q-.204.01-.4.059a2 2 0 0 0-.458.216L5.96 5.892a1.6 1.6 0 0 0-.458.46c-.12.186-.202.395-.24.615a1.78 1.78 0 0 0 .273 1.291c.16.254.378.462.633.607.256.146.542.223.834.227q.224 0 .44-.059.246-.059.458-.2l.858-.625.136-.058h.144a.5.5 0 0 1 .25.064.545.545 0 0 1 .271.57.5.5 0 0 1-.216.316L7.13 10.6l-.144.058a.3.3 0 0 1-.128 0 .54.54 0 0 1-.45-.241.6.6 0 0 1-.192-.409v-.083h-.08a3 3 0 0 1-.882-.458l-.112-.084v.134l-.048.216a1.6 1.6 0 0 0 0 .267v.067c.002.347.109.685.305.966.159.252.375.46.63.605.254.145.538.224.829.229q.227-.003.449-.067.242-.071.456-.208l2.245-1.484c.182-.118.338-.275.458-.46.12-.186.202-.395.24-.615a1.78 1.78 0 0 0-.289-1.3 1.8 1.8 0 0 0-.622-.574 1.7 1.7 0 0 0-.805-.217 1.6 1.6 0 0 0-.898.266l-.882.567-.136.083H6.93a.5.5 0 0 1-.25-.064.545.545 0 0 1-.271-.569.47.47 0 0 1 .24-.317L8.893 5.4l.136-.058h.144a.5.5 0 0 1 .249.065.55.55 0 0 1 .192.176.6.6 0 0 1 .088.367v.083h.08c.317.102.615.257.883.459l.112.083.04-.133q.035-.112.056-.225a1.6 1.6 0 0 0 0-.275c0-.35-.107-.692-.305-.975a1.8 1.8 0 0 0-.613-.595 1.74 1.74 0 0 0-.806-.239Zm-1.588-.691A2.65 2.65 0 0 1 9.045 3c.48.001.952.123 1.378.353s.791.564 1.067.972c.213.309.364.66.444 1.03s.087.755.021 1.128a2.8 2.8 0 0 1-.385 1c.283.552.376 1.186.265 1.8-.06.367-.195.715-.393 1.024-.2.309-.459.57-.761.768l-2.245 1.483A2.65 2.65 0 0 1 6.953 13a2.9 2.9 0 0 1-1.378-.353 3.04 3.04 0 0 1-1.508-1.998 3 3 0 0 1-.024-1.124c.06-.358.19-.698.385-1a2.86 2.86 0 0 1-.265-1.808 2.7 2.7 0 0 1 .395-1.02c.2-.306.458-.567.76-.764z" clip-rule="evenodd"/></svg>