<svg xmlns="http://www.w3.org/2000/svg" width="16" height="16" fill="none"><path fill="#FF3E00" fill-rule="evenodd" d="M4 2a2 2 0 0 0-2 2v8a2 2 0 0 0 2 2h8a2 2 0 0 0 2-2V4a2 2 0 0 0-2-2H4Zm5.15 2.133H9.06c-.135.007-.27.027-.4.059-.161.052-.315.124-.458.216L5.96 5.892a1.568 1.568 0 0 0-.458.46c-.12.186-.202.395-.24.615a1.783 1.783 0 0 0 .273 1.291c.16.254.378.462.633.607.256.146.542.223.834.227.149 0 .297-.019.44-.059.163-.039.318-.106.458-.2l.858-.625.136-.058h.144a.52.52 0 0 1 .25.064.545.545 0 0 1 .271.57.493.493 0 0 1-.216.316l-2.213 1.5-.144.058a.342.342 0 0 1-.128 0 .544.544 0 0 1-.45-.241.61.61 0 0 1-.192-.409v-.083h-.08a2.987 2.987 0 0 1-.882-.458l-.112-.084v.134l-.048.216a1.577 1.577 0 0 0 0 .267v.067c.002.347.109.685.305.966.159.252.375.46.63.605.254.145.538.224.829.229.151-.002.302-.024.449-.067.16-.047.314-.117.456-.208l2.245-1.484c.182-.118.338-.275.458-.46.12-.186.202-.395.24-.615a1.782 1.782 0 0 0-.289-1.3 1.805 1.805 0 0 0-.622-.574 1.727 1.727 0 0 0-.805-.217 1.608 1.608 0 0 0-.898.266l-.882.567-.136.083h-.144a.52.52 0 0 1-.25-.064.545.545 0 0 1-.271-.569.466.466 0 0 1 .24-.317L8.893 5.4l.136-.058h.144c.087 0 .172.023.249.065a.552.552 0 0 1 .192.176.601.601 0 0 1 .088.367v.083h.08c.317.102.615.257.883.459l.112.083.04-.133c.023-.074.042-.15.056-.225a1.598 1.598 0 0 0 0-.275c0-.35-.107-.692-.305-.975a1.818 1.818 0 0 0-.613-.595 1.737 1.737 0 0 0-.806-.239Zm-1.588-.691A2.65 2.65 0 0 1 9.045 3c.48.001.952.123 1.378.353.425.23.791.564 1.067.972.213.309.364.66.444 1.03.08.37.087.755.021 1.128a2.805 2.805 0 0 1-.385 1c.283.552.376 1.186.265 1.8-.06.367-.195.715-.393 1.024-.2.309-.459.57-.761.768l-2.245 1.483A2.65 2.65 0 0 1 6.953 13a2.907 2.907 0 0 1-1.378-.353 3.037 3.037 0 0 1-1.508-1.998 2.952 2.952 0 0 1-.024-1.124c.06-.358.19-.698.385-1a2.863 2.863 0 0 1-.265-1.808 2.71 2.71 0 0 1 .395-1.02c.2-.306.458-.567.76-.764l2.244-1.491Z" clip-rule="evenodd"/></svg>
