<svg xmlns="http://www.w3.org/2000/svg" width="16" height="16" fill="none"><path fill="#FF3E00" d="M9.313 3.36h.11a2.23 2.23 0 0 1 1.77 1 2 2 0 0 1 .38 1.17q.015.165 0 .33a2 2 0 0 1-.07.27l-.05.16-.14-.1a3.8 3.8 0 0 0-1.1-.55h-.1v-.1a.7.7 0 0 0-.11-.44.68.68 0 0 0-.55-.29h-.18l-.17.07-2.8 1.81a.55.55 0 0 0-.3.38.64.64 0 0 0 .34.683.7.7 0 0 0 .31.077h.18l.17-.1 1.1-.68a2.1 2.1 0 0 1 1.12-.32 2.22 2.22 0 0 1 1.78.95 2.06 2.06 0 0 1 .36 1.56 1.92 1.92 0 0 1-.87 1.29l-2.8 1.78q-.267.165-.57.25a2 2 0 0 1-.56.08 2.22 2.22 0 0 1-1.82-1 2 2 0 0 1-.38-1.16v-.08a2 2 0 0 1 0-.32l.06-.26v-.16l.14.1c.334.242.706.428 1.1.55h.1v.1a.72.72 0 0 0 .24.49.7.7 0 0 0 .56.29.4.4 0 0 0 .16 0l.18-.07 2.76-1.8a.58.58 0 0 0 .27-.38.64.64 0 0 0-.339-.683.7.7 0 0 0-.31-.077h-.18l-.17.07-1.07.75a1.8 1.8 0 0 1-.57.24 2 2 0 0 1-.55.07 2.22 2.22 0 0 1-1.83-1 2.06 2.06 0 0 1-.34-1.55 1.92 1.92 0 0 1 .87-1.29l2.8-1.78q.268-.166.57-.26a2.7 2.7 0 0 1 .5-.07ZM9.293 2a3.4 3.4 0 0 0-1.85.53l-2.8 1.79a3.18 3.18 0 0 0-1.44 2.14 3.32 3.32 0 0 0 .33 2.17 3.1 3.1 0 0 0-.48 1.2 3.4 3.4 0 0 0 .58 2.58A3.74 3.74 0 0 0 6.683 14a3.4 3.4 0 0 0 1.85-.53l2.8-1.78a3.17 3.17 0 0 0 1.44-2.15 3.3 3.3 0 0 0-.33-2.16 3.3 3.3 0 0 0 .48-1.2 3.4 3.4 0 0 0-.58-2.59A3.74 3.74 0 0 0 9.293 2"/></svg>