<svg xmlns="http://www.w3.org/2000/svg" data-name="Calque 1" viewBox="0 0 16 16"><path d="M12.14 3.83A.84.84 0 0 0 12.77 5a1 1 0 0 0 1.13-.81 1.16 1.16 0 0 0-.85-1.32 2.73 2.73 0 0 0-2.66.49A5.71 5.71 0 0 0 8.65 5.8c-.06.13-.12.27-.17.41l-.59-.46-.56-.44a2.75 2.75 0 0 0-2.39-.68 2.11 2.11 0 0 0-1.75 1.79 2.25 2.25 0 0 0 .67 1.83l.26.28.27.3a.49.49 0 0 1-.1.79.81.81 0 0 1-.92 0l-.09-.06a.29.29 0 0 1 .05-.14 1.56 1.56 0 0 0 .18-.54.88.88 0 0 0-.78-1 .79.79 0 0 0-.64.12.91.91 0 0 0-.33.63 1.55 1.55 0 0 0 .76 1.52 2.81 2.81 0 0 0 2.16.46 2.13 2.13 0 0 0 1.46-.9 1.7 1.7 0 0 0 .09-2 8.2 8.2 0 0 0-.77-1l-.17-.21c-.22-.25-.27-.48-.15-.68a.62.62 0 0 1 .7-.29 2 2 0 0 1 1 .48l.82.64c.23.18.45.34.54.43-.17.72-.34 1.44-.5 2.17-.12.53-.15.66-.21.86s-.09.32-.18.71a3.25 3.25 0 0 1-.75 1.44 1.42 1.42 0 0 1-.57.39.73.73 0 0 0 .23-.43 1 1 0 0 0-.27-.85 1.06 1.06 0 0 0-1.22-.16 1.14 1.14 0 0 0-.62 1.2 1.41 1.41 0 0 0 1.19 1.1h.45a2.89 2.89 0 0 0 1.55-.48 4.76 4.76 0 0 0 .47-.31 5.79 5.79 0 0 0 1.55-2 7.76 7.76 0 0 0 .81-2.31l.1-.59.5.1h.08a2.87 2.87 0 0 0 1.59-.12 1.45 1.45 0 0 0 1-1.44.8.8 0 0 0-1.4-.31.72.72 0 0 0 0 .95v.1a2.75 2.75 0 0 1-1.49 0h-.15l.07-.37a11.24 11.24 0 0 1 .49-2 2.39 2.39 0 0 1 .49-.8 1 1 0 0 1 .83-.27l-.05.08Z" style="fill:#037bb9"/></svg>
