<svg xmlns="http://www.w3.org/2000/svg" width="16" height="16" fill="none"><path fill="#06B6D4" fill-rule="evenodd" d="M8 4Q5.2 4 4.5 7q1.05-1.5 2.45-1.125c.532.143.913.557 1.334 1.015.687.746 1.481 1.61 3.216 1.61q2.8 0 3.5-3-1.05 1.5-2.45 1.125c-.533-.143-.913-.557-1.334-1.015C10.529 4.863 9.735 4 8 4M4.5 8.5q-2.8 0-3.5 3 1.05-1.5 2.45-1.125c.533.143.913.557 1.334 1.015C5.471 12.136 6.265 13 8 13q2.8 0 3.5-3-1.05 1.5-2.45 1.125c-.532-.143-.913-.557-1.334-1.015C7.029 9.364 6.235 8.5 4.5 8.5" clip-rule="evenodd"/></svg>