<svg xmlns="http://www.w3.org/2000/svg" width="16" height="16" fill="none"><path fill="#06B6D4" fill-rule="evenodd" d="M8 4C6.133 4 4.967 5 4.5 7c.7-1 1.517-1.375 2.45-1.125.532.143.913.557 1.334 1.015.687.746 1.481 1.61 3.216 1.61 1.867 0 3.033-1 3.5-3-.7 1-1.517 1.375-2.45 1.125-.533-.143-.913-.557-1.334-1.015C10.529 4.863 9.735 4 8 4ZM4.5 8.5c-1.867 0-3.033 1-3.5 3 .7-1 1.517-1.375 2.45-1.125.533.143.913.557 1.334 1.015C5.471 12.136 6.265 13 8 13c1.867 0 3.033-1 3.5-3-.7 1-1.517 1.375-2.45 1.125-.532-.143-.913-.557-1.334-1.015C7.029 9.364 6.235 8.5 4.5 8.5Z" clip-rule="evenodd"/></svg>
