<svg xmlns="http://www.w3.org/2000/svg" width="16" height="16" fill="none"><path fill="#FFC131" d="M10 6.5a1.5 1.5 0 1 1-3 0 1.5 1.5 0 0 1 3 0"/><path fill="#24C8DB" d="M6.5 8a1.5 1.5 0 1 0 0 3 1.5 1.5 0 0 0 0-3"/><path fill="#FFC131" fill-rule="evenodd" d="M10.895 10.362A4.6 4.6 0 0 1 9.306 11a3.15 3.15 0 0 0 .154-1.44 3.2 3.2 0 0 0 1.886-1.704 3.16 3.16 0 0 0-.527-3.427 3.24 3.24 0 0 0-1.552-.96 3.3 3.3 0 0 0-1.831.026 3.24 3.24 0 0 0-1.524 1.002c.046-.063-.051.06 0 0-.616.068-1.36.426-1.912.693.18-.568.472-1.098.862-1.559A4.6 4.6 0 0 1 7.03 2.204a4.66 4.66 0 0 1 2.606-.036 4.6 4.6 0 0 1 2.208 1.365 4.5 4.5 0 0 1 1.104 2.33 4.5 4.5 0 0 1-.354 2.549 4.56 4.56 0 0 1-1.7 1.95Zm-6.84-4.343 1.129.137q.041-.325.145-.632a4.6 4.6 0 0 0-1.274.495" clip-rule="evenodd"/><path fill="#24C8DB" fill-rule="evenodd" d="M4.105 5.64A4.6 4.6 0 0 1 5.706 5a3.15 3.15 0 0 0-.18 1.446 3.2 3.2 0 0 0-1.872 1.7 3.16 3.16 0 0 0 .527 3.426c.413.46.952.794 1.552.96s1.235.156 1.83-.026c.595-.183 1.038-.534 1.437-1.006-.047.064.051-.06 0 0 .617-.069 1.448-.426 2-.693a4.5 4.5 0 0 1-.863 1.563 4.6 4.6 0 0 1-2.168 1.426 4.66 4.66 0 0 1-2.605.036 4.6 4.6 0 0 1-2.208-1.365 4.49 4.49 0 0 1-.75-4.877 4.56 4.56 0 0 1 1.699-1.95" clip-rule="evenodd"/></svg>