<svg xmlns="http://www.w3.org/2000/svg" width="16" height="16" fill="none"><path fill="#79E78B" fill-rule="evenodd" d="M2.264 12.75c.984 1.4 1.64 1.75 1.846 1.75a16.988 16.988 0 0 1 2.058-1.934c.892-.713 1.664-.807 2.583-.918.316-.039.65-.08 1.013-.148-.973-.553-1.177-1.294-1.377-2.018-.305-1.11-.6-2.18-3.623-2.482a1.968 1.968 0 0 0-.12.694l-.38 2.23a20.437 20.437 0 0 0-2 2.826Zm3-3.75-.5 2.5 2.5-3.5-2 1Zm2.5 0-2.5 3 2.5-1V9Z" clip-rule="evenodd"/><path fill="#49A958" d="M4.09 4.086c.742.06 1.237.43 1.482.676-.242-.707-.654-1.328-1.105-1.828.574-.98 1.726-1.572 3.042-1.43a3.8 3.8 0 0 1 2.008.851c.32-.167.69-.242 1.081-.2 1.192.128 2.141 1.296 2.119 2.609-.004.23-.038.449-.097.653a3.072 3.072 0 0 0-1.671.669c.527-.142 1.133.006 1.706.32.723.582 1.184 1.44 1.169 2.351-.021 1.215-.883 2.156-2.063 2.399a3.079 3.079 0 0 0-1.187-1.424c.318.479.359 1.14.218 1.819-.47.727-1.272 1.156-2.175 1.059-1.415-.152-2.54-1.538-2.514-3.097.005-.275.045-.538.116-.783a2.448 2.448 0 0 1-1.54.327c-1.42-.152-2.55-1.392-2.527-2.768.02-1.151.84-2.033 1.938-2.203Z"/></svg>
