<svg xmlns="http://www.w3.org/2000/svg" width="16" height="16" fill="none"><path fill="#FBB03B" d="m13.629 10.75-3.65-4.42V4h.542V3H5.107v1h.542v2.35l-3.357 4.52c-.194.32-.295.68-.292 1.047s.11.726.31 1.043c.201.316.488.579.832.761A2.4 2.4 0 0 0 4.274 14h7.46a2.4 2.4 0 0 0 1.162-.299 2.2 2.2 0 0 0 .832-.805 1.97 1.97 0 0 0 .27-1.086 2 2 0 0 0-.37-1.06Zm-.856 1.68a1.14 1.14 0 0 1-.453.428c-.191.1-.41.15-.63.142H4.275a1.3 1.3 0 0 1-.59-.133 1.16 1.16 0 0 1-.442-.384 1.03 1.03 0 0 1-.05-1.083l3.54-4.75V4h2.165v2.67l3.844 4.64a1.05 1.05 0 0 1 .033 1.12Z"/><path fill="#FBB03B" d="M10.318 10H5.563L4 11.96l.09.04h7.802a.1.1 0 0 0 .055-.01.1.1 0 0 0 .036-.03.06.06 0 0 0 .017-.039.06.06 0 0 0-.017-.039z"/></svg>