<svg xmlns="http://www.w3.org/2000/svg" width="16" height="16" fill="none"><path fill="#FBB03B" d="m13.629 10.75-3.65-4.42V4h.542V3H5.107v1h.542v2.35l-3.357 4.52c-.194.32-.295.68-.292 1.047.003.367.11.726.31 1.043.201.316.488.579.832.761A2.42 2.42 0 0 0 4.274 14h7.46c.41-.001.81-.105 1.162-.299.35-.194.638-.473.832-.805a1.97 1.97 0 0 0 .27-1.086 1.99 1.99 0 0 0-.37-1.06Zm-.856 1.68a1.137 1.137 0 0 1-.453.428c-.191.1-.41.15-.63.142H4.275a1.272 1.272 0 0 1-.59-.133 1.159 1.159 0 0 1-.442-.384 1.03 1.03 0 0 1-.05-1.083l3.54-4.75V4h2.165v2.67l3.844 4.64a1.052 1.052 0 0 1 .033 1.12Z"/><path fill="#FBB03B" d="M10.318 10H5.563L4 11.96l.09.04h7.802a.124.124 0 0 0 .055-.01.075.075 0 0 0 .036-.03.056.056 0 0 0 .017-.039.057.057 0 0 0-.017-.039L10.318 10Z"/></svg>
