<svg xmlns="http://www.w3.org/2000/svg" width="16" height="16" fill="none"><path fill="#0E8ADC" fill-rule="evenodd" d="m9.98 6.33 3.649 4.42c.224.316.351.682.369 1.06a1.97 1.97 0 0 1-.27 1.086 2.2 2.2 0 0 1-.832.805 2.4 2.4 0 0 1-1.162.299h-7.46a2.4 2.4 0 0 1-1.132-.278 2.2 2.2 0 0 1-.831-.762A2 2 0 0 1 2 11.917a2 2 0 0 1 .291-1.047L5.65 6.35V4h-.542V3h5.414v1H9.98zm2.34 6.528c.191-.101.348-.25.453-.428a1.05 1.05 0 0 0-.032-1.12L8.897 6.67V4H6.732v2.65L3.19 11.4a1.03 1.03 0 0 0 .05 1.083c.11.161.262.294.443.384.18.09.384.136.59.133h7.417c.22.008.438-.041.63-.142M5.563 10h4.755l1.665 1.882a.06.06 0 0 1 .017.04.06.06 0 0 1-.017.039.1.1 0 0 1-.036.03.1.1 0 0 1-.055.009H4.091L4 11.96z" clip-rule="evenodd"/></svg>