<svg xmlns="http://www.w3.org/2000/svg" width="16" height="16" fill="none"><path fill="#3B60C7" d="M12.5 11.969A5.977 5.977 0 0 0 14 8a5.977 5.977 0 0 0-1.5-3.969v7.938Z"/><path fill="#6281A4" d="M11 13.197V2.803a5.971 5.971 0 0 0-1-.462V13.66c.35-.124.684-.279 1-.462Z"/><path fill="#8AA181" d="M8.5 13.98V2.02a6.081 6.081 0 0 0-1 0v11.96a6.081 6.081 0 0 0 1 0Z"/><path fill="#B1C25E" d="M6 13.659V2.34c-.35.124-.684.279-1 .462v10.394c.316.183.65.338 1 .462Z"/><path fill="#D8E23B" d="M3.5 11.969A5.977 5.977 0 0 1 2 8c0-1.522.566-2.911 1.5-3.969v7.938Z"/></svg>
