<svg xmlns="http://www.w3.org/2000/svg" width="16" height="16" fill="none"><path fill="#E5CCAC" d="m2.6 10.2-.6-3 .6-.6L8 6l5.5 1.5L14 9v1.2l-.6.6-2.4 2.4L8.6 15l-1.8-.6L5 13.2l-1.2-1.8-.6-.6-.6-.6Z"/><path fill="#CB3349" d="M4.875 13.6 3.5 12.5l2-.1 1.5-.9h2.5l2 .5H13l-1.25 1.2-1.875.4-1.25-.4H8l-1.875.8-1.25-.4Z"/><path fill="#F4EDAE" d="M2 7.25V6.083l.571-.583 1.143-1.75 1.143-1.167L7 1.5h3l1 .5 1.5 1.5 1 1.5 1 1v1.833L12.857 9V7.833l-1.714-.583H7.714l-4.571.583L2.5 8 2 7.25Z"/><path fill="#D6B58C" d="M3.556 10.429V8.714L3 7.571 6.889 7H13.5l-.5 3-1.111 1-2.222-.571L8.5 9l-1.056.286-.555 1.143L4.667 11l-1.111-.571Z"/><path fill="#CB3349" d="m2 9.5 1.2-2L5 7 2 9.5ZM6 8l.5-1H12L9 8V7h-.6L6 8Z"/><path fill="#2F2E2C" d="M7.978 1a4.658 4.658 0 0 0-.466.03 5.446 5.446 0 0 0-1.486.38C4.9 1.878 3.583 2.89 2.763 4.94a3.745 3.745 0 0 0-.893.467.318.318 0 0 0-.088.105c-.103.21-.122.44-.136.694-.013.254-.01.513.02.724.028.198.09.46.165.704.036.121.07.24.116.342.044.096.07.184.204.276l-1.068 1.856-.029.048a.3.3 0 0 0 .083.423.315.315 0 0 0 .432-.08s.273-.315.709-.743c.031.214.072.453.136.638.053.157.14.365.233.552.046.094.088.178.145.257.028.039.061.083.107.123a.35.35 0 0 0 .253.096c.127 0 .253-.02.398-.039.005 0 .005.002.01 0 .033.122.04.18.126.39.065.162.151.335.252.505l-.417-.019a.312.312 0 0 0-.295.157.3.3 0 0 0 .023.329c.435.567.9.97 1.32 1.237.42.266.785.409 1.107.409.083 0 .168-.01.253-.02.052.032 1.064.629 2.233.629 1.517 0 2.627-.942 2.778-1.075.302-.064.593-.143.796-.22.237-.088.418-.254.602-.447.185-.192.368-.414.525-.628.313-.428.543-.828.543-.828a.3.3 0 0 0-.02-.332.313.313 0 0 0-.32-.115l.078-.247.593-.067a.31.31 0 0 0 .242-.18s.18-.373.253-.686c.038-.16.07-.402.097-.638.027-.235.048-.408.048-.533 0-.18-.08-.234-.126-.276-.045-.041-.09-.066-.136-.095a2.665 2.665 0 0 0-.233-.124c.086-.025.175-.048.253-.076a1.13 1.13 0 0 0 .252-.114c.005-.003.005-.006.01-.01.126-.083.164-.167.214-.256.052-.093.101-.193.145-.305a3.9 3.9 0 0 0 .194-.676c.05-.272.061-.572.04-.847-.023-.274-.058-.505-.156-.704a.306.306 0 0 0-.097-.114c-.287-.215-.642-.372-.99-.495-.725-1.949-2.075-2.951-3.264-3.436a6.606 6.606 0 0 0-2.107-.466L8.162 1c.034 0-.014.002-.048 0h-.136Zm.01.61c.048 0 .079-.002.106 0h.068c.034 0 .076.004.185.01.11.004.267.011.456.037.38.051.89.157 1.438.38.98.4 2.062 1.16 2.748 2.656a26.373 26.373 0 0 0-.583-.143.308.308 0 0 0-.087-.01.309.309 0 0 0-.32.296c-.006.168.13.31.3.314a8.364 8.364 0 0 0 1.01.257c.004.001.006.008.01.01a.153.153 0 0 0 .02.009c.058.045.13.069.203.067.28.107.55.235.748.37.026.08.062.216.078.41.018.23.007.498-.03.695a3.515 3.515 0 0 1-.164.561c-.037.094-.076.181-.107.238a.295.295 0 0 1-.04.057 3.534 3.534 0 0 1-.262.086l.137-.505a.304.304 0 0 0-.224-.37s-2.117-.562-5.516-.562c-.536 0-1.022.021-1.485.047h-.01a.339.339 0 0 0-.078-.01.371.371 0 0 0-.039.01h-.019a.319.319 0 0 0-.146.02c-2.08.142-3.29.475-3.389.504h-.029a.335.335 0 0 0-.087.038.146.146 0 0 0-.02.01V7.1a.146.146 0 0 0-.02.01 8.619 8.619 0 0 1-.009.009.146.146 0 0 0-.02.01v.009a.147.147 0 0 0-.019.01v.009a.145.145 0 0 0-.02.02.376.376 0 0 0-.03.057l-.25.427a2.036 2.036 0 0 1-.069-.2 4.553 4.553 0 0 1-.136-.618 3.565 3.565 0 0 1-.02-.61 1.77 1.77 0 0 1 .06-.39c.304-.205.774-.398 1.194-.523.448-.133.806-.2.806-.2a.303.303 0 0 0-.088-.6l-.029.01s-.294.055-.66.153c.756-1.58 1.81-2.334 2.719-2.713a4.794 4.794 0 0 1 1.719-.361ZM6.919 2.818v.914h.622v-.305h.31v1.828h-.31v.609h1.243v-.61h-.31V3.428h.31v.305h.621v-.914H6.92Zm.544 4.283c-.285.125-.55.25-.747.352l.058-.324c.22-.011.45-.022.69-.028Zm2.282.028c.352.018.681.04.981.067a7.81 7.81 0 0 1-.922.276c-.174.04-.167.031-.311.057.053-.076.108-.152.155-.228.037-.06.068-.113.097-.172Zm-3.632.124-.126.685a.305.305 0 0 0 .124.313c.102.07.237.074.342.011 0 0 1.254-.678 2.447-.98-.01.015-.018.032-.029.047-.174.236-.34.438-.34.438a.303.303 0 0 0-.032.337c.06.108.18.17.304.158 0 0 .507-.056 1.137-.2.623-.143 1.376-.365 1.922-.742.716.1 1.175.204 1.35.247l-.175.647a.293.293 0 0 0-.039.172l-.368 1.36-.826.667-2.175-.267-.554-1.351a.31.31 0 0 0-.291-.19H7.541a.31.31 0 0 0-.291.19l-.564 1.38-1.903.41-.913-.467-.272-1.504c.74-.555 1.61-1.084 2.515-1.36Zm-1.767.133a11.86 11.86 0 0 0-1.622 1.142c-.014.012-.014.008-.029.02l.544-.933c.123-.035.458-.118 1.107-.229Zm6.04 1.104c-.293.01-.482.386-.466.838.016.45.26.448.554.438.394-.007.608-.132.806-.038-.003-.011-.057-.194-.33-.162a.543.543 0 0 0 .029-.276c-.037-.451-.299-.81-.593-.8Zm-4.282.105c-.294.002-.572.376-.554.828.005.118.02.206.049.267-.256.063-.327.218-.33.228.161-.086.346-.077.63-.076h.176c.293-.003.539.024.534-.428-.005-.453-.212-.821-.505-.819Zm4.253.18a.149.149 0 0 1 .155.144c.002.08-.072.15-.155.152-.082.001-.144-.071-.146-.152-.002-.081.064-.142.146-.143Zm-4.205.106c.083-.003.144.06.146.142a.15.15 0 0 1-.146.153c-.083.002-.143-.062-.145-.143a.149.149 0 0 1 .145-.152Zm7.322.104c.038.017.04.02.078.038.074.036.142.074.194.105-.006.08-.02.176-.039.343-.026.226-.057.483-.077.57-.03.131-.103.287-.156.41l-.611.076a.31.31 0 0 0-.263.21l-.252.808a10.28 10.28 0 0 1-.272.067c-.124.027-.248.047-.223.047-.192 0-1.013-.008-1.127-.009-.048-.023-.257-.112-.524-.238-.148-.07-.295-.15-.418-.21l-.233-.114a.314.314 0 0 0-.184-.047c-.021.001-.04.007-.059.01a.3.3 0 0 0-.081-.292.314.314 0 0 0-.297-.08.309.309 0 0 0-.233.21s-.032.117-.127.238c-.094.12-.21.218-.408.218-.413 0-.543-.4-.543-.4a.306.306 0 0 0-.205-.255.318.318 0 0 0-.325.071.303.303 0 0 0-.072.318.313.313 0 0 0-.234.076l-.854.771c-.03.012-.232.1-.515.19a4.59 4.59 0 0 1-.709.172c-.17-.181-.329-.474-.437-.743-.126-.314-.184-.57-.184-.57a.29.29 0 0 0-.03-.077l.545.276c.065.035.14.044.213.029l2.175-.476c.101-.02.184-.088.224-.18l.544-1.333h.815l.544 1.332a.31.31 0 0 0 .253.19l2.486.305a.315.315 0 0 0 .233-.067l1.01-.818a.308.308 0 0 0 .107-.162l.271-1.009Zm-10.43.067.253 1.323c.017.089.074.165.156.21l.272.151s-.124.02-.263.038c-.081.011-.12.012-.184.02-.02-.035-.052-.062-.078-.115a4.347 4.347 0 0 1-.194-.476 4.678 4.678 0 0 1-.107-.561c-.03-.208-.048-.38-.048-.38v-.03c.068-.059.122-.12.194-.18Zm6.303 2.617c.05.025.085.051.156.086.127.062.287.128.437.2.298.141.572.276.572.276.043.019.09.03.136.028 0 0 .987.01 1.205.01.13 0 .222-.027.359-.058.066-.014.142-.039.214-.057-.042.06-.032.061-.078.124-.146.2-.301.401-.457.562a1.41 1.41 0 0 1-.378.295c-.313.117-1.609.342-1.797.342-.054 0-.487-.08-.514-.095-.207-.11-.845-.59-.845-.59a.317.317 0 0 0-.379-.01s-.216.159-.466.324a8.57 8.57 0 0 1-.602.362c-.307.119-.913.314-1.234.314-.103 0-.413-.08-.767-.305a4.326 4.326 0 0 1-.699-.58c.132.005.203.008.301.01a.312.312 0 0 0 .155 0c.305-.014.64-.113.942-.21.325-.104.583-.21.583-.21a.32.32 0 0 0 .097-.057l.777-.704c.08.027.115.044.262.086a3.607 3.607 0 0 0 .835.143c.054 0 .107-.003.156-.01.013-.001.027-.008.039-.01.006 0 .013.002.02 0 .204-.027.389-.085.553-.142.191-.067.331-.108.417-.124Zm-1.185 1.732c.163.126.46.364.738.514.212.113.431.158.612.171-.385.17-.85.305-1.35.305-.463 0-.925-.125-1.281-.257.098-.034.188-.067.262-.095.22-.085.461-.258.718-.428.16-.106.213-.15.301-.21Z"/></svg>
