<svg xmlns="http://www.w3.org/2000/svg" width="16" height="16" fill="none"><path fill="#D9606C" fill-rule="evenodd" d="M3 3.2h2.385L4.345 5H3V3.2ZM2 6V3.2C2 2.537 2.448 2 3 2h10c.552 0 1 .537 1 1.2v9.6c0 .663-.448 1.2-1 1.2H3c-.552 0-1-.537-1-1.2V6Zm1 0h4.186a4.39 4.39 0 0 0-1.066.387c.008.317.028.622.067.93-.041.028-.082.054-.124.08-.092.06-.184.119-.27.191l-.06.05c-.105.084-.21.169-.305.269a6.915 6.915 0 0 0-.711-.44A5.74 5.74 0 0 0 4 8.465c.153.262.312.507.484.74h.005v2.09a.05.05 0 0 1 .011.002l1.3.133a.137.137 0 0 1 .086.044.153.153 0 0 1 .04.093l.04.608 1.132.086.078-.562a.15.15 0 0 1 .047-.09.135.135 0 0 1 .092-.036h1.37c.07 0 .128.054.139.126l.078.562 1.133-.086.04-.608a.153.153 0 0 1 .039-.093.137.137 0 0 1 .087-.044l1.298-.133h.006l.003-.001h.003V9.204h.005c.172-.232.331-.478.484-.74a5.738 5.738 0 0 0-.717-.996 6.916 6.916 0 0 0-.711.439c-.095-.1-.2-.185-.306-.27l-.06-.049a2.397 2.397 0 0 0-.268-.189c-.042-.027-.084-.053-.125-.082.04-.308.059-.612.067-.93-.34-.18-.7-.3-1.067-.387-.146.26-.279.542-.395.818a2.573 2.573 0 0 0-.415-.036h-.006c-.139.002-.277.011-.415.036A8.153 8.153 0 0 0 7.186 6H13v6.8h-1.69a1.42 1.42 0 0 0 .201-.774c0-.022.002-.057.002-.145l-1.167.12-.04.61a.153.153 0 0 1-.041.095.136.136 0 0 1-.09.043l-.67.051h-.83a.153.153 0 0 1-.031-.073l-.08-.57H7.437l-.08.57a.153.153 0 0 1-.03.073H6.5l-.677-.051a.137.137 0 0 1-.089-.043.153.153 0 0 1-.04-.095L5.655 12l-1.168-.119a6.836 6.836 0 0 0 .002.175c0 .279.07.527.201.744H3V6Zm10-1V3.2h-.46L11.5 5H13Zm-2.631 0-.018-.01 1.033-1.79H9.54L8.5 5h1.869ZM7.345 5l1.04-1.8H6.539L5.5 5h1.845Zm2.084 5.571a.857.857 0 1 0 0-1.714.857.857 0 0 0 0 1.714Zm-2.858 0a.857.857 0 1 0 0-1.714.857.857 0 0 0 0 1.714Z" clip-rule="evenodd"/></svg>
