<svg xmlns="http://www.w3.org/2000/svg" width="16" height="16" fill="none"><path fill="#D9606C" fill-rule="evenodd" d="M3 3.2h2.385L4.345 5H3zM2 6V3.2C2 2.537 2.448 2 3 2h10c.552 0 1 .537 1 1.2v9.6c0 .663-.448 1.2-1 1.2H3c-.552 0-1-.537-1-1.2zm1 0h4.186a4.4 4.4 0 0 0-1.066.387c.008.317.028.622.067.93l-.124.08c-.092.06-.184.119-.27.191l-.06.05c-.105.084-.21.169-.305.269a7 7 0 0 0-.711-.44A5.7 5.7 0 0 0 4 8.465q.228.392.484.74h.005v2.09l.011.002 1.3.133a.14.14 0 0 1 .086.044.15.15 0 0 1 .04.093l.04.608 1.132.086.078-.562a.15.15 0 0 1 .047-.09.14.14 0 0 1 .092-.036h1.37c.07 0 .128.054.139.126l.078.562 1.133-.086.04-.608a.15.15 0 0 1 .039-.093.14.14 0 0 1 .087-.044l1.298-.133h.006l.003-.001h.003V9.204h.005q.256-.347.484-.74a5.7 5.7 0 0 0-.717-.996 7 7 0 0 0-.711.439 3 3 0 0 0-.306-.27l-.06-.049a2.4 2.4 0 0 0-.268-.189q-.063-.04-.125-.082c.04-.308.059-.612.067-.93-.34-.18-.7-.3-1.067-.387-.146.26-.279.542-.395.818a2.6 2.6 0 0 0-.415-.036h-.006a2.5 2.5 0 0 0-.415.036A8 8 0 0 0 7.186 6H13v6.8h-1.69a1.4 1.4 0 0 0 .201-.774c0-.022.002-.057.002-.145l-1.167.12-.04.61a.15.15 0 0 1-.041.095.14.14 0 0 1-.09.043l-.67.051h-.83a.15.15 0 0 1-.031-.073l-.08-.57H7.437l-.08.57a.15.15 0 0 1-.03.073H6.5l-.677-.051a.14.14 0 0 1-.089-.043.15.15 0 0 1-.04-.095L5.655 12l-1.168-.119.002.175c0 .279.07.527.201.744H3zm10-1V3.2h-.46L11.5 5zm-2.631 0-.018-.01 1.033-1.79H9.54L8.5 5zM7.345 5l1.04-1.8H6.539L5.5 5zm2.084 5.571a.857.857 0 1 0 0-1.714.857.857 0 0 0 0 1.714m-2.858 0a.857.857 0 1 0 0-1.714.857.857 0 0 0 0 1.714" clip-rule="evenodd"/></svg>