<svg xmlns="http://www.w3.org/2000/svg" data-name="Calque 1" viewBox="0 0 16 16"><path d="M4 7.12V6.06h4.28v1.06H6.69v4.77h-1.1V7.12H4M10.82 6a2.85 2.85 0 0 1 .64.07 3.69 3.69 0 0 1 .64.21 3.51 3.51 0 0 1 .6.33l-.47.93a3.32 3.32 0 0 0-.7-.36 2.06 2.06 0 0 0-.71-.13 1.53 1.53 0 0 0-.78.17.52.52 0 0 0-.28.46.54.54 0 0 0 .15.4.73.73 0 0 0 .35.21 5.19 5.19 0 0 0 .6.15H11a4.72 4.72 0 0 1 .92.26 1.37 1.37 0 0 1 .62.5 1.54 1.54 0 0 1 .25.94 1.66 1.66 0 0 1-.26 1 1.59 1.59 0 0 1-.76.6 3.07 3.07 0 0 1-1.2.21 4.47 4.47 0 0 1-.82-.08 3.89 3.89 0 0 1-.75-.25 3 3 0 0 1-.62-.39l.51-.91a2.32 2.32 0 0 0 .77.43 2.85 2.85 0 0 0 .91.15 1.57 1.57 0 0 0 .83-.18.57.57 0 0 0 .3-.52.49.49 0 0 0-.13-.37.75.75 0 0 0-.35-.2l-.54-.12h-.08a4.62 4.62 0 0 1-1-.23 1.41 1.41 0 0 1-.66-.48 1.58 1.58 0 0 1-.27-1 1.78 1.78 0 0 1 .26-1 1.58 1.58 0 0 1 .73-.61A2.9 2.9 0 0 1 10.82 6m2.68-3.55h-11a1 1 0 0 0-1 1v9a1 1 0 0 0 1 1.05h11a1 1 0 0 0 1-1.05v-9a1 1 0 0 0-1-1" style="fill:#00c491"/></svg>
