<svg xmlns="http://www.w3.org/2000/svg" data-name="Calque 1" viewBox="0 0 16 16"><path d="M4 7.12V6.06h4.28v1.06H6.69v4.77h-1.1V7.12zM10.82 6a3 3 0 0 1 .64.07 3.7 3.7 0 0 1 .64.21 3.5 3.5 0 0 1 .6.33l-.47.93a3.3 3.3 0 0 0-.7-.36 2 2 0 0 0-.71-.13 1.53 1.53 0 0 0-.78.17.52.52 0 0 0-.28.46.54.54 0 0 0 .15.4.73.73 0 0 0 .35.21 5 5 0 0 0 .6.15H11a4.7 4.7 0 0 1 .92.26 1.37 1.37 0 0 1 .62.5 1.54 1.54 0 0 1 .25.94 1.66 1.66 0 0 1-.26 1 1.6 1.6 0 0 1-.76.6 3.1 3.1 0 0 1-1.2.21 4.5 4.5 0 0 1-.82-.08 4 4 0 0 1-.75-.25 3 3 0 0 1-.62-.39l.51-.91a2.3 2.3 0 0 0 .77.43 2.9 2.9 0 0 0 .91.15 1.57 1.57 0 0 0 .83-.18.57.57 0 0 0 .3-.52.5.5 0 0 0-.13-.37.75.75 0 0 0-.35-.2l-.54-.12h-.08a4.6 4.6 0 0 1-1-.23 1.4 1.4 0 0 1-.66-.48 1.58 1.58 0 0 1-.27-1 1.8 1.8 0 0 1 .26-1 1.6 1.6 0 0 1 .73-.61A2.9 2.9 0 0 1 10.82 6m2.68-3.55h-11a1 1 0 0 0-1 1v9a1 1 0 0 0 1 1.05h11a1 1 0 0 0 1-1.05v-9a1 1 0 0 0-1-1" style="fill:#00c491"/></svg>