<svg xmlns="http://www.w3.org/2000/svg" width="16" height="16" fill="none" viewBox="0 0 16 16"><path fill="#909090" fill-opacity=".9" fill-rule="evenodd" d="M8 9.75a1.75 1.75 0 1 0 0-3.5 1.75 1.75 0 0 0 0 3.5m0 2a3.75 3.75 0 1 0 0-7.5 3.75 3.75 0 0 0 0 7.5" clip-rule="evenodd"/><path fill="#40A8E2" d="M8.75 14.206a6.251 6.251 0 0 0 0-12.411v1.514a4.751 4.751 0 0 1 0 9.382z"/><path fill="#F1608B" d="M7.25 12.691a4.7 4.7 0 0 1-2.22-.984l-1.1 1.036a6.23 6.23 0 0 0 3.32 1.463zm-4.334-1.054A6.22 6.22 0 0 1 1.75 8h1.5c0 .958.284 1.85.772 2.596z"/></svg>