<svg xmlns="http://www.w3.org/2000/svg" width="16" height="16" fill="none"><path fill="#B4B4B4" fill-rule="evenodd" d="M8 9.75a1.75 1.75 0 1 0 0-3.5 1.75 1.75 0 0 0 0 3.5Zm0 2a3.75 3.75 0 1 0 0-7.5 3.75 3.75 0 0 0 0 7.5Z" clip-rule="evenodd"/><path fill="#40A8E2" d="M8.75 14.206a6.251 6.251 0 0 0 0-12.411v1.514a4.751 4.751 0 0 1 0 9.382v1.514Z"/><path fill="#F1608B" d="M7.25 12.691a4.728 4.728 0 0 1-2.22-.984l-1.1 1.036a6.225 6.225 0 0 0 3.32 1.463V12.69ZM2.916 11.636A6.221 6.221 0 0 1 1.75 8h1.5c0 .958.284 1.85.772 2.596l-1.106 1.04Z"/></svg>
