<svg xmlns="http://www.w3.org/2000/svg" width="16" height="16" fill="none"><path fill="#0E8ADC" fill-rule="evenodd" d="M3 3a1 1 0 0 0-1 1v8a1 1 0 0 0 1 1h10a1 1 0 0 0 1-1V4a1 1 0 0 0-1-1zm1.302 3.252v.955h1.462v4.297h1.01V7.207h1.462v-.955zm6.857.009a2.7 2.7 0 0 0-.588-.063 2.7 2.7 0 0 0-1.067.171c-.276.111-.51.303-.67.55-.17.27-.252.583-.24.9-.022.32.065.637.249.901.154.2.365.35.606.432q.448.154.92.208h.073l.496.108c.122.03.233.092.322.18a.44.44 0 0 1 .12.333.51.51 0 0 1-.276.469 1.47 1.47 0 0 1-.763.162c-.285 0-.567-.046-.837-.135a2.2 2.2 0 0 1-.707-.388l-.469.82q.263.21.57.351.332.148.69.226.373.07.753.071c.377.01.752-.054 1.103-.189.284-.104.528-.293.698-.54a1.47 1.47 0 0 0 .24-.9 1.38 1.38 0 0 0-.23-.848 1.25 1.25 0 0 0-.57-.45 4.4 4.4 0 0 0-.846-.234h-.129a5 5 0 0 1-.551-.135.67.67 0 0 1-.322-.19.5.5 0 0 1-.138-.36.46.46 0 0 1 .258-.414 1.43 1.43 0 0 1 .717-.153c.222 0 .443.04.652.117q.342.124.643.324l.433-.838a3.4 3.4 0 0 0-1.14-.486" clip-rule="evenodd"/></svg>