<svg xmlns="http://www.w3.org/2000/svg" width="16" height="16" fill="none"><path fill="#0E8ADC" fill-rule="evenodd" d="M3 4h10v8H3V4ZM2 4a1 1 0 0 1 1-1h10a1 1 0 0 1 1 1v8a1 1 0 0 1-1 1H3a1 1 0 0 1-1-1V4Zm2.302 2.252v.955h1.462v4.297h1.01V7.207h1.462v-.955H4.302Zm6.857.009a2.67 2.67 0 0 0-.588-.063 2.714 2.714 0 0 0-1.067.171c-.276.111-.51.303-.67.55-.17.27-.252.583-.24.9-.022.32.065.637.249.901.154.2.365.35.606.432.298.103.606.172.92.208h.073l.496.108c.122.03.233.092.322.18a.44.44 0 0 1 .12.333.506.506 0 0 1-.276.469 1.467 1.467 0 0 1-.763.162c-.285 0-.567-.046-.837-.135a2.145 2.145 0 0 1-.707-.388l-.469.82c.175.14.366.257.57.351.221.098.452.174.69.226.248.046.5.07.753.071.377.01.752-.054 1.103-.189.284-.104.528-.293.698-.54.176-.268.26-.583.24-.9.018-.3-.063-.597-.23-.848a1.255 1.255 0 0 0-.57-.45 4.408 4.408 0 0 0-.846-.234h-.129a4.845 4.845 0 0 1-.551-.135.674.674 0 0 1-.322-.19.485.485 0 0 1-.138-.36.462.462 0 0 1 .258-.414 1.43 1.43 0 0 1 .717-.153c.222 0 .443.04.652.117.227.082.443.191.643.324l.433-.838a3.442 3.442 0 0 0-1.14-.486Z" clip-rule="evenodd"/></svg>
