<svg xmlns="http://www.w3.org/2000/svg" width="16" height="16" fill="none" viewBox="0 0 16 16"><path fill="#D9D9D9" d="M4.064 5.964C2.64 6.075 2.809 7.217 3.4 7.57c.59.352 2.31 1.127 5.475.895 3.397-.249 3.99-1.28 4.16-1.994 0-.145 0-.623-.393-.623-1.363 1.45-4.142.982-5.011.806-1.169-.237-2.723-.756-3.567-.69"/><path fill="#F7639C" d="M4.064 5.964C2.64 6.075 2.809 7.217 3.4 7.57c.59.352 2.31 1.127 5.475.895 3.397-.249 3.99-1.28 4.16-1.994 0-.145 0-.623-.393-.623-1.363 1.45-4.142.982-5.011.806-1.169-.237-2.723-.756-3.567-.69"/><path fill="#FF87B6" d="M4.24 4.744c-.384.274-.38.797-.322.952.296-.429 1.589-.111 2.61.112 1.022.223 2.584.594 4.033.176 2.23-.643 1.69-3.001.44-3.001-.21 1.357-.895 1.654-1.451 1.761-.96.185-1.906.04-2.943-.104-1.036-.143-1.886-.238-2.367.104"/><path fill="#FF87B6" d="M6.846 2.686c-1.81 0-1.879.82-1.879 1.325.657-.481 2.425.378 3.689.294.299-.02 1.975-.076 1.56-1.973C9.901.892 8.016.88 8.036.96c.135.321.62 1.726-1.19 1.726"/><path fill="#F04987" d="M3.198 8.537c-.338.042-.147.425.16.615 2.583 1.925 6.537 1.875 8.063 1.122s1.742-2.128 1.361-2.625c-.68 1.283-3.706 1.552-5.459 1.503-2.46-.068-3.786-.657-4.125-.615"/><path fill="#11BEE2" d="M4.563 10.759c.18 0 .327.13.35.296a.42.42 0 0 1 .278-.105c.227 0 .411.175.412.39l-.002.014a.42.42 0 0 1 .34-.171.4.4 0 0 1 .407.367.41.41 0 0 1 .362-.21c.155 0 .289.084.358.205a.42.42 0 0 1 .634.107.41.41 0 0 1 .36-.208c.167 0 .31.096.375.233a.416.416 0 0 1 .682-.098.41.41 0 0 1 .378-.238c.126 0 .237.055.313.14a.41.41 0 0 1 .398-.298c.12 0 .227.051.302.13a.4.4 0 0 1 .408-.363q.107.001.195.048a.35.35 0 0 1 .33-.222c.207 0 .34.12.333.366l.002-.001c0 1.986-1.69 3.596-3.777 3.596-2.086 0-3.778-1.61-3.778-3.596.012-.159.14-.382.34-.382"/><path fill="#006AA4" d="M8.078 12.015c.1.006.199.05.265.133q.075.094.078.23l-.006.091c-.03.199-.136.8-.21 1.273l-.061.41c-.008.06-.064.105-.13.106a.14.14 0 0 1-.117-.062l-.016-.042a34 34 0 0 1-.182-1.483l-.022-.29c0-.239.202-.378.401-.366m-.16 1.411.094.711-.125-.974zm-1.286-1.509a.27.27 0 0 1 .248.084q.089.094.136.265l.044.174c.042.186.081.405.129.62.064.293.145.59.27.836a.115.115 0 0 1-.049.152.14.14 0 0 1-.172-.023c-.344-.367-.784-.887-.852-1.608l-.009-.146v-.007l.006-.059q.015-.086.06-.155a.3.3 0 0 1 .189-.133m2.833 0a.3.3 0 0 1 .19.133q.044.07.06.155l.006.059v.007l-.01.146c-.068.721-.508 1.24-.852 1.608a.14.14 0 0 1-.171.023.115.115 0 0 1-.05-.152c.125-.246.207-.542.271-.836.048-.215.087-.434.13-.62l.042-.174A.6.6 0 0 1 9.218 12a.27.27 0 0 1 .247-.084m-2.127 2.03v-.003q-.069-.072-.139-.15zm-2.03-2.324c.164.036.287.196.35.417l.05.17c.06.183.148.407.262.634.153.304.352.604.596.817l.029.037a.11.11 0 0 1-.02.127.14.14 0 0 1-.18.021 4.6 4.6 0 0 1-.871-.775c-.272-.315-.51-.697-.547-1.086l-.004-.077V11.9l.008-.062a.3.3 0 0 1 .085-.154.27.27 0 0 1 .242-.062m5.328 0a.27.27 0 0 1 .328.216l.008.062v.007l-.005.077c-.036.389-.275.77-.547 1.086a4.6 4.6 0 0 1-.872.775.14.14 0 0 1-.18-.02.11.11 0 0 1-.018-.128l.028-.037c.243-.213.443-.513.596-.817.114-.227.201-.451.261-.635l.052-.169c.062-.22.185-.381.349-.417M6.326 13.6q.069.076.143.143l.005.004a2 2 0 0 1-.149-.147m.468-.356c.079.139.17.265.264.382l-.137-.182a2.5 2.5 0 0 1-.238-.416zm.177-.586c.03.152.064.32.102.489-.055-.244-.097-.482-.142-.68l-.042-.17zm2.196-.192.042-.17zm-3.514-.022.027.066-.036-.093zm2.239-.251a.2.2 0 0 0 .04-.027zm2.522-.123-.042.14za1 1 0 0 1 .051-.137zm-1.006-.037q-.062.004-.122.085l.03-.036a.15.15 0 0 1 .092-.049"/></svg>