<svg xmlns="http://www.w3.org/2000/svg" width="16" height="16" fill="none" viewBox="0 0 16 16"><path fill="url(#paint0_linear_1788_84)" fill-rule="evenodd" d="m5.774 8.02-.07.106c-.143.21-.26.36-.388.478C5.111 8.795 4.785 9 4 9c-.406 0-.62-.16-.763-.35A1.23 1.23 0 0 1 3 8c0-.351.09-.596.206-.735C3.295 7.158 3.49 7 4 7c.482 0 1.074.174 1.774 1.02m1.2-1.654C6.07 5.43 5.078 5 4 5c-.99 0-1.795.342-2.33.985C1.16 6.595 1 7.35 1 8c0 .534.186 1.248.638 1.85C2.12 10.494 2.906 11 4 11c1.215 0 2.053-.348 2.68-.933a4 4 0 0 0 .303-.318c.365.503.731.946 1.14 1.293.792.673 1.69.958 2.877.958.963 0 1.959-.32 2.727-1.003C14.513 10.298 15 9.271 15 8c0-1.154-.29-2.203-1.043-2.957C13.203 4.289 12.154 4 11 4c-1.37 0-2.439.723-3.19 1.443a10 10 0 0 0-.836.923m1.248 1.66c.497.733.837 1.187 1.196 1.492.36.307.769.482 1.582.482.537 0 1.041-.18 1.398-.497C12.737 9.202 13 8.729 13 8c0-.846-.21-1.297-.457-1.543C12.297 6.211 11.846 6 11 6c-.63 0-1.226.33-1.807.887a9 9 0 0 0-.971 1.139" clip-rule="evenodd"/><defs><linearGradient id="paint0_linear_1788_84" x1="1" x2="15" y1="8" y2="8" gradientUnits="userSpaceOnUse"><stop stop-color="#1E93FF"/><stop offset="1" stop-color="#B56AFF"/></linearGradient></defs></svg>