<svg xmlns="http://www.w3.org/2000/svg" width="16" height="16" fill="none"><path fill="#3AC59B" fill-rule="evenodd" d="M5 2.5a.5.5 0 0 1 1 0V4h1.5V2.5a.5.5 0 0 1 1 0V4H10V2.5a.5.5 0 0 1 1 0V4a1 1 0 0 1 1 1h1.5a.5.5 0 0 1 0 1H12v1.5h1.5a.5.5 0 0 1 0 1H12V10h1.5a.5.5 0 0 1 0 1H12a1 1 0 0 1-1 1v1.5a.5.5 0 0 1-1 0V12H8.5v1.5a.5.5 0 0 1-1 0V12H6v1.5a.5.5 0 0 1-1 0V12a1 1 0 0 1-1-1H2.5a.5.5 0 0 1 0-1H4V8.5H2.5a.5.5 0 0 1 0-1H4V6H2.5a.5.5 0 0 1 0-1H4a1 1 0 0 1 1-1V2.5Zm0 8a.5.5 0 0 0 .5.5h5a.5.5 0 0 0 .5-.5v-5a.5.5 0 0 0-.5-.5h-5a.5.5 0 0 0-.5.5v5Zm5-.5V6H6v4h4Z" clip-rule="evenodd"/></svg>
