<svg xmlns="http://www.w3.org/2000/svg" width="16" height="16" fill="none"><path fill="#CE84DA" fill-rule="evenodd" d="M12.608 4.157A6 6 0 0 0 9.538 2.2l.243 4.988 2.827-3.03Zm-7.526-1.4a5.97 5.97 0 0 1 3.473-.732l.18 4.04zM2.258 6.254A6 6 0 0 1 4.22 3.339l2.966 2.648-4.93.268Zm.414 4.507a5.97 5.97 0 0 1-.626-3.51l3.902-.181zm3.498 2.954a6 6 0 0 1-2.98-2.129l2.72-2.929zm4.697-.444a5.97 5.97 0 0 1-3.674.674l-.2-4.088zm2.927-3.707a6 6 0 0 1-2.076 3.145L8.542 9.897zm-.637-4.633a5.97 5.97 0 0 1 .811 3.688l-4.303.193z" clip-rule="evenodd"/></svg>