<svg xmlns="http://www.w3.org/2000/svg" width="16" height="16" fill="none"><path fill="#91C620" fill-opacity=".5" d="M8.003 14a.57.57 0 0 0 .41-.186l2.708-2.972a.66.66 0 0 0 .158-.326.7.7 0 0 0-.034-.367.63.63 0 0 0-.214-.285.544.544 0 0 0-.732.078l-2.296 2.521L2.988 6.97a.57.57 0 0 0-.298-.17.53.53 0 0 0-.334.038.6.6 0 0 0-.26.235.7.7 0 0 0-.096.353q0 .126.042.243a.6.6 0 0 0 .124.206l5.422 5.944a.56.56 0 0 0 .41.186z"/><path stroke="#84B817" stroke-opacity=".5" stroke-width=".3" d="M1.85 7.426a.8.8 0 0 1 .119-.43.75.75 0 0 1 .324-.294.7.7 0 0 1 .428-.05.72.72 0 0 1 .377.216v.001l4.905 5.372 2.185-2.4a.7.7 0 0 1 .237-.173.7.7 0 0 1 .284-.06M1.85 7.425H2zm0 0q0 .151.052.295a.8.8 0 0 0 .153.255l5.422 5.944a.7.7 0 0 0 .522.235h.066l.008-.008a.7.7 0 0 0 .214-.059m0 0-.062-.136zm0 0q.136-.062.238-.173l2.707-2.972a.8.8 0 0 0 .195-.4.84.84 0 0 0-.041-.447.8.8 0 0 0-.266-.353.7.7 0 0 0-.41-.136m0 0-.001.15v-.15ZM2.165 7.875Z"/><path fill="#84B817" stroke="#84B817" stroke-width=".3" d="M8.003 14.15Zm0 0a.7.7 0 0 0 .52-.234l5.424-5.944.004-.005a.82.82 0 0 0 .188-.544.82.82 0 0 0-.209-.536.7.7 0 0 0-.507-.235.7.7 0 0 0-.515.213l-.005.004-4.9 5.372m0 1.909v-1.91m0 0-2.191-2.4a.7.7 0 0 0-.237-.172.7.7 0 0 0-.285-.06l.001.15m2.712 2.483L4.88 10.842a.66.66 0 0 1-.158-.325.7.7 0 0 1 .034-.368.63.63 0 0 1 .214-.285.55.55 0 0 1 .322-.107m0 0v-.15a.7.7 0 0 0-.41.136.8.8 0 0 0-.267.353.84.84 0 0 0-.04.447.8.8 0 0 0 .194.4l2.713 2.972m-2.19-4.158a.5.5 0 0 1 .222.047q.106.049.188.138l1.78 3.973m0 0 .111-.1zm.238.173q.136.061.282.062z"/><path fill="#F3AF00" d="M10.96 4.945 8.25 9.874a.25.25 0 0 1-.119.111.2.2 0 0 1-.148 0 .24.24 0 0 1-.118-.113.35.35 0 0 1-.04-.177l.108-2.722-1.752-.466a.2.2 0 0 1-.099-.063.3.3 0 0 1-.066-.113.37.37 0 0 1 .025-.275l2.71-4.93a.24.24 0 0 1 .118-.11.2.2 0 0 1 .15 0c.048.02.09.06.117.112a.34.34 0 0 1 .04.178l-.11 2.722 1.752.467q.055.015.099.062.045.046.066.114a.35.35 0 0 1-.024.274h.002Z"/></svg>