<svg xmlns="http://www.w3.org/2000/svg" width="16" height="16" fill="none"><path fill="#91C620" fill-opacity=".5" d="M8.003 14a.566.566 0 0 0 .41-.186l2.708-2.972a.657.657 0 0 0 .158-.326.693.693 0 0 0-.034-.367.627.627 0 0 0-.214-.285.544.544 0 0 0-.732.078l-2.296 2.521L2.988 6.97a.566.566 0 0 0-.298-.17.534.534 0 0 0-.334.038.597.597 0 0 0-.26.235.682.682 0 0 0-.096.353c0 .083.014.166.042.243a.64.64 0 0 0 .124.206l5.422 5.944a.56.56 0 0 0 .41.186L8.004 14Z"/><path stroke="#84B817" stroke-opacity=".5" stroke-width=".3" d="M1.85 7.426c0-.152.04-.302.119-.43a.747.747 0 0 1 .324-.294.684.684 0 0 1 .428-.05c.144.03.275.107.377.216v.001l4.905 5.372 2.185-2.4a.723.723 0 0 1 .237-.173.68.68 0 0 1 .284-.06M1.85 7.425H2h-.15Zm0 0c0 .1.017.2.052.295a.79.79 0 0 0 .153.255l5.422 5.944a.71.71 0 0 0 .522.235h.066l.008-.008a.686.686 0 0 0 .214-.059m0 0-.062-.136.063.136h-.001Zm0 0c.09-.04.17-.1.238-.173l2.707-2.972c.1-.11.168-.25.195-.4a.843.843 0 0 0-.041-.447.777.777 0 0 0-.266-.353.695.695 0 0 0-.41-.136m0 0-.001.15v-.15ZM2.165 7.875Z"/><path fill="#84B817" stroke="#84B817" stroke-width=".3" d="M8.003 14.15Zm0 0a.71.71 0 0 0 .52-.234l5.424-5.944.004-.005a.824.824 0 0 0 .188-.544.819.819 0 0 0-.209-.536.707.707 0 0 0-.507-.235.703.703 0 0 0-.515.213l-.005.004-4.9 5.372m0 1.909v-1.91m0 0-2.191-2.4a.723.723 0 0 0-.237-.172.68.68 0 0 0-.285-.06l.001.15m2.712 2.483L4.88 10.842a.657.657 0 0 1-.158-.325.693.693 0 0 1 .034-.368.627.627 0 0 1 .214-.285.545.545 0 0 1 .322-.107m0 0v-.15a.695.695 0 0 0-.41.136.777.777 0 0 0-.267.353.843.843 0 0 0-.04.447c.026.15.094.29.194.4l2.713 2.972m-2.19-4.158a.53.53 0 0 1 .222.047c.07.032.134.079.188.138l1.78 3.973m0 0 .111-.1-.11.1Zm.238.173c.09.04.185.062.282.062l-.282-.062Z"/><path fill="#F3AF00" d="M10.96 4.945 8.25 9.874a.247.247 0 0 1-.119.111.19.19 0 0 1-.148 0 .244.244 0 0 1-.118-.113.35.35 0 0 1-.04-.177l.108-2.722-1.752-.466a.223.223 0 0 1-.099-.063.295.295 0 0 1-.066-.113.37.37 0 0 1 .025-.275l2.71-4.93a.242.242 0 0 1 .118-.11.19.19 0 0 1 .15 0c.048.02.09.06.117.112a.338.338 0 0 1 .04.178l-.11 2.722 1.752.467c.036.01.07.031.099.062.03.03.052.07.066.114a.354.354 0 0 1-.024.274h.002Z"/></svg>
