<svg xmlns="http://www.w3.org/2000/svg" width="16" height="16" fill="none"><path fill="#A074FF" d="m10.136 2.003-3.79.733a.138.138 0 0 0-.113.127L6 6.75a.139.139 0 0 0 .17.142l1.056-.24a.138.138 0 0 1 .168.161L7.08 8.33a.138.138 0 0 0 .177.16l.652-.196a.138.138 0 0 1 .176.159l-.498 2.381c-.031.15.17.23.253.103l.056-.086 3.089-6.086a.138.138 0 0 0-.15-.197l-1.087.208a.138.138 0 0 1-.16-.174l.709-2.426a.138.138 0 0 0-.16-.173Z"/><path fill="#A074FF" d="m5 4.212-2.655-.481c-.244-.045-.429.22-.306.44l5.492 9.773c.113.201.399.2.51-.002l5.385-9.773c.121-.22-.064-.482-.308-.437l-.647.12-1.463 2.633-3.229 5.86-4.136-7.363L5 5.23V4.212Z"/></svg>
