<svg xmlns="http://www.w3.org/2000/svg" width="16" height="16" fill="none"><path fill="#A074FF" d="m13.426 4.17-5.385 9.772a.29.29 0 0 1-.51.002L2.04 4.17c-.123-.219.062-.484.306-.44l5.391.979c.034.006.07.006.104 0l5.278-.977c.244-.045.429.218.308.437Z"/><path fill="#FFCC17" d="m10.136 2.003-3.79.733a.138.138 0 0 0-.113.127L6 6.75a.139.139 0 0 0 .17.142l1.056-.24a.138.138 0 0 1 .168.161L7.08 8.33a.138.138 0 0 0 .177.16l.652-.196a.138.138 0 0 1 .176.159l-.498 2.381c-.031.15.17.23.253.103l.056-.086 3.089-6.086a.138.138 0 0 0-.15-.197l-1.087.208a.138.138 0 0 1-.16-.174l.709-2.426a.138.138 0 0 0-.16-.173Z"/></svg>
