<svg xmlns="http://www.w3.org/2000/svg" width="16" height="16" fill="none"><path fill="#4CB7F0" fill-rule="evenodd" d="M6.66 2c1.163 0 2.11.946 2.11 2.11 0 1.163-.939 2.11-2.488 2.11H3V5.014h3.282c.918 0 1.282-.406 1.282-.904a.905.905 0 0 0-.904-.904c-.52 0-.754.352-.754.602H4.701C4.7 2.92 5.434 2 6.66 2Zm2.674 12c1.164 0 2.11-.946 2.11-2.11 0-1.163-.938-2.11-2.487-2.11H5.315v1.206h3.642c.823 0 1.281.406 1.281.904a.905.905 0 0 1-.904.904c-.52 0-.753-.352-.753-.602H7.375c0 .889.733 1.808 1.96 1.808ZM11.76 3.86c-1.33 0-2.268 1.011-2.268 2.341h1.068c0-.661.48-1.141 1.2-1.141s1.08.48 1.08 1.141c0 .66-.468 1.206-1.74 1.206H3v1.205h8.28c1.884 0 2.76-1.211 2.76-2.411 0-1.33-.9-2.341-2.28-2.341ZM3 9.78h1.58v1.216H3V9.78Z" clip-rule="evenodd"/></svg>
