<svg xmlns="http://www.w3.org/2000/svg" width="16" height="16" fill="none" viewBox="0 0 16 16"><path fill="#909090" fill-opacity=".9" fill-rule="evenodd" d="M2.695 4.605A2.43 2.43 0 0 1 4.711 3.5c1.157 0 1.557.421 2.008.896q.097.104.202.21c.553.552 1.658 1.657 3.869 1.657 2.278 0 3.868-1.105 3.868-1.105-.431 1.293-1.198 2.25-2.04 2.87.26.065.569.202.935.446-.731 0-1.11.16-1.357.482.146.245.251.616.251 1.176-.51-.255-.94-.314-1.293-.286-.387.475-.88.847-1.47 1.086v1.963l.553.552V14c-.72-.368-1.206-.361-2.21 0v-.553l1.105-.552V11.11a4.7 4.7 0 0 1-1.106.127 5 5 0 0 1-1.207-.143l-.45 1.8 1.105.553V14c-1.06-.53-1.665-.543-2.763 0v-.553l1.105-.552.492-1.968c-1.808-.731-2.48-2.616-3-4.076q-.127-.358-.247-.673c-.455-.545-1.073-1.19-2.219-1.573z" clip-rule="evenodd"/></svg>