<svg xmlns="http://www.w3.org/2000/svg" width="16" height="16" fill="none" viewBox="0 0 16 16"><path fill="#909090" fill-opacity=".9" d="m7.813 14.481-.044-.002A6.483 6.483 0 0 1 1.514 8 6.486 6.486 0 0 1 8 1.514l.187.005.045.003A6.48 6.48 0 0 1 14.486 8 6.486 6.486 0 0 1 8 14.486zM8 6.088a.956.956 0 1 0 0-1.912.956.956 0 0 0 0 1.912m0 6.898a4.986 4.986 0 0 0 3.565-8.47l.002.015q.024.14.037.28 0 .014.002.027.011.146.012.294A3.62 3.62 0 0 1 8 8.75a2.118 2.118 0 0 0 0 4.236m0-1.162a.956.956 0 1 1 0-1.912.956.956 0 0 1 0 1.912"/></svg>