<svg xmlns="http://www.w3.org/2000/svg" width="16" height="16" fill="none" viewBox="0 0 16 16"><path fill="#5ABBE4" fill-rule="evenodd" d="M11.111 7.5H9.778a.5.5 0 0 0-.5.5v.667h2.333V8a.5.5 0 0 0-.5-.5M7.778 8v1.003c-.536.36-.89.97-.89 1.664V12a2 2 0 0 0 2 2H12a2 2 0 0 0 2-2v-1.333a2 2 0 0 0-.889-1.664V8a2 2 0 0 0-2-2H9.778a2 2 0 0 0-2 2m3.555 2.444c0 .33-.178.617-.444.77v1.008a.444.444 0 1 1-.889 0v-1.008a.888.888 0 1 1 1.333-.77" clip-rule="evenodd"/><path fill="#5ABBE4" fill-opacity=".7" fill-rule="evenodd" d="M7.945 1a4.6 4.6 0 0 0-.938 1.3 2.34 2.34 0 0 0-1.888.395c-.215.51-.62.915-1.13 1.13-.565.215-.09 1.605.565 2.26a2.622 2.622 0 0 0-1.695 3.956c-1.3.644-1.695 2.825-.565 2.825 0 0-1.3 1.13 0 1.13s2.26-1.695 2.26-1.695h.565a1.7 1.7 0 0 0-.542 1.13c0 .488.52.562 1.332.569-.316-.5-.5-1.092-.5-1.727v-1.819c0-.873.348-1.665.91-2.245v-.482a3.227 3.227 0 0 1 3.06-3.223c.152-1.462-.304-2.374-.304-2.374l-.758.17A3 3 0 0 0 7.945 1" clip-rule="evenodd"/></svg>