<svg xmlns="http://www.w3.org/2000/svg" width="16" height="16" fill="none" viewBox="0 0 16 16"><path fill="#909090" fill-opacity=".9" d="M7.67 3.15A4 4 0 0 1 8.5 2c.196.353.309.747.33 1.15L9.5 3s1 2-.67 4.75A3.21 3.21 0 0 1 10 11.2c1.72-.58 2.3-1.15 2.87-1.15a.56.56 0 0 1 .57.57s.08.38-.92.88l-2 1a6.25 6.25 0 0 1-3 1c-1.17 0-2 .08-2-.5A1.5 1.5 0 0 1 6 12h-.5s-.85 1.5-2 1.5 0-1 0-1c-1 0-.65-1.93.5-2.5a2.32 2.32 0 0 1 1.5-3.5c-.58-.58-1-1.81-.5-2 .45-.19.81-.55 1-1a2.07 2.07 0 0 1 1.67-.35"/></svg>