<svg xmlns="http://www.w3.org/2000/svg" width="16" height="16" fill="none" viewBox="0 0 16 16"><path fill="#909090" fill-opacity=".9" d="m8.187 1.519.044.002A6.483 6.483 0 0 1 14.486 8 6.486 6.486 0 0 1 8 14.486l-.187-.005q-.023 0-.045-.004A6.48 6.48 0 0 1 1.514 8 6.486 6.486 0 0 1 8 1.514zM8 9.912a.956.956 0 1 0 0 1.912.956.956 0 0 0 0-1.912m0-6.898a4.986 4.986 0 0 0-3.565 8.47l-.002-.015a4 4 0 0 1-.037-.28l-.001-.027A3.62 3.62 0 0 1 8 7.25a2.118 2.118 0 0 0 0-4.236m0 1.162a.956.956 0 1 1 0 1.912.956.956 0 0 1 0-1.912"/></svg>