<svg xmlns="http://www.w3.org/2000/svg" width="16" height="16" fill="none"><path fill="#86B44B" fill-rule="evenodd" d="M9.376 4.814a1.407 1.407 0 0 1-1.934 1.304.701.701 0 0 0-.2-.1 1.406 1.406 0 1 1 2.134-1.204ZM5.407 8.422a4.69 4.69 0 0 1 1.107-.09l.05.298.008.05c.121.73.224 1.364.225 1.76 0 .846-.215 1.445-.552 1.776-.303.297-.848.515-1.868.278a.703.703 0 0 0-.319 1.37c1.325.308 2.42.094 3.173-.645.541-.531.819-1.254.923-2.02.344.005.802.1 1.175.357.385.264.75.745.75 1.699a.703.703 0 0 0 1.407 0c0-1.392-.573-2.318-1.36-2.859-.651-.447-1.397-.597-1.965-.603-.042-.372-.108-.78-.172-1.168a3.64 3.64 0 0 0 1.368.573c.86.17 1.902.061 2.8-.648a.703.703 0 0 0-.873-1.104c-.51.403-1.109.48-1.655.372a2.212 2.212 0 0 1-.802-.324A2.815 2.815 0 0 0 7.969 2a2.814 2.814 0 0 0-1.857 4.928 5.636 5.636 0 0 0-1.004.12c-1.079.234-2.125.874-2.507 2.27a.703.703 0 1 0 1.357.37c.205-.748.721-1.108 1.45-1.266Z" clip-rule="evenodd"/></svg>
