<svg xmlns="http://www.w3.org/2000/svg" width="16" height="16" fill="none"><path fill="#32B0E7" d="M11.667 9.333H6L7.333 6h2.2L10 5H8l-.667-1L8 3h2l-.467-1h-2.2L5.867 4l.6 1-4 5A2.304 2.304 0 0 0 2 11.333c0 1 .733 1.867 1.667 2 0 0 7 .667 8 .667C12.933 14 14 12.933 14 11.667c0-1.267-1.067-2.334-2.333-2.334Zm-7.667 3c-.533 0-1-.466-1-1 0-.533.467-1 1-1 .533 0 1 .467 1 1 0 .534-.467 1-1 1Zm7.667.667c-.734 0-1.334-.6-1.334-1.333 0-.734.6-1.334 1.334-1.334.733 0 1.333.6 1.333 1.334C13 12.4 12.4 13 11.667 13Z"/></svg>
