<svg xmlns="http://www.w3.org/2000/svg" width="16" height="16" fill="none"><path fill="#DD50AD" fill-rule="evenodd" d="M8.797 9.017c-2.41-1.5-6.202-1.086-7.797-.69 1.772-1.235 2.929-1.44 4.086-1.647.231-.04.463-.082.699-.131a5.49 5.49 0 0 1 .266-.494c.177-.296 0-.395-.178-.296-.177.098-.443.098-.443-.198 0-.296-.531-.592-.62 0-.07.474.148.79.266.889a7.083 7.083 0 0 0-2.215 0c.433-.161 1.102-1.24 1.478-1.848.086-.138.156-.251.205-.324.22-.328.38-.248.68-.1.062.032.13.066.206.1.112.05.195.099.276.147.24.143.457.272 1.32.346.088-1.382.708-2.666 1.328-2.765.62-.098 1.064.988 1.24 1.877.178.888.355 1.283.71 1.382.182.05.318-.24.455-.532.129-.276.26-.554.43-.554.284 0 .473.592.533.889.62.164 2.144.888 3.278 2.468-.78-.79-2.156-1.119-2.747-1.185-.118 0-.478.04-.975.198-.496-.316-1.21-.33-1.506-.296v.493c.532-.033 2.038.08 3.81.79-.797 0-2.835.296-4.785 1.481Zm-1.329-2.27-.974.098 1.329-1.58-.355 1.481Z" clip-rule="evenodd"/><path fill="#DD50AD" d="M14.911 8.82 15 8.228c-2.392 0-5.937.395-10.013 5.036a3.766 3.766 0 0 0 2.836.691l.044-.066c.603-.9 2.815-4.203 7.044-5.069Z"/><path fill="#DD50AD" d="M8.886 13.955c.532-1.12 2.393-3.555 5.582-4.345-1.24 3.061-4.164 4.148-5.582 4.345ZM8.089 9.412c-2.056 1.264-3.338 2.831-3.722 3.457-.709-.33-2.34-1.54-3.19-3.753 1.861-.592 4.608-.592 6.912.296Z"/></svg>
