<svg xmlns="http://www.w3.org/2000/svg" width="16" height="16" fill="none"><path fill="#CE346B" d="M6.16 8.88H4.53l.352-1.354C6 7.5 6.915 7.51 7.66 7.51a.14.14 0 0 0 .16-.12 3.8 3.8 0 0 1 2.89-2.46 3.13 3.13 0 0 1 3.45 1.52l.08.15a3.3 3.3 0 0 1-.21 3 4.09 4.09 0 0 1-1.82 1.57 3.198 3.198 0 0 1-4.47-1.81c-.88 1.89-3.5 2.83-5.2 1.45-2.478-1.945-.45-6.099 2.396-6.099 1.008 0 2.496.401 3.064 1.889-.51.18-1 .26-1.54.43-.377-.43-.816-.582-1.376-.585A1.77 1.77 0 0 0 3.31 8.11a1.49 1.49 0 0 0 2.85.77Zm5.18-2.44c-1.83-.07-2.79 2.82-.77 3.33 2.02.51 3.22-3.12.77-3.33ZM4 13.25a.75.75 0 0 1 .75-.75h6.5a.75.75 0 0 1 0 1.5h-6.5a.75.75 0 0 1-.75-.75ZM4 2.75A.75.75 0 0 1 4.75 2h6.5a.75.75 0 0 1 0 1.5h-6.5A.75.75 0 0 1 4 2.75Z"/></svg>
