<svg xmlns="http://www.w3.org/2000/svg" id="Calque_1" data-name="Calque 1" viewBox="0 0 16 16"><defs><style>.cls-1{fill:#f4791c}</style></defs><path d="M5.28 13.1v-.07.07m2.59.9h-.35a2.44 2.44 0 0 1-1.22-.47 1.54 1.54 0 0 1-.61-1.39v-.13h.12A15 15 0 0 1 8 11.78a6.64 6.64 0 0 1 1.64.22.45.45 0 0 1 .25.12.43.43 0 0 1 0 .37 1.88 1.88 0 0 1-.32.63 2.16 2.16 0 0 1-.74.7 2 2 0 0 1-1 .24M3.79 11v-.22a1.13 1.13 0 0 1 .08-.19l.1.17a1.23 1.23 0 0 0 .76.53c.79.07.72.06.48.67 0 .12 0 .57-.09.58a1.59 1.59 0 0 1-1.35-1.47V11m6.8 1.54c-.12 0 .22-.46.17-.58-.23-.61-.57-.6.22-.67a1.18 1.18 0 0 0 .76-.53l.1-.17.09.19a1.57 1.57 0 0 1-1.32 1.76M5.08 6.5c1.14.29 3.11 1.31 1.64 2 0-.26-.08-.33-.19-.33h-.47c-.75 0-1.86-1.37-1-1.72m5.42 0c.88.35-.22 1.72-1 1.72h-.42c-.12 0-.2.07-.19.33-1.48-.67.49-1.69 1.63-2M8.22 2c-.09 0-.27.15-.67.6l-.1.08-.18-.16-.19-.16c-.12 0-.27.19-.49.86H6.5a2.6 2.6 0 0 1-.92-.42 2.67 2.67 0 0 0-1.2-.42 1 1 0 0 0-.83.44c-.17.49 1.5.73.56 1.38-1.51.45.25 1.58-.48 2.47a1.15 1.15 0 0 0-.43.83.92.92 0 0 0 .39.59c.4.34.94.55 1.07 1.11a3.14 3.14 0 0 1 0 .75c0 .13 0 .66-.2.66l-.13-.06a.87.87 0 0 1-.18-.36c-.06-.12-.14-.34-.25-.34l-.14.15C2.53 12.21 5.62 14.48 8 14.48a3 3 0 0 0 1.2-.24c1.54-.58 4.21-2.58 2.66-4.35-.31 0-.27.72-.66.81C10 8.81 13.17 8.43 12.37 7a1.15 1.15 0 0 1-.2-1.59c.58-.9-.58-.91-.77-1.51 1.12-1 .76-1.44 0-1.44a2.87 2.87 0 0 0-1.83.75c-.17.2-.28.27-.35.27s-.08-.67 0-.93a1.23 1.23 0 0 1-.51.15c-.24 0-.31-.16-.34-.33S8.31 2 8.22 2" class="cls-1"/><path d="M7.11 12.27a1.23 1.23 0 0 0-.66 0 .61.61 0 0 0 .06.4.43.43 0 0 0 .42.26.39.39 0 0 0 .27-.2.87.87 0 0 0 .11-.32v-.18ZM9.12 12.35 9 12.27a1.75 1.75 0 0 0-.56-.06l-.18.1a.54.54 0 0 0 .13.56.38.38 0 0 0 .37.13.37.37 0 0 0 .24-.23 1.21 1.21 0 0 0 .09-.34Z" class="cls-1"/></svg>
