<svg xmlns="http://www.w3.org/2000/svg" width="16" height="16" fill="none"><path fill="#4BB9D1" fill-rule="evenodd" d="M8.548 13.975a6 6 0 1 0-2.607-.338l.017-.105.726-3.938H5.76l.044-.396h.946c1.085 0 1.885-.044 2.398-.132L9.456 9l-.908 4.975ZM6.97 6.208c0 .44.154.814.462 1.122.308.308.682.462 1.122.462.44 0 .814-.154 1.122-.462.323-.308.484-.682.484-1.122 0-.44-.161-.814-.484-1.122a1.493 1.493 0 0 0-1.122-.484c-.44 0-.814.161-1.122.484a1.528 1.528 0 0 0-.462 1.122Z" clip-rule="evenodd"/></svg>
