<svg xmlns="http://www.w3.org/2000/svg" width="16" height="16" fill="none"><path fill="#2CB6D4" d="M5 6.5v-1a.47.47 0 0 1-.5-.5c0-.28.11-.4.35-.65A1.74 1.74 0 0 0 5.5 3h-1c0 .28-.11.4-.35.65A1.74 1.74 0 0 0 3.5 5 1.46 1.46 0 0 0 5 6.5ZM10 6.5v-1a.47.47 0 0 1-.5-.5c0-.28.11-.4.35-.65A1.74 1.74 0 0 0 10.5 3h-1c0 .28-.11.4-.35.65A1.74 1.74 0 0 0 8.5 5 1.46 1.46 0 0 0 10 6.5ZM6 5a1.46 1.46 0 0 0 1.5 1.5v-1A.47.47 0 0 1 7 5c0-.28.11-.4.35-.65A1.74 1.74 0 0 0 8 3a1.46 1.46 0 0 0-1.5-1.5v1A.47.47 0 0 1 7 3c0 .28-.11.4-.35.65A1.74 1.74 0 0 0 6 5Z"/><path fill="#2CB6D4" fill-rule="evenodd" d="M2.5 7h9.38v.02a2.24 2.24 0 0 1 0 4.48h-.85a4.5 4.5 0 0 1-8.53-2V7Zm8.88 3.49h.5v.01a1.25 1.25 0 0 0 0-2.5h-.5v2.49ZM4 9.556v.888L6 12v-1.2L5 10l1-.8V8L4 9.556ZM8 8v1.2l1 .8-1 .8V12l2-1.556v-.888L8 8Z" clip-rule="evenodd"/></svg>
