<svg xmlns="http://www.w3.org/2000/svg" width="16" height="16" fill="none"><path fill="#0B9E9E" fill-rule="evenodd" d="M3.054 2.803c.52-.347 1.874.419 3.086 1.46-.48-1.993.054-2.441 2.095 1.13.417.73.865 1.38 1.24 1.893.051-.047.102-.105.157-.168.048-.054.1-.113.157-.17a5.67 5.67 0 0 0 .374-.434c.418-.516.907-1.121 1.699-1.121.884 0 1.296.524 1.461 1.013l1.58.395c.152.038.152.255 0 .294-.721.187-1.3.359-1.834.561-.062.027-.126.052-.19.077l-.124.048a9.89 9.89 0 0 0-.17.073c-.386.18-.723.453-.723 1.166 0 3.178-1.652 3.593-4.957 4.422a61.9 61.9 0 0 0-2.814.758c-.346-.345.24-.611.662-.803.211-.096.382-.174.374-.233-.02-.144-.344-.198-.638-.247-.334-.056-.63-.105-.398-.271 1.18 0 3.108-1.036 3.108-2.59-.518.518-2.674 1.554-3.71 1.554-.04-.02.062-.137.195-.289.216-.246.513-.584.407-.747-.05-.076-.508-.036-.981.005-.51.044-1.037.09-1.092-.005-.05-.089.374-.312.793-.532.406-.213.805-.423.761-.504-.051-.097-.493-.162-.956-.231C2.103 9.23 1.563 9.15 1.5 9.02c-.054-.114.336-.297.74-.486.43-.201.876-.41.814-.55-.078-.178-.456-.224-.82-.269-.358-.043-.702-.085-.734-.25-.08-.417.63-.435 1.116-.448.254-.006.447-.011.438-.07-.024-.169-.398-.467-.773-.767-.387-.308-.774-.618-.78-.787-.012-.294.452-.196.917-.098.232.05.464.098.636.098.035-.195-.267-.5-.558-.796-.309-.313-.606-.614-.478-.758.202-.226 1.554.518 1.554.518.073-.078-.092-.413-.26-.754-.178-.363-.36-.732-.258-.8Zm8.808 4.144a.518.518 0 1 0 0-1.036.518.518 0 0 0 0 1.036Z" clip-rule="evenodd"/></svg>
