<svg xmlns="http://www.w3.org/2000/svg" width="16" height="16" fill="none"><path fill="#D9AC39" d="m8 3-.894 1.234c-.489-.015-1.448.094-1.968.283C4.659 4.214 4 3.5 4 3.5l-.347 1.36c-.336.18-.673.38-.973.645L1.5 4.5c.462.932 1.184 3.058 2.032 3.619 1.345-2.625 7.599-2.427 8.972-.012.888-.463 1.514-2.324 1.863-3.246-.275.092-.83.555-1.102.656-.183-.2-.617-.507-.863-.656C12.169 4.433 12 3.5 12 3.5s-.574.655-1.041.982c-.63-.117-1.394-.258-2.035-.223C8.487 3.899 8 3 8 3Z"/><path fill="#D9AC39" d="m2.391 8.015 1.111 3.436c1.928 2.543 6.851 2.718 8.998.049L13.693 8c-.551.816-1.447 1.379-1.999 1.684-.392.215-1.297.345-1.297.345L8.023 8.798l-2.389 1.206s-.893-.143-1.297-.332c-.816-.436-1.364-.95-1.943-1.655l-.003-.002Z"/></svg>
