<svg xmlns="http://www.w3.org/2000/svg" width="16" height="16" fill="none"><path fill="#CF2D4A" d="M8.147 14c-.975 0-1.843-.132-2.604-.397-.76-.262-1.404-.647-1.93-1.155a4.947 4.947 0 0 1-1.2-1.853C2.138 9.865 2 9.034 2 8.103c0-.92.138-1.753.413-2.502a5.328 5.328 0 0 1 1.214-1.926 5.34 5.34 0 0 1 1.948-1.241C6.345 2.144 7.222 2 8.206 2c.91 0 1.724.132 2.439.397a5.053 5.053 0 0 1 1.824 1.132 4.807 4.807 0 0 1 1.141 1.74c.263.669.393 1.41.39 2.222a7.16 7.16 0 0 1-.147 1.543c-.1.468-.26.878-.476 1.228a2.404 2.404 0 0 1-.844.826c-.348.2-.77.315-1.265.342-.354.028-.642.002-.862-.077A1.054 1.054 0 0 1 9.902 11a1.284 1.284 0 0 1-.22-.552h-.055c-.073.182-.217.348-.43.497a2.54 2.54 0 0 1-.785.343c-.305.079-.63.108-.976.086a2.892 2.892 0 0 1-1.027-.25 2.607 2.607 0 0 1-.857-.635 3.03 3.03 0 0 1-.586-1.027c-.141-.408-.213-.88-.216-1.415.003-.53.078-.99.225-1.383.15-.393.347-.723.591-.99a2.923 2.923 0 0 1 1.737-.922c.346-.052.672-.052.981 0 .309.051.568.135.78.25.213.116.346.24.398.375h.064v-.512h1.435v4.455c.003.21.05.373.142.489a.45.45 0 0 0 .371.173c.211 0 .387-.093.527-.278.144-.186.251-.47.321-.854.074-.383.11-.872.11-1.465 0-.572-.076-1.074-.229-1.506a3.208 3.208 0 0 0-.632-1.11 3.33 3.33 0 0 0-.94-.748 4.346 4.346 0 0 0-1.164-.42 6.162 6.162 0 0 0-1.284-.132c-.76 0-1.425.115-1.994.347a3.825 3.825 0 0 0-1.42.963 4.07 4.07 0 0 0-.853 1.456 5.734 5.734 0 0 0-.284 1.812c.003.721.104 1.36.302 1.917.202.554.498 1.02.89 1.397.39.377.873.663 1.448.858.574.195 1.234.292 1.98.292.351 0 .695-.026 1.031-.078.336-.048.64-.11.912-.182.272-.07.49-.139.656-.206l.454 1.324c-.193.11-.454.212-.784.306a7.594 7.594 0 0 1-1.11.233A8.59 8.59 0 0 1 8.148 14Zm-.211-4.126c.373 0 .669-.072.889-.215a1.17 1.17 0 0 0 .477-.634c.097-.283.143-.632.137-1.046a2.801 2.801 0 0 0-.142-.926 1.05 1.05 0 0 0-.463-.58c-.217-.134-.52-.2-.907-.2-.34 0-.628.07-.867.214a1.403 1.403 0 0 0-.54.602 2.12 2.12 0 0 0-.188.904c.003.323.055.629.155.918.101.286.268.518.5.698.232.176.548.265.949.265Z"/></svg>
