<svg xmlns="http://www.w3.org/2000/svg" width="16" height="16" fill="none"><path fill="#0E8ADC" fill-rule="evenodd" d="M5 13.196c-.066-.038-.185-.143-.272-.46-.089-.321-.12-.787-.047-1.392.026-.215.064-.44.114-.676.478.106.989.188 1.523.245.317.435.644.835.974 1.197a7.568 7.568 0 0 1-.529.437c-.487.364-.906.57-1.23.655-.316.083-.467.032-.533-.006Zm3-.378c-1.331 1.213-2.645 1.738-3.5 1.244-.855-.493-1.057-1.894-.673-3.653C2.112 9.862 1 8.987 1 8c0-.987 1.112-1.862 2.827-2.409-.384-1.76-.182-3.16.673-3.653.855-.494 2.169.031 3.5 1.244 1.331-1.213 2.645-1.738 3.5-1.244.855.493 1.057 1.894.672 3.653C13.888 6.138 15 7.013 15 8c0 .987-1.112 1.862-2.828 2.409.385 1.76.183 3.16-.672 3.653-.855.494-2.169-.031-3.5-1.244Zm3.205-7.486a7.52 7.52 0 0 0 .114-.676c.072-.605.041-1.071-.047-1.393-.087-.316-.206-.421-.272-.46-.066-.037-.217-.088-.534-.005-.323.084-.742.291-1.23.655a7.55 7.55 0 0 0-.528.437c.33.362.657.762.974 1.197.534.057 1.045.14 1.523.245ZM7.292 3.89a7.553 7.553 0 0 0-.529-.437c-.487-.364-.906-.57-1.23-.655-.316-.083-.467-.032-.533.006s-.185.143-.272.46c-.089.321-.12.787-.047 1.392.026.215.064.44.114.676.478-.106.989-.188 1.523-.245.317-.435.644-.835.974-1.197Zm.356 1.114c.117-.141.235-.276.352-.406.117.13.235.265.352.406a16.59 16.59 0 0 0-.704 0ZM5.581 6.197c-.18.031-.356.065-.527.102.053.166.112.336.175.507a16.634 16.634 0 0 1 .352-.609ZM5.739 8a15.265 15.265 0 0 1 1.13-1.958 15.27 15.27 0 0 1 2.262 0A15.264 15.264 0 0 1 10.26 8a15.258 15.258 0 0 1-1.13 1.958 15.264 15.264 0 0 1-2.262 0A15.264 15.264 0 0 1 5.74 8ZM4.637 8a13.784 13.784 0 0 1-.55-1.442 7.554 7.554 0 0 0-.643.24c-.56.24-.948.5-1.182.737C2.032 7.768 2 7.924 2 8c0 .076.032.232.262.465.234.238.623.497 1.182.737.2.085.414.166.643.24.148-.467.331-.95.55-1.442Zm.417 1.7c.053-.165.112-.335.175-.506a16.635 16.635 0 0 0 .352.609c-.18-.031-.356-.065-.527-.102Zm4.628 1.213c.534-.057 1.045-.14 1.523-.245.05.235.088.461.114.676.072.605.041 1.071-.047 1.393-.087.316-.206.421-.272.46-.066.037-.217.088-.534.005-.323-.084-.742-.291-1.23-.655a7.568 7.568 0 0 1-.528-.437c.33-.362.657-.762.974-1.197Zm-1.33.083c-.117.141-.235.276-.352.406-.117-.13-.235-.265-.352-.406a17.07 17.07 0 0 0 .704 0Zm2.067-1.193a16.741 16.741 0 0 0 .352-.61c.063.172.122.341.175.508-.17.037-.346.07-.527.102ZM11.363 8c.219.491.402.975.55 1.442.229-.074.444-.155.643-.24.56-.24.948-.5 1.182-.737.23-.233.262-.389.262-.465 0-.076-.032-.232-.262-.465-.234-.238-.623-.497-1.182-.737a7.551 7.551 0 0 0-.643-.24c-.148.467-.331.95-.55 1.442Zm-.592-1.194c.063-.171.122-.34.175-.507-.17-.037-.346-.07-.527-.102a16.742 16.742 0 0 1 .352.61ZM8 9a1 1 0 1 0 0-2 1 1 0 0 0 0 2Z" clip-rule="evenodd"/></svg>
