<svg xmlns="http://www.w3.org/2000/svg" width="16" height="16" fill="none"><path fill="#E49C30" fill-rule="evenodd" d="M5.18 3.29a6.584 6.584 0 0 1 1.6-.581c.219.39.419.813.593 1.226.207-.036.415-.05.623-.053h.008c.208.003.416.017.623.053C8.8 3.522 9 3.1 9.22 2.71c.549.13 1.09.31 1.6.58-.012.477-.041.933-.1 1.396.062.042.124.082.187.122.138.089.275.177.402.284l.09.073c.158.128.316.255.458.405.344-.241.7-.46 1.068-.658.398.455.77.945 1.075 1.494-.23.393-.468.761-.726 1.11h-.007l-.001 3.101v.035h-.009l-.008.002-1.948.199a.205.205 0 0 0-.13.066.228.228 0 0 0-.059.14l-.06.912-1.7.128-.117-.841a.214.214 0 0 0-.207-.19H6.972c-.05 0-.099.019-.137.054a.226.226 0 0 0-.07.136l-.117.841-1.7-.128-.06-.912a.229.229 0 0 0-.059-.14.205.205 0 0 0-.13-.066l-1.948-.2h-.018V7.514h-.007c-.258-.35-.497-.717-.726-1.11.304-.549.677-1.04 1.075-1.494.368.197.724.417 1.067.658.142-.15.3-.277.457-.404l.092-.074c.127-.108.266-.197.404-.285l.185-.121c-.059-.463-.088-.92-.1-1.396Zm-2.448 8.459c0-.034-.002-.087-.002-.219l1.752.179.06.917a.228.228 0 0 0 .061.141c.036.038.083.061.134.065l2.075.157a.202.202 0 0 0 .146-.048.225.225 0 0 0 .077-.141l.119-.856h1.693l.119.856a.226.226 0 0 0 .07.135.203.203 0 0 0 .137.055h.015l2.076-.157a.206.206 0 0 0 .133-.065.23.23 0 0 0 .061-.142l.06-.917 1.752-.179c0 .132-.002.185-.003.219v.044c0 1.962-2.347 2.905-5.263 2.916h-.008c-2.916-.011-5.263-.954-5.263-2.916v-.044Zm4.41-3.469a1.286 1.286 0 1 1-2.57 0 1.286 1.286 0 0 1 2.57 0Zm4.287 0a1.286 1.286 0 1 1-2.572 0 1.286 1.286 0 0 1 2.572 0Z" clip-rule="evenodd"/></svg>
