<svg xmlns="http://www.w3.org/2000/svg" width="16" height="16" fill="none"><path fill="#BA43AF" d="M12.85 4.52 8.71 2.13a1.34 1.34 0 0 0-1.34 0L3.23 4.52a1.33 1.33 0 0 0-.67 1.15v4.78a1.35 1.35 0 0 0 .67 1.16L7.37 14a1.34 1.34 0 0 0 1.34 0l4.14-2.39a1.35 1.35 0 0 0 .67-1.16V5.67a1.33 1.33 0 0 0-.67-1.15ZM11.5 7.33h-1.32l-.32 1.39h1.28v1H9.63l-.36 1.58H8l.37-1.58h-1.6l-.37 1.57H5.12l.36-1.58h-1v-1h1.23L6 7.33H4.86v-1h1.39l.36-1.58H7.9l-.36 1.6h1.58l.36-1.58h1.29l-.37 1.58h1.1v.98ZM7 8.72h1.57l.32-1.39H7.31L7 8.72Zm.32-1.39L7 8.72h1.57l.32-1.39H7.32Zm0 0L7 8.72h1.57l.32-1.39H7.32Z"/></svg>
