<svg xmlns="http://www.w3.org/2000/svg" width="16" height="16" fill="none"><path fill="#03589C" d="M13.151 7.015v4.72h-2l-.06-.07-7.41-7.43H10.291c.093.031.18.075.26.13l.12.1 2.41 2.48.07.07Z"/><path fill="#41C4FF" d="m10.681 4.565-.12-.1a1.05 1.05 0 0 0-.26-.13h-6.62l3.58-1.92a1.4 1.4 0 0 1 .68-.15c.314.022.61.157.83.38l1.91 1.92Z"/><path fill="#2CB7F6" d="m11.111 11.735-3.54-1.17-3.25 1.17-.23-.22-.07-.08a1.589 1.589 0 0 1-.29-.38 1.44 1.44 0 0 1-.05-.55v-6.28l7.43 7.51Z"/><path fill="#02589B" d="m3.871 11.225-1.81-1.79a1.36 1.36 0 0 1-.38-.91v-.27l.08-.2 1.92-3.83v6.28a1.34 1.34 0 0 0 .08.48.85.85 0 0 0 .11.24Z"/><path fill="#2CB7F6" d="M11.111 11.695h-6.79l3.25-1.13 3.54 1.13Z"/><path fill="#41C4FF" d="M11.111 11.695v2.04h-4.75l-2.04-2.04h6.79Z"/></svg>
