<svg xmlns="http://www.w3.org/2000/svg" data-name="Calque 1" viewBox="0 0 16 16"><path d="M15 7c0-3-3.5-3-3.5-3H8.89C9.38 5.18 8 7 8 7h-.5a5.61 5.61 0 0 0 .5-.74A2.91 2.91 0 0 0 8.4 4v-.08c-.25-.5-.87-.87-2.11-.91H6C2.68 3 1.82 5.2 1.6 6.34a2.87 2.87 0 0 0-.1.66v5a.83.83 0 0 0 .61.22A2.29 2.29 0 0 0 3 12v-1.5A1.47 1.47 0 0 1 4.5 9v4a4.47 4.47 0 0 0 1.44.22A5.52 5.52 0 0 0 7.5 13v-2h3v2a4.47 4.47 0 0 0 1.44.22A5.52 5.52 0 0 0 13.5 13V9a4.52 4.52 0 0 0 .5-2.5 2.63 2.63 0 0 0-.28-1.25A2.61 2.61 0 0 1 14.5 7ZM4 6.5a.5.5 0 1 1 .5.5.5.5 0 0 1-.5-.5Z" style="fill:#748ce2"/></svg>
