<svg width="16" height="16" viewBox="0 0 16 16" fill="none" xmlns="http://www.w3.org/2000/svg">
<path d="M11.6667 9.33333H6L7.33333 6H9.53333L10 5H8L7.33333 4L8 3H10L9.53333 2H7.33333L5.86667 4L6.46667 5L2.46667 10C2.2 10.3333 2 10.8667 2 11.3333C2 12.3333 2.73333 13.2 3.66667 13.3333C3.66667 13.3333 10.6667 14 11.6667 14C12.9333 14 14 12.9333 14 11.6667C14 10.4 12.9333 9.33333 11.6667 9.33333ZM4 12.3333C3.46667 12.3333 3 11.8667 3 11.3333C3 10.8 3.46667 10.3333 4 10.3333C4.53333 10.3333 5 10.8 5 11.3333C5 11.8667 4.53333 12.3333 4 12.3333ZM11.6667 13C10.9333 13 10.3333 12.4 10.3333 11.6667C10.3333 10.9333 10.9333 10.3333 11.6667 10.3333C12.4 10.3333 13 10.9333 13 11.6667C13 12.4 12.4 13 11.6667 13Z" fill="#32B0E7"/>
</svg>
