<svg id="Calque_1" data-name="Calque 1" xmlns="http://www.w3.org/2000/svg" viewBox="0 0 16 16"><defs><style>.cls-1{fill:#d32222;}</style></defs><path class="cls-1" d="M8.83,4.39a.38.38,0,0,0,0,.1V7.05L7.18,8V3.1a.28.28,0,0,0,0-.09s0,0,0,0a.11.11,0,0,0,0-.05l0,0h0l0,0L7,2.79l0,0L4.54,1.35a.43.43,0,0,0-.41,0L1.69,2.76l0,0h0l-.06,0,0,0,0,.05,0,.1a.34.34,0,0,0,0,.1v8.37a.38.38,0,0,0,.2.35l4.88,2.81,0,0,.06,0H6.9l.08,0,4.89-2.82a.4.4,0,0,0,.2-.35V8.92l2.24-1.29a.38.38,0,0,0,.2-.35V4.49a.34.34,0,0,0,0-.1v0a.11.11,0,0,1,0,0l0,0-.07-.07,0,0-2.44-1.4a.43.43,0,0,0-.41,0L9,4.14l0,0,0,0s0,0-.07.08l0,0Zm2.84,1.05L10,4.49l1.64-.94,1.63.94ZM4.33,4.05,2.7,3.11l1.63-.94L6,3.11ZM3.94,10.2l0,0H4s0,0,0,.06l0,0,0,0v0l0,0,0,0,2.24,1.27V13.6L2.29,11.25V3.81l1.64.94V10.2ZM6.37,8.46l-1.08.62h0l-.55.32V4.75l1.63-.94ZM9.63,7.05V5.19l1.63.94V8Zm1.22,1.64L6.78,11,5.15,10.1,9.22,7.75Zm-3.67,3,4.08-2.33v1.86L7.18,13.6Zm6.53-6.53V7.05L12.07,8V6.13Z"/></svg>