<svg id="Calque_1" data-name="Calque 1" xmlns="http://www.w3.org/2000/svg" viewBox="0 0 16 16"><defs><style>.cls-1{fill:#d68012;}</style></defs><circle class="cls-1" cx="8" cy="8" r="2"/><path class="cls-1" d="M8,4.5H8A3.5,3.5,0,0,1,11.5,8h0A3.5,3.5,0,1,1,8,4.5M8,2a5.8,5.8,0,0,0-1,.09L6.34,4,4.55,3.1a4.94,4.94,0,0,0-.79.66,4.94,4.94,0,0,0-.66.79L4,6.34,2.09,7A5.94,5.94,0,0,0,2.09,9L4,9.66,3.1,11.45A5.88,5.88,0,0,0,4.55,12.9L6.34,12,7,13.91a5.94,5.94,0,0,0,2.06,0L9.66,12l1.79.89a5.88,5.88,0,0,0,1.45-1.45L12,9.66,13.91,9a5.94,5.94,0,0,0,0-2.06L12,6.34l.89-1.79a4.94,4.94,0,0,0-.66-.79,4.94,4.94,0,0,0-.79-.66L9.66,4,9,2.09A5.8,5.8,0,0,0,8,2"/></svg>