<svg id="Calque_1" data-name="Calque 1" xmlns="http://www.w3.org/2000/svg" xmlns:xlink="http://www.w3.org/1999/xlink" viewBox="0 0 16 16"><defs><style>.cls-1{fill:none;}.cls-2{clip-path:url(#clip-path);}.cls-3{opacity:0;}.cls-4{fill:#6b56d0;}.cls-5{fill:#8b87ff;}</style><clipPath id="clip-path"><polyline class="cls-1" points="4.1 3.5 11.9 3.5 11.9 12.5 4.1 12.5 4.1 3.5"/></clipPath></defs><g class="cls-2"><polyline class="cls-3" points="8 3.5 8 3.5 4.1 5.75 4.1 10.25 8 12.5 11.9 10.25 11.9 5.75 8 3.5"/></g><path class="cls-4" d="M8,3.5H8l3.9,2.25v4.5L8,12.5,4.1,10.25V5.75L8,3.5m3.34-1.28H4.66L1.33,8l3.33,5.78h6.68L14.67,8,11.34,2.22"/><polygon class="cls-5" points="5.4 6.5 5.4 9.5 8 11 10.6 9.5 10.6 6.5 8 5 5.4 6.5"/></svg>