<svg id="Calque_1" data-name="Calque 1" xmlns="http://www.w3.org/2000/svg" viewBox="0 0 16 16"><defs><style>.cls-1,.cls-2{fill:#fff;}.cls-1{opacity:0.45;}.cls-2{opacity:0.45;}</style></defs><path class="cls-1" d="M12.7,5.21C12,4.53,10.47,3,9.79,2.29A1,1,0,0,0,9.09,2H4A1,1,0,0,0,3,3V13a1,1,0,0,0,1,1h8a1,1,0,0,0,1-1V5.91A1,1,0,0,0,12.7,5.21ZM4,13V3H9.09l1.44,1.45L12,5.91V13Z"/><rect class="cls-2" x="5.5" y="4.5" width="3" height="1"/><rect class="cls-2" x="5.5" y="7" width="4.5" height="1"/><rect class="cls-2" x="5.5" y="9.5" width="4.5" height="1"/></svg>