<svg width="16" height="16" viewBox="0 0 16 16" fill="none" xmlns="http://www.w3.org/2000/svg">
<path opacity="0.45" d="M14 5H8.65C8.45367 5.00633 8.25983 4.9547 8.09266 4.85156C7.92549 4.74841 7.7924 4.59831 7.71 4.42L7.29 3.58C7.2076 3.40169 7.07451 3.25159 6.90734 3.14845C6.74017 3.0453 6.54633 2.99367 6.35 3H2.05C1.78478 3 1.53043 3.10536 1.34289 3.29289C1.15536 3.48043 1.05 3.73478 1.05 4V12C1.04322 12.1355 1.06406 12.2709 1.11127 12.3981C1.15848 12.5252 1.23107 12.6414 1.32461 12.7397C1.41815 12.8379 1.5307 12.916 1.6554 12.9694C1.78011 13.0227 1.91436 13.0502 2.05 13.05H14C14.1356 13.0502 14.2699 13.0227 14.3946 12.9694C14.5193 12.916 14.6318 12.8379 14.7254 12.7397C14.8189 12.6414 14.8915 12.5252 14.9387 12.3981C14.9859 12.2709 15.0068 12.1355 15 12V6.05C15.0068 5.91453 14.9859 5.7791 14.9387 5.65195C14.8915 5.52479 14.8189 5.40857 14.7254 5.31035C14.6318 5.21212 14.5193 5.13396 14.3946 5.08061C14.2699 5.02726 14.1356 4.99983 14 5ZM14 9H2V4.05H6.3L6.73 4.9C6.90627 5.25194 7.18248 5.54405 7.52401 5.73972C7.86555 5.93539 8.25724 6.02593 8.65 6H14H14.05L14 9Z" fill="white"/>
</svg>
