<svg id="Calque_1" data-name="Calque 1" xmlns="http://www.w3.org/2000/svg" viewBox="0 0 16 16"><defs><style>.cls-1{fill:#34cbce;}</style></defs><path class="cls-1" d="M6.18,8.86c-.53,0-1.06,0-1.6,0-.22,0-.25-.12-.19-.27.13-.32.29-.63.44-1a.23.23,0,0,1,.23-.12h2.6a.14.14,0,0,0,.16-.12A3.74,3.74,0,0,1,10.67,5a3.1,3.1,0,0,1,3.41,1.5,1,1,0,0,1,.07.15A3.25,3.25,0,0,1,14,9.55a4,4,0,0,1-1.79,1.55A3.16,3.16,0,0,1,7.74,9.33c-.86,1.86-3.45,2.8-5.13,1.43C.64,9.21,1.69,6,3.8,5.13A3,3,0,0,1,8,6.52q0,.08,0,.09c-.5.18-1,.26-1.52.42-.23,0-.33-.25-.52-.35A1.73,1.73,0,0,0,3.38,8.1,1.46,1.46,0,0,0,6.18,8.86ZM11.3,6.45c-1.81-.07-2.76,2.79-.76,3.28S13.71,6.66,11.3,6.45Z"/><path class="cls-1" d="M13.08,3.87V4.3a2.13,2.13,0,0,1,.92.58v-1A1.88,1.88,0,0,0,12.12,2L3.87,2A1.88,1.88,0,0,0,2,3.92V5.33a2.12,2.12,0,0,1,.92-.8V3.92a1,1,0,0,1,1-1l8.24,0A1,1,0,0,1,13.08,3.87Z"/><path class="cls-1" d="M13.08,11.53v.6a1,1,0,0,1-1,.95H3.87a1,1,0,0,1-1-.95V12A2.15,2.15,0,0,1,2,11.38l0,0v.78A1.87,1.87,0,0,0,3.87,14h8.25A1.88,1.88,0,0,0,14,12.13v-1.2A2.17,2.17,0,0,1,13.08,11.53Z"/></svg>