<svg id="Calque_1" data-name="Calque 1" xmlns="http://www.w3.org/2000/svg" viewBox="0 0 16 16"><defs><style>.cls-1{fill:#e535ab;}</style></defs><path class="cls-1" d="M8.2,14.5A1.24,1.24,0,0,1,7,13L4.49,11.54a.89.89,0,0,1-.22.16,1.23,1.23,0,0,1-.62.17A1.24,1.24,0,0,1,3,9.56a.91.91,0,0,1,.25-.11V6.55A.91.91,0,0,1,3,6.44a1.24,1.24,0,0,1-.46-1.69,1.26,1.26,0,0,1,1.08-.62,1.23,1.23,0,0,1,.62.17.89.89,0,0,1,.22.16L7,3a1.33,1.33,0,0,1,0-.28,1.24,1.24,0,1,1,2.47,0,1.41,1.41,0,0,1,0,.28l2.51,1.44a.89.89,0,0,1,.22-.16,1.23,1.23,0,0,1,.62-.17,1.27,1.27,0,0,1,1.08.62,1.25,1.25,0,0,1-.46,1.69.91.91,0,0,1-.25.11v2.9a.91.91,0,0,1,.25.11,1.22,1.22,0,0,1,.58.75,1.25,1.25,0,0,1-1.2,1.56h0a1.23,1.23,0,0,1-.62-.17.92.92,0,0,1-.25-.19L9.4,13a1.1,1.1,0,0,1,0,.31A1.24,1.24,0,0,1,8.2,14.5ZM8.2,12a1.26,1.26,0,0,1,.87.35L11.42,11H5l2.37,1.35A1.23,1.23,0,0,1,8.2,12Zm3.37-1.76a1.89,1.89,0,0,1,.11-.25,1.18,1.18,0,0,1,.17-.22L8.48,4A1.33,1.33,0,0,1,8.2,4a1.09,1.09,0,0,1-.26,0L4.56,9.79a1.18,1.18,0,0,1,.17.22,1.89,1.89,0,0,1,.11.25ZM4,9.3,7.19,3.76,4.86,5.1A1.2,1.2,0,0,1,4.72,6a1.19,1.19,0,0,1-.7.56Zm8.4,0,0-2.74a1.24,1.24,0,0,1-.84-1.44L9.22,3.76Z"/></svg>