<svg id="Calque_1" data-name="Calque 1" xmlns="http://www.w3.org/2000/svg" viewBox="0 0 16 16"><defs><style>.cls-1{fill:#fbb03b;}</style></defs><path class="cls-1" d="M5.8,10.92a.59.59,0,0,0,.5-.22,1,1,0,0,0,.17-.63v-4H7.62v4a2.32,2.32,0,0,1-.22,1,1.51,1.51,0,0,1-.64.66,2.13,2.13,0,0,1-1,.23,2.12,2.12,0,0,1-1-.21,1.64,1.64,0,0,1-.66-.59h0L5,10.54a1,1,0,0,0,.77.38M11,6h0a2.94,2.94,0,0,1,.65.07,3.69,3.69,0,0,1,.64.21,3.51,3.51,0,0,1,.6.33l-.47.94a2.79,2.79,0,0,0-.71-.36A2,2,0,0,0,11,7.06a1.41,1.41,0,0,0-.78.17.52.52,0,0,0-.28.47h0a.56.56,0,0,0,.14.4,1,1,0,0,0,.36.22c.15,0,.35.09.6.15h.16a5.06,5.06,0,0,1,.93.26,1.53,1.53,0,0,1,.63.5,1.6,1.6,0,0,1,.25,1h0a1.77,1.77,0,0,1-.26,1,1.63,1.63,0,0,1-.77.61,3.12,3.12,0,0,1-1.21.21,3.75,3.75,0,0,1-.82-.09,3.21,3.21,0,0,1-.76-.24,2.7,2.7,0,0,1-.63-.4l.51-.91a2.62,2.62,0,0,0,.79.43,2.8,2.8,0,0,0,.91.15,1.64,1.64,0,0,0,.84-.18.59.59,0,0,0,.3-.52h0a.51.51,0,0,0-.13-.37.81.81,0,0,0-.35-.2l-.55-.12h-.13a5.48,5.48,0,0,1-1-.23A1.44,1.44,0,0,1,9.1,8.8a1.58,1.58,0,0,1-.27-1h0a1.77,1.77,0,0,1,.25-1,1.62,1.62,0,0,1,.74-.62A3,3,0,0,1,11,6M13.5,2.45l-11,0a1,1,0,0,0-1,1v9A1,1,0,0,0,2.5,13.55h11a1,1,0,0,0,1.05-1.05v-9a1,1,0,0,0-1.05-1"/></svg>