<svg id="Calque_1" data-name="Calque 1" xmlns="http://www.w3.org/2000/svg" viewBox="0 0 16 16"><defs><style>.cls-1{opacity:0.45;}</style></defs><g class="cls-1"><path d="M9.12,7.64C7.74,6.93,5.06,8,6.86,9.35,9,11,12.41,8.82,9.12,7.64Zm.5,1.2c-.38.57-2.34.23-2.5-.5C7.46,7.84,9.49,8.3,9.62,8.84Z"/><path d="M14.78,5.66c-.94-1.4-2.25-1.06-3.57,0A3.21,3.21,0,0,0,9.08,3.81c1.67-3.73-3.67-3.44-4,.35A4.35,4.35,0,0,0,4,5.5C1.82,5.44,1.57,6.9,2.84,7.8c-3.66,8.68,6.34,6.69,8.8,1.71C13.72,9.19,16.19,8.1,14.78,5.66Zm-7-3.78c1.12.14,1.1.44.51,1.77A7.57,7.57,0,0,0,6,3.85C6.26,2.91,6.81,1.88,7.82,1.88Zm-5,4.67C3,6,5.55,6.41,5.6,7.41,5.54,8,2.51,7.28,2.82,6.55Zm5.71,5.2c-4.25,2.62-7,1.55-5-3.64C6.22,9.22,7.63,6.75,4.7,5.67,9,1.17,14.48,8.71,8.53,11.75Zm5.82-4.37a3.51,3.51,0,0,1-2.46,1.33,4,4,0,0,0-.09-1.58h0a.44.44,0,0,0,0-.1h0c-.07-.23-.15-.44-.24-.66C12.91,4.81,14.81,5.65,14.35,7.38Z"/></g></svg>