<svg id="Calque_1" data-name="Calque 1" xmlns="http://www.w3.org/2000/svg" viewBox="0 0 16 16"><defs><style>.cls-1{fill:#748ce2;}</style></defs><path class="cls-1" d="M15,7c0-3-3.5-3-3.5-3H8.89C9.38,5.18,8,7,8,7h-.5A5.61,5.61,0,0,0,8,6.26,2.91,2.91,0,0,0,8.4,4h0l0-.08c-.25-.5-.87-.87-2.11-.91H6C2.68,3,1.82,5.2,1.6,6.34A2.87,2.87,0,0,0,1.5,7v5a.83.83,0,0,0,.61.22A2.29,2.29,0,0,0,3,12V10.5A1.47,1.47,0,0,1,4.5,9v4a4.47,4.47,0,0,0,1.44.22A5.52,5.52,0,0,0,7.5,13V11h3v2a4.47,4.47,0,0,0,1.44.22A5.52,5.52,0,0,0,13.5,13V9A4.52,4.52,0,0,0,14,6.5a2.63,2.63,0,0,0-.28-1.25A2.61,2.61,0,0,1,14.5,7ZM4,6.5a.5.5,0,1,1,.5.5A.5.5,0,0,1,4,6.5Z"/></svg>