<svg width="16" height="16" viewBox="0 0 16 16" fill="none" xmlns="http://www.w3.org/2000/svg">
<path fill-rule="evenodd" clip-rule="evenodd" d="M3 4C3 2.89543 3.89543 2 5 2H13V11H3V4ZM7 6.5C7 6.22386 7.22386 6 7.5 6H10.5C10.7761 6 11 6.22386 11 6.5C11 6.77614 10.7761 7 10.5 7H7.5C7.22386 7 7 6.77614 7 6.5ZM5 3C4.44772 3 4 3.44772 4 4V10H5V3ZM7 4.5C7 4.22386 7.22386 4 7.5 4H11.5C11.7761 4 12 4.22386 12 4.5C12 4.77614 11.7761 5 11.5 5H7.5C7.22386 5 7 4.77614 7 4.5ZM5 14C3.89543 14 3 13.1046 3 12H13V14H5Z" fill="#42CCD5"/>
</svg>
