<svg id="Calque_1" data-name="Calque 1" xmlns="http://www.w3.org/2000/svg" viewBox="0 0 16 16"><defs><style>.cls-1{fill:#0096c8;}</style></defs><path class="cls-1" d="M8,11.22A12.68,12.68,0,0,1,5.36,11,6.31,6.31,0,0,1,3,10v2.5C3,13.33,5.24,14,8,14s5-.67,5-1.5V10a6.31,6.31,0,0,1-2.36.95A12.68,12.68,0,0,1,8,11.22Z"/><path class="cls-1" d="M12.81,3.08c-.55-.56-2.14-1-4.11-1.06L8,2,7.3,2c-2,.08-3.56.5-4.11,1.06A.62.62,0,0,0,3,3.5v1C3,5.33,5.24,6,8,6s5-.67,5-1.5v-1A.62.62,0,0,0,12.81,3.08Z"/><path class="cls-1" d="M8,7.22A12.47,12.47,0,0,1,5.47,7,6.43,6.43,0,0,1,3,6V8.5C3,9.33,5.24,10,8,10s5-.67,5-1.5V6a6.43,6.43,0,0,1-2.47,1A12.47,12.47,0,0,1,8,7.22Z"/></svg>