<svg id="Calque_1" data-name="Calque 1" xmlns="http://www.w3.org/2000/svg" viewBox="0 0 16 16"><defs><style>.cls-1{fill:#f05138;}</style></defs><path class="cls-1" d="M12.92,10.05h0l.06-.2c.71-2.84-1-6.21-4-8A6.87,6.87,0,0,1,10.35,7.6c0,.17-.1.33-.16.48l-.26-.15a36.89,36.89,0,0,1-6.12-5A38.82,38.82,0,0,0,7.53,7.59a41.29,41.29,0,0,1-5.29-4,8.3,8.3,0,0,0,.72,1,32.5,32.5,0,0,0,5.43,5.66,6.22,6.22,0,0,1-5.88,0A8.48,8.48,0,0,1,1,9.34a9,9,0,0,0,4.05,3.47,6.48,6.48,0,0,0,5.6,0h0l.18-.11a2,2,0,0,1,2.94.74C14,13.82,14.4,11.87,12.92,10.05Z"/></svg>