<svg width="16" height="16" viewBox="0 0 16 16" fill="none" xmlns="http://www.w3.org/2000/svg">
<g clip-path="url(#clip0)">
<path d="M13.6968 4.21305L8.31151 13.9859C8.20032 14.1877 7.91466 14.1889 7.80181 13.9881L2.30972 4.21399C2.18677 3.99518 2.37114 3.73014 2.61547 3.77446L8.00654 4.75239C8.04093 4.75863 8.07614 4.75857 8.11053 4.75221L13.3889 3.77586C13.6324 3.73082 13.8176 3.99381 13.6968 4.21305Z" fill="#A074FF"/>
<path d="M10.5746 2.04676L6.58929 2.83926C6.52379 2.85228 6.47529 2.90862 6.47134 2.97623L6.22619 7.17811C6.22042 7.27708 6.30998 7.3539 6.40516 7.33162L7.51472 7.07175C7.61854 7.04745 7.71234 7.14024 7.69101 7.24619L7.36136 8.8844C7.33917 8.99466 7.44117 9.08894 7.54727 9.05623L8.23259 8.84493C8.33883 8.81219 8.44092 8.90674 8.41844 9.01708L7.89457 11.5903C7.86179 11.7513 8.07275 11.8391 8.16073 11.7011L8.2195 11.6089L11.4669 5.03184C11.5213 4.92171 11.4275 4.79614 11.3084 4.81948L10.1663 5.04318C10.0589 5.06418 9.96761 4.96275 9.99791 4.85618L10.7433 2.23367C10.7737 2.12692 10.682 2.0254 10.5746 2.04676Z" fill="#FFCC17"/>
</g>
<defs>
<clipPath id="clip0">
<rect width="12" height="12" fill="white" transform="translate(2 2)"/>
</clipPath>
</defs>
</svg>
