<svg width="16" height="16" viewBox="0 0 16 16" fill="none" xmlns="http://www.w3.org/2000/svg">
<path fill-rule="evenodd" clip-rule="evenodd" d="M2 2H6C6 3.10457 6.89543 4 8 4C9.10457 4 10 3.10457 10 2H14V14H2V2ZM8.141 12L8.841 7.149H7.798L7.322 11.153L6.79 7.149H5.628L5.061 11.153L4.648 7.149H3.563L4.242 12H5.663L6.195 8.262L6.685 12H8.141ZM11.4132 10.943L11.6302 12H12.7852L11.4832 7.149H10.1392L8.83023 12H9.96423L10.1812 10.943H11.4132ZM10.7972 7.968L11.2452 10.138H10.3492L10.7972 7.968Z" fill="#7764FC"/>
</svg>
