<svg width="600" height="234" viewBox="0 0 600 234" fill="none" xmlns="http://www.w3.org/2000/svg">
<path d="M439.972 76.512V133.872L440.364 146.112H432.621L432.229 137.874H432.036C429.377 143.172 423.63 147.213 415.927 147.213C404.509 147.213 395.674 137.481 395.674 123.084C395.596 107.31 405.371 97.584 416.864 97.584C424.097 97.584 428.985 101.034 431.135 104.841H431.331V76.512H439.972V76.512ZM431.37 117.984C431.37 116.883 431.291 115.434 430.978 114.372C429.727 108.882 425.035 104.37 418.547 104.37C409.631 104.37 404.394 112.215 404.394 122.73C404.394 132.342 409.085 140.31 418.39 140.31C424.176 140.31 429.416 136.461 430.978 130.029C431.291 128.85 431.37 127.674 431.37 126.3V117.984V117.984ZM286.122 140.07C280.257 140.07 274.704 138.108 270.871 135.753L268.643 142.815C272.162 145.17 279.124 147.054 285.455 147.054C301.016 147.054 308.524 138.225 308.524 128.025C308.524 118.335 302.855 112.92 291.712 108.603C282.603 105.072 278.614 102.051 278.614 95.853C278.614 91.383 282.054 85.965 291.048 85.965C295.417 85.9479 299.72 87.0282 303.558 89.106L305.904 82.122C302.973 80.472 298.085 78.903 291.359 78.903C278.575 78.903 270.051 86.595 270.051 96.873C270.051 106.212 276.7 111.783 287.448 115.626C296.364 119.04 299.882 122.571 299.882 128.769C299.882 135.441 294.799 140.07 286.122 140.07V140.07ZM137.94 93.657C137.94 103.389 138.214 112.884 138.528 120.846L139.661 146.193H154.128L150.609 80.082H131.059L124.101 102.054C121.833 109.392 119.605 118.14 117.844 125.79H117.452C115.95 117.827 114.098 109.934 111.902 102.132L105.449 80.082H85.5889L81.3678 146.193H95.1287L96.3799 121.083L97.4744 93.696H97.6704C99.3006 102.378 101.282 110.991 103.61 119.514L110.65 145.095H122.301L130.318 119.277C132.856 111.507 135.594 102.093 137.744 93.657H137.94V93.657ZM205.58 146.154C204.992 143.523 204.796 139.089 204.796 134.577H204.835V117.825C204.835 106.527 199.872 97.11 183.92 97.11C175.2 97.11 168.672 99.54 165.347 101.427L168.084 110.922C171.214 109.038 176.412 107.388 181.3 107.388C188.611 107.388 189.98 111.039 189.98 113.589V114.177C173.05 114.177 161.91 120.063 161.91 132.537C161.91 140.187 167.653 147.252 177.35 147.252C183.018 147.252 187.909 145.212 191.035 141.366H191.349L192.208 146.154H205.58ZM176.569 131.007C176.569 125.358 182.629 123.477 190.447 123.477H190.486V128.655C190.486 129.555 190.372 130.419 190.176 131.205C189.157 134.265 186.03 136.695 182.433 136.695C179.111 136.695 176.569 134.853 176.569 131.007ZM252.498 144.858C249.838 146.115 244.872 147.135 239.204 147.135C223.761 147.135 213.868 137.64 213.868 122.613C213.868 108.684 223.447 97.188 241.236 97.188C245.147 97.188 249.449 97.896 252.573 99.072L250.23 110.136C248.469 109.35 245.849 108.645 241.939 108.645C234.121 108.645 229.04 114.255 229.116 121.986C229.116 130.812 234.983 135.402 242.216 135.402C245.735 135.402 248.469 134.814 250.737 133.833L252.498 144.858V144.858ZM330.027 87.342V98.64H342.344V105.231H330.027V130.812C330.027 136.698 331.67 140.034 336.479 140.034C338.747 140.034 340.39 139.719 341.484 139.443L341.873 145.917C340.233 146.625 337.574 147.096 334.251 147.096C330.262 147.096 327.018 145.839 324.947 143.484C322.523 140.934 321.621 136.737 321.621 131.124V105.234H314.27V98.64H321.621V89.892L330.027 87.342ZM377.493 140.19L378.196 146.154V146.115H386.017C385.429 142.896 385.233 138.855 385.233 134.736V117.003C385.233 107.469 381.715 97.581 367.248 97.581C361.266 97.581 355.598 99.27 351.687 101.82L353.641 107.508C356.967 105.348 361.58 103.977 365.958 103.977C375.615 103.977 376.71 111.039 376.71 114.963V115.944C358.411 115.866 348.247 122.142 348.247 133.599C348.247 140.505 353.135 147.252 362.714 147.252C369.437 147.252 374.521 143.916 377.18 140.19H377.493V140.19ZM356.928 132.579C356.928 123.399 367.562 121.71 376.945 121.908V130.146C376.945 131.01 376.788 132.03 376.474 132.894C375.148 136.893 371.237 140.817 365.059 140.817C360.642 140.817 356.928 138.147 356.928 132.579V132.579ZM458.346 90.639C461.786 90.639 463.896 88.284 463.821 85.341C463.821 82.281 461.786 79.926 458.581 79.926C457.864 79.9093 457.151 80.0383 456.485 80.3051C455.82 80.572 455.216 80.971 454.711 81.4778C454.206 81.9846 453.81 82.5886 453.547 83.2528C453.285 83.917 453.161 84.6276 453.184 85.341C453.184 88.281 455.298 90.636 458.346 90.636V90.639ZM454.242 98.679V146.154H462.841V98.679H454.242V98.679ZM516.721 133.206C516.721 138.111 516.799 142.425 517.11 146.154H509.487L509.017 138.384H508.821C506.554 142.23 501.588 147.213 493.182 147.213C485.753 147.213 476.84 143.094 476.84 126.417V98.64H485.442V124.926C485.442 133.95 488.177 140.031 495.998 140.031C501.784 140.031 505.773 136.029 507.335 132.186C507.805 130.929 508.119 129.36 508.119 127.791V98.679H516.721V133.206V133.206ZM530.599 98.64C530.913 102.564 530.991 106.605 530.991 111.51V146.154H539.397V117.51C539.397 116.019 539.632 114.528 540.1 113.271C541.429 108.957 545.34 104.64 550.737 104.64C557.264 104.64 560.587 110.133 560.587 117.666V146.112H568.993V116.763C569.004 115.297 569.242 113.842 569.699 112.449C571.185 108.21 574.975 104.601 579.862 104.601C586.785 104.601 590.108 110.094 590.108 119.196V146.073H598.553V118.14C598.553 101.661 589.248 97.542 582.992 97.542C578.457 97.542 575.328 98.718 572.512 100.878C570.343 102.56 568.546 104.67 567.235 107.076H567.039C565.007 101.505 560.12 97.581 553.667 97.581C545.849 97.581 541.468 101.781 538.812 106.29H538.499L538.107 98.64H530.599Z" fill="black"/>
<path d="M122.885 0.239998H111.549V57.132H122.885V0.239998ZM123.277 174.756H111.941V231.645H123.277V174.756V174.756ZM93.8503 170.052L104.611 173.643L86.7075 227.622L75.9498 224.028L93.8533 170.052H93.8503ZM87.199 166.692L78.0241 160.005L44.7196 206.04L53.8945 212.724L87.196 166.692H87.199ZM66.5307 145.626L73.1276 154.878L27.0211 187.98L20.4241 178.725L66.5307 145.629V145.626ZM63.3317 139.098L59.8191 128.28L5.91558 145.905L9.42815 156.723L63.3317 139.098V139.098ZM58.7699 110.016V121.395H2.07739V110.016H58.7699V110.016ZM59.6292 103.182L63.1266 92.358L9.19599 74.811L5.6985 85.635L59.6292 103.182V103.182ZM72.9347 76.686L66.2292 85.86L20.5116 52.215L27.2171 43.041L72.9347 76.686V76.686ZM86.8402 4.08L76.0643 7.62L93.7055 61.68L104.481 58.14L86.8402 4.08V4.08ZM44.8884 25.371L54.0271 18.636L87.5849 64.491L78.4432 71.223L44.8884 25.371Z" fill="#FE9000"/>
<path d="M313.704 58H318.881V41.935C320.071 42.2325 321.499 42.292 323.046 42.292C328.103 42.292 332.506 40.8045 335.303 37.889C337.326 35.8065 338.397 32.9505 338.397 29.321C338.397 25.751 337.028 22.8355 334.886 20.9315C332.506 18.7895 328.758 17.5995 323.641 17.5995C319.476 17.5995 316.203 17.9565 313.704 18.373V58ZM318.881 22.1215C319.773 21.8835 321.499 21.705 323.76 21.705C329.412 21.705 333.22 24.2635 333.22 29.6185C333.22 35.033 329.412 38.127 323.165 38.127C321.439 38.127 320.011 38.008 318.881 37.7105V22.1215ZM355.88 28.607C347.966 28.607 341.6 34.2595 341.6 43.839C341.6 52.9425 347.669 58.6545 355.404 58.6545C362.306 58.6545 369.743 54.0135 369.743 43.363C369.743 34.6165 364.15 28.607 355.88 28.607ZM355.761 32.534C361.949 32.534 364.388 38.6625 364.388 43.5415C364.388 50.027 360.64 54.7275 355.642 54.7275C350.525 54.7275 346.955 49.9675 346.955 43.6605C346.955 38.246 349.632 32.534 355.761 32.534ZM372.658 29.202L381.345 58H386.105L390.746 44.315C391.758 41.221 392.65 38.246 393.364 34.795H393.483C394.197 38.1865 395.03 41.0425 396.042 44.2555L400.445 58H405.205L414.487 29.202H409.31L405.205 43.6605C404.253 47.052 403.479 50.0865 403.003 53.002H402.825C402.17 50.0865 401.337 47.052 400.266 43.601L395.804 29.202H391.401L386.7 43.8985C385.748 46.9925 384.796 50.0865 384.142 53.002H383.963C383.428 50.027 382.654 47.052 381.881 43.839L378.013 29.202H372.658ZM442.307 44.553C442.426 43.958 442.485 43.1845 442.485 42.1135C442.485 36.818 440.046 28.607 430.585 28.607C422.196 28.607 417.079 35.39 417.079 44.077C417.079 52.764 422.374 58.6545 431.24 58.6545C435.821 58.6545 439.034 57.643 440.879 56.81L439.927 53.0615C438.023 53.8945 435.702 54.549 431.954 54.549C426.658 54.549 422.196 51.6335 422.077 44.553H442.307ZM422.136 40.8045C422.553 37.175 424.814 32.3555 430.169 32.3555C436.059 32.3555 437.487 37.532 437.428 40.8045H422.136ZM448.969 58H454.205V42.649C454.205 41.816 454.265 40.9235 454.384 40.2095C455.098 36.2825 457.716 33.5455 461.405 33.5455C462.119 33.5455 462.654 33.5455 463.19 33.6645V28.726C462.714 28.6665 462.297 28.607 461.762 28.607C458.251 28.607 455.038 31.0465 453.729 34.914H453.551L453.313 29.202H448.731C448.91 31.8795 448.969 34.795 448.969 38.1865V58ZM490.999 44.553C491.118 43.958 491.178 43.1845 491.178 42.1135C491.178 36.818 488.738 28.607 479.278 28.607C470.888 28.607 465.771 35.39 465.771 44.077C465.771 52.764 471.067 58.6545 479.932 58.6545C484.514 58.6545 487.727 57.643 489.571 56.81L488.619 53.0615C486.715 53.8945 484.395 54.549 480.646 54.549C475.351 54.549 470.888 51.6335 470.769 44.553H490.999ZM470.829 40.8045C471.245 37.175 473.506 32.3555 478.861 32.3555C484.752 32.3555 486.18 37.532 486.12 40.8045H470.829ZM517.297 15.755V32.9505H517.178C515.869 30.6895 512.953 28.607 508.491 28.607C501.529 28.607 495.52 34.438 495.579 44.0175C495.579 52.764 500.994 58.6545 507.955 58.6545C512.656 58.6545 516.107 56.215 517.654 53.002H517.832L518.07 58H522.711C522.592 56.0365 522.473 53.121 522.473 50.5625V15.755H517.297ZM517.297 45.9215C517.297 46.7545 517.237 47.4685 517.059 48.1825C516.107 52.05 512.894 54.43 509.383 54.43C503.79 54.43 500.875 49.6105 500.875 43.7795C500.875 37.4725 504.088 32.7125 509.502 32.7125C513.429 32.7125 516.285 35.4495 517.059 38.722C517.237 39.3765 517.297 40.269 517.297 40.9235V45.9215ZM544.034 57.881C545.76 58.119 548.497 58.357 552.067 58.357C558.612 58.357 563.134 57.167 565.871 54.6085C567.953 52.7045 569.322 50.027 569.322 46.576C569.322 40.626 564.859 37.4725 561.051 36.58V36.4015C565.216 34.914 567.834 31.5225 567.834 27.5955C567.834 24.442 566.525 22.062 564.443 20.515C562.003 18.492 558.671 17.5995 553.495 17.5995C549.925 17.5995 546.295 17.9565 544.034 18.492V57.881ZM549.211 21.943C550.044 21.7645 551.412 21.586 553.792 21.586C559.028 21.586 562.539 23.49 562.539 28.131C562.539 31.9985 559.326 34.914 553.911 34.914H549.211V21.943ZM549.211 38.7815H553.495C559.147 38.7815 563.848 41.102 563.848 46.5165C563.848 52.3475 558.909 54.311 553.554 54.311C551.71 54.311 550.282 54.2515 549.211 54.073V38.7815ZM572.529 29.202L583.12 55.739C583.417 56.3935 583.536 56.81 583.536 57.1075C583.536 57.405 583.358 57.8215 583.12 58.357C581.87 61.0345 580.145 63.0575 578.717 64.188C577.17 65.497 575.444 66.33 574.135 66.7465L575.444 71.09C576.753 70.852 579.252 69.9595 581.87 67.758C585.44 64.6045 587.999 59.6065 591.747 49.7295L599.601 29.202H594.068L588.356 46.1C587.642 48.1825 587.047 50.384 586.511 52.1095H586.392C585.916 50.384 585.202 48.123 584.488 46.219L578.241 29.202H572.529Z" fill="#656565"/>
</svg>
