<svg width="384" height="384" viewBox="0 0 384 384" fill="none" xmlns="http://www.w3.org/2000/svg">
<g filter="url(#filter0_dd_993_3740)">
<mask id="mask0_993_3740" style="mask-type:alpha" maskUnits="userSpaceOnUse" x="24" y="80" width="336" height="224">
<path d="M320 304C342.08 304 360 286.08 360 264H359.84C359.84 261.6 359.52 259.36 359.12 257.04H359.2L335.12 119.68C331.2 97.12 311.6 80 287.92 80C277.44 80 267.84 83.36 260 89.04C252 94.72 241.84 96.48 232.48 93.68C220 90.08 206.32 88 191.92 88C177.52 88 163.84 90.08 151.36 93.68C141.92 96.48 131.84 94.72 123.84 89.04C116 83.36 106.4 80 95.92 80C72.24 80 52.64 97.12 48.72 119.68L24.64 257.04H24.72C24.32 259.36 24 261.6 24 264C24 286.08 41.92 304 64 304C82.16 304 97.28 291.84 102.16 275.36L119.92 235.28C121.76 231.2 124.88 228 128.64 226C132.24 224.08 136.56 223.28 140.88 224C156.48 226.56 173.76 228 192 228C210.24 228 227.52 226.56 243.12 224C247.44 223.28 251.76 224 255.36 226C259.2 227.92 262.24 231.2 264.08 235.28L281.84 275.36C286.72 291.84 301.84 304 320 304Z" fill="#35A3FF"/>
</mask>
<g mask="url(#mask0_993_3740)">
<g filter="url(#filter1_ii_993_3740)">
<g filter="url(#filter2_i_993_3740)">
<path d="M320 304C342.08 304 360 286.08 360 264H359.84C359.84 261.6 359.52 259.36 359.12 257.04H359.2L335.12 119.68C331.2 97.12 311.6 80 287.92 80C277.44 80 267.84 83.36 260 89.04C252 94.72 241.84 96.48 232.48 93.68C220 90.08 206.32 88 191.92 88C177.52 88 163.84 90.08 151.36 93.68C141.92 96.48 131.84 94.72 123.84 89.04C116 83.36 106.4 80 95.92 80C72.24 80 52.64 97.12 48.72 119.68L24.64 257.04H24.72C24.32 259.36 24 261.6 24 264C24 286.08 41.92 304 64 304C82.16 304 97.28 291.84 102.16 275.36L119.92 235.28C121.76 231.2 124.88 228 128.64 226C132.24 224.08 136.56 223.28 140.88 224C156.48 226.56 173.76 228 192 228C210.24 228 227.52 226.56 243.12 224C247.44 223.28 251.76 224 255.36 226C259.2 227.92 262.24 231.2 264.08 235.28L281.84 275.36C286.72 291.84 301.84 304 320 304Z" fill="#292B3D"/>
</g>
<path d="M332.164 120.194L332.165 120.198L356.13 256.902C356.118 257.126 356.13 257.356 356.17 257.588C356.555 259.824 356.834 261.829 356.84 263.929C356.841 264.257 356.893 264.574 356.99 264.871C356.527 284.893 340.132 301 320 301C303.229 301 289.236 289.772 284.717 274.508L284.661 274.322L284.583 274.145L266.823 234.065L266.819 234.056L266.815 234.047C264.723 229.408 261.237 225.602 256.76 223.346C252.549 221.025 247.562 220.219 242.63 221.04C227.2 223.572 210.084 225 192 225C173.916 225 156.8 223.572 141.37 221.04C136.378 220.209 131.391 221.133 127.228 223.353C122.907 225.652 119.309 229.338 117.185 234.047L117.181 234.056L117.177 234.065L99.4172 274.145L99.3386 274.322L99.2835 274.508C94.7635 289.772 80.7715 301 64 301C43.5769 301 27 284.423 27 264C27 261.875 27.2807 259.849 27.6698 257.588L24.7132 257.079L27.6698 257.588C27.7097 257.356 27.7222 257.127 27.7099 256.902L51.6749 120.198L51.6757 120.194C55.3507 99.0434 73.7263 83 95.92 83C105.744 83 114.732 86.1461 122.08 91.4694L122.092 91.4778L122.103 91.4861C130.837 97.6869 141.864 99.6219 152.202 96.5595C164.415 93.0374 177.812 91 191.92 91C206.027 91 219.422 93.037 231.635 96.5585C241.897 99.6233 253.005 97.6855 261.737 91.4861L261.748 91.4778L261.76 91.4694C269.108 86.1461 278.096 83 287.92 83C310.114 83 328.489 99.0434 332.164 120.194ZM356.239 257.521C356.238 257.518 356.237 257.514 356.237 257.511L356.238 257.519L356.239 257.521Z" stroke="url(#paint0_linear_993_3740)" stroke-opacity="0.3" stroke-width="6"/>
<path d="M358.471 265.5C357.682 286.057 340.749 302.5 320 302.5C302.534 302.5 287.978 290.806 283.278 274.934L283.251 274.841L283.211 274.752L265.451 234.672L265.447 234.663C263.482 230.304 260.219 226.761 256.06 224.673C252.155 222.512 247.502 221.75 242.877 222.52C227.361 225.066 210.163 226.5 192 226.5C173.837 226.5 156.639 225.066 141.123 222.52C136.468 221.745 131.816 222.606 127.936 224.676C123.894 226.825 120.535 230.269 118.553 234.663L118.549 234.672L100.789 274.752L100.749 274.841L100.722 274.934C96.0218 290.806 81.4657 302.5 64 302.5C42.7484 302.5 25.5 285.252 25.5 264C25.5 261.731 25.802 259.593 26.1982 257.295L26.5008 255.54H26.4258L50.1975 119.939L50.1979 119.937C53.9954 98.0817 72.9831 81.5 95.92 81.5C106.072 81.5 115.366 84.7531 122.96 90.2547L122.966 90.2589L122.972 90.2631C131.338 96.2034 141.892 98.051 151.781 95.1197C164.128 91.5587 177.666 89.5 191.92 89.5C206.173 89.5 219.711 91.5585 232.057 95.1192C241.868 98.0517 252.503 96.2028 260.868 90.2631L260.874 90.2589L260.88 90.2547C268.474 84.7531 277.768 81.5 287.92 81.5C310.857 81.5 329.845 98.0817 333.642 119.937L333.643 119.939L357.414 255.54H357.339L357.642 257.295C358.038 259.593 358.34 261.731 358.34 264V265.5H358.471Z" stroke="url(#paint1_linear_993_3740)" stroke-width="3"/>
<path d="M358.471 265.5C357.682 286.057 340.749 302.5 320 302.5C302.534 302.5 287.978 290.806 283.278 274.934L283.251 274.841L283.211 274.752L265.451 234.672L265.447 234.663C263.482 230.304 260.219 226.761 256.06 224.673C252.155 222.512 247.502 221.75 242.877 222.52C227.361 225.066 210.163 226.5 192 226.5C173.837 226.5 156.639 225.066 141.123 222.52C136.468 221.745 131.816 222.606 127.936 224.676C123.894 226.825 120.535 230.269 118.553 234.663L118.549 234.672L100.789 274.752L100.749 274.841L100.722 274.934C96.0218 290.806 81.4657 302.5 64 302.5C42.7484 302.5 25.5 285.252 25.5 264C25.5 261.731 25.802 259.593 26.1982 257.295L26.5008 255.54H26.4258L50.1975 119.939L50.1979 119.937C53.9954 98.0817 72.9831 81.5 95.92 81.5C106.072 81.5 115.366 84.7531 122.96 90.2547L122.966 90.2589L122.972 90.2631C131.338 96.2034 141.892 98.051 151.781 95.1197C164.128 91.5587 177.666 89.5 191.92 89.5C206.173 89.5 219.711 91.5585 232.057 95.1192C241.868 98.0517 252.503 96.2028 260.868 90.2631L260.874 90.2589L260.88 90.2547C268.474 84.7531 277.768 81.5 287.92 81.5C310.857 81.5 329.845 98.0817 333.642 119.937L333.643 119.939L357.414 255.54H357.339L357.642 257.295C358.038 259.593 358.34 261.731 358.34 264V265.5H358.471Z" stroke="url(#paint2_linear_993_3740)" stroke-width="3"/>
<g filter="url(#filter3_f_993_3740)">
<path d="M86.9993 95.9998C78.0663 93.6628 42.6607 238.113 37.9993 244C55.5796 264.185 71.2931 262.725 77.9523 261.884C73.3165 230.659 71.6864 131 99.9998 113C103.657 86.2935 92.066 97.3253 86.9993 95.9998Z" fill="#343951"/>
<path d="M254.092 87.986C257.475 85 329.629 234.498 336 240.137C311.974 259.472 287.765 262.695 278.664 261.889C289.585 210.329 245.011 96 254.092 87.986Z" fill="#343951"/>
</g>
<path d="M141.125 222.52C137.185 221.864 133.247 222.38 129.777 223.809C129.599 222.568 129.5 221.299 129.5 220C129.5 212.731 132.452 206.074 137.292 201.309L137.301 201.301L137.309 201.292C142.074 196.452 148.731 193.5 156 193.5H228C242.612 193.5 254.5 205.388 254.5 220C254.5 221.29 254.402 222.551 254.227 223.784C250.738 222.316 246.797 221.867 242.875 222.52C227.36 225.066 210.162 226.5 192 226.5C173.838 226.5 156.64 225.066 141.125 222.52Z" fill="#3F4563" stroke="url(#paint3_linear_993_3740)" stroke-width="3"/>
<path d="M252 160C258.627 160 264 154.627 264 148C264 141.373 258.627 136 252 136C245.373 136 240 141.373 240 148C240 154.627 245.373 160 252 160Z" fill="#F1F2F2"/>
<path d="M300 160C306.627 160 312 154.627 312 148C312 141.373 306.627 136 300 136C293.373 136 288 141.373 288 148C288 154.627 293.373 160 300 160Z" fill="#6368F3"/>
<path d="M276 136C282.627 136 288 130.627 288 124C288 117.373 282.627 112 276 112C269.373 112 264 117.373 264 124C264 130.627 269.373 136 276 136Z" fill="#DF63F3"/>
<path d="M276 184C282.627 184 288 178.627 288 172C288 165.373 282.627 160 276 160C269.373 160 264 165.373 264 172C264 178.627 269.373 184 276 184Z" fill="#63C3F3"/>
<path d="M112.462 182.5H111.538C108.203 182.5 105.5 179.797 105.5 176.462V164C105.5 160.962 103.038 158.5 100 158.5H87.5378C84.2032 158.5 81.5 155.797 81.5 152.462V151.538C81.5 148.203 84.2032 145.5 87.5378 145.5H100C103.038 145.5 105.5 143.038 105.5 140V127.538C105.5 124.203 108.203 121.5 111.538 121.5H112.462C115.797 121.5 118.5 124.203 118.5 127.538V140C118.5 143.038 120.962 145.5 124 145.5H136.462C139.797 145.5 142.5 148.203 142.5 151.538V152.462C142.5 155.797 139.797 158.5 136.462 158.5H124C120.962 158.5 118.5 160.962 118.5 164V176.462C118.5 179.797 115.797 182.5 112.462 182.5Z" fill="white" stroke="url(#paint4_linear_993_3740)" stroke-width="3"/>
</g>
</g>
</g>
<defs>
<filter id="filter0_dd_993_3740" x="18" y="77" width="348" height="236" filterUnits="userSpaceOnUse" color-interpolation-filters="sRGB">
<feFlood flood-opacity="0" result="BackgroundImageFix"/>
<feColorMatrix in="SourceAlpha" type="matrix" values="0 0 0 0 0 0 0 0 0 0 0 0 0 0 0 0 0 0 127 0" result="hardAlpha"/>
<feOffset dy="3"/>
<feGaussianBlur stdDeviation="3"/>
<feColorMatrix type="matrix" values="0 0 0 0 0 0 0 0 0 0 0 0 0 0 0 0 0 0 0.12 0"/>
<feBlend mode="normal" in2="BackgroundImageFix" result="effect1_dropShadow_993_3740"/>
<feColorMatrix in="SourceAlpha" type="matrix" values="0 0 0 0 0 0 0 0 0 0 0 0 0 0 0 0 0 0 127 0" result="hardAlpha"/>
<feOffset dy="1.5"/>
<feGaussianBlur stdDeviation="1.5"/>
<feColorMatrix type="matrix" values="0 0 0 0 0 0 0 0 0 0 0 0 0 0 0 0 0 0 0.4 0"/>
<feBlend mode="normal" in2="effect1_dropShadow_993_3740" result="effect2_dropShadow_993_3740"/>
<feBlend mode="normal" in="SourceGraphic" in2="effect2_dropShadow_993_3740" result="shape"/>
</filter>
<filter id="filter1_ii_993_3740" x="24" y="62" width="336" height="245" filterUnits="userSpaceOnUse" color-interpolation-filters="sRGB">
<feFlood flood-opacity="0" result="BackgroundImageFix"/>
<feBlend mode="normal" in="SourceGraphic" in2="BackgroundImageFix" result="shape"/>
<feColorMatrix in="SourceAlpha" type="matrix" values="0 0 0 0 0 0 0 0 0 0 0 0 0 0 0 0 0 0 127 0" result="hardAlpha"/>
<feOffset dy="-18"/>
<feGaussianBlur stdDeviation="12"/>
<feComposite in2="hardAlpha" operator="arithmetic" k2="-1" k3="1"/>
<feColorMatrix type="matrix" values="0 0 0 0 0.122552 0 0 0 0 0.135868 0 0 0 0 0.202448 0 0 0 0.6 0"/>
<feBlend mode="normal" in2="shape" result="effect1_innerShadow_993_3740"/>
<feColorMatrix in="SourceAlpha" type="matrix" values="0 0 0 0 0 0 0 0 0 0 0 0 0 0 0 0 0 0 127 0" result="hardAlpha"/>
<feOffset dy="3"/>
<feGaussianBlur stdDeviation="3"/>
<feComposite in2="hardAlpha" operator="arithmetic" k2="-1" k3="1"/>
<feColorMatrix type="matrix" values="0 0 0 0 0.56525 0 0 0 0 0.518576 0 0 0 0 0.69809 0 0 0 0.15 0"/>
<feBlend mode="normal" in2="effect1_innerShadow_993_3740" result="effect2_innerShadow_993_3740"/>
</filter>
<filter id="filter2_i_993_3740" x="24" y="80" width="336" height="232" filterUnits="userSpaceOnUse" color-interpolation-filters="sRGB">
<feFlood flood-opacity="0" result="BackgroundImageFix"/>
<feBlend mode="normal" in="SourceGraphic" in2="BackgroundImageFix" result="shape"/>
<feColorMatrix in="SourceAlpha" type="matrix" values="0 0 0 0 0 0 0 0 0 0 0 0 0 0 0 0 0 0 127 0" result="hardAlpha"/>
<feOffset dy="8"/>
<feGaussianBlur stdDeviation="16"/>
<feComposite in2="hardAlpha" operator="arithmetic" k2="-1" k3="1"/>
<feColorMatrix type="matrix" values="0 0 0 0 0.200208 0 0 0 0 0.21128 0 0 0 0 0.316458 0 0 0 1 0"/>
<feBlend mode="normal" in2="shape" result="effect1_innerShadow_993_3740"/>
</filter>
<filter id="filter3_f_993_3740" x="-2.00073" y="47.9419" width="378.001" height="254.35" filterUnits="userSpaceOnUse" color-interpolation-filters="sRGB">
<feFlood flood-opacity="0" result="BackgroundImageFix"/>
<feBlend mode="normal" in="SourceGraphic" in2="BackgroundImageFix" result="shape"/>
<feGaussianBlur stdDeviation="20" result="effect1_foregroundBlur_993_3740"/>
</filter>
<linearGradient id="paint0_linear_993_3740" x1="192" y1="80" x2="192" y2="304" gradientUnits="userSpaceOnUse">
<stop stop-color="#4A4067" stop-opacity="0"/>
<stop offset="1" stop-color="#3742A4"/>
</linearGradient>
<linearGradient id="paint1_linear_993_3740" x1="192" y1="80" x2="192" y2="304" gradientUnits="userSpaceOnUse">
<stop stop-color="#28293C"/>
<stop offset="1" stop-color="#28293C" stop-opacity="0"/>
</linearGradient>
<linearGradient id="paint2_linear_993_3740" x1="192" y1="80" x2="192" y2="304" gradientUnits="userSpaceOnUse">
<stop stop-color="#121523" stop-opacity="0"/>
<stop offset="1" stop-color="#171B2F"/>
</linearGradient>
<linearGradient id="paint3_linear_993_3740" x1="192" y1="192" x2="192" y2="221" gradientUnits="userSpaceOnUse">
<stop stop-color="#363954"/>
<stop offset="1" stop-color="#292C3F" stop-opacity="0"/>
</linearGradient>
<linearGradient id="paint4_linear_993_3740" x1="112" y1="120" x2="112" y2="184" gradientUnits="userSpaceOnUse">
<stop stop-color="#D7D7D7" stop-opacity="0"/>
<stop offset="1" stop-color="white"/>
</linearGradient>
</defs>
</svg>
