<svg width="384" height="384" viewBox="0 0 384 384" fill="none" xmlns="http://www.w3.org/2000/svg">
<g filter="url(#filter0_dd_993_2798)">
<mask id="mask0_993_2798" style="mask-type:alpha" maskUnits="userSpaceOnUse" x="27" y="59" width="330" height="275">
<path d="M192 333.92L144.4 301.2C124.16 287.28 56.4001 236.96 33.0401 172.72C17.2001 129.12 39.6801 80.9598 83.2801 65.0398C126.8 49.1998 174.88 71.5998 190.88 115.04C191.2 115.68 191.6 116.4 192 117.2C192.48 116.4 192.88 115.6 193.2 114.96C209.04 71.3598 257.2 49.0398 300.8 64.8798C344.4 80.7198 366.8 129.12 350.96 172.72C327.6 237.04 259.84 287.36 239.6 301.2L192 333.92Z" fill="url(#paint0_linear_993_2798)"/>
</mask>
<g mask="url(#mask0_993_2798)">
<g filter="url(#filter1_ii_993_2798)">
<g filter="url(#filter2_ii_993_2798)">
<path d="M192 333.92L144.4 301.2C124.16 287.28 56.4001 236.96 33.0401 172.72C17.2001 129.12 39.6801 80.9598 83.2801 65.0398C126.8 49.1998 174.88 71.5998 190.88 115.04C191.2 115.68 191.6 116.4 192 117.2C192.48 116.4 192.88 115.6 193.2 114.96C209.04 71.3598 257.2 49.0398 300.8 64.8798C344.4 80.7198 366.8 129.12 350.96 172.72C327.6 237.04 259.84 287.36 239.6 301.2L192 333.92Z" fill="url(#paint1_linear_993_2798)"/>
<path d="M188.122 116.233L188.065 116.077C172.634 74.1829 126.27 52.5862 84.3074 67.8585C42.2607 83.2123 20.5863 129.653 35.8595 171.695L188.122 116.233ZM188.122 116.233L188.197 116.381M188.122 116.233L188.197 116.381M188.197 116.381C188.363 116.714 188.547 117.062 188.721 117.391L188.757 117.46C188.947 117.821 189.133 118.174 189.317 118.541L191.761 123.43M188.197 116.381L191.761 123.43M191.761 123.43L194.573 118.743M191.761 123.43L194.573 118.743M194.573 118.743C195.112 117.844 195.555 116.959 195.869 116.329L195.883 116.301L195.961 116.147M194.573 118.743L195.961 116.147M195.961 116.147L196.02 115.984M195.961 116.147L196.02 115.984M196.02 115.984C211.29 73.9511 257.723 52.4218 299.776 67.6995C341.807 82.9696 363.419 129.641 348.14 171.695L348.14 171.696M196.02 115.984L348.14 171.696M348.14 171.696C336.674 203.267 314.236 231.561 291.991 253.767C269.774 275.944 247.933 291.868 237.907 298.723L237.901 298.728M348.14 171.696L237.901 298.728M237.901 298.728L192 330.279M237.901 298.728L192 330.279M192 330.279L146.1 298.728C136.069 291.829 114.227 275.884 92.0095 253.707C69.7637 231.501 47.3259 203.227 35.8598 171.695L192 330.279Z" stroke="url(#paint2_linear_993_2798)" stroke-opacity="0.3" stroke-width="6"/>
<path d="M189.473 115.558L189.501 115.636L189.538 115.711C189.697 116.028 189.873 116.362 190.049 116.695L190.084 116.76C190.274 117.12 190.467 117.487 190.658 117.871L191.88 120.315L193.286 117.972C193.796 117.122 194.217 116.28 194.534 115.646L194.542 115.631L194.58 115.553L194.61 115.472C210.165 72.6555 257.462 50.7308 300.288 66.2897C343.104 81.8447 365.109 129.381 349.55 172.208C337.977 204.074 315.368 232.55 293.05 254.828C270.747 277.092 248.826 293.074 238.753 299.962L238.75 299.964L192 332.1L145.25 299.964C145.25 299.964 145.25 299.964 145.25 299.964C135.174 293.034 113.253 277.032 90.9498 254.768C68.6319 232.49 46.023 204.033 34.4499 172.208C18.8931 129.387 40.97 82.0866 83.7931 66.4494C126.534 50.8928 173.757 72.8912 189.473 115.558Z" stroke="url(#paint3_linear_993_2798)" stroke-width="3"/>
<path d="M189.473 115.558L189.501 115.636L189.538 115.711C189.697 116.028 189.873 116.362 190.049 116.695L190.084 116.76C190.274 117.12 190.467 117.487 190.658 117.871L191.88 120.315L193.286 117.972C193.796 117.122 194.217 116.28 194.534 115.646L194.542 115.631L194.58 115.553L194.61 115.472C210.165 72.6555 257.462 50.7308 300.288 66.2897C343.104 81.8447 365.109 129.381 349.55 172.208C337.977 204.074 315.368 232.55 293.05 254.828C270.747 277.092 248.826 293.074 238.753 299.962L238.75 299.964L192 332.1L145.25 299.964C145.25 299.964 145.25 299.964 145.25 299.964C135.174 293.034 113.253 277.032 90.9498 254.768C68.6319 232.49 46.023 204.033 34.4499 172.208C18.8931 129.387 40.97 82.0866 83.7931 66.4494C126.534 50.8928 173.757 72.8912 189.473 115.558Z" stroke="url(#paint4_linear_993_2798)" stroke-width="3"/>
</g>
<g filter="url(#filter3_f_993_2798)">
<path d="M191.996 302L156.015 276.935C140.715 266.271 89.4939 227.724 71.8357 178.513C59.862 145.113 76.855 108.22 109.813 96.0246C142.711 83.8904 179.055 101.05 191.15 134.327C191.392 134.817 191.694 135.369 191.996 135.982C192.359 135.369 192.662 134.756 192.903 134.266C204.877 100.866 241.282 83.7678 274.24 95.902C307.198 108.036 324.131 145.113 312.157 178.513C294.499 227.785 243.278 266.333 227.978 276.935L191.996 302Z" fill="#FF5E7B"/>
</g>
<g filter="url(#filter4_f_993_2798)">
<path d="M191.998 250L174.007 237.348C166.357 231.966 140.747 212.508 131.918 187.668C125.931 170.809 134.428 152.187 150.907 146.031C167.355 139.907 185.528 148.568 191.575 165.365C191.696 165.613 191.847 165.891 191.998 166.2C192.18 165.891 192.331 165.582 192.452 165.334C198.439 148.475 216.641 139.845 233.12 145.97C249.599 152.094 258.065 170.809 252.078 187.668C243.249 212.539 217.639 231.997 209.989 237.348L191.998 250Z" fill="#FF9FB1"/>
<path d="M191.998 250L174.007 237.348C166.357 231.966 140.747 212.508 131.918 187.668C125.931 170.809 134.428 152.187 150.907 146.031C167.355 139.907 185.528 148.568 191.575 165.365C191.696 165.613 191.847 165.891 191.998 166.2C192.18 165.891 192.331 165.582 192.452 165.334C198.439 148.475 216.641 139.845 233.12 145.97C249.599 152.094 258.065 170.809 252.078 187.668C243.249 212.539 217.639 231.997 209.989 237.348L191.998 250Z" fill="#FF869C"/>
</g>
</g>
</g>
</g>
<defs>
<filter id="filter0_dd_993_2798" x="21.9658" y="56.7861" width="340.078" height="286.134" filterUnits="userSpaceOnUse" color-interpolation-filters="sRGB">
<feFlood flood-opacity="0" result="BackgroundImageFix"/>
<feColorMatrix in="SourceAlpha" type="matrix" values="0 0 0 0 0 0 0 0 0 0 0 0 0 0 0 0 0 0 127 0" result="hardAlpha"/>
<feOffset dy="3"/>
<feGaussianBlur stdDeviation="3"/>
<feColorMatrix type="matrix" values="0 0 0 0 0 0 0 0 0 0 0 0 0 0 0 0 0 0 0.12 0"/>
<feBlend mode="normal" in2="BackgroundImageFix" result="effect1_dropShadow_993_2798"/>
<feColorMatrix in="SourceAlpha" type="matrix" values="0 0 0 0 0 0 0 0 0 0 0 0 0 0 0 0 0 0 127 0" result="hardAlpha"/>
<feOffset dy="1.5"/>
<feGaussianBlur stdDeviation="1.5"/>
<feColorMatrix type="matrix" values="0 0 0 0 0 0 0 0 0 0 0 0 0 0 0 0 0 0 0.4 0"/>
<feBlend mode="normal" in2="effect1_dropShadow_993_2798" result="effect2_dropShadow_993_2798"/>
<feBlend mode="normal" in="SourceGraphic" in2="effect2_dropShadow_993_2798" result="shape"/>
</filter>
<filter id="filter1_ii_993_2798" x="27.9658" y="27.7861" width="328.078" height="309.134" filterUnits="userSpaceOnUse" color-interpolation-filters="sRGB">
<feFlood flood-opacity="0" result="BackgroundImageFix"/>
<feBlend mode="normal" in="SourceGraphic" in2="BackgroundImageFix" result="shape"/>
<feColorMatrix in="SourceAlpha" type="matrix" values="0 0 0 0 0 0 0 0 0 0 0 0 0 0 0 0 0 0 127 0" result="hardAlpha"/>
<feOffset dy="-32"/>
<feGaussianBlur stdDeviation="40"/>
<feComposite in2="hardAlpha" operator="arithmetic" k2="-1" k3="1"/>
<feColorMatrix type="matrix" values="0 0 0 0 0.575 0 0 0 0 0 0 0 0 0 2.05636e-07 0 0 0 0.6 0"/>
<feBlend mode="normal" in2="shape" result="effect1_innerShadow_993_2798"/>
<feColorMatrix in="SourceAlpha" type="matrix" values="0 0 0 0 0 0 0 0 0 0 0 0 0 0 0 0 0 0 127 0" result="hardAlpha"/>
<feOffset dy="3"/>
<feGaussianBlur stdDeviation="14"/>
<feComposite in2="hardAlpha" operator="arithmetic" k2="-1" k3="1"/>
<feColorMatrix type="matrix" values="0 0 0 0 1 0 0 0 0 0.358333 0 0 0 0 0.358334 0 0 0 1 0"/>
<feBlend mode="normal" in2="effect1_innerShadow_993_2798" result="effect2_innerShadow_993_2798"/>
</filter>
<filter id="filter2_ii_993_2798" x="27.9658" y="59.7861" width="328.078" height="278.306" filterUnits="userSpaceOnUse" color-interpolation-filters="sRGB">
<feFlood flood-opacity="0" result="BackgroundImageFix"/>
<feBlend mode="normal" in="SourceGraphic" in2="BackgroundImageFix" result="shape"/>
<feColorMatrix in="SourceAlpha" type="matrix" values="0 0 0 0 0 0 0 0 0 0 0 0 0 0 0 0 0 0 127 0" result="hardAlpha"/>
<feOffset dy="3"/>
<feGaussianBlur stdDeviation="15"/>
<feComposite in2="hardAlpha" operator="arithmetic" k2="-1" k3="1"/>
<feColorMatrix type="matrix" values="0 0 0 0 0.9875 0 0 0 0 0.0125 0 0 0 0 0.0775005 0 0 0 1 0"/>
<feBlend mode="normal" in2="shape" result="effect1_innerShadow_993_2798"/>
<feColorMatrix in="SourceAlpha" type="matrix" values="0 0 0 0 0 0 0 0 0 0 0 0 0 0 0 0 0 0 127 0" result="hardAlpha"/>
<feOffset dy="4.17188"/>
<feGaussianBlur stdDeviation="10"/>
<feComposite in2="hardAlpha" operator="arithmetic" k2="-1" k3="1"/>
<feColorMatrix type="matrix" values="0 0 0 0 1 0 0 0 0 0.675 0 0 0 0 0.696667 0 0 0 1 0"/>
<feBlend mode="normal" in2="effect1_innerShadow_993_2798" result="effect2_innerShadow_993_2798"/>
</filter>
<filter id="filter3_f_993_2798" x="20" y="44" width="344" height="306" filterUnits="userSpaceOnUse" color-interpolation-filters="sRGB">
<feFlood flood-opacity="0" result="BackgroundImageFix"/>
<feBlend mode="normal" in="SourceGraphic" in2="BackgroundImageFix" result="shape"/>
<feGaussianBlur stdDeviation="24" result="effect1_foregroundBlur_993_2798"/>
</filter>
<filter id="filter4_f_993_2798" x="82" y="96" width="220" height="202" filterUnits="userSpaceOnUse" color-interpolation-filters="sRGB">
<feFlood flood-opacity="0" result="BackgroundImageFix"/>
<feBlend mode="normal" in="SourceGraphic" in2="BackgroundImageFix" result="shape"/>
<feGaussianBlur stdDeviation="24" result="effect1_foregroundBlur_993_2798"/>
</filter>
<linearGradient id="paint0_linear_993_2798" x1="192.005" y1="59.7861" x2="192.005" y2="333.92" gradientUnits="userSpaceOnUse">
<stop stop-color="#FF2C3A"/>
<stop offset="1" stop-color="#E63675"/>
</linearGradient>
<linearGradient id="paint1_linear_993_2798" x1="192.005" y1="59.7861" x2="192.005" y2="333.92" gradientUnits="userSpaceOnUse">
<stop stop-color="#FF2C3A"/>
<stop offset="1" stop-color="#E63675"/>
</linearGradient>
<linearGradient id="paint2_linear_993_2798" x1="192.005" y1="59.7861" x2="192.005" y2="333.92" gradientUnits="userSpaceOnUse">
<stop stop-color="#4A4067" stop-opacity="0"/>
<stop offset="1" stop-color="#FF979E"/>
</linearGradient>
<linearGradient id="paint3_linear_993_2798" x1="192.005" y1="59.7861" x2="192.005" y2="333.92" gradientUnits="userSpaceOnUse">
<stop stop-color="#FF4955"/>
<stop offset="1" stop-color="#1C2290" stop-opacity="0"/>
</linearGradient>
<linearGradient id="paint4_linear_993_2798" x1="192.005" y1="59.7861" x2="192.005" y2="333.92" gradientUnits="userSpaceOnUse">
<stop stop-color="#121523" stop-opacity="0"/>
<stop offset="1" stop-color="#84282E"/>
</linearGradient>
</defs>
</svg>
