<svg xmlns="http://www.w3.org/2000/svg" width="32" height="32" fill="#000000" viewBox="0 0 256 256">
	<path
		d="M230.15,117.1,210.25,41a11.94,11.94,0,0,0-22.79-1.11L169.78,88H86.22L68.54,39.87A11.94,11.94,0,0,0,45.75,41L25.85,117.1a57.19,57.19,0,0,0,22,61l73.27,51.76a11.91,11.91,0,0,0,13.74,0l73.27-51.76A57.19,57.19,0,0,0,230.15,117.1ZM58,57.5,73.13,98.76A8,8,0,0,0,80.64,104h94.72a8,8,0,0,0,7.51-5.24L198,57.5l13.07,50L128,166.21,44.9,107.5ZM40.68,124.11,114.13,176,93.41,190.65,57.09,165A41.06,41.06,0,0,1,40.68,124.11Zm87.32,91-20.73-14.65L128,185.8l20.73,14.64ZM198.91,165l-36.32,25.66L141.87,176l73.45-51.9A41.06,41.06,0,0,1,198.91,165Z">
	</path>
</svg>
