<svg width="51" height="44" viewBox="0 0 51 44" fill="none" xmlns="http://www.w3.org/2000/svg">
<g clip-path="url(#clip0_228_4903)">
<path d="M4.17817 37.9525L6.39384 41.7225C6.85424 42.5161 7.51607 43.1397 8.29299 43.5933L16.2061 30.1008H0.379883C0.379883 30.9795 0.610082 31.8582 1.07048 32.6519L4.17817 37.9525Z" fill="#0066DA"/>
<path d="M25.5004 14.2273L17.5873 0.734863C16.8104 1.18839 16.1485 1.81199 15.6881 2.60566L1.07048 27.5497C0.61855 28.3262 0.380485 29.2056 0.379883 30.1008H16.2061L25.5004 14.2273Z" fill="#00AC47"/>
<path d="M42.7082 43.5933C43.4851 43.1397 44.1469 42.5161 44.6073 41.7225L45.5281 40.1635L49.9307 32.6519C50.3911 31.8582 50.6213 30.9795 50.6213 30.1008H34.7939L38.1618 36.6203L42.7082 43.5933Z" fill="#EA4335"/>
<path d="M25.5 14.2274L33.4131 0.734978C32.6362 0.281451 31.7442 0.0546875 30.8234 0.0546875H20.1767C19.2559 0.0546875 18.3638 0.309797 17.5869 0.734978L25.5 14.2274Z" fill="#00832D"/>
<path d="M34.7947 30.1008H16.2061L8.29297 43.5933C9.06989 44.0468 9.96191 44.2736 10.8827 44.2736H40.118C41.0388 44.2736 41.9309 44.0184 42.7078 43.5933L34.7947 30.1008Z" fill="#2684FC"/>
<path d="M42.6211 15.0779L35.3123 2.60591C34.8519 1.81223 34.19 1.18863 33.4131 0.735107L25.5 14.2275L34.7943 30.101H50.5917C50.5917 29.2223 50.3615 28.3436 49.9011 27.5499L42.6211 15.0779Z" fill="#FFBA00"/>
</g>
<defs>
<clipPath id="clip0_228_4903">
<rect width="51" height="44" fill="white"/>
</clipPath>
</defs>
</svg>
