<svg width="67" height="44" viewBox="0 0 67 44" fill="none" xmlns="http://www.w3.org/2000/svg">
<g clip-path="url(#clip0_228_4893)">
<path d="M25.549 12.0393L25.5497 12.0369L39.6148 20.5463L47.9959 16.984C49.699 16.2403 51.5354 15.859 53.3908 15.8608C53.6999 15.8608 54.0055 15.875 54.3095 15.8955C53.3018 11.9269 51.1747 8.33942 48.1865 5.5689C45.1983 2.79838 41.4777 0.964142 37.4769 0.289081C33.4761 -0.38598 29.3673 0.1272 25.6498 1.76626C21.9323 3.40532 18.7662 6.09969 16.5361 9.52195C16.6078 9.52104 16.6783 9.51649 16.7502 9.51649C19.8586 9.51224 22.9064 10.3861 25.549 12.0393Z" fill="#0364B8"/>
<path d="M25.5495 12.0371L25.5489 12.0394C22.9062 10.3862 19.8585 9.51236 16.75 9.51662C16.6782 9.51662 16.6075 9.52116 16.536 9.52207C13.4935 9.56012 10.5189 10.4348 7.93167 12.0522C5.34445 13.6695 3.24249 15.9684 1.85165 18.7018C0.460817 21.4351 -0.166307 24.4996 0.0376731 27.5659C0.241653 30.6322 1.26903 33.5844 3.00939 36.1052L15.4128 30.8333L20.9265 28.4897L33.2033 23.2716L39.6146 20.5465L25.5495 12.0371Z" fill="#0078D4"/>
<path d="M54.3095 15.8955C54.0054 15.875 53.6999 15.8608 53.3908 15.8608C51.5354 15.859 49.6993 16.2418 47.9963 16.9854L39.6147 20.5464L42.0451 22.0167L50.0117 26.8365L53.4875 28.9394L65.3723 36.1298C66.4522 34.105 67.0119 31.8388 67 29.5388C66.9881 27.2389 66.405 24.9787 65.3042 22.9654C64.2035 20.952 62.6201 19.2498 60.6992 18.0146C58.7784 16.7795 56.5814 16.0508 54.3095 15.8955Z" fill="#1490DF"/>
<path d="M53.4872 28.9394L50.0114 26.8365L42.0448 22.0167L39.6145 20.5464L33.2031 23.2714L20.9264 28.4896L15.4127 30.8332L3.00928 36.1051C4.55062 38.3434 6.6054 40.1717 8.99814 41.4338C11.3909 42.6959 14.0505 43.3544 16.7499 43.353H53.3905C55.8472 43.3537 58.2583 42.6826 60.3678 41.4108C62.4773 40.1391 64.2066 38.3142 65.372 36.1298L53.4872 28.9394Z" fill="#28A8EA"/>
</g>
<defs>
<clipPath id="clip0_228_4893">
<rect width="67" height="43.3529" fill="white"/>
</clipPath>
</defs>
</svg>
