<svg width="16" height="16" viewBox="0 0 16 16" fill="none" xmlns="http://www.w3.org/2000/svg">
<path d="M8.51 4H7.01V5.5H8.51V4Z" fill="#D94851"/>
<path d="M6.51 4H5.01V5.5H6.51V4Z" fill="#D94851"/>
<path d="M6.51 6H5.01V7.5H6.51V6Z" fill="#D94851"/>
<path d="M8.51 6H7.01V7.5H8.51V6Z" fill="#D94851"/>
<path d="M10.51 6H9.01V7.5H10.51V6Z" fill="#D94851"/>
<path d="M4.51 6H3.01V7.5H4.51V6Z" fill="#D94851"/>
<path d="M4.76 9.5C4.95891 9.5 5.14968 9.57902 5.29033 9.71967C5.43098 9.86032 5.51 10.0511 5.51 10.25C5.51 10.4489 5.43098 10.6397 5.29033 10.7803C5.14968 10.921 4.95891 11 4.76 11C4.56353 11.0002 4.37463 10.9242 4.23293 10.7881C4.09124 10.652 4.00775 10.4663 4 10.27V10.27C4.00767 10.0754 4.08976 9.89117 4.22932 9.75533C4.36888 9.61949 4.55526 9.54241 4.75 9.54L4.76 9.5ZM12.51 5C12.1472 5.29211 11.8977 5.7017 11.8046 6.15811C11.7115 6.61452 11.7806 7.08911 12 7.5C12 8 11 8 11 8H0.999999C0.999999 8 -4.76837e-07 13.49 5.5 13.5C7.09864 13.4764 8.65653 12.9921 9.98683 12.1052C11.3171 11.2184 12.3633 9.96659 13 8.5C13 8.5 15 8.5 15.5 7C15.1905 6.84367 14.8465 6.768 14.5 6.78C14.1554 6.78659 13.8155 6.86136 13.5 7C13.5 7 13.5 5.5 12.5 5" fill="#D94851"/>
</svg>
