<svg id="Calque_1" data-name="Calque 1" xmlns="http://www.w3.org/2000/svg" viewBox="0 0 16 16"><defs><style>.cls-1,.cls-2{opacity:0.45;}.cls-2{fill:none;stroke:#000;stroke-miterlimit:10;}</style></defs><g class="cls-1"><path d="M9.09,3l1.44,1.45L12,5.91V13H4V3H9.09m0-1H4A1,1,0,0,0,3,3V13a1,1,0,0,0,1,1h8a1,1,0,0,0,1-1V5.91a1,1,0,0,0-.29-.7C12,4.53,10.47,3,9.79,2.29A1,1,0,0,0,9.09,2Z"/></g><line class="cls-2" x1="5.5" y1="5" x2="8.5" y2="5"/><line class="cls-2" x1="5.5" y1="7.5" x2="10" y2="7.5"/><line class="cls-2" x1="5.5" y1="10" x2="10" y2="10"/></svg>