<svg width="16" height="16" viewBox="0 0 16 16" fill="none" xmlns="http://www.w3.org/2000/svg">
<path opacity="0.45" d="M15 6.05V12C15 12.2652 14.8946 12.5196 14.7071 12.7071C14.5196 12.8946 14.2652 13 14 13H2.05C1.91453 13.0068 1.7791 12.9859 1.65195 12.9387C1.52479 12.8915 1.40857 12.8189 1.31034 12.7254C1.21212 12.6318 1.13396 12.5193 1.08061 12.3946C1.02726 12.2699 0.999831 12.1356 1 12V4.05C1 3.78479 1.10536 3.53043 1.29289 3.3429C1.48043 3.15536 1.73478 3.05 2 3.05H6.3C6.49633 3.04367 6.69017 3.0953 6.85734 3.19845C7.02451 3.3016 7.1576 3.45169 7.24 3.63L7.66 4.47C7.753 4.6473 7.89708 4.79259 8.07358 4.88709C8.25009 4.98158 8.45089 5.02091 8.65 5H14C14.1356 4.99983 14.2699 5.02726 14.3946 5.08061C14.5193 5.13396 14.6318 5.21213 14.7254 5.31035C14.8189 5.40857 14.8915 5.52479 14.9387 5.65195C14.9859 5.7791 15.0068 5.91454 15 6.05Z" fill="white"/>
</svg>
