<svg id="Calque_1" data-name="Calque 1" xmlns="http://www.w3.org/2000/svg" viewBox="0 0 16 16"><defs><style>.cls-1{fill:#34cbce;}</style></defs><path class="cls-1" d="M6.16,8.88c-.55,0-1.08,0-1.63,0-.22,0-.25-.12-.19-.28.14-.32.29-.64.45-1A.22.22,0,0,1,5,7.51H7.66a.14.14,0,0,0,.16-.12,3.8,3.8,0,0,1,2.89-2.46,3.13,3.13,0,0,1,3.45,1.52l.08.15a3.3,3.3,0,0,1-.21,3,4.09,4.09,0,0,1-1.82,1.57A3.2,3.2,0,0,1,7.74,9.36c-.88,1.89-3.5,2.83-5.2,1.45C.54,9.24,1.6,6,3.74,5.1A3,3,0,0,1,8,6.51s0,.08,0,.09c-.51.18-1,.26-1.54.43-.23,0-.34-.26-.52-.36A1.77,1.77,0,0,0,3.31,8.11,1.49,1.49,0,0,0,6.16,8.88Zm5.18-2.44c-1.83-.07-2.79,2.82-.77,3.33S13.79,6.65,11.34,6.44Z"/></svg>