<svg id="Calque_1" data-name="Calque 1" xmlns="http://www.w3.org/2000/svg" viewBox="0 0 16 16"><defs><style>.cls-1{fill:#e34e48;}</style></defs><path class="cls-1" d="M9.08,4,10,2.5h1.5v-1h-2l0,.06h0l-1.32,2L7.83,4h0L7.17,5l-.34.5H5.5L5.83,5l.63-.94c-1.73.14-3,.51-3,.94a.22.22,0,0,0,0,.08L4.5,11c0,.2.33.38.87.51l.3,2c0,.29,1,.52,2.33.52s2.33-.23,2.33-.52l.3-2c.54-.13.87-.31.87-.51l1-5.92V5C12.5,4.53,11.05,4.14,9.08,4Zm-2,2.87a2.71,2.71,0,0,1,1.77-1l.21,0h0a1.1,1.1,0,0,1,.81.59l.06.22a.52.52,0,0,1-.27.44h0l-.22,0A.51.51,0,0,1,9,7H9L9,7l-.09,0h0c-.12,0-.46.08-1.06.68a4.36,4.36,0,0,0-.7.93,3.24,3.24,0,0,0-.26.63,2.71,2.71,0,0,0-.12.75,1.4,1.4,0,0,0,.16.71c.1.15.16.17.26.18l.16,0h0a2.31,2.31,0,0,0,1.16-1,4.23,4.23,0,0,0,.31-.59A3.6,3.6,0,0,0,9,8.7H9l0-.08H9a.19.19,0,0,1,0-.08.5.5,0,0,1,.46-.29l.13,0h0a.49.49,0,0,1,.36.39s0,.06,0,.09v.13l0,.14,0,.14L9,12.39a.49.49,0,0,1-.48.36h0l-.08,0h0A.49.49,0,0,1,8,12.25l0-.14H8l.18-.64a2.65,2.65,0,0,1-.54.25,1.53,1.53,0,0,1-.45.08h0a1.32,1.32,0,0,1-1.11-.65,2.34,2.34,0,0,1-.31-1.23,4.09,4.09,0,0,1,.08-.76c0-.16.09-.32.14-.48A4.88,4.88,0,0,1,7.12,6.9Z"/></svg>