<svg id="Calque_1" data-name="Calque 1" xmlns="http://www.w3.org/2000/svg" viewBox="0 0 16 16"><defs><style>.cls-1{fill:#797cff;}</style></defs><path class="cls-1" d="M13.38,7.21l-1-1.4L13,4.18l-1.58-.66-.43-1.66-1.68.3L8,1,6.74,2.16l-1.68-.3L4.63,3.52l-1.58.66.53,1.63-1,1.4L3.94,8.29l0,1.71,1.42.16V15L8,12.85,10.69,15V10.16L12.11,10l0-1.71ZM11,9l-1.24.14-.64,1.07L8,9.7l-1.12.55L6.24,9.18,5,9,5,7.79,4.07,7l.7-1L4.38,4.79,5.54,4.3l.31-1.2,1.23.21L8,2.46l.92.85,1.23-.21.31,1.2,1.16.49L11.23,6l.7,1-1,.78Z"/><polygon class="cls-1" points="7.43 7.02 6.29 5.87 5.53 6.63 7.43 8.54 10.47 5.49 9.71 4.73 7.43 7.02"/></svg>