<svg id="Calque_1" data-name="Calque 1" xmlns="http://www.w3.org/2000/svg" viewBox="0 0 16 16"><defs><style>.cls-1{fill:#678c41;}.cls-2{fill:#9bbd4c;}</style></defs><path class="cls-1" d="M11.4,6s-.05-3.4-1.73-3.4S7.54,5.47,7.54,5.5l-1.2-.14c0-.16.49-4,3.33-4C12,1.4,12.6,4.29,12.6,6Z"/><path class="cls-2" d="M10.5,4.5l-.58,0L8.7,4.62l-1,.07-1.27.08-1.72.11L3.47,5,3,5,2,13l9,1.5ZM9.09,8H7.6a.76.76,0,0,0,0-.15c0-.4-.31-.62-.85-.62s-1,.3-1,.72.52.5,1.13.62c.85.15,1.9.36,1.9,1.48,0,1.55-1.29,2.41-2.94,2.41-1.3,0-2.24-.7-2.24-1.81a1.55,1.55,0,0,1,0-.37H5.14a.88.88,0,0,0,0,.16c0,.46.41.7.94.7s1.09-.28,1.09-.78S6.63,9.88,6,9.77c-.86-.16-1.88-.36-1.88-1.47C4.15,6.83,5.39,6,7,6c1.32,0,2.16.73,2.16,1.7A2,2,0,0,1,9.09,8Z"/><polygon class="cls-1" points="11 14.5 14 12.5 13 5 10.5 4.5 11 14.5"/><path class="cls-2" d="M8.87,6S8.84,2.6,7,2.6,4.6,5.47,4.6,5.5L3.4,5.36C3.57,4,4.53,1.4,7,1.4S10.07,4.29,10.07,6Z"/></svg>