<svg id="Calque_1" data-name="Calque 1" xmlns="http://www.w3.org/2000/svg" xmlns:xlink="http://www.w3.org/1999/xlink" viewBox="0 0 16 16"><defs><style>.cls-1{fill:url(#Dégradé_sans_nom_4);}.cls-2{fill:#bf3338;}.cls-3{fill:#e83e3b;}.cls-4{fill:#fbb040;}</style><linearGradient id="Dégradé_sans_nom_4" x1="6.91" y1="-54.36" x2="9.88" y2="-55.05" gradientTransform="matrix(1, 0, 0, -1, 0, -46)" gradientUnits="userSpaceOnUse"><stop offset="0" stop-color="#ff6533"/><stop offset="0.16" stop-color="#ff5633"/><stop offset="0.43" stop-color="#ff4333"/><stop offset="0.71" stop-color="#ff3733"/><stop offset="1" stop-color="#f33"/></linearGradient></defs><path class="cls-1" d="M12.24,6.12a3.58,3.58,0,0,0-.47-1.78c-.79-.81-2.51-1-2.94,0a1.65,1.65,0,0,0,1.25,2.07C10.74,6.3,10,4.79,10,4.79c1,1.89.77,1.31-1,3.05S5.26,13.23,5,13.39l0,0h7.1a.17.17,0,0,0,.15-.25L10.36,9.48a.16.16,0,0,1,.06-.22A3.6,3.6,0,0,0,12.24,6.12Z"/><path class="cls-2" d="M12.24,6.12a3.58,3.58,0,0,0-.47-1.78c-.79-.81-2.51-1-2.94,0a1.65,1.65,0,0,0,1.25,2.07C10.74,6.3,10,4.79,10,4.79c1,1.89.77,1.31-1,3.05S5.26,13.23,5,13.39l0,0h7.1a.17.17,0,0,0,.15-.25L10.36,9.48a.16.16,0,0,1,.06-.22A3.6,3.6,0,0,0,12.24,6.12Z"/><path class="cls-3" d="M5,13.39c.27-.16,2.12-3.82,3.94-5.55s2-1.16,1-3c0,0-3.84,5.38-5.23,8"/><path class="cls-3" d="M5.53,8.57C8.12,3.81,8.46,3.33,9.81,3.33a2.45,2.45,0,0,1,1.89.89,3.62,3.62,0,0,0-3-1.72H4.27a.17.17,0,0,0-.16.17v8.87A25.21,25.21,0,0,1,5.53,8.57Z"/><path class="cls-4" d="M8.93,7.84C7.11,9.57,5.26,13.23,5,13.39a.82.82,0,0,1-1-.1c-.26-.29-.66-.75,1.5-4.72C8.12,3.81,8.46,3.33,9.81,3.33a2.45,2.45,0,0,1,1.89.89l.07.12c-.79-.81-2.51-1-2.94,0a1.65,1.65,0,0,0,1.25,2.07C10.74,6.3,10,4.79,10,4.79,11,6.68,10.74,6.1,8.93,7.84Z"/></svg>