<svg id="Calque_1" data-name="Calque 1" xmlns="http://www.w3.org/2000/svg" viewBox="0 0 16 16"><defs><style>.cls-1{fill:#d87a35;}</style></defs><path class="cls-1" d="M14,10.49l-.74-1.4s0-.05,0-.08L14.5,8,13.28,7s0,0,0-.08L14,5.51,12.49,5,12.44,5,12.6,3.4,11,3.56,11,3.51,10.49,2l-1.4.74H9L8,1.5,7,2.72H6.91L5.51,2,5,3.51,5,3.56,3.4,3.4,3.56,5,3.51,5,2,5.51l.74,1.4s0,0,0,.08L1.5,8,2.72,9s0,.05,0,.08L2,10.49,3.51,11l.05.06L3.4,12.6,5,12.44l.06.05L5.51,14l1.4-.74H7L8,14.5l1-1.22h.08l1.4.74L11,12.49l.06-.05,1.58.16L12.44,11l.05-.06ZM3.62,8a4.37,4.37,0,0,1,.31-1.62h.82V10H4.13A4.25,4.25,0,0,1,3.62,8Zm4.8-.41H6.78V6.38H8.41a.61.61,0,1,1,0,1.21ZM6.78,10V8.81H8s.81,0,.81,1.22A1.08,1.08,0,0,0,10,11.25h.89a4.34,4.34,0,0,1-5.84,0H7.73V10Zm5.1,0c-.34,0-1-.19-1-.8a1,1,0,0,0-.37-.73h0a1.84,1.84,0,0,0-.86-3.32H4.68A4.37,4.37,0,0,1,12.38,8,4.29,4.29,0,0,1,11.88,10Z"/><path class="cls-1" d="M10,5.16Z"/></svg>