<svg id="Calque_1" data-name="Calque 1" xmlns="http://www.w3.org/2000/svg" viewBox="0 0 16 16"><defs><style>.cls-1{fill:#03589c;}.cls-2{fill:#41c4ff;}.cls-3{fill:#2cb7f6;}.cls-4{fill:#02589b;}</style></defs><path class="cls-1" d="M13.47,7.28V12h-2l-.06-.07h0L4,4.5h6.39l.13,0,.09,0a1.05,1.05,0,0,1,.26.13l0,0,0,0,.12.1,0,0h0L13.4,7.21Z"/><path class="cls-2" d="M11,4.83l-.12-.1,0,0,0,0a1.05,1.05,0,0,0-.26-.13l-.09,0-.13,0H4L7.58,2.68a1.4,1.4,0,0,1,.68-.15,1.29,1.29,0,0,1,.83.38Z"/><path class="cls-3" d="M11.43,12h0L7.89,10.83,4.64,12h0l-.23-.22-.07-.08h0l0,0,0,0h0a1.59,1.59,0,0,1-.29-.38v0A1.44,1.44,0,0,1,4,10.77V4.49H4L11.43,12Z"/><path class="cls-4" d="M4.19,11.49,2.38,9.7A1.36,1.36,0,0,1,2,8.79V8.73H2L2,8.6H2l0-.08v0l.08-.2L4,4.49v6.28a1.34,1.34,0,0,0,.08.48v0A.85.85,0,0,0,4.19,11.49Z"/><polygon class="cls-3" points="11.43 11.96 11.43 11.96 4.64 11.96 7.89 10.83 11.43 11.96"/><polygon class="cls-2" points="11.43 11.96 11.43 14 6.68 14 4.64 11.96 11.43 11.96"/></svg>