<svg id="Calque_1" data-name="Calque 1" xmlns="http://www.w3.org/2000/svg" viewBox="0 0 16 16"><defs><style>.cls-1{fill:#2396ec;}</style></defs><rect class="cls-1" x="7.01" y="4" width="1.5" height="1.5"/><rect class="cls-1" x="5.01" y="4" width="1.5" height="1.5"/><rect class="cls-1" x="5.01" y="6" width="1.5" height="1.5"/><rect class="cls-1" x="7.01" y="6" width="1.5" height="1.5"/><rect class="cls-1" x="9.01" y="6" width="1.5" height="1.5"/><rect class="cls-1" x="3.01" y="6" width="1.5" height="1.5"/><path class="cls-1" d="M4.76,9.5h0a.75.75,0,0,1,0,1.5A.76.76,0,0,1,4,10.27v0a.76.76,0,0,1,.75-.73M12.51,5A2,2,0,0,0,12,7.5C12,8,11,8,11,8H1s-1,5.49,4.5,5.5h0A8.31,8.31,0,0,0,13,8.5s2,0,2.5-1.5a2.06,2.06,0,0,0-1-.22,2.61,2.61,0,0,0-1,.22s0-1.5-1-2"/></svg>