<svg id="Calque_1" data-name="Calque 1" xmlns="http://www.w3.org/2000/svg" viewBox="0 0 16 16"><defs><style>.cls-1{opacity:0.45;}.cls-2{fill:#fff;}</style></defs><g class="cls-1"><path class="cls-2" d="M14.35,7.38a3.51,3.51,0,0,1-2.46,1.33,3.84,3.84,0,0,0-.09-1.58h0a.44.44,0,0,0,0-.1h0c-.07-.23-.15-.44-.24-.66C12.91,4.8,14.8,5.65,14.35,7.38Z"/><path class="cls-2" d="M8.33,3.65A7.54,7.54,0,0,0,6,3.85C6,1.89,9.83.75,8.33,3.65Z"/><path class="cls-2" d="M5.62,7.35a0,0,0,0,1,0,0c0,.65-3-.08-2.79-.83C3,6,5.5,6.5,5.62,7.35Z"/><path class="cls-2" d="M11.16,7.77C11.08,4.53,6.61,3,4.7,5.67c.73.28,1.53.76,1.66,1.59.12,1.3-1.95,1.24-2.84.85C-.19,16.64,11.22,12.65,11.16,7.77ZM10.35,9c0,.08-.07.18-.12.26a.68.68,0,0,1-.17.21,1.4,1.4,0,0,1-.48.29,2.64,2.64,0,0,1-1.28.07,3.46,3.46,0,0,1-1.24-.47,1.47,1.47,0,0,1-.68-.83.77.77,0,0,1,0-.37,2.4,2.4,0,0,1,.17-.4.86.86,0,0,1,.34-.34,1.11,1.11,0,0,1,.62-.16c.22,0,.45.06.67.07a3.32,3.32,0,0,1,.71.15,2.6,2.6,0,0,1,1.43.76A.66.66,0,0,1,10.35,9Z"/><path class="cls-2" d="M9.64,8.7c.35.84-3.18.29-2.41-.53C7.25,7.88,9.38,8.22,9.64,8.7Z"/></g></svg>