<svg id="Calque_1" data-name="Calque 1" xmlns="http://www.w3.org/2000/svg" viewBox="0 0 16 16"><defs><style>.cls-1{fill:#ae5edb;}</style></defs><path class="cls-1" d="M6.52,4.33A7,7,0,0,0,9.35,6.92a3.26,3.26,0,0,1,2,2.93A3.16,3.16,0,0,1,5,9.85V9.7A10.14,10.14,0,0,1,6.52,4.33M6.79,2C3.56,6.62,4,9.85,4,9.85a4.16,4.16,0,0,0,8.31,0A4.3,4.3,0,0,0,9.78,6a5.22,5.22,0,0,1-3-4Z"/><path class="cls-1" d="M6.23,7.73A6.41,6.41,0,0,0,6,9.56L6,9.7v.15A2.16,2.16,0,0,0,8.18,12a2.14,2.14,0,0,0,1.91-1.19A32.78,32.78,0,0,1,6.23,7.73Z"/></svg>