<svg id="Calque_1" data-name="Calque 1" xmlns="http://www.w3.org/2000/svg" viewBox="0 0 16 16"><defs><style>.cls-1{fill:#f15a24;}.cls-2{fill:#fbb03b;}</style></defs><path class="cls-1" d="M12.28,1.63a2.7,2.7,0,0,0-2,.87,2.65,2.65,0,0,0-.73,1.85.39.39,0,0,0,0,.15A4.43,4.43,0,0,0,10.09,6a25.19,25.19,0,0,0,2.19,3.41S15,5.86,15,4.35A2.72,2.72,0,0,0,12.28,1.63Zm0,4.08a1.36,1.36,0,1,1,1.35-1.36A1.35,1.35,0,0,1,12.28,5.71Z"/><path class="cls-2" d="M9.93,7.75a.53.53,0,0,0,.14.35l.16.13c-.1-.16-.2-.31-.3-.48M5.8,10.92a.59.59,0,0,0,.5-.22,1,1,0,0,0,.17-.63v-4H7.62v4a2.32,2.32,0,0,1-.22,1,1.51,1.51,0,0,1-.64.66,2.13,2.13,0,0,1-1,.23,2.12,2.12,0,0,1-1-.21,1.64,1.64,0,0,1-.66-.59h0L5,10.54a1,1,0,0,0,.77.38M9.06,2.47,2.5,2.5a1,1,0,0,0-1,1v9A1,1,0,0,0,2.5,13.55h11a1,1,0,0,0,1.05-1.05V7.9C14,8.82,13.37,9.63,13.07,10l-.07.1v.09h0a1.77,1.77,0,0,1-.26,1,1.63,1.63,0,0,1-.77.61,3.12,3.12,0,0,1-1.21.21,3.75,3.75,0,0,1-.82-.09,3.21,3.21,0,0,1-.76-.24,2.7,2.7,0,0,1-.63-.4l.51-.91a2.62,2.62,0,0,0,.79.43,2.8,2.8,0,0,0,.91.15,1.64,1.64,0,0,0,.84-.18.64.64,0,0,0,.25-.27L11.49,10l-.32-.42-.3-.06h-.13a5.48,5.48,0,0,1-1-.23A1.44,1.44,0,0,1,9.1,8.8a1.58,1.58,0,0,1-.27-1h0a1.77,1.77,0,0,1,.25-1,1.55,1.55,0,0,1,.19-.24s0-.1-.08-.14a5.85,5.85,0,0,1-.6-1.77,1.52,1.52,0,0,1,0-.33,3.8,3.8,0,0,1,.5-1.88"/></svg>