<svg id="Calque_1" data-name="Calque 1" xmlns="http://www.w3.org/2000/svg" viewBox="0 0 16 16"><defs><style>.cls-1{fill:#cc7f00;}</style></defs><path class="cls-1" d="M3,6v.5a1,1,0,0,1-1,1H1.5V9H2a1,1,0,0,1,1,1v.5a2.94,2.94,0,0,0,3,3H7V12H6a1.47,1.47,0,0,1-1.5-1.5V6A1.47,1.47,0,0,1,6,4.5H7V3H6A2.94,2.94,0,0,0,3,6Z"/><path class="cls-1" d="M14,7.5a1,1,0,0,1-1-1V6a2.94,2.94,0,0,0-3-3H9V4.5h1A1.47,1.47,0,0,1,11.5,6v4.5A1.47,1.47,0,0,1,10,12H9v1.5h1a2.94,2.94,0,0,0,3-3V10a1,1,0,0,1,1-1h.5V7.5Z"/><circle class="cls-1" cx="8" cy="8.25" r="1"/></svg>