<svg width="16" height="16" viewBox="0 0 16 16" fill="none" xmlns="http://www.w3.org/2000/svg">
<path d="M8.0485 4L7.10643 4.73437C6.61741 4.71878 5.65784 4.82833 5.13801 5.0174C4.65927 4.71402 4.23816 4.37907 4.23816 4.37907L3.65253 5.3609C3.3172 5.5395 2.98035 5.73998 2.6804 6.00531L1.91331 5.69205C2.3755 6.62423 2.6842 7.55794 3.53156 8.11904C4.87725 5.99371 11.1307 6.19171 12.5042 8.10687C13.3923 7.64429 13.7377 6.6501 14.0867 5.72838C13.8113 5.81998 13.5375 5.91636 13.2654 6.01748C13.0817 5.8172 12.6482 5.50964 12.4019 5.3609C12.1685 4.93276 11.8284 4.3553 11.8284 4.3553C11.8284 4.3553 11.4257 4.65468 10.9588 4.98164C10.3283 4.86523 9.56537 4.72391 8.92382 4.75891C8.4873 4.39962 8.0485 4 8.0485 4Z" fill="#F8D520"/>
<path d="M2.39148 8.01522L3.5017 10.7039C5.42979 13.2475 10.353 13.4225 12.4996 10.7532L13.6926 8C13.142 8.81559 12.2461 9.37878 11.6941 9.68387C11.3019 9.89899 10.3971 10.0287 10.3971 10.0287L8.0234 8.79752L5.63407 10.004C5.63407 10.004 4.74144 9.86057 4.33707 9.6717C3.52148 9.23613 2.97255 8.72163 2.39415 8.01712L2.39148 8.01522Z" fill="#F8D520"/>
</svg>
