<svg id="Calque_1" data-name="Calque 1" xmlns="http://www.w3.org/2000/svg" viewBox="0 0 16 16"><defs><style>.cls-1{fill:#a90533;}</style></defs><path class="cls-1" d="M8.12,5.42A2.16,2.16,0,0,0,5.85,7.17h4.42A2.11,2.11,0,0,0,8.12,5.42m0-2h.07A4.38,4.38,0,0,1,12.5,8h0a4.56,4.56,0,0,1-.09.92H5.88a2.28,2.28,0,0,0,2.45,1.62,2.43,2.43,0,0,0,1.94-.86l1.8,1a4.39,4.39,0,0,1-3.78,1.85A4.45,4.45,0,0,1,3.55,8,4.41,4.41,0,0,1,8.08,3.41m5.42-1-11,0a1,1,0,0,0-1,1v9a1,1,0,0,0,1.05,1h11a1,1,0,0,0,1.05-1v-9a1,1,0,0,0-1.05-1"/></svg>