<svg width="16" height="16" viewBox="0 0 16 16" fill="none" xmlns="http://www.w3.org/2000/svg">
<path fill-rule="evenodd" clip-rule="evenodd" d="M8.09091 3.5C5.72727 3.9 2.59091 3.33333 2 3V4.5C2.25985 4.71987 2.66736 4.86723 4 4.94207V6H3V7C3.19862 7.04965 3.54518 7.06972 4 7.07343V9.5H3V8.5H2V13.5H3V12.5H4V13.5H5V12.5H6V13.5H7V8.5H6V9.5H5V7.06381C5.27313 7.0582 5.56477 7.05082 5.87073 7.04309C6.67375 7.02279 7.57555 7 8.5 7C9.06299 7 9.56175 6.95538 10 6.88473V9.5H9V8.5H8V13.5H9V12.5H10V13.5H11V12.5H12V13.5H13V8.5H12V9.5H11V6.65614C11.6802 6.4507 12.1266 6.20434 12.3696 6.07019C12.4227 6.04092 12.466 6.01699 12.5 6V5C12.4267 5.01833 12.3271 5.04474 12.2046 5.07721C11.9159 5.15379 11.4998 5.26414 11 5.38206V4.56193C12.4474 4.23009 13.4401 3.78425 14 3.5V2C12.4242 2.5 10.4545 3.1 8.09091 3.5ZM4 11.5H3V10.5H4V11.5ZM6 11.5H5V10.5H6V11.5ZM12 11.5V10.5H11V11.5H12ZM10 11.5V10.5H9V11.5H10ZM6.5 6H5V4.98039C5.53085 4.99346 6.1602 5 6.90909 5C6.93949 5 6.96979 4.99994 7 4.99981V5.98949C6.83236 5.99635 6.66545 6 6.5 6ZM8 5.91415C8.69601 5.83985 9.37994 5.72503 10 5.60075V4.75795C9.39571 4.85711 8.7294 4.93285 8 4.9715V5.91415Z" fill="#DC3E3E"/>
</svg>
