<svg id="Calque_1" data-name="Calque 1" xmlns="http://www.w3.org/2000/svg" viewBox="0 0 16 16"><defs><style>.cls-1{fill:#ff3e00;}</style></defs><path class="cls-1" d="M9.31,3.36h.11a2.23,2.23,0,0,1,1.77,1,2,2,0,0,1,.38,1.17v0a1.84,1.84,0,0,1,0,.33,2.13,2.13,0,0,1-.07.27l-.05.16-.14-.1a3.78,3.78,0,0,0-1.1-.55l-.1,0v-.1A.7.7,0,0,0,10,5.1a.68.68,0,0,0-.55-.29l-.18,0-.17.07L6.3,6.69A.55.55,0,0,0,6,7.07a.64.64,0,0,0,.1.47.67.67,0,0,0,.55.29l.18,0L7,7.73,8.1,7.05a2.1,2.1,0,0,1,.57-.25,2.08,2.08,0,0,1,.55-.07A2.22,2.22,0,0,1,11,7.68a2.06,2.06,0,0,1,.36,1.56,1.92,1.92,0,0,1-.87,1.29l-2.8,1.78a2.24,2.24,0,0,1-.57.25,2.1,2.1,0,0,1-.56.08,2.22,2.22,0,0,1-1.82-1,2,2,0,0,1-.38-1.16v-.08a1.82,1.82,0,0,1,0-.32l.06-.26,0-.16.14.1a3.78,3.78,0,0,0,1.1.55l.1,0v.1A.72.72,0,0,0,6,10.9a.7.7,0,0,0,.56.29.44.44,0,0,0,.16,0l.18-.07L9.66,9.32a.58.58,0,0,0,.27-.38.64.64,0,0,0-.1-.47.67.67,0,0,0-.55-.29l-.18,0-.17.07L7.86,9a1.81,1.81,0,0,1-.57.24,2.08,2.08,0,0,1-.55.07,2.22,2.22,0,0,1-1.83-1,2.06,2.06,0,0,1-.34-1.55,1.92,1.92,0,0,1,.87-1.29l2.8-1.78a2.48,2.48,0,0,1,.57-.26,2.74,2.74,0,0,1,.5-.07M9.29,2a3.4,3.4,0,0,0-1.85.53L4.64,4.32A3.18,3.18,0,0,0,3.2,6.46a3.32,3.32,0,0,0,.33,2.17,3.12,3.12,0,0,0-.48,1.2,3.41,3.41,0,0,0,.58,2.58A3.74,3.74,0,0,0,6.68,14a3.4,3.4,0,0,0,1.85-.53l2.8-1.78a3.17,3.17,0,0,0,1.44-2.15,3.3,3.3,0,0,0-.33-2.16,3.29,3.29,0,0,0,.48-1.2,3.39,3.39,0,0,0-.58-2.59A3.74,3.74,0,0,0,9.29,2"/></svg>