<svg width="16" height="16" viewBox="0 0 16 16" fill="none" xmlns="http://www.w3.org/2000/svg">
<path d="M7.83864 2.43503C8.22916 2.0445 8.86233 2.0445 9.25285 2.43503L9.70764 2.88982L7 6.5L10.5538 3.73595L11.9934 5.17553L11 6.5L12.3038 5.48595L13.2929 6.47507C13.6834 6.86559 13.6834 7.49876 13.2929 7.88928L10.3127 10.8694L4.85848 5.41519L7.83864 2.43503Z" fill="#2CB6D4"/>
<path d="M4.29191 5.92834L9.81782 11.4543L9.16136 12.1107C8.77084 12.5012 8.13767 12.5012 7.74715 12.1107L6.08084 10.4444L4.44908 13.0086C3.96203 13.774 2.89149 13.8915 2.25 13.25C1.60852 12.6085 1.72604 11.538 2.4914 11.0509L5.0556 9.41916L3.63546 7.99901C3.24493 7.60849 3.24493 6.97533 3.63546 6.5848L4.29191 5.92834Z" fill="#2CB6D4"/>
</svg>
