<svg width="989" height="269" viewBox="0 0 989 269" fill="none" xmlns="http://www.w3.org/2000/svg">
<mask id="mask0_1626_2149" style="mask-type:alpha" maskUnits="userSpaceOnUse" x="33" y="37" width="194" height="194">
<rect x="33" y="37" width="194" height="194" rx="54.95" fill="black"/>
</mask>
<g mask="url(#mask0_1626_2149)">
<rect x="33" y="37" width="194" height="194" fill="#FFECFE"/>
<g filter="url(#filter0_d_1626_2149)">
<mask id="mask1_1626_2149" style="mask-type:alpha" maskUnits="userSpaceOnUse" x="66" y="70" width="128" height="129">
<ellipse cx="130" cy="134.088" rx="64" ry="64" fill="#D9D9D9"/>
</mask>
<g mask="url(#mask1_1626_2149)">
<g filter="url(#filter1_iii_1626_2149)">
<ellipse cx="130" cy="134.088" rx="64" ry="64" fill="url(#paint0_linear_1626_2149)"/>
<ellipse cx="130" cy="134.088" rx="64" ry="64" fill="url(#paint1_radial_1626_2149)"/>
</g>
<g opacity="0.9" filter="url(#filter2_f_1626_2149)">
<path d="M189.471 134.088C189.471 120.83 185.04 107.952 176.883 97.4995C168.727 87.0475 157.311 79.6208 144.45 76.3994L140.887 90.6245C150.576 93.0516 159.177 98.6469 165.323 106.522C171.468 114.396 174.806 124.099 174.806 134.088H189.471Z" fill="url(#paint2_radial_1626_2149)" style="mix-blend-mode:screen"/>
</g>
<g style="mix-blend-mode:luminosity" opacity="0.2" filter="url(#filter3_f_1626_2149)">
<path d="M70.5292 134.088C70.5292 145.85 74.0171 157.348 80.5518 167.128C87.0865 176.908 96.3746 184.531 107.241 189.032C118.108 193.533 130.066 194.711 141.602 192.416C153.138 190.121 163.735 184.457 172.052 176.14L144.251 148.339C141.432 151.157 137.841 153.077 133.932 153.854C130.022 154.632 125.97 154.233 122.288 152.707C118.605 151.182 115.457 148.599 113.243 145.285C111.028 141.97 109.846 138.074 109.846 134.088L70.5292 134.088Z" fill="url(#paint3_radial_1626_2149)" style="mix-blend-mode:screen"/>
</g>
</g>
</g>
</g>
<path d="M331.784 180.536C323.933 180.536 317.277 179.213 311.816 176.568C306.355 173.837 301.704 170.339 297.864 166.072L310.664 153.144C316.723 159.971 324.189 163.384 333.064 163.384C337.843 163.384 341.384 162.403 343.688 160.44C345.992 158.477 347.144 155.875 347.144 152.632C347.144 150.157 346.461 148.109 345.096 146.488C343.731 144.781 340.957 143.629 336.776 143.032L327.944 141.88C318.472 140.685 311.517 137.827 307.08 133.304C302.728 128.781 300.552 122.765 300.552 115.256C300.552 111.245 301.32 107.576 302.856 104.248C304.392 100.92 306.568 98.0613 309.384 95.672C312.285 93.2827 315.784 91.448 319.88 90.168C324.061 88.8027 328.797 88.12 334.088 88.12C340.829 88.12 346.76 89.1867 351.88 91.32C357 93.4533 361.395 96.568 365.064 100.664L352.136 113.72C350.003 111.245 347.4 109.24 344.328 107.704C341.341 106.083 337.544 105.272 332.936 105.272C328.584 105.272 325.341 106.04 323.208 107.576C321.075 109.112 320.008 111.245 320.008 113.976C320.008 117.048 320.819 119.267 322.44 120.632C324.147 121.997 326.877 122.979 330.632 123.576L339.464 124.984C348.68 126.435 355.507 129.293 359.944 133.56C364.381 137.741 366.6 143.715 366.6 151.48C366.6 155.747 365.832 159.672 364.296 163.256C362.76 166.84 360.499 169.912 357.512 172.472C354.611 175.032 350.984 177.037 346.632 178.488C342.28 179.853 337.331 180.536 331.784 180.536ZM376.587 111.8H395.531V123.064H396.171C397.11 119.309 399.243 116.237 402.571 113.848C405.984 111.459 409.867 110.264 414.219 110.264C422.752 110.264 429.195 113.251 433.547 119.224C437.899 125.197 440.075 133.901 440.075 145.336C440.075 156.771 437.899 165.517 433.547 171.576C429.195 177.549 422.752 180.536 414.219 180.536C412 180.536 409.91 180.195 407.947 179.512C405.984 178.915 404.192 178.061 402.571 176.952C401.035 175.757 399.712 174.392 398.603 172.856C397.494 171.235 396.683 169.528 396.171 167.736H395.531V204.6H376.587V111.8ZM407.947 165.176C411.531 165.176 414.475 163.939 416.779 161.464C419.168 158.904 420.363 155.491 420.363 151.224V139.576C420.363 135.309 419.168 131.939 416.779 129.464C414.475 126.904 411.531 125.624 407.947 125.624C404.363 125.624 401.376 126.52 398.987 128.312C396.683 130.019 395.531 132.408 395.531 135.48V155.32C395.531 158.392 396.683 160.824 398.987 162.616C401.376 164.323 404.363 165.176 407.947 165.176ZM499.006 179C495.593 179 492.734 177.933 490.43 175.8C488.211 173.667 486.803 170.808 486.206 167.224H485.438C484.414 171.576 482.153 174.904 478.654 177.208C475.155 179.427 470.846 180.536 465.726 180.536C458.985 180.536 453.822 178.744 450.238 175.16C446.654 171.576 444.862 166.84 444.862 160.952C444.862 153.869 447.422 148.621 452.542 145.208C457.747 141.709 464.787 139.96 473.662 139.96H484.286V135.736C484.286 132.493 483.433 129.933 481.726 128.056C480.019 126.093 477.161 125.112 473.15 125.112C469.395 125.112 466.409 125.923 464.19 127.544C461.971 129.165 460.137 131 458.686 133.048L447.422 123.064C450.153 119.053 453.566 115.939 457.662 113.72C461.843 111.416 467.475 110.264 474.558 110.264C484.115 110.264 491.283 112.355 496.062 116.536C500.841 120.717 503.23 126.819 503.23 134.84V164.28H509.502V179H499.006ZM472.766 167.352C475.923 167.352 478.611 166.669 480.83 165.304C483.134 163.939 484.286 161.72 484.286 158.648V150.712H475.07C467.646 150.712 463.934 153.229 463.934 158.264V160.184C463.934 162.659 464.702 164.493 466.238 165.688C467.774 166.797 469.95 167.352 472.766 167.352ZM544.233 180.536C539.198 180.536 534.718 179.725 530.793 178.104C526.868 176.397 523.582 174.051 520.937 171.064C518.292 167.992 516.286 164.28 514.921 159.928C513.556 155.576 512.873 150.712 512.873 145.336C512.873 139.96 513.556 135.139 514.921 130.872C516.286 126.52 518.292 122.808 520.937 119.736C523.582 116.664 526.868 114.317 530.793 112.696C534.718 111.075 539.198 110.264 544.233 110.264C551.06 110.264 556.734 111.8 561.257 114.872C565.865 117.944 569.15 122.253 571.113 127.8L555.753 134.456C555.156 131.896 553.918 129.72 552.041 127.928C550.164 126.136 547.561 125.24 544.233 125.24C540.393 125.24 537.492 126.52 535.529 129.08C533.566 131.555 532.585 134.925 532.585 139.192V151.736C532.585 156.003 533.566 159.373 535.529 161.848C537.492 164.323 540.393 165.56 544.233 165.56C547.646 165.56 550.334 164.664 552.297 162.872C554.345 160.995 555.838 158.563 556.777 155.576L571.497 161.976C569.278 168.376 565.822 173.069 561.129 176.056C556.521 179.043 550.889 180.536 544.233 180.536ZM605.509 180.536C600.389 180.536 595.824 179.725 591.813 178.104C587.802 176.397 584.389 174.051 581.573 171.064C578.842 167.992 576.752 164.28 575.301 159.928C573.936 155.576 573.253 150.712 573.253 145.336C573.253 140.045 573.936 135.267 575.301 131C576.666 126.648 578.672 122.936 581.317 119.864C584.048 116.792 587.376 114.445 591.301 112.824C595.226 111.117 599.706 110.264 604.741 110.264C610.288 110.264 615.024 111.203 618.949 113.08C622.96 114.957 626.202 117.475 628.677 120.632C631.237 123.789 633.072 127.459 634.181 131.64C635.376 135.736 635.973 140.045 635.973 144.568V150.2H592.837V151.224C592.837 155.661 594.032 159.203 596.421 161.848C598.81 164.408 602.565 165.688 607.685 165.688C611.61 165.688 614.81 164.92 617.285 163.384C619.76 161.763 622.064 159.843 624.197 157.624L633.669 169.4C630.682 172.899 626.757 175.629 621.893 177.592C617.114 179.555 611.653 180.536 605.509 180.536ZM605.125 124.216C601.285 124.216 598.256 125.496 596.037 128.056C593.904 130.531 592.837 133.859 592.837 138.04V139.064H616.389V137.912C616.389 133.816 615.45 130.531 613.573 128.056C611.781 125.496 608.965 124.216 605.125 124.216ZM685.448 167.736H684.808C684.296 169.528 683.485 171.235 682.376 172.856C681.267 174.392 679.901 175.757 678.28 176.952C676.744 178.061 674.952 178.915 672.904 179.512C670.941 180.195 668.893 180.536 666.76 180.536C658.227 180.536 651.784 177.549 647.432 171.576C643.08 165.517 640.904 156.771 640.904 145.336C640.904 133.901 643.08 125.197 647.432 119.224C651.784 113.251 658.227 110.264 666.76 110.264C671.112 110.264 674.952 111.459 678.28 113.848C681.693 116.237 683.869 119.309 684.808 123.064H685.448V84.28H704.392V179H685.448V167.736ZM673.032 165.176C676.616 165.176 679.56 164.323 681.864 162.616C684.253 160.824 685.448 158.392 685.448 155.32V135.48C685.448 132.408 684.253 130.019 681.864 128.312C679.56 126.52 676.616 125.624 673.032 125.624C669.448 125.624 666.461 126.904 664.072 129.464C661.768 131.939 660.616 135.309 660.616 139.576V151.224C660.616 155.491 661.768 158.904 664.072 161.464C666.461 163.939 669.448 165.176 673.032 165.176ZM716.987 179V111.8H735.931V126.392H736.571C736.912 124.515 737.51 122.723 738.363 121.016C739.216 119.224 740.326 117.645 741.691 116.28C743.142 114.915 744.848 113.848 746.811 113.08C748.774 112.227 751.078 111.8 753.723 111.8H757.051V129.464H752.315C746.768 129.464 742.63 130.189 739.899 131.64C737.254 133.091 735.931 135.779 735.931 139.704V179H716.987ZM773.089 104.632C769.249 104.632 766.433 103.779 764.641 102.072C762.934 100.28 762.081 98.0187 762.081 95.288V92.472C762.081 89.7413 762.934 87.5227 764.641 85.816C766.433 84.024 769.249 83.128 773.089 83.128C776.929 83.128 779.702 84.024 781.409 85.816C783.201 87.5227 784.097 89.7413 784.097 92.472V95.288C784.097 98.0187 783.201 100.28 781.409 102.072C779.702 103.779 776.929 104.632 773.089 104.632ZM763.617 111.8H782.561V179H763.617V111.8ZM809.458 179L787.442 111.8H806.13L814.45 138.936L820.722 163.256H821.746L828.018 138.936L836.082 111.8H854.002L831.986 179H809.458ZM885.909 180.536C880.789 180.536 876.224 179.725 872.213 178.104C868.202 176.397 864.789 174.051 861.973 171.064C859.242 167.992 857.152 164.28 855.701 159.928C854.336 155.576 853.653 150.712 853.653 145.336C853.653 140.045 854.336 135.267 855.701 131C857.066 126.648 859.072 122.936 861.717 119.864C864.448 116.792 867.776 114.445 871.701 112.824C875.626 111.117 880.106 110.264 885.141 110.264C890.688 110.264 895.424 111.203 899.349 113.08C903.36 114.957 906.602 117.475 909.077 120.632C911.637 123.789 913.472 127.459 914.581 131.64C915.776 135.736 916.373 140.045 916.373 144.568V150.2H873.237V151.224C873.237 155.661 874.432 159.203 876.821 161.848C879.21 164.408 882.965 165.688 888.085 165.688C892.01 165.688 895.21 164.92 897.685 163.384C900.16 161.763 902.464 159.843 904.597 157.624L914.069 169.4C911.082 172.899 907.157 175.629 902.293 177.592C897.514 179.555 892.053 180.536 885.909 180.536ZM885.525 124.216C881.685 124.216 878.656 125.496 876.437 128.056C874.304 130.531 873.237 133.859 873.237 138.04V139.064H896.789V137.912C896.789 133.816 895.85 130.531 893.973 128.056C892.181 125.496 889.365 124.216 885.525 124.216Z" fill="white"/>
<defs>
<filter id="filter0_d_1626_2149" x="2.33328" y="36.1324" width="225.622" height="225.622" filterUnits="userSpaceOnUse" color-interpolation-filters="sRGB">
<feFlood flood-opacity="0" result="BackgroundImageFix"/>
<feColorMatrix in="SourceAlpha" type="matrix" values="0 0 0 0 0 0 0 0 0 0 0 0 0 0 0 0 0 0 127 0" result="hardAlpha"/>
<feOffset dx="-14.8556" dy="14.8556"/>
<feGaussianBlur stdDeviation="24.4056"/>
<feColorMatrix type="matrix" values="0 0 0 0 0.373333 0 0 0 0 0.0784314 0 0 0 0 1 0 0 0 0.51 0"/>
<feBlend mode="normal" in2="BackgroundImageFix" result="effect1_dropShadow_1626_2149"/>
<feBlend mode="normal" in="SourceGraphic" in2="effect1_dropShadow_1626_2149" result="shape"/>
</filter>
<filter id="filter1_iii_1626_2149" x="54.6815" y="61.5991" width="153.113" height="148.515" filterUnits="userSpaceOnUse" color-interpolation-filters="sRGB">
<feFlood flood-opacity="0" result="BackgroundImageFix"/>
<feBlend mode="normal" in="SourceGraphic" in2="BackgroundImageFix" result="shape"/>
<feColorMatrix in="SourceAlpha" type="matrix" values="0 0 0 0 0 0 0 0 0 0 0 0 0 0 0 0 0 0 127 0" result="hardAlpha"/>
<feMorphology radius="2.27181" operator="erode" in="SourceAlpha" result="effect1_innerShadow_1626_2149"/>
<feOffset dx="-11.3185" dy="12.0259"/>
<feGaussianBlur stdDeviation="22.6371"/>
<feComposite in2="hardAlpha" operator="arithmetic" k2="-1" k3="1"/>
<feColorMatrix type="matrix" values="0 0 0 0 0.9908 0 0 0 0 0.9292 0 0 0 0 0.953835 0 0 0 1 0"/>
<feBlend mode="overlay" in2="shape" result="effect1_innerShadow_1626_2149"/>
<feColorMatrix in="SourceAlpha" type="matrix" values="0 0 0 0 0 0 0 0 0 0 0 0 0 0 0 0 0 0 127 0" result="hardAlpha"/>
<feMorphology radius="4.47042" operator="erode" in="SourceAlpha" result="effect2_innerShadow_1626_2149"/>
<feOffset dx="-6.38632" dy="-3.83179"/>
<feGaussianBlur stdDeviation="15.5507"/>
<feComposite in2="hardAlpha" operator="arithmetic" k2="-1" k3="1"/>
<feColorMatrix type="matrix" values="0 0 0 0 0 0 0 0 0 0 0 0 0 0 0 0 0 0 1 0"/>
<feBlend mode="soft-light" in2="effect1_innerShadow_1626_2149" result="effect2_innerShadow_1626_2149"/>
<feColorMatrix in="SourceAlpha" type="matrix" values="0 0 0 0 0 0 0 0 0 0 0 0 0 0 0 0 0 0 127 0" result="hardAlpha"/>
<feMorphology radius="5.85546" operator="dilate" in="SourceAlpha" result="effect3_innerShadow_1626_2149"/>
<feOffset dx="13.7945" dy="-8.48889"/>
<feGaussianBlur stdDeviation="15.8891"/>
<feComposite in2="hardAlpha" operator="arithmetic" k2="-1" k3="1"/>
<feColorMatrix type="matrix" values="0 0 0 0 0.316484 0 0 0 0 0 0 0 0 0 0.36 0 0 0 0.7 0"/>
<feBlend mode="luminosity" in2="effect2_innerShadow_1626_2149" result="effect3_innerShadow_1626_2149"/>
</filter>
<filter id="filter2_f_1626_2149" x="119.664" y="55.1772" width="91.0286" height="100.133" filterUnits="userSpaceOnUse" color-interpolation-filters="sRGB">
<feFlood flood-opacity="0" result="BackgroundImageFix"/>
<feBlend mode="normal" in="SourceGraphic" in2="BackgroundImageFix" result="shape"/>
<feGaussianBlur stdDeviation="10.6111" result="effect1_foregroundBlur_1626_2149"/>
</filter>
<filter id="filter3_f_1626_2149" x="24.5477" y="88.1065" width="193.486" height="151.434" filterUnits="userSpaceOnUse" color-interpolation-filters="sRGB">
<feFlood flood-opacity="0" result="BackgroundImageFix"/>
<feBlend mode="normal" in="SourceGraphic" in2="BackgroundImageFix" result="shape"/>
<feGaussianBlur stdDeviation="22.9908" result="effect1_foregroundBlur_1626_2149"/>
</filter>
<linearGradient id="paint0_linear_1626_2149" x1="121.905" y1="168.871" x2="178.19" y2="102.088" gradientUnits="userSpaceOnUse">
<stop stop-color="#4203FF"/>
<stop offset="0.22366" stop-color="#4E07F9"/>
<stop offset="0.728365" stop-color="#B521D1"/>
<stop offset="1" stop-color="#FF429F"/>
</linearGradient>
<radialGradient id="paint1_radial_1626_2149" cx="0" cy="0" r="1" gradientUnits="userSpaceOnUse" gradientTransform="translate(130 198) rotate(-5.85601) scale(156.818 122.001)">
<stop stop-color="#FF8AF3"/>
<stop offset="1" stop-color="#EC00FF" stop-opacity="0"/>
</radialGradient>
<radialGradient id="paint2_radial_1626_2149" cx="0" cy="0" r="1" gradientUnits="userSpaceOnUse" gradientTransform="translate(167.415 100.611) rotate(48.383) scale(28.3162 33.3694)">
<stop stop-color="#F9C7FF"/>
<stop offset="1" stop-color="#D69FBA" stop-opacity="0.3"/>
</radialGradient>
<radialGradient id="paint3_radial_1626_2149" cx="0" cy="0" r="1" gradientUnits="userSpaceOnUse" gradientTransform="translate(92.5846 167.565) rotate(-133.328) scale(114.509 40.4844)">
<stop stop-color="#37003D"/>
<stop offset="1" stop-color="#59263F" stop-opacity="0.3"/>
</radialGradient>
</defs>
</svg>
