<svg width="700" height="197" viewBox="0 0 700 197" fill="none" xmlns="http://www.w3.org/2000/svg">
<g filter="url(#filter0_d_1626_2321)">
<mask id="mask0_1626_2321" style="mask-type:alpha" maskUnits="userSpaceOnUse" x="36" y="33" width="128" height="129">
<circle cx="100" cy="97.088" r="64" fill="#D9D9D9"/>
</mask>
<g mask="url(#mask0_1626_2321)">
<g filter="url(#filter1_iii_1626_2321)">
<circle cx="100" cy="97.088" r="64" fill="url(#paint0_linear_1626_2321)"/>
<circle cx="100" cy="97.088" r="64" fill="url(#paint1_radial_1626_2321)"/>
</g>
<g opacity="0.9" filter="url(#filter2_f_1626_2321)">
<path d="M159.471 97.088C159.471 83.8297 155.04 70.9516 146.883 60.4995C138.726 50.0474 127.311 42.6207 114.45 39.3993L110.887 53.6244C120.576 56.0515 129.177 61.6469 135.323 69.5216C141.468 77.3964 144.806 87.099 144.806 97.088H159.471Z" fill="url(#paint2_radial_1626_2321)" style="mix-blend-mode:screen"/>
</g>
<g style="mix-blend-mode:luminosity" opacity="0.2" filter="url(#filter3_f_1626_2321)">
<path d="M40.5292 97.0881C40.5292 108.85 44.0171 120.348 50.5519 130.128C57.0866 139.908 66.3747 147.531 77.2415 152.032C88.1084 156.533 100.066 157.711 111.602 155.416C123.138 153.121 133.735 147.457 142.052 139.14L114.251 111.339C111.432 114.157 107.841 116.077 103.932 116.854C100.022 117.632 95.9702 117.233 92.2876 115.707C88.605 114.182 85.4575 111.599 83.243 108.285C81.0285 104.971 79.8465 101.074 79.8465 97.0881L40.5292 97.0881Z" fill="url(#paint3_radial_1626_2321)" style="mix-blend-mode:screen"/>
</g>
</g>
</g>
<path d="M226.295 53.8409C226.114 52.0076 225.333 50.5833 223.955 49.5682C222.576 48.553 220.705 48.0455 218.341 48.0455C216.735 48.0455 215.379 48.2727 214.273 48.7273C213.167 49.1667 212.318 49.7803 211.727 50.5682C211.152 51.3561 210.864 52.25 210.864 53.25C210.833 54.0833 211.008 54.8106 211.386 55.4318C211.78 56.053 212.318 56.5909 213 57.0455C213.682 57.4848 214.47 57.8712 215.364 58.2045C216.258 58.5227 217.212 58.7955 218.227 59.0227L222.409 60.0227C224.439 60.4773 226.303 61.0833 228 61.8409C229.697 62.5985 231.167 63.5303 232.409 64.6364C233.652 65.7424 234.614 67.0455 235.295 68.5455C235.992 70.0455 236.348 71.7652 236.364 73.7045C236.348 76.553 235.621 79.0227 234.182 81.1136C232.758 83.1894 230.697 84.803 228 85.9545C225.318 87.0909 222.083 87.6591 218.295 87.6591C214.538 87.6591 211.265 87.0833 208.477 85.9318C205.705 84.7803 203.538 83.0758 201.977 80.8182C200.432 78.5455 199.621 75.7348 199.545 72.3864H209.068C209.174 73.947 209.621 75.25 210.409 76.2955C211.212 77.3258 212.28 78.1061 213.614 78.6364C214.962 79.1515 216.485 79.4091 218.182 79.4091C219.848 79.4091 221.295 79.1667 222.523 78.6818C223.765 78.197 224.727 77.5227 225.409 76.6591C226.091 75.7955 226.432 74.803 226.432 73.6818C226.432 72.6364 226.121 71.7576 225.5 71.0455C224.894 70.3333 224 69.7273 222.818 69.2273C221.652 68.7273 220.22 68.2727 218.523 67.8636L213.455 66.5909C209.53 65.6364 206.432 64.1439 204.159 62.1136C201.886 60.0833 200.758 57.3485 200.773 53.9091C200.758 51.0909 201.508 48.6288 203.023 46.5227C204.553 44.4167 206.652 42.7727 209.318 41.5909C211.985 40.4091 215.015 39.8182 218.409 39.8182C221.864 39.8182 224.879 40.4091 227.455 41.5909C230.045 42.7727 232.061 44.4167 233.5 46.5227C234.939 48.6288 235.682 51.0682 235.727 53.8409H226.295ZM240.881 100.091V52.0909H250.427V57.9545H250.858C251.283 57.0152 251.896 56.0606 252.699 55.0909C253.518 54.1061 254.578 53.2879 255.881 52.6364C257.199 51.9697 258.836 51.6364 260.79 51.6364C263.336 51.6364 265.684 52.303 267.836 53.6364C269.987 54.9545 271.707 56.947 272.995 59.6136C274.283 62.2652 274.927 65.5909 274.927 69.5909C274.927 73.4848 274.298 76.7727 273.04 79.4545C271.798 82.1212 270.101 84.1439 267.949 85.5227C265.813 86.8864 263.419 87.5682 260.768 87.5682C258.889 87.5682 257.29 87.2576 255.972 86.6364C254.669 86.0152 253.601 85.2348 252.768 84.2955C251.934 83.3409 251.298 82.3788 250.858 81.4091H250.563V100.091H240.881ZM250.358 69.5455C250.358 71.6212 250.646 73.4318 251.222 74.9773C251.798 76.5227 252.631 77.7273 253.722 78.5909C254.813 79.4394 256.139 79.8636 257.699 79.8636C259.275 79.8636 260.608 79.4318 261.699 78.5682C262.79 77.6894 263.616 76.4773 264.177 74.9318C264.752 73.3712 265.04 71.5758 265.04 69.5455C265.04 67.5303 264.76 65.7576 264.199 64.2273C263.639 62.697 262.813 61.5 261.722 60.6364C260.631 59.7727 259.29 59.3409 257.699 59.3409C256.124 59.3409 254.79 59.7576 253.699 60.5909C252.624 61.4242 251.798 62.6061 251.222 64.1364C250.646 65.6667 250.358 67.4697 250.358 69.5455ZM289.416 87.6591C287.188 87.6591 285.204 87.2727 283.461 86.5C281.719 85.7121 280.34 84.553 279.325 83.0227C278.325 81.4773 277.825 79.553 277.825 77.25C277.825 75.3106 278.181 73.6818 278.893 72.3636C279.605 71.0455 280.575 69.9848 281.802 69.1818C283.029 68.3788 284.423 67.7727 285.984 67.3636C287.56 66.9545 289.211 66.6667 290.938 66.5C292.969 66.2879 294.605 66.0909 295.848 65.9091C297.09 65.7121 297.991 65.4242 298.552 65.0455C299.113 64.6667 299.393 64.1061 299.393 63.3636V63.2273C299.393 61.7879 298.938 60.6742 298.029 59.8864C297.135 59.0985 295.863 58.7045 294.211 58.7045C292.469 58.7045 291.082 59.0909 290.052 59.8636C289.022 60.6212 288.34 61.5758 288.007 62.7273L279.052 62C279.507 59.8788 280.401 58.0455 281.734 56.5C283.067 54.9394 284.787 53.7424 286.893 52.9091C289.014 52.0606 291.469 51.6364 294.257 51.6364C296.196 51.6364 298.052 51.8636 299.825 52.3182C301.613 52.7727 303.196 53.4773 304.575 54.4318C305.969 55.3864 307.067 56.6136 307.87 58.1136C308.673 59.5985 309.075 61.3788 309.075 63.4545V87H299.893V82.1591H299.62C299.06 83.25 298.31 84.2121 297.37 85.0455C296.431 85.8636 295.302 86.5076 293.984 86.9773C292.666 87.4318 291.143 87.6591 289.416 87.6591ZM292.188 80.9773C293.613 80.9773 294.87 80.697 295.961 80.1364C297.052 79.5606 297.908 78.7879 298.529 77.8182C299.151 76.8485 299.461 75.75 299.461 74.5227V70.8182C299.158 71.0152 298.741 71.197 298.211 71.3636C297.696 71.5152 297.113 71.6591 296.461 71.7955C295.81 71.9167 295.158 72.0303 294.507 72.1364C293.855 72.2273 293.264 72.3106 292.734 72.3864C291.598 72.553 290.605 72.8182 289.757 73.1818C288.908 73.5455 288.249 74.0379 287.779 74.6591C287.31 75.2652 287.075 76.0227 287.075 76.9318C287.075 78.25 287.552 79.2576 288.507 79.9545C289.476 80.6364 290.704 80.9773 292.188 80.9773ZM330.439 87.6818C326.863 87.6818 323.787 86.9242 321.212 85.4091C318.651 83.8788 316.681 81.7576 315.302 79.0455C313.939 76.3333 313.257 73.2121 313.257 69.6818C313.257 66.1061 313.946 62.9697 315.325 60.2727C316.719 57.5606 318.696 55.447 321.257 53.9318C323.818 52.4015 326.863 51.6364 330.393 51.6364C333.439 51.6364 336.106 52.1894 338.393 53.2955C340.681 54.4015 342.492 55.9545 343.825 57.9545C345.159 59.9545 345.893 62.303 346.03 65H336.893C336.636 63.2576 335.954 61.8561 334.848 60.7955C333.757 59.7197 332.325 59.1818 330.552 59.1818C329.052 59.1818 327.742 59.5909 326.621 60.4091C325.515 61.2121 324.651 62.3864 324.03 63.9318C323.409 65.4773 323.098 67.3485 323.098 69.5455C323.098 71.7727 323.401 73.6667 324.007 75.2273C324.628 76.7879 325.499 77.9773 326.621 78.7955C327.742 79.6136 329.052 80.0227 330.552 80.0227C331.659 80.0227 332.651 79.7955 333.53 79.3409C334.424 78.8864 335.159 78.2273 335.734 77.3636C336.325 76.4848 336.712 75.4318 336.893 74.2045H346.03C345.878 76.8712 345.151 79.2197 343.848 81.25C342.56 83.2652 340.78 84.8409 338.507 85.9773C336.234 87.1136 333.545 87.6818 330.439 87.6818ZM366.218 87.6818C362.627 87.6818 359.536 86.9545 356.945 85.5C354.369 84.0303 352.384 81.9545 350.99 79.2727C349.597 76.5758 348.9 73.3864 348.9 69.7045C348.9 66.1136 349.597 62.9621 350.99 60.25C352.384 57.5379 354.347 55.4242 356.877 53.9091C359.422 52.3939 362.407 51.6364 365.831 51.6364C368.134 51.6364 370.278 52.0076 372.263 52.75C374.263 53.4773 376.006 54.5758 377.49 56.0455C378.99 57.5152 380.157 59.3636 380.99 61.5909C381.824 63.803 382.24 66.3939 382.24 69.3636V72.0227H352.763V66.0227H373.127C373.127 64.6288 372.824 63.3939 372.218 62.3182C371.612 61.2424 370.771 60.4015 369.695 59.7955C368.634 59.1742 367.4 58.8636 365.99 58.8636C364.521 58.8636 363.218 59.2045 362.081 59.8864C360.96 60.553 360.081 61.4545 359.445 62.5909C358.809 63.7121 358.483 64.9621 358.468 66.3409V72.0455C358.468 73.7727 358.786 75.2652 359.422 76.5227C360.074 77.7803 360.99 78.75 362.172 79.4318C363.354 80.1136 364.756 80.4545 366.377 80.4545C367.453 80.4545 368.437 80.303 369.331 80C370.225 79.697 370.99 79.2424 371.627 78.6364C372.263 78.0303 372.748 77.2879 373.081 76.4091L382.036 77C381.581 79.1515 380.65 81.0303 379.24 82.6364C377.847 84.2273 376.043 85.4697 373.831 86.3636C371.634 87.2424 369.097 87.6818 366.218 87.6818ZM399.502 87.5682C396.851 87.5682 394.449 86.8864 392.298 85.5227C390.161 84.1439 388.464 82.1212 387.207 79.4545C385.964 76.7727 385.343 73.4848 385.343 69.5909C385.343 65.5909 385.987 62.2652 387.275 59.6136C388.563 56.947 390.275 54.9545 392.411 53.6364C394.563 52.303 396.919 51.6364 399.48 51.6364C401.434 51.6364 403.063 51.9697 404.366 52.6364C405.684 53.2879 406.745 54.1061 407.548 55.0909C408.366 56.0606 408.987 57.0152 409.411 57.9545H409.707V40.4545H419.366V87H409.82V81.4091H409.411C408.957 82.3788 408.313 83.3409 407.48 84.2955C406.661 85.2348 405.593 86.0152 404.275 86.6364C402.972 87.2576 401.381 87.5682 399.502 87.5682ZM402.57 79.8636C404.131 79.8636 405.449 79.4394 406.525 78.5909C407.616 77.7273 408.449 76.5227 409.025 74.9773C409.616 73.4318 409.911 71.6212 409.911 69.5455C409.911 67.4697 409.623 65.6667 409.048 64.1364C408.472 62.6061 407.639 61.4242 406.548 60.5909C405.457 59.7576 404.131 59.3409 402.57 59.3409C400.98 59.3409 399.639 59.7727 398.548 60.6364C397.457 61.5 396.631 62.697 396.07 64.2273C395.51 65.7576 395.23 67.5303 395.23 69.5455C395.23 71.5758 395.51 73.3712 396.07 74.9318C396.646 76.4773 397.472 77.6894 398.548 78.5682C399.639 79.4318 400.98 79.8636 402.57 79.8636ZM425.406 87V52.0909H434.792V58.1818H435.156C435.792 56.0152 436.861 54.3788 438.361 53.2727C439.861 52.1515 441.588 51.5909 443.542 51.5909C444.027 51.5909 444.55 51.6212 445.111 51.6818C445.671 51.7424 446.164 51.8258 446.588 51.9318V60.5227C446.133 60.3864 445.505 60.2652 444.702 60.1591C443.899 60.053 443.164 60 442.497 60C441.073 60 439.8 60.3106 438.679 60.9318C437.573 61.5379 436.694 62.3864 436.042 63.4773C435.406 64.5682 435.088 65.8258 435.088 67.25V87H425.406ZM449.674 87V52.0909H459.355V87H449.674ZM454.537 47.5909C453.098 47.5909 451.863 47.1136 450.833 46.1591C449.818 45.1894 449.31 44.0303 449.31 42.6818C449.31 41.3485 449.818 40.2045 450.833 39.25C451.863 38.2803 453.098 37.7955 454.537 37.7955C455.977 37.7955 457.204 38.2803 458.219 39.25C459.249 40.2045 459.765 41.3485 459.765 42.6818C459.765 44.0303 459.249 45.1894 458.219 46.1591C457.204 47.1136 455.977 47.5909 454.537 47.5909ZM497.737 52.0909L485.532 87H474.623L462.418 52.0909H472.646L479.896 77.0682H480.259L487.487 52.0909H497.737ZM515.555 87.6818C511.964 87.6818 508.873 86.9545 506.283 85.5C503.707 84.0303 501.722 81.9545 500.328 79.2727C498.934 76.5758 498.237 73.3864 498.237 69.7045C498.237 66.1136 498.934 62.9621 500.328 60.25C501.722 57.5379 503.684 55.4242 506.214 53.9091C508.76 52.3939 511.745 51.6364 515.169 51.6364C517.472 51.6364 519.616 52.0076 521.601 52.75C523.601 53.4773 525.343 54.5758 526.828 56.0455C528.328 57.5152 529.495 59.3636 530.328 61.5909C531.161 63.803 531.578 66.3939 531.578 69.3636V72.0227H502.101V66.0227H522.464C522.464 64.6288 522.161 63.3939 521.555 62.3182C520.949 61.2424 520.108 60.4015 519.033 59.7955C517.972 59.1742 516.737 58.8636 515.328 58.8636C513.858 58.8636 512.555 59.2045 511.419 59.8864C510.298 60.553 509.419 61.4545 508.783 62.5909C508.146 63.7121 507.82 64.9621 507.805 66.3409V72.0455C507.805 73.7727 508.123 75.2652 508.76 76.5227C509.411 77.7803 510.328 78.75 511.51 79.4318C512.692 80.1136 514.093 80.4545 515.714 80.4545C516.79 80.4545 517.775 80.303 518.669 80C519.563 79.697 520.328 79.2424 520.964 78.6364C521.601 78.0303 522.086 77.2879 522.419 76.4091L531.373 77C530.919 79.1515 529.987 81.0303 528.578 82.6364C527.184 84.2273 525.381 85.4697 523.169 86.3636C520.972 87.2424 518.434 87.6818 515.555 87.6818ZM199.273 115.568V107.455H237.5V115.568H223.25V154H213.523V115.568H199.273ZM252.54 154.682C248.949 154.682 245.858 153.955 243.268 152.5C240.692 151.03 238.707 148.955 237.313 146.273C235.919 143.576 235.222 140.386 235.222 136.705C235.222 133.114 235.919 129.962 237.313 127.25C238.707 124.538 240.669 122.424 243.199 120.909C245.745 119.394 248.73 118.636 252.154 118.636C254.457 118.636 256.601 119.008 258.586 119.75C260.586 120.477 262.328 121.576 263.813 123.045C265.313 124.515 266.48 126.364 267.313 128.591C268.146 130.803 268.563 133.394 268.563 136.364V139.023H239.086V133.023H259.449C259.449 131.629 259.146 130.394 258.54 129.318C257.934 128.242 257.093 127.402 256.018 126.795C254.957 126.174 253.722 125.864 252.313 125.864C250.843 125.864 249.54 126.205 248.404 126.886C247.283 127.553 246.404 128.455 245.768 129.591C245.131 130.712 244.805 131.962 244.79 133.341V139.045C244.79 140.773 245.108 142.265 245.745 143.523C246.396 144.78 247.313 145.75 248.495 146.432C249.677 147.114 251.078 147.455 252.699 147.455C253.775 147.455 254.76 147.303 255.654 147C256.548 146.697 257.313 146.242 257.949 145.636C258.586 145.03 259.071 144.288 259.404 143.409L268.358 144C267.904 146.152 266.972 148.03 265.563 149.636C264.169 151.227 262.366 152.47 260.154 153.364C257.957 154.242 255.419 154.682 252.54 154.682ZM288.734 154.682C285.158 154.682 282.082 153.924 279.507 152.409C276.946 150.879 274.976 148.758 273.598 146.045C272.234 143.333 271.552 140.212 271.552 136.682C271.552 133.106 272.241 129.97 273.62 127.273C275.014 124.561 276.991 122.447 279.552 120.932C282.113 119.402 285.158 118.636 288.688 118.636C291.734 118.636 294.401 119.189 296.688 120.295C298.976 121.402 300.787 122.955 302.12 124.955C303.454 126.955 304.188 129.303 304.325 132H295.188C294.931 130.258 294.249 128.856 293.143 127.795C292.052 126.72 290.62 126.182 288.848 126.182C287.348 126.182 286.037 126.591 284.916 127.409C283.81 128.212 282.946 129.386 282.325 130.932C281.704 132.477 281.393 134.348 281.393 136.545C281.393 138.773 281.696 140.667 282.302 142.227C282.923 143.788 283.794 144.977 284.916 145.795C286.037 146.614 287.348 147.023 288.848 147.023C289.954 147.023 290.946 146.795 291.825 146.341C292.719 145.886 293.454 145.227 294.029 144.364C294.62 143.485 295.007 142.432 295.188 141.205H304.325C304.173 143.871 303.446 146.22 302.143 148.25C300.855 150.265 299.075 151.841 296.802 152.977C294.529 154.114 291.84 154.682 288.734 154.682ZM318.285 133.818V154H308.604V107.455H318.013V125.25H318.422C319.21 123.189 320.482 121.576 322.24 120.409C323.998 119.227 326.202 118.636 328.854 118.636C331.278 118.636 333.392 119.167 335.195 120.227C337.013 121.273 338.422 122.78 339.422 124.75C340.437 126.705 340.937 129.045 340.922 131.773V154H331.24V133.5C331.255 131.348 330.71 129.674 329.604 128.477C328.513 127.28 326.982 126.682 325.013 126.682C323.695 126.682 322.528 126.962 321.513 127.523C320.513 128.083 319.725 128.902 319.149 129.977C318.588 131.038 318.301 132.318 318.285 133.818ZM356.303 133.818V154H346.621V119.091H355.848V125.25H356.258C357.03 123.22 358.326 121.614 360.144 120.432C361.962 119.235 364.167 118.636 366.758 118.636C369.182 118.636 371.295 119.167 373.098 120.227C374.901 121.288 376.303 122.803 377.303 124.773C378.303 126.727 378.803 129.061 378.803 131.773V154H369.121V133.5C369.136 131.364 368.591 129.697 367.485 128.5C366.379 127.288 364.856 126.682 362.917 126.682C361.614 126.682 360.462 126.962 359.462 127.523C358.477 128.083 357.704 128.902 357.144 129.977C356.598 131.038 356.318 132.318 356.303 133.818ZM400.286 154.682C396.756 154.682 393.703 153.932 391.127 152.432C388.567 150.917 386.589 148.811 385.195 146.114C383.802 143.402 383.105 140.258 383.105 136.682C383.105 133.076 383.802 129.924 385.195 127.227C386.589 124.515 388.567 122.409 391.127 120.909C393.703 119.394 396.756 118.636 400.286 118.636C403.817 118.636 406.862 119.394 409.423 120.909C411.998 122.409 413.983 124.515 415.377 127.227C416.771 129.924 417.468 133.076 417.468 136.682C417.468 140.258 416.771 143.402 415.377 146.114C413.983 148.811 411.998 150.917 409.423 152.432C406.862 153.932 403.817 154.682 400.286 154.682ZM400.332 147.182C401.938 147.182 403.279 146.727 404.355 145.818C405.43 144.894 406.241 143.636 406.786 142.045C407.347 140.455 407.627 138.644 407.627 136.614C407.627 134.583 407.347 132.773 406.786 131.182C406.241 129.591 405.43 128.333 404.355 127.409C403.279 126.485 401.938 126.023 400.332 126.023C398.711 126.023 397.347 126.485 396.241 127.409C395.15 128.333 394.324 129.591 393.764 131.182C393.218 132.773 392.945 134.583 392.945 136.614C392.945 138.644 393.218 140.455 393.764 142.045C394.324 143.636 395.15 144.894 396.241 145.818C397.347 146.727 398.711 147.182 400.332 147.182ZM431.525 107.455V154H421.844V107.455H431.525ZM453.134 154.682C449.604 154.682 446.551 153.932 443.975 152.432C441.414 150.917 439.437 148.811 438.043 146.114C436.649 143.402 435.952 140.258 435.952 136.682C435.952 133.076 436.649 129.924 438.043 127.227C439.437 124.515 441.414 122.409 443.975 120.909C446.551 119.394 449.604 118.636 453.134 118.636C456.664 118.636 459.71 119.394 462.27 120.909C464.846 122.409 466.831 124.515 468.225 127.227C469.619 129.924 470.316 133.076 470.316 136.682C470.316 140.258 469.619 143.402 468.225 146.114C466.831 148.811 464.846 150.917 462.27 152.432C459.71 153.932 456.664 154.682 453.134 154.682ZM453.179 147.182C454.785 147.182 456.126 146.727 457.202 145.818C458.278 144.894 459.088 143.636 459.634 142.045C460.194 140.455 460.475 138.644 460.475 136.614C460.475 134.583 460.194 132.773 459.634 131.182C459.088 129.591 458.278 128.333 457.202 127.409C456.126 126.485 454.785 126.023 453.179 126.023C451.558 126.023 450.194 126.485 449.088 127.409C447.997 128.333 447.172 129.591 446.611 131.182C446.066 132.773 445.793 134.583 445.793 136.614C445.793 138.644 446.066 140.455 446.611 142.045C447.172 143.636 447.997 144.894 449.088 145.818C450.194 146.727 451.558 147.182 453.179 147.182ZM490.418 167.818C487.282 167.818 484.593 167.386 482.35 166.523C480.123 165.674 478.35 164.515 477.032 163.045C475.714 161.576 474.858 159.924 474.464 158.091L483.418 156.886C483.691 157.583 484.123 158.235 484.714 158.841C485.305 159.447 486.085 159.932 487.055 160.295C488.04 160.674 489.237 160.864 490.646 160.864C492.752 160.864 494.487 160.348 495.85 159.318C497.229 158.303 497.918 156.598 497.918 154.205V147.818H497.509C497.085 148.788 496.449 149.705 495.6 150.568C494.752 151.432 493.661 152.136 492.328 152.682C490.994 153.227 489.403 153.5 487.555 153.5C484.934 153.5 482.547 152.894 480.396 151.682C478.259 150.455 476.555 148.583 475.282 146.068C474.024 143.538 473.396 140.341 473.396 136.477C473.396 132.523 474.04 129.22 475.328 126.568C476.615 123.917 478.328 121.932 480.464 120.614C482.615 119.295 484.971 118.636 487.532 118.636C489.487 118.636 491.123 118.97 492.441 119.636C493.759 120.288 494.82 121.106 495.623 122.091C496.441 123.061 497.07 124.015 497.509 124.955H497.873V119.091H507.487V154.341C507.487 157.311 506.759 159.795 505.305 161.795C503.85 163.795 501.835 165.295 499.259 166.295C496.699 167.311 493.752 167.818 490.418 167.818ZM490.623 146.227C492.184 146.227 493.502 145.841 494.578 145.068C495.668 144.28 496.502 143.159 497.078 141.705C497.668 140.235 497.964 138.477 497.964 136.432C497.964 134.386 497.676 132.614 497.1 131.114C496.524 129.598 495.691 128.424 494.6 127.591C493.509 126.758 492.184 126.341 490.623 126.341C489.032 126.341 487.691 126.773 486.6 127.636C485.509 128.485 484.684 129.667 484.123 131.182C483.562 132.697 483.282 134.447 483.282 136.432C483.282 138.447 483.562 140.189 484.123 141.659C484.699 143.114 485.524 144.242 486.6 145.045C487.691 145.833 489.032 146.227 490.623 146.227ZM519.248 167.091C518.021 167.091 516.87 166.992 515.794 166.795C514.733 166.614 513.854 166.379 513.158 166.091L515.339 158.864C516.476 159.212 517.498 159.402 518.408 159.432C519.332 159.462 520.127 159.25 520.794 158.795C521.476 158.341 522.029 157.568 522.453 156.477L523.021 155L510.498 119.091H520.68L527.908 144.727H528.271L535.567 119.091H545.817L532.248 157.773C531.597 159.652 530.711 161.288 529.589 162.682C528.483 164.091 527.082 165.174 525.385 165.932C523.688 166.705 521.642 167.091 519.248 167.091ZM571.766 107.455V154H561.925V107.455H571.766ZM587.443 133.818V154H577.761V119.091H586.988V125.25H587.397C588.17 123.22 589.466 121.614 591.284 120.432C593.102 119.235 595.307 118.636 597.897 118.636C600.322 118.636 602.435 119.167 604.238 120.227C606.041 121.288 607.443 122.803 608.443 124.773C609.443 126.727 609.943 129.061 609.943 131.773V154H600.261V133.5C600.276 131.364 599.731 129.697 598.625 128.5C597.519 127.288 595.996 126.682 594.057 126.682C592.754 126.682 591.602 126.962 590.602 127.523C589.617 128.083 588.844 128.902 588.284 129.977C587.738 131.038 587.458 132.318 587.443 133.818ZM631.426 154.682C627.851 154.682 624.775 153.924 622.199 152.409C619.638 150.879 617.669 148.758 616.29 146.045C614.926 143.333 614.245 140.212 614.245 136.682C614.245 133.106 614.934 129.97 616.313 127.273C617.707 124.561 619.684 122.447 622.245 120.932C624.805 119.402 627.851 118.636 631.381 118.636C634.426 118.636 637.093 119.189 639.381 120.295C641.669 121.402 643.479 122.955 644.813 124.955C646.146 126.955 646.881 129.303 647.017 132H637.881C637.623 130.258 636.942 128.856 635.835 127.795C634.745 126.72 633.313 126.182 631.54 126.182C630.04 126.182 628.729 126.591 627.608 127.409C626.502 128.212 625.638 129.386 625.017 130.932C624.396 132.477 624.085 134.348 624.085 136.545C624.085 138.773 624.388 140.667 624.995 142.227C625.616 143.788 626.487 144.977 627.608 145.795C628.729 146.614 630.04 147.023 631.54 147.023C632.646 147.023 633.638 146.795 634.517 146.341C635.411 145.886 636.146 145.227 636.722 144.364C637.313 143.485 637.699 142.432 637.881 141.205H647.017C646.866 143.871 646.138 146.22 644.835 148.25C643.548 150.265 641.767 151.841 639.495 152.977C637.222 154.114 634.532 154.682 631.426 154.682ZM656.955 154.591C655.455 154.591 654.167 154.061 653.092 153C652.031 151.924 651.501 150.636 651.501 149.136C651.501 147.652 652.031 146.379 653.092 145.318C654.167 144.258 655.455 143.727 656.955 143.727C658.41 143.727 659.682 144.258 660.773 145.318C661.864 146.379 662.41 147.652 662.41 149.136C662.41 150.136 662.152 151.053 661.637 151.886C661.137 152.705 660.478 153.364 659.66 153.864C658.842 154.348 657.94 154.591 656.955 154.591Z" fill="white"/>
<defs>
<filter id="filter0_d_1626_2321" x="0.553837" y="14.1834" width="182.351" height="182.351" filterUnits="userSpaceOnUse" color-interpolation-filters="sRGB">
<feFlood flood-opacity="0" result="BackgroundImageFix"/>
<feColorMatrix in="SourceAlpha" type="matrix" values="0 0 0 0 0 0 0 0 0 0 0 0 0 0 0 0 0 0 127 0" result="hardAlpha"/>
<feOffset dx="-8.27077" dy="8.27077"/>
<feGaussianBlur stdDeviation="13.5877"/>
<feColorMatrix type="matrix" values="0 0 0 0 0.373333 0 0 0 0 0.0784314 0 0 0 0 1 0 0 0 0.33 0"/>
<feBlend mode="normal" in2="BackgroundImageFix" result="effect1_dropShadow_1626_2321"/>
<feBlend mode="normal" in="SourceGraphic" in2="effect1_dropShadow_1626_2321" result="shape"/>
</filter>
<filter id="filter1_iii_1626_2321" x="29.6985" y="28.3619" width="141.982" height="139.422" filterUnits="userSpaceOnUse" color-interpolation-filters="sRGB">
<feFlood flood-opacity="0" result="BackgroundImageFix"/>
<feBlend mode="normal" in="SourceGraphic" in2="BackgroundImageFix" result="shape"/>
<feColorMatrix in="SourceAlpha" type="matrix" values="0 0 0 0 0 0 0 0 0 0 0 0 0 0 0 0 0 0 127 0" result="hardAlpha"/>
<feMorphology radius="1.26482" operator="erode" in="SourceAlpha" result="effect1_innerShadow_1626_2321"/>
<feOffset dx="-6.30154" dy="6.69539"/>
<feGaussianBlur stdDeviation="12.6031"/>
<feComposite in2="hardAlpha" operator="arithmetic" k2="-1" k3="1"/>
<feColorMatrix type="matrix" values="0 0 0 0 0.9908 0 0 0 0 0.9292 0 0 0 0 0.953835 0 0 0 1 0"/>
<feBlend mode="overlay" in2="shape" result="effect1_innerShadow_1626_2321"/>
<feColorMatrix in="SourceAlpha" type="matrix" values="0 0 0 0 0 0 0 0 0 0 0 0 0 0 0 0 0 0 127 0" result="hardAlpha"/>
<feMorphology radius="2.48889" operator="erode" in="SourceAlpha" result="effect2_innerShadow_1626_2321"/>
<feOffset dx="-3.55556" dy="-2.13333"/>
<feGaussianBlur stdDeviation="8.65778"/>
<feComposite in2="hardAlpha" operator="arithmetic" k2="-1" k3="1"/>
<feColorMatrix type="matrix" values="0 0 0 0 0 0 0 0 0 0 0 0 0 0 0 0 0 0 1 0"/>
<feBlend mode="soft-light" in2="effect1_innerShadow_1626_2321" result="effect2_innerShadow_1626_2321"/>
<feColorMatrix in="SourceAlpha" type="matrix" values="0 0 0 0 0 0 0 0 0 0 0 0 0 0 0 0 0 0 127 0" result="hardAlpha"/>
<feMorphology radius="3.26" operator="dilate" in="SourceAlpha" result="effect3_innerShadow_1626_2321"/>
<feOffset dx="7.68" dy="-4.72615"/>
<feGaussianBlur stdDeviation="8.84617"/>
<feComposite in2="hardAlpha" operator="arithmetic" k2="-1" k3="1"/>
<feColorMatrix type="matrix" values="0 0 0 0 0.316484 0 0 0 0 0 0 0 0 0 0.36 0 0 0 0.7 0"/>
<feBlend mode="luminosity" in2="effect2_innerShadow_1626_2321" result="effect3_innerShadow_1626_2321"/>
</filter>
<filter id="filter2_f_1626_2321" x="99.0713" y="27.5839" width="72.2148" height="81.3195" filterUnits="userSpaceOnUse" color-interpolation-filters="sRGB">
<feFlood flood-opacity="0" result="BackgroundImageFix"/>
<feBlend mode="normal" in="SourceGraphic" in2="BackgroundImageFix" result="shape"/>
<feGaussianBlur stdDeviation="5.90769" result="effect1_foregroundBlur_1626_2321"/>
</filter>
<filter id="filter3_f_1626_2321" x="14.9292" y="71.488" width="152.723" height="110.671" filterUnits="userSpaceOnUse" color-interpolation-filters="sRGB">
<feFlood flood-opacity="0" result="BackgroundImageFix"/>
<feBlend mode="normal" in="SourceGraphic" in2="BackgroundImageFix" result="shape"/>
<feGaussianBlur stdDeviation="12.8" result="effect1_foregroundBlur_1626_2321"/>
</filter>
<linearGradient id="paint0_linear_1626_2321" x1="91.9051" y1="131.871" x2="148.19" y2="65.088" gradientUnits="userSpaceOnUse">
<stop stop-color="#4203FF"/>
<stop offset="0.22366" stop-color="#4E07F9"/>
<stop offset="0.728365" stop-color="#B521D1"/>
<stop offset="1" stop-color="#FF429F"/>
</linearGradient>
<radialGradient id="paint1_radial_1626_2321" cx="0" cy="0" r="1" gradientUnits="userSpaceOnUse" gradientTransform="translate(100 161) rotate(-5.85601) scale(156.818 122.001)">
<stop stop-color="#FF8AF3"/>
<stop offset="1" stop-color="#EC00FF" stop-opacity="0"/>
</radialGradient>
<radialGradient id="paint2_radial_1626_2321" cx="0" cy="0" r="1" gradientUnits="userSpaceOnUse" gradientTransform="translate(137.415 63.611) rotate(48.383) scale(28.3162 33.3694)">
<stop stop-color="#F9C7FF"/>
<stop offset="1" stop-color="#D69FBA" stop-opacity="0.3"/>
</radialGradient>
<radialGradient id="paint3_radial_1626_2321" cx="0" cy="0" r="1" gradientUnits="userSpaceOnUse" gradientTransform="translate(62.5846 130.565) rotate(-133.328) scale(114.509 40.4844)">
<stop stop-color="#37003D"/>
<stop offset="1" stop-color="#59263F" stop-opacity="0.3"/>
</radialGradient>
</defs>
</svg>
