<svg width="537" height="144" viewBox="0 0 537 144" fill="none" xmlns="http://www.w3.org/2000/svg">
<path d="M339.5 72C339.5 111.8 307.3 144 267.5 144C227.7 144 195.5 111.8 195.5 72C195.5 32.2 227.7 0 267.5 0C307.3 0 339.5 32.2 339.5 72ZM464.5 0C424.7 0 392.5 32.2 392.5 72C392.5 111.8 424.7 144 464.5 144C504.3 144 536.5 111.8 536.5 72C536.5 32.2 504.3 0 464.5 0ZM72.5 0C32.7 0 0.5 32.2 0.5 72C0.5 111.8 32.7 144 72.5 144C112.3 144 144.5 111.8 144.5 72C144.5 32.2 112.3 0 72.5 0Z" fill="currentColor"/>
</svg>
