<svg width="89" height="88" viewBox="0 0 89 88" fill="none" xmlns="http://www.w3.org/2000/svg">
<mask id="mask0_41_276" style="mask-type:alpha" maskUnits="userSpaceOnUse" x="8" y="8" width="73" height="72">
<path d="M14.4602 23.1889L70.4601 8.18894C71.9925 7.79642 73.6176 8.02067 74.9864 8.81349C76.3551 9.60632 77.3582 10.9045 77.7802 12.4289L79.3002 18.2289C79.4398 18.7359 79.478 19.2653 79.4128 19.787C79.3476 20.3087 79.1802 20.8125 78.9202 21.2694C78.6601 21.7264 78.3125 22.1276 77.8973 22.4501C77.482 22.7726 77.0073 23.0101 76.5002 23.1489L23.2768 37.5234C23.8301 38.2512 24.2089 39.0951 24.3859 39.989H76.5C76.5522 39.989 76.6041 39.99 76.6558 39.992C77.5646 39.9556 78.4574 40.2532 79.1634 40.8314C79.9098 41.4427 80.3891 42.3197 80.5 43.2774V73.3992C80.2879 75.3186 79.332 77.0789 77.8369 78.3033C76.3417 79.5278 74.4262 80.1191 72.5 79.9509H18.5C16.1225 80.1673 13.7535 79.4562 11.8893 77.9668C10.0251 76.4773 8.81053 74.3251 8.5 71.961V43.989C8.5 43.5857 8.5597 43.1963 8.67073 42.8292C8.66469 42.8157 8.6588 42.8021 8.65306 42.7884C8.55207 42.548 8.50009 42.2898 8.50014 42.029V30.029C8.49694 29.7667 8.54868 29.5066 8.65201 29.2655C8.68574 29.1868 8.72473 29.1107 8.76864 29.0377C8.94588 28.3022 9.22807 27.5893 9.6122 26.9218C10.6697 25.0843 12.4134 23.7417 14.4602 23.1889Z" fill="#D9D9D9"/>
</mask>
<g mask="url(#mask0_41_276)">
<path d="M76.5001 40.5125H76.5206L76.541 40.5108C77.3739 40.4425 78.2007 40.7001 78.8467 41.2292C79.4856 41.7524 79.8982 42.5005 80.0001 43.3183V73.3822C79.7964 75.1611 78.9072 76.7915 77.5202 77.9275C76.1261 79.0692 74.3398 79.6207 72.5436 79.4638L72.5219 79.4619H72.5001H18.5001H18.4774L18.4548 79.464C16.2058 79.6686 13.9648 78.996 12.2015 77.5871C10.4467 76.185 9.30051 74.1621 9.00012 71.9389V48.5528C9.00012 44.1123 12.5999 40.5125 17.0405 40.5125H76.5001Z" fill="url(#paint0_linear_41_276)" stroke="url(#paint1_radial_41_276)"/>
<rect x="8.5" y="40.0001" width="72" height="12" fill="#D9D9D9"/>
<rect x="8.5" y="40.0001" width="72" height="12" fill="#21232F"/>
<mask id="mask1_41_276" style="mask-type:alpha" maskUnits="userSpaceOnUse" x="8" y="40" width="73" height="13">
<rect x="8.5" y="40.0001" width="72" height="12" fill="white"/>
</mask>
<g mask="url(#mask1_41_276)">
<g clip-path="url(#clip0_41_276)">
<path fill-rule="evenodd" clip-rule="evenodd" d="M65.6284 -1.18212L-0.48434 69.7152L-9.99194 60.8492L56.1208 -10.0481L65.6284 -1.18212Z" fill="white" fill-opacity="0.9"/>
<path fill-rule="evenodd" clip-rule="evenodd" d="M83.6905 15.661L17.5777 86.5583L8.07007 77.6923L74.1829 6.79504L83.6905 15.661Z" fill="white" fill-opacity="0.9"/>
<path fill-rule="evenodd" clip-rule="evenodd" d="M101.753 32.5042L35.6398 103.401L26.1322 94.5355L92.245 23.6382L101.753 32.5042Z" fill="white" fill-opacity="0.9"/>
</g>
</g>
<g filter="url(#filter0_i_41_276)">
<path d="M9.30407 32.8741L9.30409 32.8741L9.30302 32.8701C8.78707 30.9507 9.05413 28.9049 10.0456 27.1822C11.0369 25.4597 12.6714 24.2011 14.59 23.6828C14.5902 23.6827 14.5903 23.6827 14.5905 23.6826L70.5842 8.68428C70.5851 8.68407 70.5859 8.68385 70.5868 8.68363C71.9915 8.3245 73.4811 8.53038 74.7358 9.25714C75.9903 9.98382 76.91 11.1733 77.2974 12.5703C77.2977 12.5713 77.298 12.5723 77.2983 12.5733L78.8165 18.3667L78.8181 18.3727C78.9402 18.8162 78.9738 19.2795 78.9167 19.736C78.8596 20.1925 78.7132 20.6333 78.4856 21.0331C78.2581 21.4329 77.9539 21.784 77.5906 22.0662C77.2275 22.3482 76.8124 22.5559 76.369 22.6774C76.3687 22.6775 76.3684 22.6776 76.3681 22.6777L14.6133 39.3563C14.6128 39.3564 14.6123 39.3565 14.6118 39.3567C13.7165 39.591 12.7649 39.4613 11.965 38.9958C11.1651 38.5303 10.5821 37.7668 10.3437 36.8726C10.3436 36.8722 10.3434 36.8717 10.3433 36.8713L9.30407 32.8741Z" fill="#21232F" stroke="url(#paint2_linear_41_276)"/>
<mask id="mask2_41_276" style="mask-type:alpha" maskUnits="userSpaceOnUse" x="8" y="8" width="72" height="32">
<path d="M70.4601 8.19992L14.4602 23.1999C12.4134 23.7527 10.6697 25.0953 9.6122 26.9328C8.55468 28.7703 8.26981 30.9525 8.82016 32.9999L9.86015 36.9999C10.1324 38.0226 10.7989 38.8956 11.7135 39.4279C12.6282 39.9602 13.7165 40.1084 14.7402 39.8399L76.5002 23.1599C77.0073 23.0211 77.482 22.7836 77.8973 22.4611C78.3125 22.1386 78.6601 21.7374 78.9202 21.2804C79.1802 20.8235 79.3476 20.3197 79.4128 19.798C79.478 19.2763 79.4398 18.7468 79.3002 18.2399L77.7802 12.4399C77.3582 10.9154 76.3551 9.61731 74.9864 8.82448C73.6176 8.03165 71.9925 7.8074 70.4601 8.19992Z" fill="#21232F"/>
</mask>
<g mask="url(#mask2_41_276)">
<g clip-path="url(#clip1_41_276)">
<path fill-rule="evenodd" clip-rule="evenodd" d="M-5.35812 3.55729L69.6409 66.4889L61.2846 76.4475L-13.7144 13.5159L-5.35812 3.55729Z" fill="white" fill-opacity="0.9"/>
<path fill-rule="evenodd" clip-rule="evenodd" d="M10.412 -15.2369L85.411 47.6947L77.0548 57.6533L2.05579 -5.27832L10.412 -15.2369Z" fill="white" fill-opacity="0.9"/>
<path fill-rule="evenodd" clip-rule="evenodd" d="M26.1822 -34.031L101.181 28.9007L92.8249 38.8592L17.8259 -24.0724L26.1822 -34.031Z" fill="white" fill-opacity="0.9"/>
</g>
</g>
<path d="M9.86011 36.9999C10.1324 38.0226 10.7988 38.8957 11.7135 39.428C12.6281 39.9603 13.7165 40.1084 14.7401 39.8399L76.5001 23.1599C77.0072 23.0211 77.482 22.7836 77.8972 22.4611C78.3125 22.1386 78.6601 21.7374 78.9201 21.2804C79.1802 20.8235 79.5163 20.1626 79.5815 19.6409C79.6467 19.1192 79.7211 16.6672 79.5815 16.1603" stroke="url(#paint3_linear_41_276)" stroke-opacity="0.1" stroke-width="2"/>
</g>
<path d="M23.308 42.805L23.3022 42.8108L23.2965 42.8168C23.088 43.0378 22.8355 43.2127 22.5553 43.3304C22.2751 43.4481 21.9735 43.5059 21.6697 43.5001L21.6697 43.5H21.6601H10.5001V43.4999L10.4899 43.5001C10.2957 43.5041 10.1027 43.4692 9.92207 43.3976C9.74147 43.326 9.57698 43.2191 9.43824 43.0832C9.29949 42.9472 9.18928 42.7849 9.11405 42.6058C9.03883 42.4267 9.0001 42.2344 9.00014 42.0401V42.04V30.04H9.00018L9.0001 30.0339C8.99776 29.8414 9.03573 29.6505 9.11158 29.4735C9.18743 29.2965 9.29949 29.1373 9.44053 29.0062L9.45278 28.9949L9.46423 28.9827C9.73768 28.6922 10.1131 28.5192 10.5114 28.5H11.3399C12.798 28.5013 14.196 29.0816 15.2264 30.1133L15.2266 30.1135L22.3866 37.2736L22.3868 37.2738C23.4182 38.3038 23.9984 39.7012 24.0001 41.1588C23.9961 41.7774 23.7473 42.3693 23.308 42.805Z" fill="url(#paint4_linear_41_276)" stroke="url(#paint5_linear_41_276)"/>
<circle cx="12.0001" cy="32.5" r="1.5" fill="#1F1F1F"/>
<circle cx="21.0001" cy="40.5" r="1.5" fill="#1F1F1F"/>
<circle cx="12.0001" cy="40.5" r="1.5" fill="#1F1F1F"/>
<mask id="mask3_41_276" style="mask-type:alpha" maskUnits="userSpaceOnUse" x="8" y="8" width="73" height="72">
<path d="M14.4602 23.1889L70.4601 8.18894C71.9925 7.79642 73.6176 8.02067 74.9864 8.81349C76.3551 9.60632 77.3582 10.9045 77.7802 12.4289L79.3002 18.2289C79.4398 18.7359 79.478 19.2653 79.4128 19.787C79.3476 20.3087 79.1802 20.8125 78.9202 21.2694C78.6601 21.7264 78.3125 22.1276 77.8973 22.4501C77.482 22.7726 77.0073 23.0101 76.5002 23.1489L23.2768 37.5234C23.8301 38.2512 24.2089 39.0951 24.3859 39.989H76.5C76.5522 39.989 76.6041 39.99 76.6558 39.992C77.5646 39.9556 78.4574 40.2532 79.1634 40.8314C79.9098 41.4427 80.3891 42.3197 80.5 43.2774V73.3992C80.2879 75.3186 79.332 77.0789 77.8369 78.3033C76.3417 79.5278 74.4262 80.1191 72.5 79.9509H18.5C16.1225 80.1673 13.7535 79.4562 11.8893 77.9668C10.0251 76.4773 8.81053 74.3251 8.5 71.961V43.989C8.5 43.5857 8.5597 43.1963 8.67073 42.8292C8.66469 42.8157 8.6588 42.8021 8.65306 42.7884C8.55207 42.548 8.50009 42.2898 8.50014 42.029V30.029C8.49694 29.7667 8.54868 29.5066 8.65201 29.2655C8.68574 29.1868 8.72473 29.1107 8.76864 29.0377C8.94588 28.3022 9.22807 27.5893 9.6122 26.9218C10.6697 25.0843 12.4134 23.7417 14.4602 23.1889Z" fill="#FF8000"/>
</mask>
<g mask="url(#mask3_41_276)">
<g filter="url(#filter1_f_41_276)">
<path d="M13.3553 15.8615L13.3553 15.8615L13.3468 15.8638C10.2075 16.7116 7.53316 18.7709 5.91118 21.5892L9.6122 23.7192L5.91118 21.5892C5.41171 22.4571 5.02452 23.3753 4.75256 24.3222C4.74398 24.3417 4.73549 24.3612 4.72711 24.3808C4.39349 25.1592 4.22426 25.9981 4.22997 26.8449V38.8255C4.22997 38.8258 4.22997 38.8261 4.22997 38.8264C4.22995 39.1311 4.25229 39.4348 4.29651 39.7349C4.25244 40.0804 4.22983 40.4315 4.22983 40.7864V68.7584V69.0377L4.2662 69.3145C4.72062 72.774 6.49791 75.9222 9.22382 78.1002C11.8943 80.2339 15.2723 81.2745 18.6756 81.0184H72.3349C75.301 81.2246 78.2379 80.2916 80.5424 78.4043C82.9006 76.4731 84.4095 73.6957 84.7443 70.6656L84.7702 70.4318V70.1966V40.0747V39.8282L84.7418 39.5834C84.5032 37.5235 83.4724 35.6382 81.869 34.3251L79.1634 37.6288L81.869 34.3251C80.3961 33.1189 78.546 32.482 76.6541 32.5176C76.6028 32.5167 76.5514 32.5162 76.5 32.5162H46.3357L77.6135 24.0688L77.6208 24.0668L77.628 24.0648C78.6764 23.7778 79.658 23.2868 80.5165 22.62L77.9857 19.3614L80.5165 22.62C81.3751 21.9532 82.0938 21.1236 82.6314 20.1789C83.1691 19.2341 83.5152 18.1926 83.65 17.1139C83.7836 16.0456 83.7072 14.9616 83.4253 13.9227L81.9108 8.14378L81.9034 8.11549L81.8956 8.0873C81.1754 5.48505 79.4631 3.26915 77.1267 1.9158C74.7902 0.562462 72.0161 0.17967 69.4005 0.849699L69.3779 0.855496L69.3553 0.861542L13.3553 15.8615Z" stroke="#343434" stroke-opacity="0.25" stroke-width="8.54033"/>
</g>
<path d="M14.2014 23.223L14.1994 23.2235C11.8968 23.8454 9.93518 25.3558 8.74548 27.423L9.60541 27.9179L8.74548 27.423C8.33727 28.1323 8.03137 28.8874 7.83066 29.6662C7.79543 29.7333 7.7628 29.8018 7.73287 29.8716C7.57546 30.2389 7.4962 30.6349 7.50014 31.0345V43.0288C7.50014 43.0289 7.50014 43.0289 7.50014 43.029C7.5001 43.3169 7.54206 43.6027 7.62422 43.8775C7.54283 44.2357 7.5 44.6079 7.5 44.989V72.961V73.0264L7.50852 73.0913C7.85274 75.7118 9.19912 78.0973 11.2651 79.748C13.3189 81.389 15.9255 82.1773 18.5443 81.9509H72.4578C74.6287 82.1288 76.7849 81.4574 78.4705 80.077C80.1677 78.687 81.2531 76.6886 81.4939 74.5091L81.5 74.4543V74.3992V44.2774V44.2196L81.4934 44.1623C81.3525 42.9465 80.7441 41.8334 79.797 41.0577C78.9113 40.3324 77.7943 39.9553 76.6551 39.9914C76.6036 39.9898 76.5519 39.989 76.5 39.989H25.1568C25.0628 39.6998 24.95 39.4171 24.8192 39.1427L76.7609 25.1144L76.7643 25.1134C77.3981 24.9399 77.9916 24.643 78.5107 24.2399C79.0297 23.8368 79.4642 23.3352 79.7893 22.764C80.1143 22.1929 80.3236 21.5632 80.4051 20.911C80.4864 20.2609 80.4391 19.6013 80.2659 18.9695C80.2654 18.9674 80.2648 18.9654 80.2643 18.9634L78.7475 13.1754L78.7476 13.1754L78.7439 13.1622C78.2521 11.3853 77.083 9.87227 75.4876 8.94818C73.8922 8.02408 71.998 7.76271 70.212 8.22022L70.212 8.22016L70.2014 8.22299L14.2014 23.223Z" stroke="#343434" stroke-opacity="0.25" stroke-width="2"/>
</g>
</g>
<defs>
<filter id="filter0_i_41_276" x="8.5459" y="4.80836" width="72.1147" height="36.1625" filterUnits="userSpaceOnUse" color-interpolation-filters="sRGB">
<feFlood flood-opacity="0" result="BackgroundImageFix"/>
<feBlend mode="normal" in="SourceGraphic" in2="BackgroundImageFix" result="shape"/>
<feColorMatrix in="SourceAlpha" type="matrix" values="0 0 0 0 0 0 0 0 0 0 0 0 0 0 0 0 0 0 127 0" result="hardAlpha"/>
<feOffset dy="-3.20262"/>
<feGaussianBlur stdDeviation="2.13508"/>
<feComposite in2="hardAlpha" operator="arithmetic" k2="-1" k3="1"/>
<feColorMatrix type="matrix" values="0 0 0 0 0.150937 0 0 0 0 0.180562 0 0 0 0 0.225 0 0 0 0.25 0"/>
<feBlend mode="normal" in2="shape" result="effect1_innerShadow_41_276"/>
</filter>
<filter id="filter1_f_41_276" x="-4.31045" y="-8.01321" width="97.6209" height="97.6102" filterUnits="userSpaceOnUse" color-interpolation-filters="sRGB">
<feFlood flood-opacity="0" result="BackgroundImageFix"/>
<feBlend mode="normal" in="SourceGraphic" in2="BackgroundImageFix" result="shape"/>
<feGaussianBlur stdDeviation="2.13508" result="effect1_foregroundBlur_41_276"/>
</filter>
<linearGradient id="paint0_linear_41_276" x1="44.5001" y1="40" x2="44.5001" y2="80" gradientUnits="userSpaceOnUse">
<stop stop-color="#20222D"/>
<stop offset="1" stop-color="#242632"/>
</linearGradient>
<radialGradient id="paint1_radial_41_276" cx="0" cy="0" r="1" gradientUnits="userSpaceOnUse" gradientTransform="translate(44.5001 60) rotate(90) scale(20 36)">
<stop stop-color="#02126C"/>
<stop offset="1" stop-color="#1C1E27"/>
</radialGradient>
<linearGradient id="paint2_linear_41_276" x1="43.9948" y1="8.01099" x2="49.0001" y2="36.4999" gradientUnits="userSpaceOnUse">
<stop stop-color="#313131"/>
<stop offset="1" stop-color="#1B1B1B"/>
</linearGradient>
<linearGradient id="paint3_linear_41_276" x1="43.9948" y1="8.01099" x2="49.0001" y2="36.4999" gradientUnits="userSpaceOnUse">
<stop stop-color="#313131"/>
<stop offset="1" stop-color="#1B1B1B"/>
</linearGradient>
<linearGradient id="paint4_linear_41_276" x1="14.5048" y1="33.2078" x2="22.8988" y2="43.2028" gradientUnits="userSpaceOnUse">
<stop stop-color="#303544"/>
<stop offset="1" stop-color="#2A2F3E"/>
</linearGradient>
<linearGradient id="paint5_linear_41_276" x1="21.7014" y1="40.0032" x2="15.7056" y2="33.2065" gradientUnits="userSpaceOnUse">
<stop stop-color="#262B37"/>
<stop offset="1" stop-color="#262834"/>
</linearGradient>
<clipPath id="clip0_41_276">
<rect width="76.3936" height="96.9398" fill="white" transform="translate(51.0013 -14.8221) rotate(43)"/>
</clipPath>
<clipPath id="clip1_41_276">
<rect width="76.068" height="97.9042" fill="white" transform="translate(-18.2139 18.8782) rotate(-50)"/>
</clipPath>
</defs>
</svg>
