<svg width="67" height="44" viewBox="0 0 67 44" fill="none" xmlns="http://www.w3.org/2000/svg">
<g clip-path="url(#clip0_228_4899)">
<path d="M38.4113 0.625494C35.2125 0.63192 32.073 1.48477 29.3153 3.09647C26.5576 4.70817 24.281 7.02063 22.7193 9.79638C21.3752 9.14555 19.9 8.80633 18.4049 8.80424C16.0616 8.81037 13.7967 9.64391 12.014 11.1562C10.2314 12.6685 9.04703 14.7612 8.67213 17.0612C6.19685 18.0917 4.0831 19.8266 2.59644 22.0478C1.10979 24.2691 0.316553 26.8777 0.316406 29.5459C0.319898 33.1346 1.75664 36.5752 4.31074 39.111C6.86485 41.6468 10.3272 43.0703 13.9367 43.0686C14.5079 43.0634 15.0782 43.0226 15.6442 42.9462H53.4891C53.6879 42.9604 53.8869 42.97 54.0861 42.9749C54.276 42.9696 54.4656 42.96 54.655 42.9462H55.5613V42.8792C58.6427 42.5169 61.4839 41.0377 63.5464 38.7221C65.6089 36.4066 66.7493 33.4155 66.7515 30.3159V30.2916C66.7443 27.3479 65.7104 24.4987 63.8277 22.2342C61.945 19.9697 59.3311 18.4315 56.4359 17.8842C56.2639 13.2467 54.2892 8.85643 50.9273 5.63739C47.5654 2.41835 43.0786 0.62166 38.4113 0.625494Z" fill="url(#paint0_linear_228_4899)"/>
</g>
<defs>
<linearGradient id="paint0_linear_228_4899" x1="66.9532" y1="30.3503" x2="0.292015" y2="29.4255" gradientUnits="userSpaceOnUse">
<stop stop-color="#3E82F4"/>
<stop offset="1" stop-color="#93DCF7"/>
</linearGradient>
<clipPath id="clip0_228_4899">
<rect width="67" height="43.3008" fill="white"/>
</clipPath>
</defs>
</svg>
