<svg width="237" height="46" viewBox="0 0 237 46" fill="none" xmlns="http://www.w3.org/2000/svg">
<g clip-path="url(#clip0_11_461)">
<mask id="mask0_11_461" style="mask-type:luminance" maskUnits="userSpaceOnUse" x="0" y="0" width="237" height="46">
<path d="M237 0.291748H0V45.708H237V0.291748Z" fill="white"/>
</mask>
<g mask="url(#mask0_11_461)">
<path fill-rule="evenodd" clip-rule="evenodd" d="M45.5606 22.9468C45.5606 10.435 35.4114 0.29187 22.8924 0.29187C10.3732 0.29187 0.224182 10.435 0.224182 22.9468C0.224182 35.4592 10.3732 45.6017 22.8924 45.6017C35.4114 45.6017 45.5606 35.4592 45.5606 22.9468ZM18.7665 10.3607C18.5883 10.7103 18.5883 11.1679 18.5883 12.0831V17.2701C18.5883 17.4987 18.5883 17.613 18.6172 17.7187C18.6427 17.8123 18.6848 17.9006 18.7414 17.9795C18.8052 18.0685 18.894 18.1406 19.0716 18.2847L20.3844 19.3506C20.5984 19.5243 20.7054 19.6112 20.7442 19.7158C20.7783 19.8075 20.7783 19.9084 20.7442 20.0001C20.7054 20.1047 20.5984 20.1915 20.3844 20.3653L19.0716 21.4312C18.894 21.5753 18.8052 21.6473 18.7414 21.7364C18.6848 21.8153 18.6427 21.9036 18.6172 21.9972C18.5883 22.1029 18.5883 22.2172 18.5883 22.4458V33.8104C18.5883 34.7255 18.5883 35.1831 18.7665 35.5326C18.9232 35.8403 19.1734 36.0901 19.481 36.2467C19.8308 36.425 20.2887 36.425 21.2044 36.425H24.5803C25.496 36.425 25.9539 36.425 26.3036 36.2467C26.6113 36.0901 26.8614 35.8403 27.0183 35.5326C27.1965 35.1831 27.1965 34.7255 27.1965 33.8104V28.6233C27.1965 28.3946 27.1965 28.2803 27.1676 28.1749C27.142 28.0812 27.1 27.9927 27.0433 27.9139C26.9794 27.8249 26.8906 27.7528 26.7131 27.6087L25.4003 26.5428C25.1863 26.3691 25.0793 26.2822 25.0405 26.1776C25.0064 26.0859 25.0064 25.985 25.0405 25.8933C25.0793 25.7887 25.1863 25.7018 25.4003 25.5281L26.7131 24.4623C26.8906 24.3181 26.9794 24.246 27.0433 24.157C27.1 24.0781 27.142 23.9898 27.1676 23.8962C27.1965 23.7905 27.1965 23.6762 27.1965 23.4476V12.0831C27.1965 11.1679 27.1965 10.7103 27.0183 10.3607C26.8614 10.0532 26.6113 9.80324 26.3036 9.64658C25.9539 9.46847 25.496 9.46847 24.5803 9.46847H21.2044C20.2887 9.46847 19.8308 9.46847 19.481 9.64658C19.1734 9.80324 18.9232 10.0532 18.7665 10.3607Z" fill="#ABABAB"/>
<path d="M63.758 36.4994C63.9827 36.4994 64.1646 36.3175 64.1646 36.093V9.48123C64.1646 9.25678 63.9827 9.07483 63.758 9.07483H59.8339C59.6885 9.07483 59.5554 9.15347 59.4755 9.2749C58.5758 10.6422 56.9027 11.3309 54.61 11.4026C54.3855 11.4096 54.203 11.5908 54.203 11.8153V15.7955C54.203 16.0199 54.385 16.2019 54.6097 16.2019H57.781C58.0055 16.2019 58.1877 16.3839 58.1877 16.6083V36.093C58.1877 36.3175 58.3696 36.4994 58.5943 36.4994H63.758Z" fill="#ABABAB"/>
<path d="M79.4242 14.5764C81.541 14.5764 83.2428 15.7017 83.2428 18.5358C83.2428 21.2867 81.541 22.4953 79.4242 22.4953H74.8168V14.5764H79.4242ZM79.4242 27.6217C85.6502 27.6217 89.2613 23.8291 89.2613 18.3691C89.2613 13.201 85.6502 9.4082 79.4242 9.4082H69.288C69.0633 9.4082 68.8814 9.59016 68.8814 9.8146V36.0929C68.8814 36.3174 69.0633 36.4993 69.288 36.4993H74.4102C74.6346 36.4993 74.8168 36.3174 74.8168 36.0929V28.0281C74.8168 27.8037 74.999 27.6217 75.2235 27.6217H79.4242Z" fill="#ABABAB"/>
<path d="M98.4675 32.6651C96.7242 32.6651 95.6452 31.8731 95.6452 30.4561C95.6452 29.2056 96.3922 28.3722 98.177 28.3722H103.033V28.7888C103.033 31.2063 100.958 32.6651 98.4675 32.6651ZM103.49 36.0929C103.49 36.3174 103.672 36.4993 103.897 36.4993H108.355C108.579 36.4993 108.761 36.3174 108.761 36.0929V24.3292C108.761 18.6609 105.565 15.3683 99.7958 15.3683C95.512 15.3683 92.2324 17.6559 90.8877 21.3336C90.807 21.5545 90.9409 21.7927 91.1696 21.8487L95.6611 22.9496C95.8641 22.9993 96.0703 22.8867 96.1494 22.6934C96.8315 21.025 97.9671 20.0363 99.7958 20.0363C101.705 20.0363 103.033 21.2867 103.033 23.5373V23.8291C103.033 24.4543 102.826 24.7043 102.079 24.7043H96.8902C92.5736 24.7043 89.9585 26.9966 89.9585 30.6226C89.9585 34.4989 92.9471 36.9997 97.0977 36.9997C99.1863 36.9997 101.193 36.3132 102.607 34.7847C102.885 34.4843 103.49 34.6675 103.49 35.0768V36.0929Z" fill="#ABABAB"/>
<path d="M119.805 32.8316C117.788 32.8316 116.315 31.9945 115.588 30.4561C115.5 30.2695 115.296 30.1609 115.095 30.2115L110.897 31.2744C110.681 31.3289 110.548 31.5477 110.612 31.7609C111.675 35.2909 115.23 36.9997 119.597 36.9997C125.201 36.9997 128.397 34.1239 128.397 30.2061C128.397 22.6204 116.401 25.2045 116.401 21.4534C116.401 20.203 117.439 19.4111 119.307 19.4111C121.166 19.4111 122.41 20.4271 123.007 21.985C123.081 22.1783 123.279 22.2995 123.483 22.261L127.768 21.4499C127.997 21.4065 128.143 21.1792 128.077 20.9557C127.094 17.6371 124.332 15.3683 119.348 15.3683C113.869 15.3683 110.964 18.2858 110.964 21.9535C110.964 29.7892 123.001 27.4552 123.001 30.7062C123.001 31.9982 121.922 32.8316 119.805 32.8316Z" fill="#ABABAB"/>
<path d="M138.452 32.8316C136.435 32.8316 134.962 31.9945 134.236 30.4561C134.147 30.2695 133.943 30.1609 133.743 30.2115L129.544 31.2744C129.328 31.3289 129.196 31.5477 129.26 31.7609C130.323 35.2909 133.878 36.9997 138.245 36.9997C143.848 36.9997 147.044 34.1239 147.044 30.2061C147.044 22.6204 135.049 25.2045 135.049 21.4534C135.049 20.203 136.087 19.4111 137.954 19.4111C139.813 19.4111 141.058 20.4271 141.654 21.985C141.729 22.1783 141.927 22.2995 142.13 22.261L146.415 21.4499C146.644 21.4065 146.791 21.1792 146.725 20.9557C145.742 17.6371 142.979 15.3683 137.996 15.3683C132.517 15.3683 129.611 18.2858 129.611 21.9535C129.611 29.7892 141.648 27.4552 141.648 30.7062C141.648 31.9982 140.569 32.8316 138.452 32.8316Z" fill="#ABABAB"/>
<path d="M152.292 36.189C152.336 36.3712 152.499 36.4993 152.687 36.4993H159.143C159.331 36.4993 159.495 36.3696 159.539 36.1861L162.827 22.2036L166.115 36.1861C166.158 36.3696 166.322 36.4993 166.511 36.4993H173.176C173.363 36.4993 173.526 36.3717 173.57 36.1897L178.435 16.3716C178.498 16.1156 178.304 15.8684 178.04 15.8684H173.452C173.259 15.8684 173.093 16.0038 173.054 16.1925L169.8 31.9146L165.769 16.1741C165.723 15.9942 165.561 15.8684 165.375 15.8684H160.243C160.054 15.8684 159.891 15.9977 159.847 16.1808L156.103 31.9146L152.89 16.1935C152.851 16.0043 152.685 15.8684 152.492 15.8684H147.862C147.599 15.8684 147.405 16.115 147.467 16.3709L152.292 36.189Z" fill="#ABABAB"/>
<path d="M189.401 36.9997C195.627 36.9997 199.902 32.165 199.902 26.2048C199.902 20.203 195.627 15.3683 189.401 15.3683C183.216 15.3683 178.9 20.203 178.9 26.2048C178.9 32.165 183.216 36.9997 189.401 36.9997ZM189.401 32.0399C186.828 32.0399 184.835 29.8725 184.835 26.2048C184.835 22.537 186.828 20.3281 189.401 20.3281C191.974 20.3281 194.008 22.537 194.008 26.2048C194.008 29.8725 191.974 32.0399 189.401 32.0399Z" fill="#ABABAB"/>
<path d="M208.089 25.5796C208.089 22.0369 209.874 21.2033 212.614 21.2033C213.139 21.2033 213.716 21.2554 214.263 21.3597C214.494 21.4039 214.724 21.2559 214.765 21.0237L215.634 16.1155C215.665 15.9431 215.582 15.7683 215.421 15.6997C214.922 15.4871 214.304 15.3683 213.568 15.3683C210.787 15.3683 208.629 16.9938 207.591 20.2864V16.2748C207.591 16.0504 207.409 15.8684 207.185 15.8684H202.685C202.46 15.8684 202.278 16.0504 202.278 16.2748V36.0929C202.278 36.3174 202.46 36.4993 202.685 36.4993H207.683C207.907 36.4993 208.089 36.3174 208.089 36.0929V25.5796Z" fill="#ABABAB"/>
<path d="M226.374 32.165C223.385 32.165 221.808 29.7057 221.808 26.2048C221.808 22.7038 223.385 20.2031 226.374 20.2031C229.362 20.2031 230.94 22.7038 230.94 26.2048C230.94 29.7057 229.362 32.165 226.374 32.165ZM231.272 36.093C231.272 36.3174 231.453 36.4994 231.678 36.4994H236.344C236.568 36.4994 236.75 36.3174 236.75 36.093V9.87527C236.75 9.65082 236.568 9.46887 236.344 9.46887H231.512C231.287 9.46887 231.106 9.65082 231.106 9.87527V18.7443C229.819 16.3269 227.66 15.3683 224.921 15.3683C219.566 15.3683 215.914 20.0364 215.914 26.2048C215.914 32.3733 219.566 36.9997 224.921 36.9997C227.826 36.9997 230.068 35.8325 231.272 32.8316V36.093Z" fill="#ABABAB"/>
</g>
</g>
<defs>
<clipPath id="clip0_11_461">
<rect width="237" height="45.4163" fill="white" transform="translate(0 0.291748)"/>
</clipPath>
</defs>
</svg>
