<svg width="193" height="74" viewBox="0 0 193 74" fill="none" xmlns="http://www.w3.org/2000/svg">
<path d="M31.6138 0.673817C30.4695 1.34506 28.5652 3.24553 26.2935 6.00184L28.3752 9.91186C29.8404 7.83519 31.3266 5.95989 32.8087 4.37407C32.9269 4.24821 32.9818 4.18948 32.9818 4.18948C32.9269 4.24821 32.8636 4.31533 32.8087 4.37407C32.3231 4.90268 30.8495 6.61436 28.6285 9.99577C30.7693 9.89088 34.0332 9.45457 36.7356 9.00148C37.5378 4.55447 35.9544 2.54072 35.9544 2.54072C35.9544 2.54072 33.9445 -0.689654 31.6053 0.690598L31.6138 0.673817Z" fill="#ABABAB"/>
<path d="M24.6046 33.5188C24.3385 33.5649 24.0683 33.6153 23.7854 33.6614C23.7854 33.6614 23.7812 33.6614 23.7812 33.6656C23.9248 33.6447 24.0641 33.6237 24.2034 33.6027C24.3343 33.5733 24.4694 33.5482 24.6046 33.5188Z" fill="#ABABAB"/>
<path d="M24.6046 33.5188C24.3385 33.5649 24.0683 33.6153 23.7854 33.6614C23.7854 33.6614 23.7812 33.6614 23.7812 33.6656C23.9248 33.6447 24.0641 33.6237 24.2034 33.6027C24.3343 33.5733 24.4694 33.5482 24.6046 33.5188Z" fill="#ABABAB"/>
<path d="M25.3224 30.1207C25.3181 30.1207 25.3181 30.1207 25.3181 30.1249C25.3604 30.1207 25.4068 30.1123 25.449 30.1039C25.6264 30.0788 25.7995 30.0494 25.9684 30.0074C25.7573 30.0452 25.5462 30.083 25.3224 30.1207Z" fill="#ABABAB"/>
<path d="M25.3224 30.1207C25.3181 30.1207 25.3181 30.1207 25.3181 30.1249C25.3604 30.1207 25.4068 30.1123 25.449 30.1039C25.6264 30.0788 25.7995 30.0494 25.9684 30.0074C25.7573 30.0452 25.5462 30.083 25.3224 30.1207Z" fill="#ABABAB"/>
<path d="M22.24 20.01C22.8733 18.8311 23.5151 17.6816 24.1612 16.5656C24.8325 15.3993 25.5166 14.275 26.2048 13.1842C26.2428 13.1213 26.2893 13.0542 26.3273 12.9912C27.0071 11.9214 27.6953 10.8894 28.3836 9.9077L26.3019 5.99768C26.1457 6.18647 25.9895 6.37945 25.829 6.58083C25.2252 7.32759 24.6045 8.1247 23.9627 8.97634C23.2407 9.93287 22.5018 10.9565 21.746 12.0305C21.0535 13.0206 20.3441 14.0568 19.6347 15.135C19.0309 16.0496 18.4314 16.9894 17.8318 17.9543C17.8107 17.9878 17.7895 18.0256 17.7684 18.0634L20.4834 23.3914C21.0577 22.2377 21.6488 21.1091 22.24 20.01Z" fill="#ABABAB"/>
<path d="M9.86829 50.0063C9.50938 50.9838 9.14625 51.9865 8.78735 53.0059C8.78312 53.0185 8.7789 53.0353 8.77046 53.0479C8.71979 53.1905 8.6649 53.3374 8.61845 53.48C8.37355 54.168 8.16243 54.7889 7.67685 56.1944C8.47489 56.5552 9.11669 57.5117 9.72472 58.5941C9.66139 57.4739 9.19692 56.4209 8.30599 55.607C12.2455 55.7832 15.653 54.7931 17.3842 51.9319C17.5404 51.676 17.684 51.4117 17.8149 51.1222C17.0168 52.1291 16.0246 52.5528 14.1625 52.4522C16.9071 51.2313 18.2793 50.0608 19.4827 48.131C19.7699 47.6695 20.0528 47.1703 20.3399 46.6123C17.9416 49.0582 15.1885 49.7546 12.2328 49.226L10.0372 49.4651C9.9654 49.6497 9.90206 49.8301 9.83028 50.0147L9.86829 50.0063Z" fill="#ABABAB"/>
<path d="M10.9239 45.1398C11.3968 43.9232 11.8866 42.6898 12.3849 41.448C12.8662 40.2565 13.356 39.0567 13.8627 37.8568C14.3694 36.657 14.8845 35.4445 15.4081 34.2363C15.9401 33.007 16.489 31.782 17.0506 30.5612C17.6038 29.3529 18.1611 28.1531 18.7312 26.97C18.9338 26.5421 19.1449 26.1142 19.3518 25.6904C19.7108 24.9563 20.0739 24.2263 20.4412 23.5047C20.4623 23.4669 20.4792 23.425 20.5003 23.3872L17.7853 18.0592C17.7431 18.1305 17.6967 18.206 17.6502 18.2732C17.0168 19.301 16.3877 20.3498 15.7712 21.4196C15.1463 22.502 14.5341 23.6054 13.9345 24.7255C13.432 25.6695 12.938 26.6176 12.4524 27.5825C12.3553 27.7755 12.2624 27.9727 12.1653 28.1657C11.5741 29.3781 11.0421 30.5402 10.5565 31.6687C10.0076 32.9399 9.52628 34.1566 9.10826 35.3103C8.82958 36.0696 8.58045 36.7996 8.34822 37.5044C8.15821 38.1043 7.98087 38.7084 7.80353 39.3084C7.39818 40.718 7.04771 42.1276 6.76059 43.5456L9.48827 48.9156C9.84718 47.9591 10.2188 46.9858 10.5988 46.0041C10.7128 45.723 10.8141 45.4461 10.9239 45.1776V45.1398Z" fill="#ABABAB"/>
<path d="M6.70148 43.7135C6.35946 45.4251 6.11456 47.1284 5.99211 48.8317L5.97944 49.0079C5.12652 47.6528 2.85063 46.3313 2.85485 46.3439C4.48893 48.6933 5.7261 51.0426 5.90766 53.3081C5.03362 53.4843 3.83868 53.2284 2.45795 52.725C3.89779 54.0423 4.97873 54.4031 5.4052 54.5038C4.07936 54.5877 2.70285 55.4897 1.31367 56.5301C3.34465 55.7078 4.98718 55.3806 6.16945 55.6449C4.30314 60.889 2.43683 66.6785 0.553635 72.8456C1.12788 72.6778 1.4699 72.2918 1.65991 71.7758C1.99348 70.664 4.20181 63.3433 7.65575 53.778C7.75708 53.5053 7.8542 53.2284 7.95554 52.9557C7.98087 52.876 8.01043 52.8005 8.03999 52.7292C8.40311 51.7223 8.78735 50.6944 9.17582 49.6456C9.26449 49.4065 9.35316 49.1674 9.44605 48.9282C9.44605 48.924 9.45027 48.9198 9.45027 48.9156L6.71837 43.5457C6.70992 43.6002 6.69726 43.6631 6.68459 43.7261L6.70148 43.7135Z" fill="#ABABAB"/>
<path d="M20.8888 23.8278C20.8086 23.9872 20.7326 24.1466 20.6524 24.306C20.4159 24.7885 20.1795 25.2794 19.9346 25.7828C19.6728 26.3282 19.411 26.882 19.145 27.4525C19.0098 27.7378 18.8747 28.0273 18.7396 28.3209C18.3343 29.1978 17.9247 30.1039 17.5067 31.0395C16.9958 32.1848 16.4679 33.3805 15.9401 34.6223C15.4377 35.8053 14.9183 37.0262 14.4032 38.2932C13.9092 39.493 13.4109 40.7348 12.9042 42.0102C12.4524 43.1471 11.9964 44.3218 11.5404 45.5258C11.5193 45.5804 11.4982 45.6433 11.477 45.6979C11.021 46.8935 10.5608 48.1227 10.1005 49.3813C10.0921 49.4107 10.0794 49.4359 10.071 49.4694L12.2666 49.2303C12.2244 49.2219 12.178 49.2177 12.1357 49.2093C14.7579 48.8863 18.2583 46.9355 20.4961 44.5106C21.5349 43.403 22.4765 42.0941 23.3463 40.5628C23.9923 39.4259 24.6046 38.1589 25.1872 36.7619C25.6939 35.541 26.1795 34.2153 26.6482 32.7847C26.0444 33.0994 25.3561 33.3343 24.5961 33.4937C24.461 33.5231 24.3259 33.5483 24.1865 33.5735C24.0472 33.5986 23.9079 33.6196 23.7643 33.6364C23.7643 33.6364 23.7685 33.6364 23.7685 33.6322C26.2175 32.6966 27.7587 30.8927 28.8776 28.6817C28.2358 29.118 27.1887 29.6886 25.9346 29.9613C25.7657 29.9991 25.5926 30.0284 25.4153 30.0578C25.373 30.062 25.3266 30.0704 25.2844 30.0788H25.2928C26.1457 29.7264 26.8593 29.3278 27.48 28.8621C27.6151 28.7614 27.746 28.6608 27.8643 28.5517C28.0543 28.3881 28.2316 28.2161 28.409 28.0399C28.5187 27.9224 28.6243 27.8049 28.7299 27.6833C28.9748 27.3938 29.2028 27.0833 29.4139 26.7477C29.4772 26.6428 29.5448 26.5421 29.6039 26.4331C29.6883 26.2778 29.7644 26.1226 29.8404 25.9758C30.1824 25.2961 30.4568 24.6836 30.6722 24.1508C30.782 23.8823 30.8748 23.639 30.9593 23.4041C30.9931 23.3118 31.0226 23.2237 31.0522 23.1356C31.1409 22.8796 31.2084 22.6531 31.2633 22.4517C31.3478 22.1497 31.3984 21.9105 31.4238 21.7385C31.3393 21.8015 31.2464 21.8686 31.1366 21.9315C30.3977 22.372 29.131 22.7664 28.1092 22.9552C28.0965 22.9594 28.0796 22.9594 28.0627 22.9636C27.9572 22.9803 27.86 22.9971 27.7545 23.0097L27.8051 22.9845L20.9226 23.7355C20.9226 23.7523 20.9099 23.7816 20.8973 23.8068L20.8888 23.8278Z" fill="#ABABAB"/>
<path d="M28.6581 9.98322C28.0458 10.9188 27.3787 11.9802 26.6524 13.1842C26.6144 13.243 26.5722 13.3143 26.5384 13.373C25.9177 14.4135 25.259 15.5546 24.5581 16.809C23.9585 17.8914 23.3336 19.0493 22.6833 20.2953C22.1175 21.3818 21.5349 22.5355 20.931 23.7564L27.8136 23.0054C29.8235 22.0866 30.7186 21.2602 31.5884 20.0561C31.8164 19.7247 32.0529 19.3807 32.2809 19.0199C32.9903 17.9207 33.6828 16.7125 34.3035 15.5084C34.903 14.3463 35.4308 13.1968 35.8362 12.1564C36.0938 11.4977 36.3007 10.8852 36.4442 10.344C36.5709 9.86995 36.668 9.41686 36.744 8.98474C34.0712 9.44203 30.7904 9.87834 28.637 9.98322H28.6581Z" fill="#ABABAB"/>
<path d="M24.1823 33.6028C24.043 33.628 23.9036 33.6489 23.7601 33.6657C23.9036 33.6531 24.0472 33.628 24.1823 33.6028Z" fill="#ABABAB"/>
<path opacity="0.35" d="M24.1823 33.6028C24.043 33.628 23.9036 33.6489 23.7601 33.6657C23.9036 33.6531 24.0472 33.628 24.1823 33.6028Z" fill="#ABABAB"/>
<path d="M24.1823 33.6028C24.043 33.628 23.9036 33.6489 23.7601 33.6657C23.9036 33.6531 24.0472 33.628 24.1823 33.6028Z" fill="#ABABAB"/>
<path d="M25.3224 30.1207C25.3646 30.1165 25.411 30.1081 25.4533 30.0997C25.411 30.1039 25.3688 30.1165 25.3224 30.1207Z" fill="#ABABAB"/>
<path opacity="0.35" d="M25.3224 30.1207C25.3646 30.1165 25.411 30.1081 25.4533 30.0997C25.411 30.1039 25.3688 30.1165 25.3224 30.1207Z" fill="#ABABAB"/>
<path d="M25.3224 30.1207C25.3646 30.1165 25.411 30.1081 25.4533 30.0997C25.411 30.1039 25.3688 30.1165 25.3224 30.1207Z" fill="#ABABAB"/>
<path d="M25.3224 30.1208C25.3269 30.1163 25.3269 30.1208 25.3224 30.1208C25.3269 30.1163 25.3269 30.1208 25.3224 30.1208Z" fill="#ABABAB"/>
<path opacity="0.35" d="M25.3224 30.1208C25.3269 30.1163 25.3269 30.1208 25.3224 30.1208C25.3269 30.1163 25.3269 30.1208 25.3224 30.1208Z" fill="#ABABAB"/>
<path d="M123.996 49.1555C123.574 49.0801 121.978 48.6729 121.735 48.5782C121.149 48.3536 119.138 47.3289 118.895 47.1358C118.58 46.8778 118.538 46.8462 117.963 46.4193C117.393 45.9979 116.171 44.782 115.74 44.2102C115.558 43.9689 115.36 43.709 115.299 43.6366C115.238 43.5631 115.136 43.4399 115.073 43.3619C114.939 43.1987 113.804 41.3014 113.804 41.2271C113.804 41.2043 113.686 40.9245 113.543 40.6053C113.398 40.286 113.193 39.7773 113.089 39.4748C112.983 39.1722 112.853 38.825 112.801 38.7044C112.684 38.4334 112.364 36.9372 112.248 36.1241C112.126 35.259 112.129 32.8941 112.254 32.1144C112.583 30.0725 112.843 29.2 113.594 27.6036C113.71 27.3567 113.805 27.0968 113.805 27.0262C113.805 26.9546 113.855 26.8959 113.916 26.8959C113.977 26.8959 114.026 26.8321 114.026 26.7537C114.026 26.6756 114.335 26.1486 114.71 25.5824C115.319 24.6635 116.709 23.132 117.625 22.3895C118.572 21.6061 120.446 20.587 121.567 20.2362C121.896 20.1356 122.29 20.0097 122.441 19.9577C123.004 19.7647 124.086 19.6236 125.487 19.5623C127.293 19.4823 129.186 19.7166 130.531 20.1861C131.531 20.5369 132.437 20.9564 132.512 21.0919C132.532 21.1374 132.597 21.1745 132.656 21.1745C132.89 21.1745 134.147 22.1213 134.898 22.8638C135.771 23.7251 136.342 24.4788 136.804 25.3698C137.088 25.9267 137.092 25.9527 136.893 26.0882C136.779 26.1658 136.635 26.2681 136.571 26.3147C136.508 26.3613 136.325 26.4753 136.166 26.5653C136.007 26.6561 135.648 26.8716 135.366 27.0442C134.795 27.3951 134.576 27.371 134.408 26.9308C133.939 25.7038 131.792 23.6823 130.316 23.1068C128.702 22.4645 127.719 22.2733 126.056 22.2752C124.296 22.277 123.161 22.4905 121.759 23.0919C121.279 23.2961 120.253 23.905 120.037 24.1148C119.956 24.1926 119.856 24.2562 119.814 24.2562C119.697 24.2562 118.465 25.4647 117.927 26.1107C117.341 26.8105 116.322 28.6167 116.081 29.3778C115.986 29.6804 115.865 30.0275 115.811 30.1482C115.34 31.2137 115.063 33.7866 115.235 35.513C115.352 36.6899 115.599 37.9262 115.812 38.4088C115.866 38.5299 115.944 38.7523 115.984 38.9045C116.162 39.5709 117.206 41.5033 117.752 42.1716C118.297 42.8455 119.293 43.885 119.751 44.2507C120.268 44.6721 121.955 45.7172 122.105 45.7172C122.145 45.7172 122.306 45.7846 122.465 45.8661C122.623 45.9476 123.196 46.1334 123.739 46.2782C124.569 46.4991 124.965 46.5399 126.224 46.5288C128.336 46.51 129.662 46.1501 131.437 45.1217C132.595 44.4497 134.202 42.8941 134.763 41.8917C134.976 41.5149 135.2 41.2048 135.261 41.203C135.497 41.1998 137.634 42.3595 137.634 42.4894C137.634 42.6435 136.99 43.8668 136.863 43.9522C136.818 43.9825 136.724 44.1156 136.653 44.2474C136.39 44.7467 135.177 45.9236 134.038 46.7905C133.432 47.2509 131.833 48.0603 130.712 48.4668C129.234 49.007 128.339 49.1518 126.284 49.1833C125.187 49.2 124.173 49.1915 124.023 49.1642L123.996 49.1555ZM35.6239 49.0016C35.6239 48.9403 35.6719 48.8048 35.7308 48.699C35.7895 48.594 35.9419 48.2609 36.069 47.9584C36.1962 47.6558 36.3436 47.3086 36.3978 47.188C36.4514 47.0669 36.7995 46.2505 37.1713 45.3725C37.5431 44.4944 37.8925 43.6777 37.9485 43.557C38.0038 43.436 38.1783 43.015 38.3352 42.6214C38.4929 42.2279 38.6659 41.8065 38.722 41.6858C38.778 41.5652 38.9275 41.218 39.0564 40.9155C39.1859 40.6129 39.3628 40.21 39.4506 40.0188C39.5385 39.8276 39.6087 39.6402 39.6087 39.5993C39.6087 39.5369 39.8217 39.0294 40.1636 38.2739C40.2185 38.1529 40.3915 37.7319 40.5503 37.3383C40.7091 36.9448 40.8829 36.5234 40.9371 36.4027C40.9926 36.2817 41.1669 35.8607 41.3238 35.4671C41.4815 35.0736 41.6564 34.6522 41.7106 34.5315C41.7655 34.4105 41.9161 34.0637 42.0431 33.7612C42.1717 33.4586 42.3215 33.1115 42.3738 32.9908C42.4274 32.8698 42.7008 32.226 42.9829 31.5614C43.2632 30.895 43.5397 30.2527 43.5938 30.1321C43.6486 30.011 43.8984 29.4174 44.1469 28.8122C44.3972 28.207 44.6457 27.613 44.6999 27.4924C44.7543 27.3713 44.9727 26.8519 45.1857 26.3377C46.3795 23.4604 46.6523 22.8107 46.9176 22.2167C46.9716 22.0956 47.1455 21.6746 47.3043 21.2811C47.4632 20.8876 47.6892 20.3548 47.8088 20.0986L48.0237 19.6308H50.4338L50.6804 20.2081C50.9887 20.9265 51.3269 21.7062 51.4576 21.9958C51.835 22.8367 52.0107 23.2581 52.0107 23.3156C52.0107 23.3771 52.2237 23.8762 52.6272 24.7617C52.7141 24.9529 52.7853 25.1404 52.7853 25.1812C52.7853 25.2434 52.9564 25.6527 53.3383 26.5067C53.7157 27.3476 53.8913 27.769 53.8913 27.8265C53.8913 27.8634 53.9946 28.1254 54.1211 28.4094C54.2476 28.6934 54.4257 29.0999 54.5153 29.3116C54.6065 29.5232 54.7246 29.7961 54.7788 29.9167C54.8328 30.0378 55.0067 30.4588 55.1637 30.8523C55.3213 31.2459 55.4943 31.6672 55.5485 31.7879C55.6029 31.9089 55.9521 32.7253 56.3257 33.6034C56.6994 34.4814 57.0488 35.2982 57.103 35.4189C57.1573 35.5399 57.2829 35.8365 57.3814 36.0797C58.3996 38.5672 58.8032 39.5325 58.9302 39.8295C59.012 40.011 59.2833 40.6537 59.5355 41.2589C59.7859 41.864 60.0363 42.4581 60.0904 42.5787C60.1446 42.6994 60.2941 43.0465 60.423 43.3491C60.5515 43.6517 60.7014 43.9988 60.7556 44.1195C60.8097 44.2401 60.9835 44.6615 61.1423 45.0551C61.3 45.4486 61.4749 45.87 61.529 45.9906C62.0653 47.1713 62.7472 48.8308 62.7472 48.9608C62.7472 49.094 62.4763 49.1213 61.1498 49.1213C59.5879 49.1213 59.5505 49.1156 59.4758 48.8744C59.4077 48.6535 59.1507 48.0317 58.8723 47.4172C58.8174 47.2962 58.6425 46.8752 58.4837 46.4816C58.2128 45.8115 57.9942 45.2936 57.7625 44.7757C57.7085 44.6546 57.5346 44.2336 57.3776 43.8401C57.2199 43.4466 57.0451 43.0252 56.9909 42.9045C56.6546 42.1638 56.436 41.6422 56.436 41.5847C56.436 41.5477 56.3433 41.3099 56.2305 41.0556C56.1172 40.8013 55.9558 40.4337 55.8717 40.237L55.7182 39.8787H42.6212L42.397 40.4022C42.2741 40.6899 42.0364 41.2709 41.8701 41.6942C41.7035 42.1174 41.474 42.6725 41.3601 42.9268C41.2461 43.1811 41.1527 43.4187 41.1527 43.4558C41.1527 43.5141 40.9341 44.035 40.5978 44.7757C40.5429 44.8967 40.3699 45.3177 40.2111 45.7113C40.0522 46.1048 39.8785 46.5262 39.8206 46.6469C39.7638 46.7679 39.5366 47.3133 39.318 47.8572C39.0975 48.4011 38.892 48.9097 38.8602 48.984C38.7874 49.1586 35.6094 49.1845 35.6094 49.01L35.6239 49.0016ZM55.0545 37.4367C55.0545 37.3316 54.8913 36.9355 54.438 35.9405C54.3511 35.7493 54.2799 35.56 54.2799 35.5173C54.2799 35.4749 54.2074 35.2852 54.1191 35.094C54.0305 34.9028 53.68 34.0545 53.3418 33.2006C53.0037 32.3541 52.6786 31.5614 52.6225 31.4408C52.5661 31.3197 52.29 30.6258 52.0116 29.9C51.7313 29.1742 51.4586 28.4799 51.4044 28.3593C51.3502 28.2382 51.2314 27.9657 51.141 27.7541C51.0498 27.5425 50.8719 27.1359 50.7467 26.8519C50.6204 26.5679 50.5169 26.295 50.5169 26.2468C50.5169 26.1981 50.4519 26.0351 50.3733 25.8829C50.2946 25.7316 50.1098 25.2852 49.9641 24.8935C49.8176 24.5 49.6334 24.0544 49.5549 23.9041C49.4763 23.7528 49.4116 23.5662 49.4113 23.492C49.4094 23.2599 49.2095 23.3392 49.1291 23.6021C49.0879 23.7381 48.9881 23.9975 48.9068 24.1794C48.8263 24.3609 48.5556 25.0054 48.3052 25.6087C48.0549 26.2139 47.7036 27.0548 47.5261 27.4836C47.349 27.9069 46.4089 30.1567 45.4336 32.4957C44.4621 34.8161 43.5858 36.9138 43.4905 37.1365L43.3149 37.5486H49.1815C53.217 37.5486 55.048 37.5124 55.048 37.4326L55.0545 37.4367ZM65.9095 34.3552V19.616L72.075 19.6178C78.5207 19.6197 79.6978 19.6787 80.7254 20.0615C81.4559 20.3325 82.5862 20.8894 82.7992 21.0788C82.8784 21.1517 83.1094 21.3349 83.313 21.4853C84.7423 22.5415 86.1155 24.641 86.6199 26.6088C87.1244 28.5022 86.917 31.0825 86.1192 32.8831C84.9721 35.4634 83.0365 37.2455 80.6077 37.988C80.1182 38.1352 79.1466 38.1696 74.4609 38.2052L68.8932 38.2466V49.1247H65.9039V34.3855L65.9095 34.3552ZM79.0439 35.4467C81.0803 35.1664 82.7432 33.6201 83.5652 31.2143C83.8492 30.3882 83.9146 28.1142 83.6796 27.1861C83.3601 25.9423 82.7753 24.9028 81.9065 24.0489C81.4749 23.6256 80.9742 23.2042 80.7911 23.1133C80.6092 23.0227 80.4361 22.9221 80.4044 22.8887C80.3739 22.856 80.1241 22.7335 79.8514 22.6158C79.3861 22.4172 79.0069 22.4005 74.1156 22.367L68.8843 22.3318V35.5488H73.5177C76.2455 35.5488 78.5248 35.4996 79.0293 35.4298L79.0439 35.4467ZM85.2467 49.0164C85.22 48.9712 85.3891 48.4893 85.6222 47.9435C85.8558 47.3996 86.4761 45.9201 87.0029 44.6392C87.5279 43.3677 88.0249 42.1889 88.1071 42.0033C88.1893 41.8217 88.4621 41.1772 88.7143 40.5739C89.1553 39.5139 89.3944 38.9515 89.6018 38.4762C89.6556 38.3552 89.9045 37.7616 90.1548 37.1564C90.4052 36.5512 90.6761 35.9071 90.7564 35.727C90.8368 35.547 91.16 34.7784 91.4739 34.0211C91.7877 33.2655 92.1894 32.2984 92.365 31.8677C92.7406 30.9655 93.998 28.0066 94.1418 27.691C94.1962 27.5699 94.3698 27.1489 94.5267 26.7554C94.6844 26.3619 94.8574 25.9405 94.9134 25.8198C94.9684 25.6988 95.119 25.352 95.2479 25.0494C95.3774 24.7469 95.5543 24.344 95.6421 24.1528C95.729 23.9616 95.8002 23.7741 95.8002 23.7333C95.8002 23.6711 95.9713 23.2618 96.3532 22.4079C96.5736 21.9178 96.8894 21.1604 97.1341 20.533C97.2773 20.1692 97.4405 19.8109 97.4966 19.7348C97.567 19.6395 97.9637 19.5972 98.7895 19.5972H99.9815L100.126 19.9555C100.415 20.6739 101.688 23.6681 101.994 24.3921C102.048 24.5131 102.297 25.1068 102.545 25.712C102.794 26.3171 103.046 26.9111 103.102 27.0318C103.158 27.1528 103.582 28.1679 104.042 29.2965C104.503 30.4159 104.926 31.4313 104.98 31.5427C105.035 31.6637 105.339 32.3817 105.654 33.1373C106.403 34.9249 107.181 36.7571 107.306 37.0355C107.36 37.1566 107.51 37.5033 107.638 37.8059C107.767 38.1085 107.917 38.4556 107.971 38.5763C108.026 38.6973 108.201 39.1183 108.36 39.5119C108.631 40.182 108.849 40.6999 109.081 41.2178C109.135 41.3389 109.309 41.7599 109.468 42.1534C109.626 42.547 109.828 43.024 109.916 43.2153C110.004 43.4065 110.075 43.5958 110.075 43.6366C110.075 43.6782 110.225 44.0339 110.408 44.4256C110.59 44.8173 110.74 45.1644 110.74 45.1978C110.74 45.2312 110.812 45.4113 110.899 45.6025C110.987 45.7937 111.189 46.2708 111.348 46.6643C111.507 47.0578 111.682 47.4792 111.736 47.5999C112.119 48.4464 112.291 48.8678 112.291 48.9699C112.291 49.1468 109.246 49.1262 109.115 48.9483C109.054 48.8726 108.568 47.7454 108.037 46.4423C107.505 45.141 107.004 43.9362 106.924 43.7506C106.843 43.5691 106.647 43.099 106.488 42.7055C106.329 42.312 106.154 41.8906 106.1 41.7699C105.949 41.4395 105.599 40.606 105.438 40.2013L105.296 39.843L92.1246 39.8999L91.4688 41.4944C91.1082 42.3725 90.7644 43.2041 90.7065 43.3452C90.6479 43.4853 90.5999 43.6236 90.5999 43.6533C90.5999 43.7005 90.3588 44.2659 90.045 44.9602C89.99 45.0812 89.8152 45.5022 89.6563 45.8958C89.4975 46.2893 89.3014 46.759 89.2229 46.9409C89.1429 47.1224 88.9128 47.6797 88.7091 48.1791L88.341 49.0868H86.8184C85.9813 49.0868 85.2751 49.0497 85.2471 49.0044L85.2467 49.0164ZM104.49 37.4887C104.49 37.4345 104.109 36.4918 103.781 35.7326C103.702 35.551 103.521 35.081 103.377 34.6875C103.234 34.2939 103.052 33.8484 102.973 33.6981C102.895 33.5468 102.83 33.3825 102.83 33.3342C102.828 33.2575 102.634 32.7866 102.275 31.9921C102.22 31.8711 102.045 31.45 101.886 31.0565C101.727 30.663 101.533 30.1933 101.453 30.0114C101.373 29.8298 101.216 29.4341 101.103 29.1315C100.991 28.8289 100.836 28.4577 100.758 28.3054C100.68 28.1541 100.615 27.988 100.615 27.9379C100.615 27.8865 100.542 27.6891 100.454 27.4979C100.366 27.3067 100.111 26.6811 99.8864 26.1057C99.6622 25.5302 99.3931 24.8619 99.2866 24.6206C99.1809 24.3793 99.0251 24.0192 98.941 23.8224C98.7486 23.3769 98.6234 23.4122 98.4347 23.9663C98.3536 24.2057 98.2404 24.499 98.1825 24.6197C98.1249 24.7407 97.9732 25.0875 97.8443 25.3901C97.7157 25.6927 97.5659 26.0398 97.5099 26.1604C97.4198 26.3591 96.2151 29.2234 94.726 32.769C94.4215 33.4948 94.1282 34.1891 94.074 34.3097C94.0198 34.4304 93.7713 35.0244 93.5228 35.6296C93.2744 36.2347 92.9978 36.8919 92.9082 37.0905C92.8185 37.2891 92.7456 37.4748 92.7456 37.5026C92.7456 37.5308 95.38 37.5538 98.6122 37.5538C101.844 37.5538 104.479 37.5275 104.479 37.4955L104.49 37.4887ZM141.67 48.9608C141.641 48.8834 141.629 42.2594 141.645 34.2401L141.673 19.6679H144.55L144.579 26.1836L144.608 32.6994H161.983V19.6123H164.972V49.1278H161.983V35.3725H144.608L144.551 49.0721L143.136 49.103C142.066 49.1263 141.709 49.0996 141.668 48.9929L141.67 48.9608ZM171.563 34.3515V19.6123H190.994V22.3596H174.497V32.6994H188.883V35.3353H174.497V46.3433H191.33V49.0907H171.526L171.563 34.3515Z" fill="#ABABAB"/>
</svg>
