<svg width="297" height="53" viewBox="0 0 297 53" fill="none" xmlns="http://www.w3.org/2000/svg">
<path d="M0.191406 1.13352C0.191406 0.778351 0.445099 0.524658 0.800267 0.524658H5.36672C5.72189 0.524658 5.97558 0.778351 5.97558 1.13352V52.2271C5.97558 52.5822 5.72189 52.8359 5.36672 52.8359H0.800267C0.445099 52.8359 0.191406 52.5822 0.191406 52.2271V1.13352ZM11.8105 1.13352C11.8105 0.778351 12.0642 0.524658 12.4194 0.524658H16.9858C17.341 0.524658 17.5947 0.778351 17.5947 1.13352V52.2271C17.5947 52.5822 17.341 52.8359 16.9858 52.8359H12.4194C12.0642 52.8359 11.8105 52.5822 11.8105 52.2271V1.13352ZM23.4296 1.13352C23.4296 0.778351 23.6833 0.524658 24.0384 0.524658H28.6049C28.9601 0.524658 29.2138 0.778351 29.2138 1.13352V52.2271C29.2138 52.5822 28.9601 52.8359 28.6049 52.8359H24.0384C23.6833 52.8359 23.4296 52.5822 23.4296 52.2271V1.13352ZM35.0487 1.13352C35.0487 0.778351 35.3024 0.524658 35.6575 0.524658H40.224C40.5792 0.524658 40.8329 0.778351 40.8329 1.13352V52.2271C40.8329 52.5822 40.5792 52.8359 40.224 52.8359H35.6575C35.3024 52.8359 35.0487 52.5822 35.0487 52.2271V1.13352ZM46.6678 21.4796C46.6678 21.1244 46.9215 20.8708 47.2766 20.8708H51.8431C52.1983 20.8708 52.4519 21.1244 52.4519 21.4796V31.881C52.4519 32.2362 52.1983 32.4898 51.8431 32.4898H47.2766C46.9215 32.4898 46.6678 32.2362 46.6678 31.881V21.4796ZM82.895 14.7821C81.2714 14.7821 79.7999 15.0866 78.4807 15.6447C77.1615 16.2028 76.0453 17.0146 75.132 18.1309C74.2187 19.2471 73.5591 20.6171 73.0517 22.19C72.5951 23.7628 72.3414 25.5387 72.3414 27.5175C72.3414 30.1051 72.7473 32.3884 73.5084 34.3164C74.2695 36.1937 75.4364 37.6652 77.0093 38.6799C78.5822 39.6947 80.5103 40.2021 82.8442 40.2021C84.2649 40.2021 85.6349 40.1006 86.9541 39.8469C88.2732 39.5932 89.6432 39.1873 91.0131 38.7814V43.0942C89.6939 43.6016 88.3747 43.9567 87.0048 44.1597C85.6349 44.4134 84.062 44.5148 82.2861 44.5148C78.8866 44.5148 76.096 43.8045 73.8128 42.4346C71.5803 41.0646 69.906 39.0351 68.7897 36.4982C67.6735 33.9105 67.1153 30.917 67.1153 27.4667C67.1153 24.9806 67.4705 22.6466 68.1301 20.5663C68.8405 18.4353 69.8552 16.6595 71.1744 15.1373C72.4936 13.6152 74.168 12.4482 76.096 11.6364C78.0748 10.8246 80.3581 10.3679 82.9457 10.3679C84.6201 10.3679 86.2437 10.5709 87.8673 10.926C89.491 11.2812 90.9116 11.7378 92.2308 12.3974L90.3535 16.558C89.288 16.0506 88.0703 15.6447 86.8018 15.2388C85.6349 14.9851 84.3157 14.7821 82.895 14.7821ZM102.531 44.1089H97.6091V8.79502H102.531V44.1089ZM113.338 19.0442V44.1089H108.416V19.0442H113.338ZM110.953 9.55609C111.714 9.55609 112.323 9.75904 112.881 10.2157C113.439 10.6723 113.693 11.3827 113.693 12.3974C113.693 13.4122 113.439 14.1225 112.881 14.5792C112.323 15.0358 111.664 15.2388 110.953 15.2388C110.141 15.2388 109.482 15.0358 108.924 14.5792C108.416 14.1225 108.112 13.3615 108.112 12.3974C108.112 11.3827 108.366 10.6216 108.924 10.2157C109.431 9.75904 110.141 9.55609 110.953 9.55609ZM130.234 44.5656C127.951 44.5656 125.921 44.1089 124.196 43.1956C122.471 42.2824 121.101 40.9124 120.137 39.0351C119.173 37.107 118.716 34.6716 118.716 31.7288C118.716 28.6337 119.224 26.0968 120.238 24.2195C121.304 22.2914 122.725 20.8708 124.45 20.0082C126.226 19.0949 128.306 18.6383 130.589 18.6383C131.959 18.6383 133.278 18.7905 134.496 19.0949C135.714 19.3486 136.779 19.7038 137.54 20.0589L136.069 24.0673C135.206 23.7121 134.293 23.4077 133.278 23.2047C132.314 22.951 131.401 22.8495 130.538 22.8495C128.965 22.8495 127.697 23.2047 126.682 23.8643C125.667 24.5239 124.957 25.4879 124.45 26.8579C123.993 28.1771 123.739 29.8007 123.739 31.7795C123.739 33.6568 123.993 35.2805 124.5 36.5489C125.008 37.8681 125.718 38.8321 126.682 39.5425C127.697 40.2021 128.915 40.5065 130.335 40.5065C131.705 40.5065 132.974 40.3543 133.989 40.0499C135.054 39.7454 136.018 39.3395 136.982 38.8321V43.0942C136.069 43.6016 135.105 44.0075 134.039 44.2612C133.075 44.4641 131.756 44.5656 130.234 44.5656ZM146.825 30.0037C147.181 29.6485 157.531 19.0442 157.531 19.0442H163.265L153.168 29.8007L163.924 44.1089H158.089L149.819 32.8958L146.927 35.3312V44.1089H142.056V8.79502H146.927M194.469 44.1089H189.446V28.9382H173.615V44.1089H168.592V10.926H173.615V24.6761H189.446V10.926H194.469V44.1089ZM222.527 31.5766C222.527 33.6568 222.223 35.4834 221.715 37.107C221.157 38.7307 220.345 40.1006 219.331 41.2168C218.316 42.3331 217.047 43.1956 215.627 43.7538C214.155 44.3119 212.532 44.5656 210.705 44.5656C209.031 44.5656 207.458 44.3119 206.037 43.7538C204.616 43.1449 203.348 42.3331 202.333 41.2168C201.318 40.1006 200.507 38.7307 199.898 37.107C199.289 35.4834 199.035 33.6568 199.035 31.5258C199.035 28.7859 199.492 26.452 200.405 24.5239C201.369 22.5959 202.739 21.1244 204.515 20.1604C206.291 19.1456 208.422 18.6383 210.857 18.6383C213.14 18.6383 215.17 19.1456 216.895 20.1604C218.671 21.1752 220.041 22.5959 221.056 24.5239C222.02 26.4012 222.527 28.7859 222.527 31.5766ZM204.058 31.5766C204.058 33.4539 204.312 35.0268 204.769 36.3967C205.225 37.7159 205.986 38.7307 206.95 39.441C207.965 40.1513 209.234 40.5065 210.756 40.5065C212.329 40.5065 213.597 40.1513 214.561 39.441C215.576 38.7307 216.286 37.7159 216.743 36.3967C217.199 35.0268 217.453 33.4031 217.453 31.5766C217.453 29.6485 217.199 28.0249 216.692 26.7564C216.235 25.4372 215.474 24.4732 214.51 23.7628C213.546 23.0525 212.278 22.6973 210.705 22.6973C208.371 22.6973 206.697 23.4584 205.631 25.0313C204.566 26.5535 204.058 28.7352 204.058 31.5766ZM248.759 19.0442V44.1089H244.801L244.142 40.8109H243.888C243.38 41.6735 242.67 42.3838 241.858 42.942C241.047 43.5001 240.083 43.906 239.118 44.1597C238.104 44.4134 237.089 44.5656 236.074 44.5656C234.146 44.5656 232.472 44.2612 231.102 43.6523C229.783 42.9927 228.768 42.0287 228.057 40.6587C227.398 39.2888 227.043 37.5637 227.043 35.4327V19.0442H232.015V34.7223C232.015 36.6504 232.421 38.1218 233.233 39.0858C234.045 40.0499 235.364 40.5065 237.089 40.5065C238.814 40.5065 240.184 40.1513 241.199 39.4917C242.214 38.8321 242.873 37.8174 243.279 36.4982C243.736 35.179 243.939 33.5553 243.939 31.7288V19.0442H248.759ZM271.287 37.0563C271.287 38.6799 270.881 40.1006 270.069 41.2168C269.257 42.3331 268.09 43.1956 266.568 43.7538C265.046 44.3119 263.219 44.5656 261.088 44.5656C259.312 44.5656 257.79 44.4134 256.522 44.1597C255.304 43.906 254.137 43.5508 253.072 43.0434V38.7307C254.188 39.2381 255.456 39.7454 256.928 40.1513C258.399 40.5572 259.82 40.7602 261.19 40.7602C263.067 40.7602 264.386 40.4558 265.198 39.8976C266.01 39.2888 266.466 38.5277 266.466 37.5129C266.466 36.9548 266.314 36.4474 266.01 36.0415C265.705 35.5849 265.097 35.1282 264.234 34.6716C263.371 34.1642 262.154 33.6061 260.53 32.9972C258.957 32.3376 257.587 31.7288 256.471 31.0692C255.355 30.4096 254.492 29.6485 253.934 28.7859C253.325 27.8727 253.072 26.7564 253.072 25.3357C253.072 23.154 253.934 21.5304 255.659 20.3634C257.435 19.1964 259.769 18.5875 262.61 18.5875C264.133 18.5875 265.553 18.7397 266.872 19.0442C268.242 19.2979 269.561 19.7545 270.83 20.3634L269.206 24.118C268.496 23.7628 267.735 23.5091 266.974 23.3062C266.213 23.0525 265.452 22.8496 264.691 22.6973C263.93 22.5451 263.168 22.4436 262.357 22.4436C260.885 22.4436 259.718 22.6973 258.957 23.154C258.196 23.6106 257.79 24.2702 257.79 25.082C257.79 25.6909 257.942 26.1983 258.298 26.6042C258.653 27.0608 259.312 27.4667 260.226 27.9234C261.139 28.38 262.357 28.8874 263.879 29.4963C265.452 30.1051 266.771 30.714 267.836 31.3229C268.953 31.9317 269.764 32.6928 270.323 33.6061C270.982 34.5194 271.287 35.6864 271.287 37.0563ZM286.356 18.5875C288.538 18.5875 290.466 19.0442 292.039 19.9575C293.612 20.8708 294.829 22.1392 295.641 23.8643C296.504 25.5894 296.96 27.5682 296.96 29.9022V32.5913H280.115C280.166 35.179 280.825 37.107 282.094 38.477C283.413 39.8469 285.189 40.5065 287.523 40.5065C289.147 40.5065 290.567 40.3543 291.785 40.1006C293.053 39.7962 294.373 39.3395 295.692 38.7307V42.8405C294.474 43.3986 293.206 43.8045 291.886 44.1089C290.618 44.3626 289.096 44.5148 287.32 44.5148C284.884 44.5148 282.753 44.0582 280.927 43.0942C279.05 42.1301 277.629 40.7095 276.563 38.8321C275.549 36.9041 275.041 34.5701 275.041 31.7795C275.041 28.9382 275.498 26.5535 276.411 24.6254C277.375 22.6973 278.694 21.1752 280.369 20.1604C282.094 19.1456 284.123 18.5875 286.356 18.5875ZM286.356 22.3929C284.58 22.3929 283.159 22.951 282.094 24.118C281.028 25.285 280.42 26.9086 280.217 28.9889H292.039C292.039 27.6697 291.836 26.5535 291.43 25.5387C291.024 24.5239 290.415 23.7628 289.552 23.2047C288.741 22.6973 287.675 22.3929 286.356 22.3929Z" fill="#ABABAB"/>
</svg>
