<svg width="102" height="34" viewBox="0 0 102 34" fill="none" xmlns="http://www.w3.org/2000/svg">
<g clip-path="url(#clip0_12_487)">
<path d="M94.7 10.6L89.1 9.30002L88.1 8.90002L62.4 9.10003V21.5L94.7 21.6V10.6Z" fill="#09090A"/>
<path d="M84.2 20.4C84.3609 19.9741 84.4176 19.5159 84.3654 19.0636C84.3133 18.6113 84.1537 18.1781 83.9 17.8C83.6395 17.4876 83.3199 17.2297 82.9595 17.0409C82.5992 16.8522 82.2052 16.7363 81.8 16.7L64.4 16.5C64.3 16.5 64.2 16.4 64.1 16.4C64.0767 16.3825 64.0578 16.3599 64.0448 16.3339C64.0318 16.3078 64.025 16.2791 64.025 16.25C64.025 16.2209 64.0318 16.1922 64.0448 16.1662C64.0578 16.1401 64.0767 16.1175 64.1 16.1C64.2 15.9 64.3 15.8 64.5 15.8L82 15.6C83.111 15.4767 84.1691 15.0597 85.0655 14.3918C85.9618 13.7239 86.6641 12.8293 87.1 11.8L88.1 9.20002C88.1 9.10002 88.2 9.00001 88.1 8.90001C87.5563 6.47843 86.237 4.30052 84.3426 2.69721C82.4481 1.09391 80.082 0.152865 77.6039 0.0170769C75.1257 -0.118712 72.671 0.558179 70.6127 1.94489C68.5544 3.33161 67.005 5.35233 66.2 7.70002C65.155 6.95365 63.8803 6.59957 62.6 6.70002C61.4251 6.83102 60.3297 7.35777 59.4937 8.19372C58.6578 9.02966 58.131 10.1251 58 11.3C57.9334 11.9014 57.9672 12.5097 58.1 13.1C56.1989 13.1526 54.3934 13.9448 53.0674 15.3081C51.7415 16.6714 50.9997 18.4982 51 20.4C50.9836 20.7695 51.0172 21.1395 51.1 21.5C51.1046 21.5781 51.1377 21.6517 51.193 21.707C51.2483 21.7623 51.3219 21.7954 51.4 21.8H83.5C83.7 21.8 83.9 21.7 83.9 21.5L84.2 20.4Z" fill="#ABABAB"/>
<path d="M89.7 9.20001H89.2C89.1 9.20001 89 9.30001 88.9 9.40001L88.2 11.8C88.0391 12.2259 87.9824 12.6841 88.0346 13.1364C88.0868 13.5887 88.2464 14.0219 88.5 14.4C88.7606 14.7124 89.0802 14.9703 89.4405 15.1591C89.8008 15.3478 90.1949 15.4637 90.6 15.5L94.3 15.7C94.4 15.7 94.5 15.8 94.6 15.8C94.6233 15.8175 94.6422 15.8401 94.6552 15.8662C94.6682 15.8922 94.675 15.9209 94.675 15.95C94.675 15.9791 94.6682 16.0078 94.6552 16.0339C94.6422 16.0599 94.6233 16.0825 94.6 16.1C94.5 16.3 94.4 16.4 94.2 16.4L90.4 16.6C89.289 16.7233 88.2309 17.1403 87.3346 17.8082C86.4382 18.4761 85.736 19.3707 85.3 20.4L85.1 21.3C85 21.4 85.1 21.6 85.3 21.6H98.5C98.5408 21.6058 98.5823 21.6021 98.6214 21.5891C98.6604 21.5761 98.6959 21.5541 98.725 21.525C98.7541 21.4959 98.7761 21.4604 98.7891 21.4214C98.8021 21.3823 98.8058 21.3408 98.8 21.3C99.0381 20.4527 99.1724 19.5797 99.2 18.7C99.1842 16.1853 98.1782 13.7782 96.4 12C94.6219 10.2218 92.2147 9.21586 89.7 9.20001Z" fill="#ABABAB"/>
<path d="M100.5 27.2C100.322 27.2 100.148 27.1472 100 27.0483C99.852 26.9494 99.7366 26.8089 99.6685 26.6444C99.6004 26.48 99.5826 26.299 99.6173 26.1244C99.652 25.9498 99.7377 25.7895 99.8636 25.6636C99.9895 25.5377 100.15 25.452 100.324 25.4173C100.499 25.3826 100.68 25.4004 100.844 25.4685C101.009 25.5366 101.149 25.652 101.248 25.8C101.347 25.948 101.4 26.122 101.4 26.3C101.4 26.4183 101.378 26.5356 101.332 26.645C101.287 26.7544 101.221 26.8538 101.137 26.9375C101.054 27.0212 100.954 27.0875 100.845 27.1325C100.736 27.1776 100.618 27.2005 100.5 27.2ZM100.5 25.6C100.362 25.6 100.226 25.6411 100.111 25.718C99.996 25.7949 99.9063 25.9042 99.8533 26.0321C99.8003 26.16 99.7864 26.3008 99.8135 26.4366C99.8405 26.5724 99.9071 26.6971 100.005 26.795C100.103 26.8929 100.228 26.9596 100.363 26.9866C100.499 27.0136 100.64 26.9997 100.768 26.9467C100.896 26.8937 101.005 26.804 101.082 26.6889C101.159 26.5738 101.2 26.4385 101.2 26.3C101.202 26.2075 101.186 26.1154 101.151 26.0295C101.117 25.9435 101.065 25.8655 101 25.8C100.935 25.7346 100.856 25.6831 100.771 25.6487C100.685 25.6143 100.593 25.5978 100.5 25.6ZM100.9 26.8H100.7L100.5 26.5H100.3V26.8H100.1V25.9H100.6C100.641 25.8942 100.682 25.8979 100.721 25.911C100.76 25.924 100.796 25.9459 100.825 25.975C100.854 26.0041 100.876 26.0396 100.889 26.0787C100.902 26.1177 100.906 26.1593 100.9 26.2C100.9 26.3 100.8 26.4 100.7 26.5L100.9 26.8ZM100.6 26.3C100.7 26.3 100.7 26.3 100.7 26.2C100.7 26.1868 100.698 26.1737 100.693 26.1614C100.688 26.1492 100.681 26.138 100.671 26.1287C100.662 26.1193 100.651 26.112 100.639 26.1071C100.626 26.1021 100.613 26.0997 100.6 26.1H100.3V26.4H100.6V26.3ZM10.9 25.4H13.1V31.4H16.9V33.3H10.9V25.4ZM19.2 29.3C19.2 28.7445 19.3128 28.1949 19.5315 27.6842C19.7502 27.1736 20.0702 26.7127 20.4722 26.3294C20.8742 25.9461 21.3499 25.6484 21.8703 25.4542C22.3907 25.2601 22.9452 25.1736 23.5 25.2C24.0497 25.1753 24.5986 25.2636 25.1127 25.4596C25.6268 25.6555 26.0953 25.955 26.489 26.3393C26.8827 26.7237 27.1934 27.1848 27.4017 27.694C27.61 28.2033 27.7115 28.7499 27.7 29.3C27.7 29.8555 27.5872 30.4052 27.3685 30.9158C27.1498 31.4264 26.8298 31.8873 26.4278 32.2706C26.0258 32.6539 25.5502 32.9517 25.0297 33.1458C24.5093 33.3399 23.9548 33.4264 23.4 33.4C22.8525 33.4163 22.3073 33.3221 21.7969 33.1231C21.2866 32.9241 20.8215 32.6243 20.4296 32.2417C20.0376 31.859 19.7267 31.4014 19.5155 30.896C19.3042 30.3906 19.1969 29.8478 19.2 29.3ZM25.5 29.3C25.5196 29.0228 25.4828 28.7445 25.3918 28.4819C25.3008 28.2193 25.1575 27.9779 24.9705 27.7723C24.7836 27.5666 24.5569 27.401 24.3041 27.2855C24.0514 27.1699 23.7778 27.1068 23.5 27.1C22.9608 27.1263 22.4523 27.3591 22.08 27.75C21.7077 28.141 21.5 28.6601 21.5 29.2C21.5 29.7399 21.7077 30.2591 22.08 30.65C22.4523 31.041 22.9608 31.2737 23.5 31.3C24.7 31.5 25.5 30.5 25.5 29.3ZM30.4 29.8V25.4H32.6V29.8C32.6 30.9 33.2 31.5 34.1 31.5C34.3102 31.5175 34.5216 31.4872 34.7185 31.4115C34.9153 31.3357 35.0925 31.2164 35.2367 31.0626C35.381 30.9087 35.4886 30.7242 35.5515 30.5229C35.6144 30.3216 35.631 30.1086 35.6 29.9V25.4H37.8V29.8C37.8 32.4 36.3 33.5 34.1 33.5C31.8 33.4 30.4 32.3 30.4 29.8ZM41.1 25.4H44.2C47 25.4 48.7 27 48.7 29.3C48.7 31.6 47 33.3 44.2 33.3H41.2V25.4H41.1ZM44.2 31.3C44.4787 31.3266 44.7598 31.2947 45.0254 31.2063C45.291 31.1179 45.5352 30.9749 45.7424 30.7866C45.9495 30.5983 46.115 30.3688 46.2282 30.1128C46.3415 29.8568 46.4 29.5799 46.4 29.3C46.4 29.0201 46.3415 28.7432 46.2282 28.4872C46.115 28.2312 45.9495 28.0017 45.7424 27.8134C45.5352 27.6251 45.291 27.4822 45.0254 27.3938C44.7598 27.3053 44.4787 27.2734 44.2 27.3H43.3V31.3H44.2ZM51.8 25.4H58.1V27.3H54V28.6H57.7V30.4H54V33.3H51.8V25.4ZM61.2 25.4H63.4V31.4H67.2V33.3H61.2V25.4ZM72.9 25.3H75.1L78.5 33.3H76.1L75.5 31.9H72.4L71.8 33.3H69.5L72.9 25.3ZM74.9 30.2L74 28L73.1 30.2H74.9ZM81.3 25.4H85C85.4721 25.3617 85.947 25.4219 86.3946 25.5769C86.8421 25.7318 87.2526 25.978 87.6 26.3C87.8865 26.6089 88.0944 26.9823 88.2061 27.3886C88.3179 27.7948 88.3301 28.222 88.2418 28.634C88.1535 29.046 87.9673 29.4306 87.699 29.7554C87.4306 30.0802 87.0879 30.3356 86.7 30.5L88.6 33.3H86.1L84.5 30.9H83.5V33.3H81.3V25.4ZM84.9 29.2C85.6 29.2 86.1 28.8 86.1 28.3C86.1 27.7 85.6 27.4 84.9 27.4H83.5V29.3H84.9V29.2ZM91.4 25.4H97.8V27.2H93.6V28.4H97.4V30.2H93.6V31.4H97.9V33.3H91.4V25.4ZM6.1 30.3C5.94918 30.6534 5.69857 30.9552 5.37886 31.1683C5.05916 31.3814 4.68423 31.4967 4.3 31.5C3.76077 31.4737 3.25233 31.241 2.88 30.85C2.50768 30.4591 2.3 29.9399 2.3 29.4C2.3 28.8601 2.50768 28.341 2.88 27.95C3.25233 27.5591 3.76077 27.3263 4.3 27.3C4.70896 27.3079 5.1067 27.4351 5.44427 27.6661C5.78185 27.8971 6.04453 28.2217 6.2 28.6H8.5C8.30325 27.6421 7.77334 26.7849 7.0044 26.1808C6.23546 25.5766 5.27726 25.2645 4.3 25.3C3.74723 25.282 3.1964 25.3743 2.67968 25.5715C2.16295 25.7687 1.69067 26.0668 1.2904 26.4485C0.890119 26.8301 0.569861 27.2877 0.348311 27.7944C0.126761 28.3012 0.00835557 28.847 3.37062e-06 29.4C-0.00307477 29.9478 0.104212 30.4906 0.315462 30.996C0.526712 31.5014 0.837597 31.959 1.22957 32.3417C1.62155 32.7243 2.08658 33.0241 2.59692 33.2231C3.10727 33.4221 3.65247 33.5163 4.2 33.5C5.15546 33.5065 6.08608 33.1958 6.8461 32.6168C7.60612 32.0377 8.15262 31.2229 8.4 30.3H6.1Z" fill="#ABABAB"/>
</g>
<defs>
<clipPath id="clip0_12_487">
<rect width="101.4" height="33.5" fill="white"/>
</clipPath>
</defs>
</svg>
