<svg width="294" height="56" viewBox="0 0 294 56" fill="none" xmlns="http://www.w3.org/2000/svg">
<g clip-path="url(#clip0_5_299)">
<path d="M80.367 43.1354C78.3399 43.1354 76.4325 42.7493 74.6455 41.9771C72.8583 41.2049 71.2977 40.1529 69.9641 38.8214C68.657 37.4902 67.6167 35.9455 66.8435 34.188C66.07 32.404 65.6831 30.5001 65.6831 28.4764C65.6831 26.4525 66.07 24.5619 66.8435 22.8044C67.6167 21.0202 68.657 19.4624 69.9641 18.131C71.2977 16.7996 72.8583 15.7477 74.6455 14.9755C76.4325 14.2033 78.3399 13.8171 80.367 13.8171C81.8341 13.8171 83.2344 14.0035 84.5681 14.3763C85.9286 14.7492 87.1689 15.2817 88.2892 15.9741C89.4363 16.6398 90.4633 17.452 91.3702 18.4106C92.2771 19.3426 93.0371 20.3945 93.6507 21.5661L88.0493 24.6018C87.2492 23.1638 86.2089 22.0321 84.9284 21.2066C83.6745 20.3811 82.1543 19.9684 80.367 19.9684C79.1934 19.9684 78.0996 20.1947 77.0862 20.6474C76.0993 21.1001 75.2323 21.7259 74.4856 22.5247C73.7386 23.297 73.1517 24.2024 72.7249 25.2409C72.2982 26.2528 72.0848 27.3311 72.0848 28.4764C72.0848 29.6214 72.2982 30.713 72.7249 31.7517C73.1517 32.7635 73.7386 33.6688 74.4856 34.4679C75.2323 35.24 76.0993 35.8525 77.0862 36.305C78.0996 36.7578 79.1934 36.9842 80.367 36.9842C82.1543 36.9842 83.6745 36.5713 84.9284 35.746C86.2089 34.9204 87.2492 33.7887 88.0493 32.3509L93.6507 35.3864C93.0371 36.558 92.2771 37.6233 91.3702 38.582C90.4633 39.5139 89.4363 40.3262 88.2892 41.0184C87.1689 41.684 85.9286 42.2035 84.5681 42.5763C83.2344 42.9491 81.8341 43.1354 80.367 43.1354Z" fill="#ABABAB"/>
<path d="M96.8497 22.6846H102.891V25.6803C103.212 24.8016 103.798 24.0427 104.652 23.4036C105.532 22.7645 106.533 22.4449 107.653 22.4449C107.946 22.4449 108.253 22.4583 108.573 22.4849C108.893 22.5115 109.24 22.5781 109.613 22.6846V28.7958C109.16 28.6361 108.72 28.5163 108.293 28.4363C107.866 28.3566 107.413 28.3165 106.933 28.3165C105.626 28.3165 104.625 28.7693 103.932 29.6746C103.238 30.5799 102.891 31.7517 102.891 33.1895V42.6561H96.8497V22.6846Z" fill="#ABABAB"/>
<path d="M120.366 43.0956C119.059 43.0956 117.832 42.8161 116.685 42.2567C115.565 41.6977 114.591 40.952 113.764 40.0199C112.937 39.0612 112.284 37.9563 111.804 36.7048C111.324 35.4264 111.084 34.0816 111.084 32.6703C111.084 31.2591 111.324 29.9276 111.804 28.676C112.284 27.3979 112.937 26.2928 113.764 25.3608C114.591 24.4022 115.565 23.6432 116.685 23.084C117.832 22.5248 119.059 22.2452 120.366 22.2452C121.033 22.2452 121.646 22.3251 122.207 22.4849C122.794 22.618 123.314 22.8044 123.767 23.0441C124.247 23.2838 124.647 23.55 124.967 23.843C125.314 24.1359 125.594 24.4155 125.808 24.6818V22.6846H131.849V42.6561H125.808V40.659C125.594 40.9252 125.314 41.205 124.967 41.4978C124.647 41.7907 124.247 42.0569 123.767 42.2966C123.314 42.5363 122.794 42.7228 122.207 42.8559C121.646 43.0156 121.033 43.0956 120.366 43.0956ZM121.726 37.6234C123.087 37.6234 124.18 37.1573 125.008 36.2254C125.861 35.2933 126.288 34.1084 126.288 32.6703C126.288 31.2325 125.861 30.0474 125.008 29.1155C124.18 28.1834 123.087 27.7173 121.726 27.7173C120.366 27.7173 119.259 28.1834 118.405 29.1155C117.579 30.0474 117.165 31.2325 117.165 32.6703C117.165 34.1084 117.579 35.2933 118.405 36.2254C119.259 37.1573 120.366 37.6234 121.726 37.6234Z" fill="#ABABAB"/>
<path d="M148.305 43.0957C147.638 43.0957 147.012 43.0157 146.425 42.856C145.864 42.7228 145.344 42.5363 144.864 42.2966C144.411 42.057 144.01 41.7907 143.664 41.4979C143.317 41.2051 143.05 40.9253 142.863 40.659V42.6561H136.822V12.6989H142.863V24.6818C143.05 24.4155 143.317 24.1359 143.664 23.843C144.01 23.5501 144.411 23.2838 144.864 23.0441C145.344 22.8045 145.864 22.6181 146.425 22.4849C147.012 22.3252 147.638 22.2453 148.305 22.2453C149.612 22.2453 150.826 22.5249 151.946 23.0841C153.093 23.6433 154.08 24.4022 154.907 25.3608C155.734 26.2928 156.387 27.398 156.868 28.6761C157.348 29.9276 157.587 31.2591 157.587 32.6704C157.587 34.0816 157.348 35.4264 156.868 36.7048C156.387 37.9564 155.734 39.0612 154.907 40.0199C154.08 40.9521 153.093 41.6977 151.946 42.2568C150.826 42.8161 149.612 43.0957 148.305 43.0957ZM146.945 37.6234C148.305 37.6234 149.399 37.1573 150.225 36.2255C151.079 35.2933 151.506 34.1085 151.506 32.6704C151.506 31.2326 151.079 30.0475 150.225 29.1156C149.399 28.1834 148.305 27.7174 146.945 27.7174C145.584 27.7174 144.477 28.1834 143.624 29.1156C142.797 30.0475 142.383 31.2326 142.383 32.6704C142.383 34.1085 142.797 35.2933 143.624 36.2255C144.477 37.1573 145.584 37.6234 146.945 37.6234Z" fill="#ABABAB"/>
<path d="M181.578 42.6562L167.734 25.1212V42.6562H161.372V14.2966H166.854L180.657 31.8315V14.2966H187.059V42.6562H181.578Z" fill="#ABABAB"/>
<path d="M201.475 43.0956C200.008 43.0956 198.621 42.8559 197.314 42.3766C196.034 41.8972 194.913 41.205 193.953 40.2994C192.993 39.3941 192.233 38.3023 191.672 37.0242C191.112 35.7195 190.832 34.2681 190.832 32.6703C190.832 31.1791 191.085 29.8077 191.592 28.5562C192.126 27.2781 192.86 26.173 193.793 25.241C194.753 24.309 195.873 23.5767 197.154 23.0441C198.434 22.5115 199.835 22.2452 201.355 22.2452C202.662 22.2452 203.916 22.4583 205.116 22.8843C206.343 23.2838 207.41 23.8962 208.317 24.7217C209.224 25.5206 209.944 26.5325 210.477 27.7574C211.038 28.9556 211.318 30.3671 211.318 31.9914C211.318 32.2577 211.305 32.5638 211.278 32.91C211.278 33.2297 211.251 33.6291 211.198 34.1084H196.674C196.861 35.3066 197.434 36.1986 198.394 36.7845C199.355 37.3438 200.408 37.6234 201.555 37.6234C202.729 37.6234 203.729 37.397 204.556 36.9442C205.41 36.4651 206.023 35.9323 206.397 35.3467L210.878 38.7019C209.944 40.0332 208.664 41.0985 207.037 41.8972C205.436 42.6962 203.582 43.0956 201.475 43.0956ZM205.316 30.154C205.049 29.0887 204.516 28.3298 203.716 27.8773C202.916 27.3979 202.075 27.1582 201.195 27.1582C200.741 27.1582 200.288 27.2114 199.835 27.3179C199.381 27.4245 198.955 27.5975 198.554 27.8372C198.154 28.0768 197.794 28.3832 197.474 28.756C197.181 29.1288 196.967 29.5949 196.834 30.154H205.316Z" fill="#ABABAB"/>
<path d="M226.608 43.0957C225.941 43.0957 225.314 43.0157 224.728 42.856C224.168 42.7228 223.647 42.5363 223.167 42.2966C222.714 42.057 222.314 41.7907 221.967 41.4979C221.62 41.2051 221.353 40.9253 221.167 40.659V42.6561H215.125V12.6989H221.167V24.6818C221.353 24.4155 221.62 24.1359 221.967 23.843C222.314 23.5501 222.714 23.2838 223.167 23.0441C223.647 22.8045 224.168 22.6181 224.728 22.4849C225.314 22.3252 225.941 22.2453 226.608 22.2453C227.915 22.2453 229.129 22.5249 230.249 23.0841C231.396 23.6433 232.383 24.4022 233.21 25.3608C234.037 26.2928 234.69 27.398 235.17 28.6761C235.651 29.9276 235.891 31.2591 235.891 32.6704C235.891 34.0816 235.651 35.4264 235.17 36.7048C234.69 37.9564 234.037 39.0612 233.21 40.0199C232.383 40.9521 231.396 41.6977 230.249 42.2568C229.129 42.8161 227.915 43.0957 226.608 43.0957ZM225.248 37.6234C226.608 37.6234 227.702 37.1573 228.529 36.2255C229.382 35.2933 229.809 34.1085 229.809 32.6704C229.809 31.2326 229.382 30.0475 228.529 29.1156C227.702 28.1834 226.608 27.7174 225.248 27.7174C223.888 27.7174 222.78 28.1834 221.927 29.1156C221.1 30.0475 220.686 31.2326 220.686 32.6704C220.686 34.1085 221.1 35.2933 221.927 36.2255C222.78 37.1573 223.888 37.6234 225.248 37.6234Z" fill="#ABABAB"/>
<path d="M246.985 43.0956C244.504 43.0956 242.624 42.27 241.343 40.6191C240.063 38.9681 239.423 36.7845 239.423 34.0683V22.6846H245.465V33.0298C245.465 34.4945 245.691 35.6262 246.145 36.4249C246.625 37.224 247.425 37.6233 248.545 37.6233C249.692 37.6233 250.599 37.2107 251.266 36.3851C251.96 35.5595 252.307 34.2282 252.307 32.3908V22.6846H258.348V42.6561H252.307V40.6191C251.827 41.3113 251.146 41.8972 250.266 42.3765C249.386 42.8559 248.292 43.0956 246.985 43.0956Z" fill="#ABABAB"/>
<path d="M263.302 12.6989H269.345V42.6561H263.302V12.6989Z" fill="#ABABAB"/>
<path d="M282.402 43.0956C281.095 43.0956 279.867 42.8161 278.722 42.2567C277.603 41.6977 276.628 40.952 275.802 40.0199C274.975 39.0612 274.322 37.9563 273.841 36.7048C273.36 35.4264 273.12 34.0816 273.12 32.6703C273.12 31.2591 273.36 29.9276 273.841 28.676C274.322 27.3979 274.975 26.2928 275.802 25.3608C276.628 24.4022 277.603 23.6432 278.722 23.084C279.867 22.5248 281.095 22.2452 282.402 22.2452C283.072 22.2452 283.683 22.3251 284.244 22.4849C284.831 22.618 285.352 22.8044 285.803 23.0441C286.284 23.2838 286.686 23.55 287.004 23.843C287.352 24.1359 287.631 24.4155 287.844 24.6818V22.6846H293.887V42.6561H287.844V40.659C287.631 40.9252 287.352 41.205 287.004 41.4978C286.686 41.7907 286.284 42.0569 285.803 42.2966C285.352 42.5363 284.831 42.7228 284.244 42.8559C283.683 43.0156 283.072 43.0956 282.402 43.0956ZM283.763 37.6234C285.123 37.6234 286.218 37.1573 287.044 36.2254C287.897 35.2933 288.325 34.1084 288.325 32.6703C288.325 31.2325 287.897 30.0474 287.044 29.1155C286.218 28.1834 285.123 27.7173 283.763 27.7173C282.402 27.7173 281.294 28.1834 280.444 29.1155C279.615 30.0474 279.203 31.2325 279.203 32.6703C279.203 34.1084 279.615 35.2933 280.444 36.2254C281.294 37.1573 282.402 37.6234 283.763 37.6234Z" fill="#ABABAB"/>
<path fill-rule="evenodd" clip-rule="evenodd" d="M25.6832 14.5045C18.5605 23.8792 18.6017 35.8566 25.7752 41.2568C27.6604 42.676 29.8507 43.4998 32.1845 43.7727C25.5638 49.1408 17.9371 50.8066 12.7874 47.3102C5.72511 42.5153 5.99588 29.8269 13.3923 18.9701C19.5685 9.90421 28.7602 4.98207 35.7367 6.39657C32.0517 8.02355 28.5144 10.7779 25.6832 14.5045ZM35.0421 26.4773C31.7155 29.6154 27.9136 31.7015 24.7038 32.3956C26.5991 39.1584 33.8849 39.6782 33.8849 39.6782C33.8849 39.6782 38.2206 38.6831 41.4946 31.3394C44.1908 25.2922 43.9557 19.0436 41.2384 15.8636C41.0123 18.9371 38.7938 22.9382 35.0421 26.4773Z" fill="#ABABAB"/>
</g>
<defs>
<clipPath id="clip0_5_299">
<rect width="293.887" height="55.8012" fill="white"/>
</clipPath>
</defs>
</svg>
