<svg width="291" height="75" viewBox="0 0 291 75" fill="none" xmlns="http://www.w3.org/2000/svg">
<g clip-path="url(#clip0_16_495)">
<path fill-rule="evenodd" clip-rule="evenodd" d="M94.6524 52.8223H81.0824V21.5824H94.6524C104.427 21.5824 109.322 26.506 109.322 36.3497C109.318 47.3291 104.427 52.8223 94.6524 52.8223ZM86.8805 47.7935H93.7743C100.269 47.7935 103.513 43.9801 103.513 36.3461C103.513 29.8477 100.265 26.5968 93.7743 26.5968H86.8805V47.7935Z" fill="#ABABAB"/>
<path fill-rule="evenodd" clip-rule="evenodd" d="M115.396 52.8223H109.438L122.728 21.5824H128.965L142.539 52.8223H136.302L132.362 44.303H122.337L124.328 39.2778H130.83L125.707 27.5438L115.396 52.8223Z" fill="#ABABAB"/>
<path fill-rule="evenodd" clip-rule="evenodd" d="M139.263 21.5824H163.014V26.604H154.041V52.8223H148.243V26.604H139.263V21.5824Z" fill="#ABABAB"/>
<path fill-rule="evenodd" clip-rule="evenodd" d="M165.996 52.8223H160.039L173.329 21.5824H179.566L193.14 52.8223H186.895L182.955 44.303H172.93L174.922 39.2778H181.424L176.304 27.5438L165.996 52.8223Z" fill="#ABABAB"/>
<path fill-rule="evenodd" clip-rule="evenodd" d="M210.559 52.8223H196.99V21.5824H210.559C220.341 21.5824 225.229 26.506 225.229 36.3497C225.229 47.3291 220.341 52.8223 210.559 52.8223ZM202.791 47.7935H209.685C216.176 47.7935 219.431 43.9801 219.431 36.3461C219.431 29.8477 216.18 26.5968 209.685 26.5968H202.791V47.7935Z" fill="#ABABAB"/>
<path fill-rule="evenodd" clip-rule="evenodd" d="M229.158 37.2459C229.158 26.6512 234.401 21.3574 244.88 21.3574C255.199 21.3574 260.351 26.6512 260.351 37.2459C260.351 47.7789 255.195 53.0473 244.88 53.0473C234.866 53.0473 229.626 47.7789 229.158 37.2459ZM244.88 48.0112C251.179 48.0112 254.332 44.3792 254.332 37.108C254.332 29.9529 251.179 26.3718 244.88 26.3718C238.414 26.3718 235.181 29.9529 235.181 37.108C235.181 44.3792 238.414 48.0112 244.88 48.0112Z" fill="#ABABAB"/>
<path fill-rule="evenodd" clip-rule="evenodd" d="M284.556 40.1812V47.4959C283.217 47.8443 282.019 48.0184 280.964 48.0184C273.87 48.0184 270.329 44.2667 270.329 36.767C270.329 29.8405 274.088 26.3827 281.602 26.3827C284.741 26.3827 287.658 26.9668 290.357 28.1315V22.8849C287.658 21.869 284.592 21.3574 281.163 21.3574C269.926 21.3574 264.306 26.4915 264.306 36.767C264.306 47.6157 269.828 53.0473 280.877 53.0473C284.675 53.0473 287.832 52.4958 290.357 51.3855V35.0399H280.989L279.03 40.1776L284.556 40.1812Z" fill="#ABABAB"/>
<path fill-rule="evenodd" clip-rule="evenodd" d="M57.6433 52.6445L51.5223 48.6098L46.4173 57.1364L40.4813 55.4021L35.2529 63.3808L35.5214 65.8916L63.9421 60.6559L62.2912 42.8988L57.6433 52.6445ZM31.1383 44.9924L35.6992 44.3647C36.4357 44.6949 36.9509 44.8219 37.8363 45.0468C39.215 45.406 40.8079 45.7507 43.1699 44.5606C43.7178 44.2885 44.8643 43.2399 45.3251 42.6449L64.0074 39.256L65.9123 62.3213L33.9068 68.0904L31.1383 44.9924ZM65.8397 36.6799L63.9965 37.0318L60.4553 0.429199L0.0906982 7.42825L7.52878 67.7783L14.5931 66.7515C14.0308 65.946 13.1491 64.97 11.6506 63.7218C9.56791 61.9948 10.3045 59.0558 11.5345 57.2017C13.1563 54.0705 21.5269 50.0866 21.0516 45.0795C20.881 43.258 20.5908 40.8887 18.9 39.2633C18.8383 39.9381 18.9508 40.5876 18.9508 40.5876C18.9508 40.5876 18.2578 39.7023 17.9094 38.494C17.5648 38.0296 17.2963 37.8845 16.9298 37.264C16.6686 37.9788 16.7048 38.8097 16.7048 38.8097C16.7048 38.8097 16.1388 37.4672 16.0445 36.3352C15.707 36.8432 15.6236 37.8047 15.6236 37.8047C15.6236 37.8047 14.887 35.6893 15.0539 34.55C14.7165 33.5595 13.7187 31.593 14.0017 27.1228C15.8449 28.4145 19.9014 28.1061 21.4797 25.7767C22.0058 25.0039 22.365 22.8995 21.2185 18.7523C20.4819 16.0927 18.6605 12.1306 17.9494 10.6248L17.8659 10.6865C18.2396 11.8984 19.0125 14.4346 19.31 15.6682C20.2062 19.4018 20.4456 20.7007 20.0248 22.4205C19.6656 23.9154 18.8093 24.8951 16.6323 25.9908C14.4553 27.0902 11.5671 24.4161 11.3821 24.271C9.26675 22.5874 7.63038 19.8372 7.44896 18.5019C7.26029 17.0397 8.29073 16.1617 8.81321 14.9679C8.0694 15.182 7.23852 15.5594 7.23852 15.5594C7.23852 15.5594 8.22905 14.5325 9.4518 13.6472C9.95977 13.3134 10.2537 13.0993 10.787 12.6567C10.0142 12.6458 9.38649 12.6639 9.38649 12.6639C9.38649 12.6639 10.6745 11.9673 12.0098 11.463C11.0338 11.4194 10.0976 11.4557 10.0976 11.4557C10.0976 11.4557 12.9713 10.1713 15.239 9.22791C16.7992 8.58932 18.3231 8.77799 19.1794 10.0153C20.3041 11.6371 21.4834 12.5188 23.9869 13.0667C25.5253 12.3846 25.9897 12.0362 27.92 11.5101C29.6181 9.64154 30.9533 9.39844 30.9533 9.39844C30.9533 9.39844 30.2929 10.0044 30.1152 10.9586C31.0803 10.2003 32.1361 9.56534 32.1361 9.56534C32.1361 9.56534 31.7261 10.0697 31.3452 10.8715L31.4322 11.0022C32.557 10.3273 33.8777 9.79756 33.8777 9.79756C33.8777 9.79756 33.5004 10.2765 33.0577 10.8933C33.9068 10.8861 35.6266 10.9296 36.2906 11.0058C40.231 11.0929 41.0473 6.79692 42.5603 6.25993C44.4543 5.58506 45.2997 5.17506 48.5253 8.34259C51.2937 11.0638 53.4562 15.9294 52.3822 17.0216C51.4824 17.925 49.7045 16.6696 47.738 14.2132C46.6966 12.9143 45.9129 11.3795 45.5428 9.42747C45.2308 7.7802 44.0226 6.82595 44.0226 6.82595C44.0226 6.82595 44.7228 8.38976 44.7228 9.76853C44.7228 10.5232 44.8172 13.3388 46.0254 14.9171C45.9057 15.1493 45.8512 16.0601 45.717 16.2342C44.3128 14.5362 41.2941 13.3207 40.8042 12.9615C42.4696 14.3257 46.2975 17.4606 47.767 20.4649C49.1567 23.3058 48.3367 25.911 49.0405 26.5859C49.2401 26.7782 52.0303 30.2541 52.5673 32.003C53.5034 35.0471 52.6217 38.2473 51.399 40.232L47.9774 40.7654C47.4767 40.6275 47.1393 40.5549 46.6894 40.2973C46.9361 39.8583 47.4296 38.7662 47.4332 38.5412L47.2409 38.2038C46.1742 39.7132 44.3927 41.179 42.9087 42.0208C40.9675 43.1202 38.7324 42.9496 37.2775 42.4997C33.1448 41.2262 29.2371 38.4324 28.2974 37.6994C28.2974 37.6994 28.2683 38.2836 28.4461 38.4178C29.4875 39.5934 31.8749 41.7196 34.1825 43.2L29.2661 43.7406L31.5919 61.8424C30.5614 61.9911 30.4018 62.0637 29.2734 62.2233C28.2792 58.7111 26.378 56.4144 24.2989 55.0792C22.4666 53.8999 19.9377 53.6351 17.514 54.114L17.3579 54.2954C19.0415 54.1213 21.0298 54.3644 23.0689 55.6561C25.0718 56.9224 26.6864 60.1951 27.2814 62.1653C28.0434 64.6834 28.5695 67.3756 26.5195 70.2311C25.0609 72.2593 20.8085 73.3805 17.3688 70.9567C18.2868 72.4335 19.5277 73.6417 21.1967 73.8667C23.6785 74.2041 26.0333 73.7723 27.6515 72.1106C29.0339 70.6882 29.7705 67.713 29.5745 64.5818L31.7624 64.2661L32.5534 69.8864L68.7932 65.5215L65.8397 36.6799ZM43.7903 21.4119C43.6888 21.6441 43.5291 21.7928 43.7686 22.5439L43.7831 22.5874L43.8194 22.6854L43.9173 22.9104C44.3491 23.7884 44.8208 24.6193 45.6081 25.0438C45.8113 25.0112 46.0254 24.9858 46.2431 24.9749C46.9833 24.9422 47.4513 25.0583 47.7489 25.2216C47.7743 25.0728 47.7815 24.8588 47.7634 24.5395C47.7053 23.4256 47.9847 21.5316 45.844 20.5338C45.0349 20.1601 43.9028 20.2726 43.5255 20.7442C43.5944 20.7515 43.6561 20.766 43.7033 20.7841C44.2802 20.9801 43.8956 21.176 43.7903 21.4119ZM49.7916 31.807C49.5122 31.651 48.1988 31.7127 47.2772 31.8215C45.5211 32.0284 43.6234 32.6379 43.2062 32.9608C42.4515 33.545 42.7926 34.5646 43.3513 34.9818C44.9188 36.1501 46.2903 36.9375 47.738 36.7452C48.6269 36.6291 49.4106 35.2213 49.9658 33.9405C50.3504 33.0624 50.3504 32.1154 49.7916 31.807ZM34.2369 22.7906C34.734 22.3189 31.7697 21.7021 29.4693 23.2696C27.7749 24.427 27.7205 26.9088 29.3423 28.3129C29.5056 28.4508 29.6398 28.5524 29.7632 28.6322C30.2385 28.4073 30.7791 28.1823 31.3996 27.9828C32.4518 27.6417 33.3226 27.4639 34.041 27.3732C34.3857 26.9886 34.7848 26.3137 34.6832 25.091C34.549 23.4256 33.29 23.6904 34.2369 22.7906Z" fill="#ABABAB"/>
</g>
<defs>
<clipPath id="clip0_16_495">
<rect width="290.448" height="73.7241" fill="white" transform="translate(0 0.338379)"/>
</clipPath>
</defs>
</svg>
