<svg width="203" height="71" viewBox="0 0 203 71" fill="none" xmlns="http://www.w3.org/2000/svg">
<g clip-path="url(#clip0_5_336)">
<path d="M21.5657 4.53896C21.593 4.47653 21.629 4.42753 21.6854 4.38925C23.0851 3.43918 43.4256 -9.36373 91.6095 13.74C137.123 35.5636 183.017 10.0245 191.263 4.91852C191.537 4.74932 191.995 5.18471 191.848 5.47058L183.56 21.605C183.429 21.8593 183.608 22.162 183.893 22.1659C186.049 22.1958 193.566 22.2822 201.983 22.1705C202.332 22.1658 202.53 22.5632 202.276 22.8028C196.623 28.1374 156.725 64.7053 125.399 64.7053C91.6095 64.7053 73.3104 56.8128 51.7031 50.8442C30.4265 44.967 20.1866 42.9954 7.16837 45.1569C6.88759 45.2036 6.64995 44.9427 6.72789 44.6692L11.7683 26.9701L21.5657 4.53896Z" fill="#ABABAB"/>
<path d="M32.2878 12.7766C31.7751 15.6758 30.791 20.6559 28.7223 27.0917C24.4256 37.3561 31.7535 35.6819 33.8518 31.4173C35.0956 29.0624 36.3747 26.5071 36.3747 26.5071L42.9602 29.0318C42.9602 29.0318 42.4301 32.0308 41.888 34.5119C39.8191 40.9477 45.8502 40.1749 47.5182 35.4206C48.2606 32.9756 51.7204 22.7671 52.6746 17.3686C54.1131 13.9139 49.1897 10.7599 46.9622 16.3422C45.7715 18.3971 43.838 22.8975 43.838 22.8975C43.838 22.8975 38.4022 20.8891 38.3375 20.6711C38.1252 20.1176 38.7912 18.69 38.8205 17.3544C38.4894 8.11511 32.9771 8.87758 32.2878 12.7766Z" fill="#09090A" stroke="#09090A" stroke-width="0.096461" stroke-miterlimit="10"/>
<path d="M61.304 19.9721C62.9801 16.6353 64.9047 16.0757 66.3358 16.2277C66.9532 16.2788 67.7928 17.5345 68.4348 18.7407C70.5369 26.6844 66.7699 41.2942 66.1039 42.2754C63.8112 45.9787 59.7884 45.2784 61.3164 41.2776C62.0302 38.8472 62.7945 36.6378 62.7945 36.6378L57.5872 36.0563C53.4953 44.0055 49.8163 40.6772 51.9365 37.2432C54.2045 33.2202 59.0364 24.4128 61.304 19.9721ZM59.5828 30.1892L64.716 31.0654C64.716 31.0654 66.1417 22.0264 64.5385 22.98L59.5828 30.1892Z" fill="#09090A" stroke="#09090A" stroke-width="0.096461" stroke-miterlimit="10"/>
<path d="M87.8127 27.981C88.4922 26.0666 87.0796 21.7374 82.1446 22.4594C74.9969 22.5109 72.524 35.0347 72.524 35.0347C72.524 35.0347 71.336 41.1002 73.2108 45.2341C74.9147 49.2199 79.0479 49.2326 79.8504 49.3337C84.5419 47.923 82.9352 44.7973 82.1331 44.6966C81.1117 44.6445 79.7262 44.812 78.6072 43.8995C76.71 42.3704 77.048 38.489 77.4601 36.4015C78.4305 32.8908 80.5662 25.9191 83.9712 27.625C86.0147 30.2362 87.4484 29.0367 87.8127 27.981Z" fill="#09090A" stroke="#09090A" stroke-width="0.096461" stroke-miterlimit="10"/>
<path d="M92.5134 27.6591C91.2567 31.4971 92.8325 35.5395 89.6898 42.8457C88.9405 44.6302 87.1027 47.903 86.8851 48.3675C85.1442 51.6657 88.6793 53.6096 92.5732 47.847C93.5166 46.5282 94.5557 43.1548 94.5557 43.1548L96.2499 42.9645C96.2499 42.9645 97.73 49.478 98.0707 52.2684C98.4349 54.9612 103.205 56.493 103.274 51.2081C103.104 49.3966 102.473 46.9476 101.285 43.8365C101.285 43.8365 100.509 41.5581 99.7588 41.2622C99.7588 41.2622 105.081 35.9691 105.588 33.9149C106.12 31.7634 105.151 30.2677 100.989 33.7783C96.8275 37.2893 96.3441 38.4132 96.3441 38.4132C96.3441 38.4132 97.3337 33.9871 97.235 30.6345C97.5965 27.0879 93.6007 24.5059 92.5134 27.6591Z" fill="#09090A" stroke="#09090A" stroke-width="0.096461" stroke-miterlimit="10"/>
<path d="M119.318 34.328C117.533 36.0982 116.409 39.4213 116.535 44.4492C116.783 51.9543 119.893 56.2661 125.202 55.4076C130.511 54.5487 129.261 50.7181 128.772 50.5911C128.381 50.4896 128.282 50.0394 126.105 50.8581C123.928 51.6765 122.288 50.7208 120.916 47.3898C120.009 45.1357 119.518 40.7567 121.155 38.3109C121.645 37.5869 122.109 37.388 122.354 37.2387C123.332 36.6418 124.336 37.2202 124.507 37.3708C127.249 39.3553 127.786 37.1561 126.806 35.2017C124.871 32.4693 122.302 31.911 119.318 34.328Z" fill="#09090A" stroke="#09090A" stroke-width="0.096461" stroke-miterlimit="10"/>
<path d="M131.187 34.4414C131.161 31.5926 134.102 29.3965 135.136 35.7667C136.414 39.8829 136.089 47.842 136.701 48.579C137.314 49.316 141.876 48.2873 143.111 47.8718C144.345 47.4562 146.621 48.0018 146.107 49.2388C145.69 50.5009 144.513 50.6209 144.268 50.7691C144.023 50.9168 133.713 53.9731 133.33 51.9386C132.948 49.9036 132.923 48.9672 132.537 45.5019C132.152 42.0363 131.213 37.2906 131.187 34.4414Z" fill="#09090A" stroke="#09090A" stroke-width="0.096461" stroke-miterlimit="10"/>
<path d="M143.551 31.8914C143.327 29.8319 145.427 28.5736 146.664 30.7849C147.604 32.4991 148.695 39.9441 150.229 43.0745C151.07 44.342 152.8 44.5704 153.615 43.4075C154.578 41.6492 153.884 37.2567 153.289 33.7325C152.867 32.0445 152.382 30.7541 152.406 29.8115C152.775 26.6376 155.321 27.3897 156.509 30.6427C157.499 34.2675 158.531 40.1235 158.013 42.2056C157.52 44.188 157.002 46.6918 154.433 47.3041C153.765 47.4511 148.206 48.2521 146.25 42.1689C144.368 35.7883 143.774 33.9509 143.551 31.8914Z" fill="#09090A" stroke="#09090A" stroke-width="0.096461" stroke-miterlimit="10"/>
<path d="M160.985 25.0924C164.404 23.0257 166.969 22.3166 168.973 23.0402C170.146 23.7609 170.904 25.7414 170.588 27.4466C170.222 28.9291 169.612 30.1387 169.612 30.1387C171.64 30.3431 173.125 32.3673 173.511 35.0165C173.897 37.6657 171.401 40.1591 166.76 41.7025C165.197 42.1427 163.536 42.1373 163.462 41.5933C163.412 40.5295 159.472 27.8571 159.472 27.8571C159.349 27.09 158.933 26.2482 160.985 25.0924ZM162.403 27.3471L164.116 31.3582C164.116 31.3582 168.268 29.6895 167.778 27.4623C167.288 25.2355 164.675 26.5625 162.403 27.3471ZM164.704 34.4509C164.704 34.4509 165.879 39.3751 165.83 39.1525C165.805 38.831 171.884 37.6203 170.588 34.4509C169.291 31.2819 164.704 34.4509 164.704 34.4509Z" fill="#09090A" stroke="#09090A" stroke-width="0.096461" stroke-miterlimit="10"/>
<path d="M21.713 2.68784C21.713 2.68784 22.113 2.22769 22.8689 2.32357C23.6248 2.41945 23.4383 3.29168 23.1536 3.85997C22.8689 4.42828 15.6973 19.1333 10.507 35.7201C5.31678 52.307 5.71362 70.0307 5.71362 70.9953H0.00379528C-0.0740298 69.259 1.00769 52.5717 6.72194 35.7201C12.4362 18.8683 20.9557 3.27353 21.713 2.68784Z" fill="#ABABAB"/>
</g>
<defs>
<clipPath id="clip0_5_336">
<rect width="202.954" height="70.9953" fill="white"/>
</clipPath>
</defs>
</svg>
