<svg width="135" height="34" viewBox="0 0 135 34" fill="none" xmlns="http://www.w3.org/2000/svg">
<path fill-rule="evenodd" clip-rule="evenodd" d="M17.43 0C7.79992 0 0 7.7999 0 17.43C0 25.1428 4.98934 31.6572 11.9178 33.9667C12.7893 34.1192 13.1161 33.5963 13.1161 33.1388C13.1161 32.7248 13.0943 31.3522 13.0943 29.8924C8.715 30.6986 7.58205 28.8249 7.23345 27.8444C7.03736 27.3433 6.18765 25.7964 5.44687 25.3824C4.83682 25.0556 3.96532 24.2495 5.42509 24.2277C6.7977 24.2059 7.77814 25.4914 8.10495 26.0143C9.67365 28.6506 12.1792 27.9098 13.1814 27.4522C13.3339 26.3193 13.7915 25.5567 14.2926 25.121C10.4144 24.6852 6.36195 23.1819 6.36195 16.5149C6.36195 14.6194 7.03736 13.0507 8.14852 11.8306C7.97422 11.3949 7.36417 9.6083 8.32282 7.2117C8.32282 7.2117 9.78259 6.7541 13.1161 8.9982C14.5105 8.6061 15.992 8.41 17.4736 8.41C18.9551 8.41 20.4367 8.6061 21.8311 8.9982C25.1646 6.7323 26.6243 7.2117 26.6243 7.2117C27.583 9.6083 26.9729 11.3949 26.7986 11.8306C27.9098 13.0507 28.5852 14.5976 28.5852 16.5149C28.5852 23.2037 24.5109 24.6852 20.6328 25.121C21.2646 25.6657 21.8093 26.7115 21.8093 28.3455C21.8093 30.6768 21.7875 32.5505 21.7875 33.1388C21.7875 33.5963 22.1143 34.141 22.9858 33.9667C26.446 32.7986 29.4527 30.5748 31.5828 27.6083C33.7129 24.6418 34.8591 21.082 34.86 17.43C34.86 7.7999 27.0601 0 17.43 0Z" fill="#ABABAB"/>
<path d="M81.2557 25.843H81.2151C81.2334 25.843 81.2456 25.8633 81.2639 25.8654H81.2761L81.2557 25.845V25.843ZM81.2639 25.8654C81.0748 25.8674 80.5989 25.9671 80.0966 25.9671C78.5105 25.9671 77.9615 25.235 77.9615 24.2793V17.9124H81.1947C81.3777 17.9124 81.5201 17.7497 81.5201 17.526V14.0691C81.5201 13.886 81.3574 13.7234 81.1947 13.7234H77.9615V9.43268C77.9615 9.26998 77.8598 9.16828 77.6768 9.16828H73.2844C73.1014 9.16828 72.9997 9.26998 72.9997 9.43268V13.8454C72.9997 13.8454 70.7832 14.3944 70.6409 14.4147C70.4782 14.4554 70.3765 14.5978 70.3765 14.7604V17.526C70.3765 17.7497 70.5392 17.9124 70.7222 17.9124H72.9794V24.5822C72.9794 29.544 76.4363 30.0524 78.7952 30.0524C79.873 30.0524 81.1744 29.7067 81.3777 29.605C81.4998 29.5643 81.5608 29.422 81.5608 29.2796V26.2294C81.5636 26.1429 81.5351 26.0582 81.4806 25.991C81.426 25.9238 81.3491 25.8785 81.2639 25.8633V25.8654ZM129.45 21.3897C129.45 17.709 127.965 17.221 126.399 17.3837C125.179 17.465 124.203 18.075 124.203 18.075V25.233C124.203 25.233 125.2 25.9244 126.684 25.965C128.779 26.026 129.45 25.2736 129.45 21.3897ZM134.391 21.0643C134.391 28.0392 132.134 30.032 128.189 30.032C124.854 30.032 123.064 28.3442 123.064 28.3442C123.064 28.3442 122.983 29.2796 122.881 29.4016C122.82 29.5236 122.719 29.5643 122.597 29.5643H119.587C119.384 29.5643 119.201 29.4016 119.201 29.2186L119.242 6.62638C119.242 6.44338 119.404 6.28078 119.587 6.28078H123.919C124.102 6.28078 124.264 6.44338 124.264 6.62638V14.2927C124.264 14.2927 125.932 13.215 128.372 13.215L128.352 13.1743C130.792 13.1743 134.391 14.0894 134.391 21.0643ZM116.659 13.7234H112.389C112.165 13.7234 112.043 13.886 112.043 14.1097V25.172C112.043 25.172 110.924 25.965 109.399 25.965C107.874 25.965 107.427 25.2736 107.427 23.7485V14.0894C107.427 13.9064 107.264 13.7437 107.081 13.7437H102.729C102.546 13.7437 102.384 13.9064 102.384 14.0894V24.4806C102.384 28.9543 104.885 30.0727 108.322 30.0727C111.148 30.0727 113.446 28.5069 113.446 28.5069C113.446 28.5069 113.548 29.3 113.609 29.422C113.649 29.5236 113.792 29.605 113.934 29.605H116.659C116.883 29.605 117.005 29.4423 117.005 29.2593L117.045 14.0691C117.045 13.886 116.883 13.7234 116.659 13.7234ZM68.465 13.703H64.1337C63.9507 13.703 63.788 13.886 63.788 14.1097V29.0356C63.788 29.4423 64.0523 29.5847 64.398 29.5847H68.3023C68.709 29.5847 68.8107 29.4016 68.8107 29.0356V14.0487C68.8107 13.8657 68.648 13.703 68.465 13.703ZM66.3298 6.82978C64.7641 6.82978 63.5236 8.07018 63.5236 9.63598C63.5236 11.2018 64.7641 12.4423 66.3298 12.4423C67.855 12.4423 69.0954 11.2018 69.0954 9.63598C69.0954 8.07018 67.855 6.82978 66.3298 6.82978ZM99.8623 6.32138H95.5716C95.3886 6.32138 95.2259 6.48408 95.2259 6.66708V14.9841H88.495V6.66708C88.495 6.48408 88.3323 6.32138 88.1493 6.32138H83.818C83.6349 6.32138 83.4723 6.48408 83.4723 6.66708V29.2593C83.4723 29.4423 83.6553 29.605 83.818 29.605H88.1493C88.3323 29.605 88.495 29.4423 88.495 29.2593V19.6002H95.2259L95.1852 29.2593C95.1852 29.4423 95.3479 29.605 95.5309 29.605H99.8623C100.045 29.605 100.208 29.4423 100.208 29.2593V6.66708C100.208 6.48408 100.045 6.32138 99.8623 6.32138ZM61.4901 16.3262V27.9985C61.4901 28.0799 61.4698 28.2222 61.3681 28.2629C61.3681 28.2629 58.8262 30.0727 54.6372 30.0727C49.5738 30.0727 43.575 28.4866 43.575 18.0344C43.575 7.58218 48.8214 5.42668 53.9458 5.44698C58.3789 5.44698 60.1683 6.44338 60.453 6.62638C60.5344 6.72808 60.575 6.80948 60.575 6.91108L59.721 10.5308C59.721 10.7138 59.538 10.9375 59.3143 10.8765C58.5822 10.6528 57.4841 10.2054 54.9016 10.2054C51.9123 10.2054 48.6994 11.0595 48.6994 17.7904C48.6994 24.5212 51.7497 25.3143 53.9458 25.3143C55.8167 25.3143 56.4877 25.0906 56.4877 25.0906V20.4136H53.4985C53.2748 20.4136 53.1121 20.2509 53.1121 20.0679V16.3262C53.1121 16.1432 53.2748 15.9805 53.4985 15.9805H61.1038C61.3274 15.9805 61.4901 16.1432 61.4901 16.3262Z" fill="#ABABAB"/>
</svg>
