<svg width="193" height="59" viewBox="0 0 193 59" fill="none" xmlns="http://www.w3.org/2000/svg">
<g clip-path="url(#clip0_6_448)">
<path d="M82.9768 45.4158C74.3791 45.4158 68.2323 39.1195 68.2323 30.8217C68.2323 22.5239 74.421 16.2275 82.852 16.2275C87.0054 16.2275 90.245 17.8538 92.9446 20.2305L91.2417 23.7748C89.1655 21.6899 86.5069 19.9803 82.6859 19.9803C76.4558 19.9803 71.9705 24.3585 71.9705 30.8217C71.9705 37.2848 76.4143 41.663 82.7278 41.663C88.1683 41.663 92.0312 38.3689 92.6541 33.3652H81.5644V29.6124H96.8904V29.7793C96.8904 38.9527 91.7403 45.4158 82.9768 45.4158Z" fill="#ABABAB"/>
<path d="M100.79 24.5671H104.362V45.4159H100.79V24.5671Z" fill="#ABABAB"/>
<path d="M121.28 45.1241V41.9551C120.158 42.1635 119.244 42.2886 117.915 42.2886C116.171 42.2886 115.548 41.3713 115.548 39.7868V27.6945H121.238V24.5672H115.548V18.9797H111.976V24.5672H107.864V27.6945H111.976V39.5783C111.976 43.9982 113.928 45.6245 117.708 45.6245C119.037 45.6245 120.2 45.416 121.28 45.1241Z" fill="#ABABAB"/>
<path fill-rule="evenodd" clip-rule="evenodd" d="M128.559 53.7554H124.987V24.5672H128.559V27.5694C130.262 25.276 132.796 24.0668 135.87 24.0668C141.767 24.0668 145.879 28.5701 145.879 34.9915C145.879 41.4129 141.767 45.9163 135.87 45.9163C132.92 45.9163 130.512 44.7488 128.559 42.372V53.7554ZM128.31 34.9915C128.31 39.62 131.051 42.5805 135.247 42.5805C139.442 42.5805 142.183 39.5783 142.183 34.9915C142.183 30.4048 139.442 27.4026 135.247 27.4026C131.051 27.4026 128.31 30.3631 128.31 34.9915Z" fill="#ABABAB"/>
<path fill-rule="evenodd" clip-rule="evenodd" d="M148.103 34.9915C148.103 41.2462 152.755 45.9163 158.985 45.9163C165.215 45.9163 169.866 41.2462 169.866 34.9915C169.866 28.7369 165.215 24.0668 158.985 24.0668C152.755 24.0668 148.103 28.7369 148.103 34.9915ZM166.17 34.9915C166.17 39.3281 163.304 42.4554 158.985 42.4554C154.665 42.4554 151.799 39.3281 151.799 34.9915C151.799 30.655 154.665 27.5277 158.985 27.5277C163.304 27.5277 166.17 30.655 166.17 34.9915Z" fill="#ABABAB"/>
<path fill-rule="evenodd" clip-rule="evenodd" d="M189.428 16.2275H193V45.4158H189.428V42.4136C187.725 44.7069 185.192 45.9162 182.118 45.9162C176.22 45.9162 172.109 41.4128 172.109 34.9914C172.109 28.57 176.22 24.0667 182.118 24.0667C185.067 24.0667 187.476 25.2342 189.428 27.611V16.2275ZM189.677 34.9914C189.677 30.363 186.936 27.4025 182.741 27.4025C178.546 27.4025 175.805 30.4047 175.805 34.9914C175.805 39.5782 178.546 42.5804 182.741 42.5804C186.936 42.5804 189.677 39.6199 189.677 34.9914Z" fill="#ABABAB"/>
<path d="M102.584 21.8271C103.995 21.8271 105.14 20.6827 105.14 19.271C105.14 17.8594 103.995 16.715 102.584 16.715C101.172 16.715 100.028 17.8594 100.028 19.271C100.028 20.6827 101.172 21.8271 102.584 21.8271Z" fill="#ABABAB"/>
<path fill-rule="evenodd" clip-rule="evenodd" d="M31.5614 3.05682C33.1392 5.8277 32.1799 9.3575 29.4187 10.9408L12.2511 20.7855C11.7966 21.0461 11.5163 21.53 11.5163 22.0539V37.5125C11.5163 38.0365 11.7966 38.5203 12.2511 38.7809L25.8345 46.5702C26.285 46.8286 26.8387 46.8286 27.2892 46.5702L40.8726 38.7809C41.3271 38.5203 41.6074 38.0365 41.6074 37.5125V27.899L29.3915 34.8159C26.6218 36.3841 23.1096 35.4022 21.5469 32.6228C19.9842 29.8433 20.9626 26.3188 23.7323 24.7506L41.2117 14.8535C46.5361 11.8387 53.1237 15.6993 53.1237 21.8342V38.6841C53.1237 42.6307 51.0163 46.2748 47.6019 48.2328L31.9991 57.1802C28.6299 59.1121 24.4938 59.1121 21.1246 57.1802L5.52185 48.2328C2.10728 46.2748 0 42.6307 0 38.6841V20.8823C0 16.9357 2.10728 13.2917 5.52185 11.3337L23.705 0.906627C26.4662 -0.676728 29.9836 0.285945 31.5614 3.05682Z" fill="#ABABAB"/>
</g>
<defs>
<clipPath id="clip0_6_448">
<rect width="193" height="58.7737" fill="white"/>
</clipPath>
</defs>
</svg>
