<svg width="162" height="54" viewBox="0 0 162 54" fill="none" xmlns="http://www.w3.org/2000/svg">
<path d="M69.1989 28.0119C69.1989 35.6701 63.2081 41.3133 55.8557 41.3133C48.5035 41.3133 42.5125 35.6701 42.5125 28.0119C42.5125 20.2999 48.5035 14.7107 55.8557 14.7107C63.2081 14.7107 69.1989 20.2999 69.1989 28.0119ZM63.358 28.0119C63.358 23.2263 59.8857 19.952 55.8557 19.952C51.8258 19.952 48.3536 23.2263 48.3536 28.0119C48.3536 32.7496 51.8258 36.072 55.8557 36.072C59.8857 36.072 63.358 32.7436 63.358 28.0119Z" fill="#ABABAB"/>
<path d="M97.9848 28.0119C97.9848 35.6701 91.9938 41.3133 84.6416 41.3133C77.2893 41.3133 71.2983 35.6701 71.2983 28.0119C71.2983 20.3059 77.2893 14.7107 84.6416 14.7107C91.9938 14.7107 97.9848 20.2999 97.9848 28.0119ZM92.1439 28.0119C92.1439 23.2263 88.6716 19.952 84.6416 19.952C80.6116 19.952 77.1393 23.2263 77.1393 28.0119C77.1393 32.7496 80.6116 36.072 84.6416 36.072C88.6716 36.072 92.1439 32.7436 92.1439 28.0119Z" fill="#ABABAB"/>
<path d="M125.571 15.5143V39.3942C125.571 49.2172 119.778 53.2293 112.93 53.2293C106.483 53.2293 102.603 48.9174 101.14 45.3912L106.225 43.2743C107.131 45.4391 109.349 47.9938 112.924 47.9938C117.308 47.9938 120.024 45.2892 120.024 40.1978V38.2848H119.82C118.513 39.898 115.994 41.3072 112.816 41.3072C106.165 41.3072 100.072 35.5142 100.072 28.06C100.072 20.5518 106.165 14.7107 112.816 14.7107C115.988 14.7107 118.507 16.12 119.82 17.6852H120.024V15.5204H125.571V15.5143ZM120.438 28.06C120.438 23.3762 117.313 19.952 113.338 19.952C109.307 19.952 105.931 23.3762 105.931 28.06C105.931 32.6956 109.307 36.072 113.338 36.072C117.313 36.072 120.438 32.6956 120.438 28.06Z" fill="#ABABAB"/>
<path d="M134.716 1.51758V40.4979H129.019V1.51758H134.716Z" fill="#ABABAB"/>
<path d="M156.917 32.3899L161.451 35.4123C159.988 37.5772 156.462 41.3073 150.368 41.3073C142.813 41.3073 137.169 35.4664 137.169 28.0061C137.169 20.0961 142.86 14.7047 149.715 14.7047C156.618 14.7047 159.994 20.198 161.097 23.1666L161.703 24.6777L143.922 32.042C145.283 34.7106 147.4 36.072 150.368 36.072C153.343 36.072 155.406 34.6088 156.917 32.3899ZM142.962 27.6043L154.848 22.6688C154.195 21.0076 152.228 19.8502 149.914 19.8502C146.944 19.8502 142.813 22.4708 142.962 27.6043Z" fill="#ABABAB"/>
<path d="M20.9475 24.5515V18.9084H39.9638C40.1497 19.892 40.2456 21.0554 40.2456 22.3148C40.2456 26.5486 39.0882 31.7839 35.3582 35.514C31.73 39.2921 27.0943 41.3072 20.9534 41.3072C9.57117 41.3072 0 32.0358 0 20.6536C0 9.27134 9.57117 0 20.9534 0C27.2502 0 31.736 2.47075 35.1063 5.69118L31.1243 9.67315C28.7076 7.40631 25.4331 5.64313 20.9475 5.64313C12.6356 5.64313 6.1349 12.3418 6.1349 20.6536C6.1349 28.9654 12.6356 35.664 20.9475 35.664C26.3387 35.664 29.4092 33.4991 31.3762 31.532C32.9714 29.9369 34.0208 27.6581 34.4346 24.5456L20.9475 24.5515Z" fill="#ABABAB"/>
</svg>
