<svg width="201" height="43" viewBox="0 0 201 43" fill="none" xmlns="http://www.w3.org/2000/svg">
<path d="M200.479 19.3619V15.8362H196.1V10.3549L195.953 10.4003L191.841 11.6585L191.759 11.6833V15.8363H185.268V13.5227C185.268 12.4454 185.51 11.621 185.984 11.0711C186.455 10.5279 187.131 10.2518 187.99 10.2518C188.609 10.2518 189.248 10.3975 189.893 10.6846L190.055 10.7568V7.04377L189.979 7.01576C189.377 6.79981 188.56 6.69092 187.547 6.69092C186.269 6.69092 185.109 6.9689 184.098 7.51959C183.085 8.07114 182.288 8.85858 181.73 9.85964C181.175 10.8596 180.892 12.0145 180.892 13.2925V15.8362H177.843V19.3619H180.892V34.2151H185.268V19.3619H191.759V28.8008C191.759 32.6883 193.593 34.6582 197.21 34.6582C197.803 34.6582 198.43 34.5886 199.067 34.4522C199.718 34.3122 200.161 34.1724 200.421 34.0231L200.479 33.989V30.4306L200.3 30.5484C200.063 30.7066 199.767 30.8359 199.421 30.9322C199.072 31.0301 198.782 31.0791 198.556 31.0791C197.709 31.0791 197.083 30.8508 196.693 30.4004C196.299 29.9458 196.1 29.1509 196.1 28.0389V19.3619H200.479ZM168.07 31.0798C166.482 31.0798 165.229 30.553 164.347 29.5154C163.459 28.4726 163.008 26.986 163.008 25.097C163.008 23.1482 163.459 21.6229 164.347 20.5618C165.23 19.5075 166.471 18.9725 168.034 18.9725C169.552 18.9725 170.76 19.4834 171.625 20.4922C172.495 21.5059 172.936 23.019 172.936 24.9906C172.936 26.9863 172.521 28.5194 171.702 29.5449C170.89 30.5627 169.668 31.0798 168.07 31.0798ZM168.264 15.3934C165.234 15.3934 162.827 16.2814 161.111 18.0328C159.395 19.7845 158.525 22.2085 158.525 25.2381C158.525 28.1156 159.374 30.4302 161.049 32.1165C162.723 33.8034 165.003 34.6579 167.821 34.6579C170.759 34.6579 173.118 33.7574 174.833 31.9817C176.549 30.208 177.419 27.8069 177.419 24.848C177.419 21.9255 176.602 19.5936 174.994 17.9185C173.383 16.2428 171.12 15.3934 168.264 15.3934ZM151.47 15.3934C149.408 15.3934 147.702 15.9207 146.401 16.9604C145.089 18.0063 144.425 19.3779 144.425 21.0378C144.425 21.9006 144.568 22.667 144.85 23.3172C145.134 23.9693 145.575 24.5436 146.158 25.0256C146.738 25.5036 147.633 26.0042 148.818 26.5137C149.815 26.9239 150.559 27.2709 151.032 27.5444C151.493 27.8123 151.821 28.0817 152.005 28.3442C152.185 28.6008 152.276 28.9522 152.276 29.386C152.276 30.6207 151.351 31.2214 149.448 31.2214C148.742 31.2214 147.939 31.0741 147.056 30.7836C146.18 30.4975 145.355 30.0785 144.606 29.5412L144.425 29.4109V33.6245L144.491 33.6556C145.11 33.9414 145.89 34.1825 146.812 34.3722C147.729 34.5621 148.564 34.6586 149.289 34.6586C151.526 34.6586 153.328 34.1288 154.642 33.0829C155.965 32.0298 156.635 30.6257 156.635 28.9084C156.635 27.6696 156.274 26.6073 155.563 25.7505C154.856 24.9006 153.63 24.1204 151.92 23.4307C150.557 22.8838 149.684 22.4299 149.325 22.0813C148.977 21.7448 148.801 21.2686 148.801 20.6656C148.801 20.1312 149.019 19.703 149.465 19.3563C149.916 19.0077 150.542 18.8305 151.328 18.8305C152.057 18.8305 152.803 18.9457 153.545 19.1714C154.286 19.3971 154.938 19.6995 155.481 20.0693L155.66 20.1915V16.1945L155.591 16.165C155.09 15.9499 154.428 15.7659 153.625 15.6165C152.825 15.4682 152.101 15.3934 151.47 15.3934ZM133.016 31.0798C131.428 31.0798 130.175 30.553 129.293 29.5154C128.404 28.4726 127.954 26.9863 127.954 25.097C127.954 23.1482 128.404 21.6229 129.293 20.5618C130.176 19.5075 131.415 18.9725 132.98 18.9725C134.497 18.9725 135.705 19.4834 136.571 20.4922C137.441 21.5059 137.881 23.019 137.881 24.9906C137.881 26.9863 137.467 28.5194 136.648 29.5449C135.836 30.5627 134.613 31.0798 133.016 31.0798ZM133.21 15.3934C130.18 15.3934 127.772 16.2814 126.056 18.0328C124.341 19.7845 123.471 22.2085 123.471 25.2381C123.471 28.1168 124.32 30.4302 125.995 32.1165C127.669 33.8034 129.948 34.6579 132.767 34.6579C135.705 34.6579 138.064 33.7574 139.78 31.9817C141.494 30.208 142.364 27.8069 142.364 24.848C142.364 21.9255 141.548 19.5936 139.939 17.9185C138.329 16.2428 136.065 15.3934 133.21 15.3934ZM116.828 19.0189V15.8362H112.504V34.2147H116.828V24.8133C116.828 23.2148 117.19 21.9014 117.905 20.9095C118.611 19.9293 119.552 19.4326 120.701 19.4326C121.091 19.4326 121.528 19.4968 122.001 19.6238C122.47 19.7501 122.809 19.8873 123.01 20.0315L123.191 20.1632V15.8047L123.121 15.7746C122.719 15.6036 122.149 15.5173 121.428 15.5173C120.342 15.5173 119.37 15.8664 118.537 16.5537C117.806 17.1578 117.278 17.9861 116.874 19.0189H116.828ZM104.762 15.3934C102.779 15.3934 101.01 15.8187 99.5053 16.657C97.9974 17.4974 96.8313 18.697 96.0379 20.2225C95.248 21.7443 94.8469 23.5219 94.8469 25.5043C94.8469 27.2408 95.2358 28.8344 96.0044 30.2389C96.7733 31.6456 97.8616 32.7462 99.2394 33.5095C100.615 34.2719 102.205 34.6584 103.966 34.6584C106.02 34.6584 107.774 34.2476 109.181 33.4376L109.238 33.405V29.4443L109.056 29.5769C108.419 30.041 107.707 30.4115 106.941 30.6783C106.177 30.9449 105.48 31.0798 104.869 31.0798C103.173 31.0798 101.811 30.5489 100.823 29.5024C99.8321 28.4546 99.3298 26.9833 99.3298 25.1318C99.3298 23.2686 99.8536 21.7594 100.886 20.6459C101.915 19.5356 103.279 18.9725 104.941 18.9725C106.362 18.9725 107.746 19.4535 109.056 20.4038L109.238 20.5356V16.3623L109.179 16.3293C108.686 16.0533 108.014 15.8255 107.179 15.6526C106.348 15.4802 105.535 15.3934 104.762 15.3934ZM91.8696 15.8363H87.5464V34.2147H91.8696V15.8363ZM89.7522 8.00703C89.0406 8.00703 88.4201 8.24928 87.9101 8.72926C87.3982 9.21058 87.1384 9.81657 87.1384 10.5318C87.1384 11.2358 87.395 11.8308 87.9021 12.2994C88.406 12.7665 89.0286 13.0033 89.7523 13.0033C90.4759 13.0033 91.1007 12.7665 91.6106 12.3001C92.1238 11.8308 92.384 11.2359 92.384 10.5318C92.384 9.84165 92.1308 9.24178 91.6317 8.74859C91.1331 8.25638 90.5005 8.00703 89.7522 8.00703ZM78.9655 14.4803V34.2147H83.3776V8.56959H77.2711L69.5095 27.618L61.9773 8.56959H55.6223V34.2145H59.7684V14.4784H59.9107L67.8645 34.2147H70.9935L78.8232 14.4803H78.9655Z" fill="#ABABAB"/>
<path d="M20.3375 20.3375H0V0H20.3375V20.3375Z" fill="#ABABAB"/>
<path d="M42.7925 20.3375H22.4554V0H42.7925V20.3375Z" fill="#ABABAB"/>
<path d="M20.3369 42.8003H0V22.463H20.3369V42.8003Z" fill="#ABABAB"/>
<path d="M42.7925 42.8003H22.4554V22.463H42.7925V42.8003Z" fill="#ABABAB"/>
</svg>
