<svg width="111" height="48" viewBox="0 0 111 48" fill="none" xmlns="http://www.w3.org/2000/svg">
<g clip-path="url(#clip0_12_476)">
<mask id="mask0_12_476" style="mask-type:luminance" maskUnits="userSpaceOnUse" x="0" y="0" width="111" height="48">
<path d="M111 0H0V48H111V0Z" fill="white"/>
</mask>
<g mask="url(#mask0_12_476)">
<path d="M15.2636 38.0663C13.5938 38.3595 11.8945 38.4474 10.1368 38.6816L4.77531 22.9786V39.3555C3.10546 39.5313 1.58205 39.7656 0 40V10H4.45325L10.5469 27.0217V10H15.2636V38.0663ZM24.4922 20.9863C26.3087 20.9863 29.0919 20.8984 30.7618 20.8984V25.5858C28.6816 25.5858 26.2501 25.5858 24.4922 25.6737V32.6465C27.2462 32.4708 30.0001 32.2362 32.7832 32.1483V36.6597L19.8046 37.6854V10H32.7832V14.6875H24.4922V20.9863ZM50.2148 14.6876H45.3516V36.2501C43.7695 36.2501 42.1875 36.2501 40.6643 36.3085V14.6876H35.801V10H50.215L50.2148 14.6876ZM57.8319 20.6642H64.248V25.3516H57.8319V35.9864H53.232V10H66.3281V14.6875H57.8319V20.6642ZM73.9452 31.8848C76.6113 31.9432 79.3065 32.1486 81.914 32.2948V36.9238C77.7246 36.66 73.5351 36.3966 69.2578 36.3085V10H73.9452V31.8848ZM85.869 37.2461C87.3632 37.3341 88.9452 37.422 90.4686 37.5975V10H85.869V37.2461ZM111.006 10L105.059 24.2676L111.006 40C109.248 39.7656 107.49 39.4433 105.732 39.1503L102.363 30.4786L98.9359 38.4474C97.2363 38.1542 95.5957 38.0663 93.8968 37.8319L99.9319 24.0917L94.4825 10H99.5214L102.598 17.8809L105.879 10H111.006Z" fill="#ABABAB"/>
</g>
</g>
<defs>
<clipPath id="clip0_12_476">
<rect width="111" height="48" fill="white"/>
</clipPath>
</defs>
</svg>
