<svg width="195" height="62" viewBox="0 0 195 62" fill="none" xmlns="http://www.w3.org/2000/svg">
<g clip-path="url(#clip0_6_349)">
<path fill-rule="evenodd" clip-rule="evenodd" d="M22.306 31.2587L37.7212 57.9615L30.637 58.028L26.5215 50.8539L22.3766 57.9896L18.8568 57.9882L17.054 54.8737L22.9591 44.7198L18.7672 37.4251L22.306 31.2587Z" fill="#ABABAB"/>
<path fill-rule="evenodd" clip-rule="evenodd" d="M27.87 20.2594L12.4522 46.9607L8.85255 40.8589L13.0077 33.7077L4.7556 33.686L2.99689 30.637L4.79281 27.5184L16.5389 27.5555L20.7603 20.2779L27.87 20.2594Z" fill="#ABABAB"/>
<path fill-rule="evenodd" clip-rule="evenodd" d="M29.0528 41.6041L59.8857 41.6056L56.4012 47.774L48.1305 47.7511L52.2378 54.9085L50.4766 57.9561L46.8779 57.9601L41.037 47.7692L32.6236 47.7521L29.0528 41.6041Z" fill="#ABABAB"/>
<path fill-rule="evenodd" clip-rule="evenodd" d="M46.9987 29.9042L31.5835 3.20134L38.6677 3.13489L42.7832 10.309L46.928 3.17322L50.4479 3.17461L52.2507 6.28921L46.3456 16.4431L50.5375 23.7378L46.9987 29.9042Z" fill="#ABABAB"/>
<path fill-rule="evenodd" clip-rule="evenodd" d="M22.306 31.2587L37.7212 57.9615L30.637 58.028L26.5215 50.8539L22.3766 57.9896L18.8568 57.9882L17.054 54.8737L22.9591 44.7198L18.7672 37.4251L22.306 31.2587Z" fill="#ABABAB"/>
<path fill-rule="evenodd" clip-rule="evenodd" d="M40.2109 19.4912L9.37799 19.4897L12.8625 13.3213L21.1332 13.3442L17.0259 6.18683L18.7871 3.13923L22.3858 3.13525L28.2267 13.3262L36.6401 13.3432L40.2109 19.4912Z" fill="#ABABAB"/>
<path fill-rule="evenodd" clip-rule="evenodd" d="M41.4138 40.8977L56.8316 14.1964L60.4313 20.2983L56.2761 27.4494L64.5282 27.4711L66.2869 30.5201L64.491 33.6387L52.7449 33.6016L48.5235 40.8793L41.4138 40.8977Z" fill="#ABABAB"/>
<path fill-rule="evenodd" clip-rule="evenodd" d="M22.3244 31.2415L37.7396 57.9443L30.6553 58.0108L26.5399 50.8367L22.395 57.9724L18.8751 57.971L17.0723 54.8564L22.9775 44.7026L18.7856 37.4079L22.3244 31.2415Z" fill="#ABABAB"/>
<path fill-rule="evenodd" clip-rule="evenodd" d="M27.8884 20.2423L12.4706 46.9436L8.87092 40.8417L13.0261 33.6906L4.77397 33.6689L3.01522 30.6199L4.81115 27.5013L16.5572 27.5384L20.7787 20.2608L27.8884 20.2423Z" fill="#ABABAB"/>
<path fill-rule="evenodd" clip-rule="evenodd" d="M29.0712 41.5869L59.9041 41.5885L56.4195 47.7568L48.1489 47.7339L52.2562 54.8913L50.495 57.9389L46.8963 57.9429L41.0554 47.7519L32.642 47.7349L29.0712 41.5869Z" fill="#ABABAB"/>
<path fill-rule="evenodd" clip-rule="evenodd" d="M47.017 29.887L31.6018 3.1841L38.686 3.11765L42.8015 10.2917L46.9464 3.15599L50.4662 3.15737L52.269 6.27197L46.3639 16.4258L50.5558 23.7205L47.017 29.887Z" fill="#ABABAB"/>
<path fill-rule="evenodd" clip-rule="evenodd" d="M22.3244 31.2415L37.7396 57.9443L30.6553 58.0108L26.5399 50.8367L22.395 57.9724L18.8751 57.971L17.0723 54.8564L22.9775 44.7026L18.7856 37.4079L22.3244 31.2415Z" fill="#ABABAB"/>
<path fill-rule="evenodd" clip-rule="evenodd" d="M40.2066 19.4802L9.37367 19.4787L12.8582 13.3103L21.1289 13.3333L17.0216 6.17586L18.7827 3.12823L22.3815 3.12427L28.2224 13.3152L36.6357 13.3323L40.2066 19.4802Z" fill="#ABABAB"/>
<path fill-rule="evenodd" clip-rule="evenodd" d="M41.418 40.8821L56.8358 14.1808L60.4355 20.2827L56.2803 27.4338L64.5324 27.4555L66.2912 30.5045L64.4952 33.623L52.7492 33.586L48.5277 40.8636L41.418 40.8821Z" fill="#ABABAB"/>
<path d="M105.534 13.9929H101.646V31.6368C101.646 34.1289 101.746 38.0664 101.895 42.4524H101.746C99.8019 38.814 97.6088 35.3251 96.0638 32.9327L83.8526 13.9929H78.5195V47.7855H82.4072V30.1416C82.4072 27.6495 82.3075 22.9644 82.158 18.6282H82.3075C85.1983 23.6622 86.8929 26.4533 88.4878 28.8457L100.699 47.7855H105.534V13.9929Z" fill="#ABABAB"/>
<path d="M112.935 47.7855H117.122V23.6622H112.935V47.7855ZM115.029 20.1235C116.474 20.1235 117.62 18.9771 117.62 17.5317C117.62 16.0863 116.474 14.9399 115.029 14.9399C113.583 14.9399 112.437 16.0863 112.437 17.5317C112.437 18.9771 113.583 20.1235 115.029 20.1235Z" fill="#ABABAB"/>
<path d="M143.205 23.6621H138.421L132.539 32.5339H132.39L126.708 23.6621H121.524L130.147 35.4247V35.5742L121.225 47.7854H126.01L132.29 38.2158H132.44L138.72 47.7854H143.903L134.782 35.3749V35.2253L143.205 23.6621Z" fill="#ABABAB"/>
<path d="M159.399 14.5947C151.466 14.5947 144.944 20.9828 144.944 31.6133C144.944 42.2439 151.466 48.632 159.399 48.632C167.332 48.632 173.855 42.2439 173.855 31.6133C173.855 20.9828 167.332 14.5947 159.399 14.5947ZM159.399 17.9107C165.305 17.9107 169.8 22.7871 169.8 31.6133C169.8 40.4396 165.305 45.316 159.399 45.316C153.494 45.316 148.998 40.4396 148.998 31.6133C148.998 22.7871 153.494 17.9107 159.399 17.9107Z" fill="#ABABAB"/>
<path d="M175.498 23.2311C175.498 27.9124 177.936 30.4481 183.592 32.74C187.932 34.4955 189.688 36.056 189.688 39.2744C189.688 43.1755 186.518 45.1261 182.325 45.1261C180.13 45.1261 177.643 44.7847 174.912 43.8582L174.474 47.2229C176.863 48.1007 179.496 48.442 182.129 48.442C188.664 48.442 194.125 45.1261 194.125 38.4454C194.125 33.8128 191.297 31.5697 185.592 29.2778C181.788 27.7661 179.935 26.1569 179.935 22.7922C179.935 19.525 182.763 17.7207 186.323 17.7207C188.42 17.7207 190.712 18.2571 192.321 18.8911L192.76 15.5751C190.907 14.7949 188.615 14.4048 186.079 14.4048C180.081 14.4048 175.498 17.867 175.498 23.2311Z" fill="#ABABAB"/>
</g>
<defs>
<clipPath id="clip0_6_349">
<rect width="194.704" height="61.0966" fill="white"/>
</clipPath>
</defs>
</svg>
