<svg width="232" height="43" viewBox="0 0 232 43" fill="none" xmlns="http://www.w3.org/2000/svg">
<path d="M228.263 34.5156V33.8681H228.656C228.865 33.8681 229.188 33.8912 229.188 34.1456C229.188 34.4231 229.026 34.4924 228.772 34.4924H228.263M228.263 34.9549H228.541L229.188 36.0649H229.882L229.165 34.9087C229.512 34.8856 229.836 34.7237 229.836 34.2149C229.836 33.5906 229.42 33.4056 228.703 33.4056H227.685V36.0649H228.286L228.263 34.9549ZM231.246 34.7468C231.246 33.1743 230.044 32.2725 228.68 32.2725C227.338 32.2725 226.113 33.1743 226.113 34.7468C226.113 36.3193 227.315 37.2211 228.68 37.2211C230.044 37.2211 231.246 36.3193 231.246 34.7468ZM230.506 34.7468C230.506 35.8799 229.674 36.643 228.68 36.643C227.662 36.643 226.853 35.8799 226.853 34.7468C226.853 33.6137 227.685 32.8506 228.68 32.8506C229.674 32.8737 230.506 33.6368 230.506 34.7468ZM137.175 8.38471V36.3887H145.084V8.38471H137.175ZM75.0163 8.33846V36.3655H82.9943V14.6052L89.2149 14.6284C91.2498 14.6284 92.6836 15.1371 93.6548 16.1777C94.9035 17.4958 95.4123 19.6695 95.4123 23.5776V36.3655H103.136V20.8951C103.136 9.84156 96.0829 8.33846 89.2149 8.33846H75.0163ZM149.917 8.38471V36.3887H162.728C169.55 36.3887 171.793 35.2555 174.198 32.7118C175.909 30.9312 176.996 27.0001 176.996 22.6989C176.996 18.7677 176.071 15.2527 174.429 13.0559C171.539 9.14782 167.307 8.38471 160.994 8.38471H149.917ZM157.756 14.4665H161.156C166.081 14.4665 169.272 16.6633 169.272 22.4214C169.272 28.1563 166.104 30.3762 161.156 30.3762H157.756V14.4665ZM125.798 8.38471L119.208 30.5612L112.895 8.38471H104.362L113.38 36.3887H124.757L133.845 8.38471H125.798ZM180.696 36.3655H188.605V8.38471H180.696V36.3655ZM202.849 8.38471L191.819 36.3655H199.612L201.369 31.44H214.435L216.1 36.3655H224.563L213.417 8.38471H202.849ZM207.983 13.4953L212.77 26.5838H203.034L207.983 13.4953ZM24.0265 13.0328V9.19407C24.3965 9.17095 24.7896 9.14782 25.1596 9.14782C35.7045 8.82408 42.5956 18.1896 42.5956 18.1896C42.5956 18.1896 35.1495 28.5494 27.1483 28.5494C25.9921 28.5494 24.9746 28.3644 24.0496 28.0407V16.3627C28.1427 16.8715 28.9752 18.6752 31.4495 22.7682L36.9301 18.1433C36.9301 18.1433 32.9295 12.894 26.1771 12.894C25.4371 12.9171 24.7202 12.9634 24.0265 13.0328ZM24.0265 0.314209V6.04912C24.3965 6.026 24.7896 6.00287 25.1596 5.97975C39.7975 5.471 49.348 17.9814 49.348 17.9814C49.348 17.9814 38.3869 31.3244 26.9865 31.3244C25.9459 31.3244 24.9746 31.2319 24.0496 31.07V34.6312C24.8359 34.7237 25.6684 34.7931 26.5008 34.7931C37.1382 34.7931 44.8156 29.3588 52.2617 22.9532C53.4873 23.9476 58.5516 26.3526 59.5922 27.3932C52.5161 33.3131 36.0282 38.0999 26.6858 38.0999C25.784 38.0999 24.9284 38.0536 24.0728 37.9611V42.9561H64.4715V0.314209L24.0265 0.314209ZM24.0265 28.0638V31.0931C14.1985 29.3356 11.4698 19.1145 11.4698 19.1145C11.4698 19.1145 16.1873 13.8884 24.0265 13.0328V16.3627H24.0034C19.9103 15.854 16.6729 19.7158 16.6729 19.7158C16.6729 19.7158 18.4997 26.1676 24.0265 28.0638ZM6.5674 18.6752C6.5674 18.6752 12.3948 10.0959 24.0265 9.19407V6.07225C11.1461 7.11285 0 18.0277 0 18.0277C0 18.0277 6.31303 36.2962 24.0265 37.9843V34.6543C11.0305 33.0125 6.5674 18.6752 6.5674 18.6752Z" fill="#ABABAB"/>
</svg>
