<svg width="228" height="44" viewBox="0 0 228 44" fill="none" xmlns="http://www.w3.org/2000/svg">
<g clip-path="url(#clip0_6_439)">
<mask id="mask0_6_439" style="mask-type:luminance" maskUnits="userSpaceOnUse" x="0" y="0" width="228" height="44">
<path d="M0 0H228V43.5669H0V0Z" fill="white"/>
</mask>
<g mask="url(#mask0_6_439)">
<path d="M15.8168 24.9866C15.2816 26.057 13.7542 26.057 13.219 24.9866L11.939 22.4267C11.7346 22.0179 11.7346 21.5366 11.939 21.1278L13.219 18.5679C13.7542 17.4976 15.2816 17.4976 15.8168 18.5679L17.0968 21.1278C17.3011 21.5366 17.3011 22.0179 17.0968 22.4267L15.8168 24.9866ZM15.8168 39.5046C15.2816 40.5749 13.7542 40.5749 13.219 39.5046L11.939 36.9447C11.7346 36.5359 11.7346 36.0546 11.939 35.6458L13.219 33.0859C13.7542 32.0155 15.2816 32.0155 15.8168 33.0859L17.0968 35.6458C17.3011 36.0546 17.3011 36.5359 17.0968 36.9447L15.8168 39.5046Z" fill="#ABABAB"/>
<path d="M0 33.994C0 32.7003 1.56425 32.0523 2.47912 32.9672L9.13523 39.6233C10.0501 40.5382 9.40215 42.1024 8.10836 42.1024H1.45223C0.650185 42.1024 0 41.4523 0 40.6502V33.994ZM0 26.983C0 27.3681 0.153003 27.7376 0.425348 28.0098L14.0926 41.6771C14.3649 41.9494 14.7343 42.1024 15.1194 42.1024H22.6263C23.9201 42.1024 24.5681 40.5382 23.6532 39.6233L2.47912 18.4492C1.56425 17.5343 0 18.1823 0 19.4761V26.983ZM0 12.465C0 12.8502 0.153003 13.2196 0.425348 13.4919L28.6105 41.6771C28.8828 41.9494 29.2523 42.1024 29.6374 42.1024H37.1443C38.438 42.1024 39.086 40.5382 38.1711 39.6233L2.47912 3.93132C1.56427 3.01647 0 3.6644 0 4.95819V12.465ZM14.5179 12.465C14.5179 12.8502 14.671 13.2196 14.9433 13.4919L41.0747 39.6233C41.9896 40.5382 43.5538 39.8902 43.5538 38.5965V31.0896C43.5538 30.7045 43.4007 30.335 43.1285 30.0627L16.997 3.93131C16.0821 3.01646 14.5179 3.6644 14.5179 4.95819V12.465ZM31.515 3.93132C30.6001 3.01646 29.0359 3.6644 29.0359 4.95819V12.465C29.0359 12.8502 29.1889 13.2196 29.4612 13.4919L41.0747 25.1054C41.9896 26.0203 43.5538 25.3723 43.5538 24.0785V16.5717C43.5538 16.1865 43.4007 15.8171 43.1285 15.5448L31.515 3.93132ZM61.7558 34.1721L48.0864 20.5027C47.1715 19.5878 45.6073 20.2358 45.6073 21.5296V40.6502C45.6073 41.4523 46.2574 42.1024 47.0595 42.1024H68.2339C69.0359 42.1024 69.6861 41.4523 69.6861 40.6502V38.909C69.6861 38.1069 69.0332 37.4663 68.2378 37.3628C65.797 37.045 63.514 35.9303 61.7558 34.1721ZM52.5758 37.4567C51.2936 37.4567 50.2529 36.4161 50.2529 35.1338C50.2529 33.8516 51.2936 32.8109 52.5758 32.8109C53.8581 32.8109 54.8988 33.8516 54.8988 35.1338C54.8988 36.4161 53.8581 37.4567 52.5758 37.4567Z" fill="#ABABAB"/>
<path d="M0 40.6502C0 41.4523 0.650185 42.1024 1.45223 42.1024H8.10836C9.40215 42.1024 10.0501 40.5382 9.13525 39.6233L2.47912 32.9672C1.56425 32.0523 0 32.7003 0 33.994V40.6502ZM14.5179 15.9701L2.47912 3.93132C1.56425 3.01645 0 3.6644 0 4.95819V12.465C0 12.8502 0.153003 13.2196 0.425348 13.4919L14.5179 27.5845V15.9701ZM2.47912 18.4492C1.56425 17.5343 0 18.1823 0 19.4761V26.983C0 27.3681 0.153003 27.7376 0.425348 28.0098L14.5179 42.1024V30.4881L2.47912 18.4492ZM29.0359 16.5716C29.0359 16.1865 28.883 15.8171 28.6105 15.5448L16.997 3.93132C16.0823 3.01645 14.518 3.6644 14.518 4.95819V12.465C14.518 12.8502 14.671 13.2196 14.9433 13.4919L29.0359 27.5845V16.5716ZM14.5179 42.1024H22.6263C23.9201 42.1024 24.5681 40.5382 23.6532 39.6233L14.5179 30.4881V42.1024ZM14.5179 15.9701L14.518 26.983C14.518 27.3681 14.671 27.7376 14.9433 28.0098L29.0359 42.1024V31.0896C29.0359 30.7045 28.883 30.3352 28.6105 30.0627L14.5179 15.9701ZM86.6249 36.3057H92.5907V26.4131H97.5747C103.05 26.4131 106.561 23.1659 106.561 18.1441C106.561 13.1224 103.05 9.8752 97.5747 9.8752H86.6249V36.3057ZM92.5907 21.3158V14.9726H96.9706C99.2361 14.9726 100.595 16.1807 100.595 18.1441C100.595 20.1077 99.2361 21.3158 96.9706 21.3158H92.5907ZM117.354 36.6078C123.169 36.6078 127.398 32.4544 127.398 26.7907C127.398 21.127 123.169 16.9736 117.354 16.9736C111.464 16.9736 107.31 21.127 107.31 26.7907C107.31 32.4544 111.464 36.6078 117.354 36.6078ZM112.823 26.7907C112.823 23.7701 114.635 21.6934 117.354 21.6934C120.035 21.6934 121.847 23.7701 121.847 26.7907C121.847 29.8113 120.035 31.888 117.354 31.888C114.635 31.888 112.823 29.8113 112.823 26.7907ZM136.945 36.6078C141.4 36.6078 144.421 33.8137 144.421 30.5287C144.421 22.8261 134.188 25.3183 134.188 22.2975C134.188 21.467 135.057 20.9384 136.303 20.9384C137.586 20.9384 139.134 21.7311 139.625 23.468L144.081 21.6179C143.212 18.8615 140.003 16.9736 136.114 16.9736C131.923 16.9736 129.317 19.4657 129.317 22.4485C129.317 29.6603 139.399 27.6591 139.399 30.642C139.399 31.6992 138.417 32.4168 136.945 32.4168C134.83 32.4168 133.358 30.9442 132.904 29.1696L128.449 30.9063C129.431 33.7759 132.3 36.6078 136.945 36.6078ZM158.772 36.1171L158.395 31.3218C157.753 31.6616 156.922 31.7747 156.242 31.7747C154.883 31.7747 153.977 30.7932 153.977 29.0939V21.8822H158.583V17.2757H153.977V11.7631H148.427V17.2757H145.406V21.8822H148.427V29.8113C148.427 34.4178 151.56 36.6078 155.676 36.6078C156.809 36.6078 157.866 36.4191 158.772 36.1171ZM178.125 9.8752V20.1453H167.628V9.8752H161.662V36.3057H167.628V25.2426H178.125V36.3057H184.128V9.8752H178.125ZM197.37 36.6078C203.184 36.6078 207.413 32.4544 207.413 26.7907C207.413 21.127 203.184 16.9736 197.37 16.9736C191.479 16.9736 187.326 21.127 187.326 26.7907C187.326 32.4544 191.479 36.6078 197.37 36.6078ZM192.839 26.7907C192.839 23.7701 194.651 21.6934 197.37 21.6934C200.05 21.6934 201.863 23.7701 201.863 26.7907C201.863 29.8113 200.05 31.888 197.37 31.888C194.651 31.888 192.839 29.8113 192.839 26.7907ZM218.126 35.7016C220.203 35.7016 222.053 34.9843 223.035 33.7382V35.5505C223.035 37.665 221.336 39.1377 218.73 39.1377C216.88 39.1377 215.257 38.2314 214.992 36.6833L209.933 37.4762C210.612 41.0632 214.275 43.4799 218.73 43.4799C224.583 43.4799 228.472 40.0437 228.472 34.9464V17.2757H222.997V18.8993C221.978 17.7288 220.241 16.9736 218.013 16.9736C212.727 16.9736 209.404 20.5984 209.404 26.3376C209.404 32.0768 212.727 35.7016 218.126 35.7016ZM214.804 26.3376C214.804 23.5058 216.465 21.6934 219.032 21.6934C221.638 21.6934 223.299 23.5058 223.299 26.3376C223.299 29.1694 221.638 30.9818 219.032 30.9818C216.465 30.9818 214.804 29.1694 214.804 26.3376Z" fill="#ABABAB"/>
</g>
</g>
<defs>
<clipPath id="clip0_6_439">
<rect width="228" height="43.5669" fill="white"/>
</clipPath>
</defs>
</svg>
