<svg width="248" height="82" viewBox="0 0 248 82" fill="none" xmlns="http://www.w3.org/2000/svg">
<path d="M16.6564 24.3512C6.09044 30.5493 5.42492 31.0069 4.34329 32.754C3.59457 34.0019 3.55298 34.9587 3.55298 46.1902C3.55298 55.2171 3.67777 58.4201 4.09372 58.9194C4.88418 59.9593 23.5202 70.5252 24.2689 70.4004C24.8928 70.2757 24.9762 69.111 25.101 58.8778C25.1842 49.7677 25.101 47.3134 24.6433 46.6063C24.3105 46.107 20.525 43.7775 16.2404 41.3649C11.9558 38.9522 8.17035 36.5811 7.83759 36.0818C7.08887 35.0003 7.46323 33.6275 8.58631 33.0036C9.25198 32.6708 11.2071 33.0036 17.6548 34.6676C22.189 35.8322 26.432 36.7891 27.0977 36.7891C28.9279 36.7891 47.8552 26.015 47.8552 24.9751C47.8552 24.3096 46.4408 23.8103 37.8716 21.564C32.3806 20.1082 27.4305 18.9434 26.848 18.9434C26.2656 18.985 21.6899 21.3976 16.6564 24.3512Z" fill="#ABABAB"/>
<path d="M42.7388 31.4229L41.366 32.2966L43.9868 33.8356C45.4426 34.6677 46.6075 35.6244 46.6075 35.9571C46.6075 36.3316 43.2795 38.4947 38.5374 41.1986C34.128 43.6944 30.2177 46.1487 29.9266 46.5648C29.4273 47.2303 29.3441 49.5598 29.4273 58.7947C29.5521 69.1111 29.6352 70.2758 30.2593 70.4005C31.008 70.5253 49.6441 59.9594 50.4761 58.9195C50.8505 58.4202 50.9753 55.2588 50.9753 46.3567C50.9753 37.4547 50.8505 34.2933 50.4761 33.794C49.8104 33.0037 45.4426 30.5494 44.6939 30.5494C44.3612 30.5494 43.4875 30.9654 42.7388 31.4229Z" fill="#ABABAB"/>
<path d="M72.2395 63.3975V25.9734H85.5792C88.4786 25.9734 90.8845 26.4728 92.7972 27.4718C94.722 28.4707 96.1596 29.8535 97.1098 31.6199C98.06 33.3741 98.5351 35.4025 98.5351 37.705C98.5351 39.9952 98.054 42.0115 97.0915 43.7535C96.1413 45.4833 94.7037 46.8296 92.7789 47.792C90.8664 48.7544 88.4603 49.2355 85.5609 49.2355H75.4556V44.3749H85.0493C86.8767 44.3749 88.3628 44.1128 89.508 43.589C90.6653 43.0652 91.512 42.3038 92.0481 41.3048C92.5841 40.3059 92.8521 39.106 92.8521 37.705C92.8521 36.2918 92.5779 35.0675 92.0298 34.032C91.4937 32.9964 90.647 32.2047 89.4897 31.6564C88.3446 31.0961 86.8401 30.8159 84.9761 30.8159H77.886V63.3975H72.2395ZM90.714 46.5128L99.9605 63.3975H93.5282L84.4645 46.5128H90.714ZM120.689 51.7572V35.3293H126.171V63.3975H120.799V58.5367H120.506C119.861 60.0352 118.825 61.2839 117.4 62.2829C115.987 63.2696 114.226 63.763 112.119 63.763C110.316 63.763 108.72 63.3671 107.331 62.5752C105.955 61.7712 104.87 60.5833 104.079 59.0119C103.299 57.4404 102.909 55.4973 102.909 53.1826V35.3293H108.373V52.5248C108.373 54.4374 108.903 55.9602 109.963 57.0932C111.022 58.2261 112.399 58.7926 114.092 58.7926C115.116 58.7926 116.133 58.5367 117.144 58.0251C118.167 57.5134 119.014 56.7398 119.684 55.7044C120.366 54.6689 120.701 53.3532 120.689 51.7572ZM136.918 46.7321V63.3975H131.454V35.3293H136.698V39.8978H137.046C137.692 38.4116 138.702 37.2177 140.079 36.3162C141.468 35.4147 143.216 34.964 145.323 34.964C147.236 34.964 148.911 35.3659 150.349 36.17C151.787 36.9619 152.902 38.1435 153.694 39.715C154.484 41.2865 154.88 43.2296 154.88 45.5442V63.3975H149.417V46.2022C149.417 44.1677 148.887 42.578 147.828 41.4327C146.767 40.2755 145.312 39.6967 143.459 39.6967C142.193 39.6967 141.067 39.9709 140.079 40.5191C139.105 41.0672 138.331 41.8713 137.759 42.9312C137.199 43.9789 136.918 45.2458 136.918 46.7321ZM160.589 63.3975V25.9734H173.928C176.84 25.9734 179.253 26.5033 181.165 27.5632C183.078 28.6231 184.509 30.0727 185.459 31.9122C186.41 33.7396 186.884 35.7985 186.884 38.0887C186.884 40.3911 186.403 42.4622 185.441 44.3017C184.49 46.129 183.054 47.5787 181.128 48.6507C179.216 49.7106 176.81 50.2407 173.91 50.2407H164.737V45.4529H173.398C175.238 45.4529 176.73 45.1361 177.875 44.5026C179.021 43.857 179.862 42.9799 180.398 41.8713C180.934 40.7628 181.201 39.5019 181.201 38.0887C181.201 36.6756 180.934 35.4208 180.398 34.3243C179.862 33.228 179.014 32.3691 177.858 31.7479C176.713 31.1265 175.202 30.8159 173.325 30.8159H166.235V63.3975H160.589ZM202.478 63.964C199.848 63.964 197.551 63.3609 195.589 62.155C193.628 60.9488 192.105 59.2616 191.021 57.0932C189.936 54.9246 189.394 52.3908 189.394 49.4914C189.394 46.5798 189.936 44.0337 191.021 41.8531C192.105 39.6724 193.628 37.979 195.589 36.773C197.551 35.5669 199.848 34.964 202.478 34.964C205.109 34.964 207.406 35.5669 209.367 36.773C211.329 37.979 212.852 39.6724 213.936 41.8531C215.021 44.0337 215.562 46.5798 215.562 49.4914C215.562 52.3908 215.021 54.9246 213.936 57.0932C212.852 59.2616 211.329 60.9488 209.367 62.155C207.406 63.3609 205.109 63.964 202.478 63.964ZM202.496 59.3774C204.202 59.3774 205.615 58.9267 206.736 58.0251C207.857 57.1236 208.686 55.9237 209.222 54.4252C209.769 52.9268 210.043 51.2761 210.043 49.4731C210.043 47.6823 209.769 46.0377 209.222 44.5392C208.686 43.0286 207.857 41.8165 206.736 40.9028C205.615 39.9892 204.202 39.5323 202.496 39.5323C200.78 39.5323 199.353 39.9892 198.221 40.9028C197.1 41.8165 196.266 43.0286 195.717 44.5392C195.181 46.0377 194.913 47.6823 194.913 49.4731C194.913 51.2761 195.181 52.9268 195.717 54.4252C196.266 55.9237 197.1 57.1236 198.221 58.0251C199.353 58.9267 200.78 59.3774 202.496 59.3774ZM230.109 63.9457C227.844 63.9457 225.821 63.3671 224.043 62.2097C222.276 61.0403 220.888 59.3774 219.876 57.2211C218.877 55.0526 218.378 52.4516 218.378 49.4183C218.378 46.3849 218.884 43.7901 219.895 41.6337C220.918 39.4775 222.319 37.8268 224.097 36.6817C225.877 35.5365 227.892 34.964 230.146 34.964C231.889 34.964 233.29 35.2563 234.349 35.8411C235.421 36.4137 236.25 37.0837 236.835 37.8511C237.432 38.6187 237.894 39.2948 238.224 39.8795H238.553V25.9734H244.016V63.3975H238.68V59.0302H238.224C237.894 59.6271 237.419 60.3093 236.797 61.0768C236.189 61.8443 235.348 62.5143 234.276 63.0869C233.204 63.6594 231.816 63.9457 230.109 63.9457ZM231.316 59.286C232.888 59.286 234.216 58.8718 235.299 58.0434C236.396 57.2028 237.225 56.0394 237.785 54.5531C238.357 53.0669 238.644 51.337 238.644 49.3634C238.644 47.4143 238.364 45.7088 237.804 44.2469C237.242 42.7849 236.42 41.646 235.337 40.8297C234.252 40.0135 232.912 39.6054 231.316 39.6054C229.672 39.6054 228.301 40.0318 227.205 40.8846C226.108 41.7373 225.279 42.9007 224.719 44.3749C224.172 45.8488 223.897 47.5118 223.897 49.3634C223.897 51.2395 224.177 52.9268 224.738 54.4252C225.298 55.9237 226.126 57.1115 227.223 57.9886C228.331 58.8535 229.696 59.286 231.316 59.286Z" fill="#ABABAB"/>
</svg>
