<svg viewBox="0 0 251 251" fill="none" xmlns="http://www.w3.org/2000/svg">
	<g filter="url(#filter0_dd_2151_624)">
		<g filter="url(#filter1_ii_2151_624)">
			<g filter="url(#filter2_i_2151_624)">
				<path
					d="M31.375 67.9792C31.375 47.7632 47.7632 31.375 67.9792 31.375L183.021 31.375C203.237 31.375 219.625 47.7632 219.625 67.9792L219.625 188.25C219.625 205.578 205.578 219.625 188.25 219.625L62.75 219.625C45.4221 219.625 31.375 205.578 31.375 188.25L31.375 67.9792Z"
					fill="#2B2D40" />
			</g>
			<path
				d="M35.2969 67.9792C35.2969 49.9292 49.9292 35.2969 67.9792 35.2969L183.021 35.2969C201.071 35.2969 215.703 49.9292 215.703 67.9792L215.703 188.25C215.703 203.412 203.412 215.703 188.25 215.703L62.75 215.703C47.5881 215.703 35.2969 203.412 35.2969 188.25L35.2969 67.9792Z"
				stroke="url(#paint0_linear_2151_624)" stroke-width="7.84375" />
			<g filter="url(#filter3_f_2151_624)">
				<path
					d="M40.1992 67.9792C40.1992 52.6367 52.6367 40.1992 67.9792 40.1992L183.021 40.1992C198.363 40.1992 210.801 52.6367 210.801 67.9792L210.801 188.25C210.801 200.704 200.704 210.801 188.25 210.801L62.75 210.801C50.2955 210.801 40.1992 200.704 40.1992 188.25L40.1992 67.9792Z"
					stroke="url(#paint1_linear_2151_624)" stroke-width="1.96094" />
			</g>
		</g>
		<g filter="url(#filter4_ii_2151_624)">
			<g filter="url(#filter5_d_2151_624)">
				<path
					d="M73.2077 52.292C61.6557 52.292 52.291 61.6567 52.291 73.2087L52.291 156.875C52.291 168.427 61.6557 177.792 73.2077 177.792L88.8952 177.792C92.1871 177.792 95.2868 179.342 97.2618 181.975L117.133 208.47C121.316 214.047 129.683 214.047 133.866 208.47L153.737 181.975C155.712 179.342 158.812 177.792 162.104 177.792L177.791 177.792C189.344 177.792 198.708 168.427 198.708 156.875L198.708 73.2087C198.708 61.6567 189.344 52.292 177.791 52.292L73.2077 52.292Z"
					fill="url(#paint2_linear_2151_624)" />
				<path
					d="M54.252 73.2087C54.252 62.7397 62.7387 54.2529 73.2077 54.2529L177.791 54.2529C188.261 54.2529 196.747 62.7397 196.747 73.2087L196.747 156.875C196.747 167.344 188.261 175.831 177.791 175.831L162.104 175.831C158.194 175.831 154.513 177.671 152.168 180.799L132.297 207.294C128.898 211.825 122.1 211.825 118.701 207.294L98.8306 180.799C96.4852 177.671 92.8043 175.831 88.8952 175.831L73.2077 175.831C62.7387 175.831 54.252 167.344 54.252 156.875L54.252 73.2087Z"
					stroke="url(#paint3_linear_2151_624)" stroke-opacity="0.2" stroke-width="3.92188"
					stroke-linecap="square" stroke-linejoin="bevel" />
			</g>
		</g>
		<g filter="url(#filter6_i_2151_624)">
			<path
				d="M120.095 75.5034C121.78 70.9508 128.219 70.9507 129.904 75.5034L138.289 98.1631C138.818 99.5945 139.947 100.723 141.378 101.253L164.038 109.637C168.591 111.322 168.591 117.761 164.038 119.446L141.378 127.831C139.947 128.36 138.818 129.489 138.289 130.92L129.904 153.58C128.219 158.133 121.78 158.133 120.095 153.58L111.711 130.92C111.181 129.489 110.052 128.36 108.621 127.831L85.9614 119.446C81.4088 117.761 81.4088 111.322 85.9614 109.637L108.621 101.253C110.052 100.723 111.181 99.5945 111.711 98.1631L120.095 75.5034Z"
				fill="#E3F3FF" fill-opacity="0.95" />
		</g>
		<path
			d="M121.015 75.8436C122.384 72.1446 127.616 72.1446 128.984 75.8436L137.369 98.5034C137.998 100.203 139.338 101.543 141.038 102.172L163.698 110.557C167.397 111.926 167.397 117.158 163.698 118.526L141.038 126.911C139.338 127.54 137.998 128.88 137.369 130.58L128.984 153.24C127.616 156.939 122.384 156.939 121.015 153.24L112.63 130.58C112.001 128.88 110.661 127.54 108.961 126.911L86.3016 118.526C82.6026 117.158 82.6026 111.926 86.3016 110.557L108.961 102.172C110.661 101.543 112.001 100.203 112.63 98.5034L121.015 75.8436Z"
			stroke="url(#paint4_linear_2151_624)" stroke-width="1.96094" />
	</g>
	<defs>
		<filter id="filter0_dd_2151_624" x="25.375" y="28.375" width="200.25" height="200.25"
			filterUnits="userSpaceOnUse" color-interpolation-filters="sRGB">
			<feFlood flood-opacity="0" result="BackgroundImageFix" />
			<feColorMatrix in="SourceAlpha" type="matrix"
				values="0 0 0 0 0 0 0 0 0 0 0 0 0 0 0 0 0 0 127 0" result="hardAlpha" />
			<feOffset dy="3" />
			<feGaussianBlur stdDeviation="3" />
			<feColorMatrix type="matrix" values="0 0 0 0 0 0 0 0 0 0 0 0 0 0 0 0 0 0 0.12 0" />
			<feBlend mode="normal" in2="BackgroundImageFix" result="effect1_dropShadow_2151_624" />
			<feColorMatrix in="SourceAlpha" type="matrix"
				values="0 0 0 0 0 0 0 0 0 0 0 0 0 0 0 0 0 0 127 0" result="hardAlpha" />
			<feOffset dy="1.5" />
			<feGaussianBlur stdDeviation="1.5" />
			<feColorMatrix type="matrix" values="0 0 0 0 0 0 0 0 0 0 0 0 0 0 0 0 0 0 0.4 0" />
			<feBlend mode="normal" in2="effect1_dropShadow_2151_624" result="effect2_dropShadow_2151_624" />
			<feBlend mode="normal" in="SourceGraphic" in2="effect2_dropShadow_2151_624" result="shape" />
		</filter>
		<filter id="filter1_ii_2151_624" x="31.375" y="19.6094" width="188.25" height="201.977"
			filterUnits="userSpaceOnUse" color-interpolation-filters="sRGB">
			<feFlood flood-opacity="0" result="BackgroundImageFix" />
			<feBlend mode="normal" in="SourceGraphic" in2="BackgroundImageFix" result="shape" />
			<feColorMatrix in="SourceAlpha" type="matrix"
				values="0 0 0 0 0 0 0 0 0 0 0 0 0 0 0 0 0 0 127 0" result="hardAlpha" />
			<feOffset dy="-11.7656" />
			<feGaussianBlur stdDeviation="7.84375" />
			<feComposite in2="hardAlpha" operator="arithmetic" k2="-1" k3="1" />
			<feColorMatrix type="matrix" values="0 0 0 0 0.16 0 0 0 0 0.173333 0 0 0 0 0.24 0 0 0 0.6 0" />
			<feBlend mode="normal" in2="shape" result="effect1_innerShadow_2151_624" />
			<feColorMatrix in="SourceAlpha" type="matrix"
				values="0 0 0 0 0 0 0 0 0 0 0 0 0 0 0 0 0 0 127 0" result="hardAlpha" />
			<feOffset dy="1.96094" />
			<feGaussianBlur stdDeviation="1.96094" />
			<feComposite in2="hardAlpha" operator="arithmetic" k2="-1" k3="1" />
			<feColorMatrix type="matrix"
				values="0 0 0 0 0.56525 0 0 0 0 0.518576 0 0 0 0 0.69809 0 0 0 0.15 0" />
			<feBlend mode="normal" in2="effect1_innerShadow_2151_624"
				result="effect2_innerShadow_2151_624" />
		</filter>
		<filter id="filter2_i_2151_624" x="31.375" y="31.375" width="188.25" height="190.865"
			filterUnits="userSpaceOnUse" color-interpolation-filters="sRGB">
			<feFlood flood-opacity="0" result="BackgroundImageFix" />
			<feBlend mode="normal" in="SourceGraphic" in2="BackgroundImageFix" result="shape" />
			<feColorMatrix in="SourceAlpha" type="matrix"
				values="0 0 0 0 0 0 0 0 0 0 0 0 0 0 0 0 0 0 127 0" result="hardAlpha" />
			<feOffset dy="2.61458" />
			<feGaussianBlur stdDeviation="10.4583" />
			<feComposite in2="hardAlpha" operator="arithmetic" k2="-1" k3="1" />
			<feColorMatrix type="matrix"
				values="0 0 0 0 0.358472 0 0 0 0 0.402541 0 0 0 0 0.608194 0 0 0 0.7 0" />
			<feBlend mode="normal" in2="shape" result="effect1_innerShadow_2151_624" />
		</filter>
		<filter id="filter3_f_2151_624" x="37.9115" y="37.9115" width="175.177" height="175.177"
			filterUnits="userSpaceOnUse" color-interpolation-filters="sRGB">
			<feFlood flood-opacity="0" result="BackgroundImageFix" />
			<feBlend mode="normal" in="SourceGraphic" in2="BackgroundImageFix" result="shape" />
			<feGaussianBlur stdDeviation="0.653646" result="effect1_foregroundBlur_2151_624" />
		</filter>
		<filter id="filter4_ii_2151_624" x="52.291" y="52.292" width="146.417" height="165.59"
			filterUnits="userSpaceOnUse" color-interpolation-filters="sRGB">
			<feFlood flood-opacity="0" result="BackgroundImageFix" />
			<feBlend mode="normal" in="SourceGraphic" in2="BackgroundImageFix" result="shape" />
			<feColorMatrix in="SourceAlpha" type="matrix"
				values="0 0 0 0 0 0 0 0 0 0 0 0 0 0 0 0 0 0 127 0" result="hardAlpha" />
			<feOffset />
			<feGaussianBlur stdDeviation="2.61458" />
			<feComposite in2="hardAlpha" operator="arithmetic" k2="-1" k3="1" />
			<feColorMatrix type="matrix" values="0 0 0 0 1 0 0 0 0 1 0 0 0 0 1 0 0 0 0.5 0" />
			<feBlend mode="normal" in2="shape" result="effect1_innerShadow_2151_624" />
			<feColorMatrix in="SourceAlpha" type="matrix"
				values="0 0 0 0 0 0 0 0 0 0 0 0 0 0 0 0 0 0 127 0" result="hardAlpha" />
			<feOffset dy="5.22917" />
			<feGaussianBlur stdDeviation="2.61458" />
			<feComposite in2="hardAlpha" operator="arithmetic" k2="-1" k3="1" />
			<feColorMatrix type="matrix" values="0 0 0 0 1 0 0 0 0 1 0 0 0 0 1 0 0 0 0.25 0" />
			<feBlend mode="normal" in2="effect1_innerShadow_2151_624"
				result="effect2_innerShadow_2151_624" />
		</filter>
		<filter id="filter5_d_2151_624" x="47.0618" y="52.292" width="156.875" height="170.819"
			filterUnits="userSpaceOnUse" color-interpolation-filters="sRGB">
			<feFlood flood-opacity="0" result="BackgroundImageFix" />
			<feColorMatrix in="SourceAlpha" type="matrix"
				values="0 0 0 0 0 0 0 0 0 0 0 0 0 0 0 0 0 0 127 0" result="hardAlpha" />
			<feOffset dy="5.22917" />
			<feGaussianBlur stdDeviation="2.61458" />
			<feComposite in2="hardAlpha" operator="out" />
			<feColorMatrix type="matrix"
				values="0 0 0 0 0.114375 0 0 0 0 0.124091 0 0 0 0 0.185625 0 0 0 0.15 0" />
			<feBlend mode="normal" in2="BackgroundImageFix" result="effect1_dropShadow_2151_624" />
			<feBlend mode="normal" in="SourceGraphic" in2="effect1_dropShadow_2151_624" result="shape" />
		</filter>
		<filter id="filter6_i_2151_624" x="82.5469" y="69.4743" width="84.9053" height="87.5203"
			filterUnits="userSpaceOnUse" color-interpolation-filters="sRGB">
			<feFlood flood-opacity="0" result="BackgroundImageFix" />
			<feBlend mode="normal" in="SourceGraphic" in2="BackgroundImageFix" result="shape" />
			<feColorMatrix in="SourceAlpha" type="matrix"
				values="0 0 0 0 0 0 0 0 0 0 0 0 0 0 0 0 0 0 127 0" result="hardAlpha" />
			<feOffset dy="-2.61458" />
			<feGaussianBlur stdDeviation="6.53646" />
			<feComposite in2="hardAlpha" operator="arithmetic" k2="-1" k3="1" />
			<feColorMatrix type="matrix"
				values="0 0 0 0 0.581406 0 0 0 0 0.775135 0 0 0 0 0.943594 0 0 0 0.5 0" />
			<feBlend mode="normal" in2="shape" result="effect1_innerShadow_2151_624" />
		</filter>
		<linearGradient id="paint0_linear_2151_624" x1="125.5" y1="31.375" x2="125.5" y2="219.625"
			gradientUnits="userSpaceOnUse">
			<stop stop-color="#2A2C43" />
			<stop offset="1" stop-color="#26283C" />
		</linearGradient>
		<linearGradient id="paint1_linear_2151_624" x1="125.5" y1="39.2188" x2="125.5" y2="211.781"
			gradientUnits="userSpaceOnUse">
			<stop stop-color="#3C405D" />
			<stop offset="1" stop-color="#26283C" stop-opacity="0" />
		</linearGradient>
		<linearGradient id="paint2_linear_2151_624" x1="125.499" y1="52.292" x2="125.499" y2="212.653"
			gradientUnits="userSpaceOnUse">
			<stop stop-color="#1CB3FF" />
			<stop offset="0.5" stop-color="#4764FA" />
			<stop offset="1" stop-color="#EA68FF" />
		</linearGradient>
		<linearGradient id="paint3_linear_2151_624" x1="125.499" y1="52.292" x2="125.499" y2="212.653"
			gradientUnits="userSpaceOnUse">
			<stop stop-color="white" />
			<stop offset="1" stop-color="white" stop-opacity="0.8" />
		</linearGradient>
		<linearGradient id="paint4_linear_2151_624" x1="125" y1="66.1719" x2="91.6288" y2="154.18"
			gradientUnits="userSpaceOnUse">
			<stop stop-color="white" stop-opacity="0.5" />
			<stop offset="1" stop-color="white" stop-opacity="0" />
		</linearGradient>
	</defs>
</svg>
