<svg viewBox="0 0 250 250" fill="none" xmlns="http://www.w3.org/2000/svg">
	<rect opacity="0.2" x="0.433013" y="0.25" width="171.82" height="114.426" rx="9.5"
		transform="matrix(0.866025 -0.5 0 1 0.0580127 86.6263)" fill="url(#paint0_linear_2155_6304)"
		stroke="url(#paint1_linear_2155_6304)" />
	<rect opacity="0.4" x="0.433013" y="0.25" width="171.82" height="114.426" rx="9.5"
		transform="matrix(0.866025 -0.5 0 1 14.7719 89.7701)" fill="url(#paint2_linear_2155_6304)"
		stroke="url(#paint3_linear_2155_6304)" />
	<rect x="0.433013" y="0.25" width="183.603" height="122.296" rx="9.5"
		transform="matrix(0.866025 -0.5 0 1 29.4877 92.5183)" fill="url(#paint4_linear_2155_6304)"
		stroke="url(#paint5_linear_2155_6304)" />
	<g opacity="0.4">
		<rect x="0.433013" y="0.25" width="20.3902" height="20.3902" rx="4.5"
			transform="matrix(0.866025 -0.5 0 1 42.3002 170.447)" fill="url(#paint6_linear_2155_6304)"
			stroke="url(#paint7_linear_2155_6304)" />
		<rect x="0.433013" y="0.25" width="20.3902" height="20.3902" rx="4.5"
			transform="matrix(0.866025 -0.5 0 1 68.1479 157.97)" fill="url(#paint8_linear_2155_6304)"
			stroke="url(#paint9_linear_2155_6304)" />
		<rect x="0.433013" y="0.25" width="20.3902" height="20.3902" rx="4.5"
			transform="matrix(0.866025 -0.5 0 1 93.9926 145.492)" fill="url(#paint10_linear_2155_6304)"
			stroke="url(#paint11_linear_2155_6304)" />
		<rect opacity="0.9" x="0.433013" y="0.25" width="20.3902" height="20.3902" rx="4.5"
			transform="matrix(0.866025 -0.5 0 1 119.84 133.015)" fill="url(#paint12_linear_2155_6304)"
			stroke="url(#paint13_linear_2155_6304)" />
		<rect opacity="0.5" x="0.433013" y="0.25" width="20.3902" height="20.3902" rx="4.5"
			transform="matrix(0.866025 -0.5 0 1 145.687 120.537)" fill="url(#paint14_linear_2155_6304)"
			stroke="url(#paint15_linear_2155_6304)" />
		<rect opacity="0.5" x="0.433013" y="0.25" width="20.3902" height="20.3902" rx="4.5"
			transform="matrix(0.866025 -0.5 0 1 170.642 108.059)" fill="url(#paint16_linear_2155_6304)"
			stroke="url(#paint17_linear_2155_6304)" />
	</g>
	<g opacity="0.5">
		<rect x="0.433013" y="0.25" width="20.3902" height="20.3902" rx="4.5"
			transform="matrix(0.866025 -0.5 0 1 43.1928 135.688)" fill="url(#paint18_linear_2155_6304)"
			stroke="url(#paint19_linear_2155_6304)" />
		<rect x="0.433013" y="0.25" width="20.3902" height="20.3902" rx="4.5"
			transform="matrix(0.866025 -0.5 0 1 69.0404 123.211)" fill="url(#paint20_linear_2155_6304)"
			stroke="url(#paint21_linear_2155_6304)" />
		<rect x="0.433013" y="0.25" width="20.3902" height="20.3902" rx="4.5"
			transform="matrix(0.866025 -0.5 0 1 94.8852 110.733)" fill="url(#paint22_linear_2155_6304)"
			stroke="url(#paint23_linear_2155_6304)" />
		<rect x="0.433013" y="0.25" width="20.3902" height="20.3902" rx="4.5"
			transform="matrix(0.866025 -0.5 0 1 120.733 98.2554)" fill="url(#paint24_linear_2155_6304)"
			stroke="url(#paint25_linear_2155_6304)" />
		<rect opacity="0.5" x="0.433013" y="0.25" width="20.3902" height="20.3902" rx="4.5"
			transform="matrix(0.866025 -0.5 0 1 146.579 85.7778)" fill="url(#paint26_linear_2155_6304)"
			stroke="url(#paint27_linear_2155_6304)" />
		<rect opacity="0.5" x="0.433013" y="0.25" width="20.3902" height="20.3902" rx="4.5"
			transform="matrix(0.866025 -0.5 0 1 171.535 73.3)" fill="url(#paint28_linear_2155_6304)"
			stroke="url(#paint29_linear_2155_6304)" />
	</g>
	<rect x="0.433013" y="0.25" width="20.3902" height="20.3902" rx="4.5"
		transform="matrix(0.866025 -0.5 0 1 43.1928 104.494)" fill="url(#paint30_linear_2155_6304)"
		stroke="url(#paint31_linear_2155_6304)" />
	<rect x="0.433013" y="0.25" width="20.3902" height="20.3902" rx="4.5"
		transform="matrix(0.866025 -0.5 0 1 69.0404 92.2927)" fill="url(#paint32_linear_2155_6304)"
		stroke="url(#paint33_linear_2155_6304)" />
	<rect opacity="0.8" x="0.433013" y="0.25" width="22.7464" height="22.7464" rx="4.5"
		transform="matrix(0.866025 -0.5 0 1 94.8861 79.539)" fill="url(#paint34_linear_2155_6304)"
		stroke="url(#paint35_linear_2155_6304)" />
	<rect opacity="0.7" x="0.433013" y="0.25" width="23.6231" height="23.6231" rx="4.5"
		transform="matrix(0.866025 -0.5 0 1 120.734 67.0614)" fill="url(#paint36_linear_2155_6304)"
		stroke="url(#paint37_linear_2155_6304)" />
	<rect opacity="0.5" x="0.433013" y="0.25" width="21.8787" height="21.8787" rx="4.5"
		transform="matrix(0.866025 -0.5 0 1 146.579 54.5837)" fill="url(#paint38_linear_2155_6304)"
		stroke="url(#paint39_linear_2155_6304)" />
	<rect opacity="0.5" x="0.433013" y="0.25" width="20.3902" height="20.3902" rx="4.5"
		transform="matrix(0.866025 -0.5 0 1 171.535 42.1059)" fill="url(#paint40_linear_2155_6304)"
		stroke="url(#paint41_linear_2155_6304)" />
	<defs>
		<linearGradient id="paint0_linear_2155_6304" x1="2.55084" y1="4.14512" x2="164.848" y2="115.426"
			gradientUnits="userSpaceOnUse">
			<stop stop-color="#3E4255" />
			<stop offset="1" stop-color="#16171D" stop-opacity="0" />
		</linearGradient>
		<linearGradient id="paint1_linear_2155_6304" x1="3.50741" y1="5.7394" x2="111.599" y2="73.9745"
			gradientUnits="userSpaceOnUse">
			<stop stop-color="#5C6285" />
			<stop offset="1" stop-color="#18191F" stop-opacity="0" />
		</linearGradient>
		<linearGradient id="paint2_linear_2155_6304" x1="2.55084" y1="4.14512" x2="164.848" y2="115.426"
			gradientUnits="userSpaceOnUse">
			<stop stop-color="#3E4255" />
			<stop offset="1" stop-color="#16171D" stop-opacity="0" />
		</linearGradient>
		<linearGradient id="paint3_linear_2155_6304" x1="3.50741" y1="5.7394" x2="111.599" y2="73.9745"
			gradientUnits="userSpaceOnUse">
			<stop stop-color="#5C6285" />
			<stop offset="1" stop-color="#18191F" stop-opacity="0" />
		</linearGradient>
		<linearGradient id="paint4_linear_2155_6304" x1="27.6515" y1="5.26111" x2="201.4" y2="60.358"
			gradientUnits="userSpaceOnUse">
			<stop stop-color="#4A2B4E" />
			<stop offset="1" stop-color="#16171D" stop-opacity="0" />
		</linearGradient>
		<linearGradient id="paint5_linear_2155_6304" x1="3.74655" y1="6.13072" x2="119.209" y2="79.0182"
			gradientUnits="userSpaceOnUse">
			<stop stop-color="#DF63F3" />
			<stop offset="1" stop-color="#18191F" stop-opacity="0" />
		</linearGradient>
		<linearGradient id="paint6_linear_2155_6304" x1="0.315723" y1="0.768158" x2="24.7278"
			y2="11.9477" gradientUnits="userSpaceOnUse">
			<stop stop-color="#7A366B" />
			<stop offset="1" stop-color="#16171D" stop-opacity="0" />
		</linearGradient>
		<linearGradient id="paint7_linear_2155_6304" x1="0.434119" y1="1.0636" x2="24.1699" y2="6.85666"
			gradientUnits="userSpaceOnUse">
			<stop stop-color="#DF63F3" />
			<stop offset="1" stop-color="#18191F" stop-opacity="0" />
		</linearGradient>
		<linearGradient id="paint8_linear_2155_6304" x1="0.315723" y1="0.768158" x2="24.7278"
			y2="11.9477" gradientUnits="userSpaceOnUse">
			<stop stop-color="#7A366B" />
			<stop offset="1" stop-color="#16171D" stop-opacity="0" />
		</linearGradient>
		<linearGradient id="paint9_linear_2155_6304" x1="0.434119" y1="1.0636" x2="24.1699" y2="6.85666"
			gradientUnits="userSpaceOnUse">
			<stop stop-color="#DF63F3" />
			<stop offset="1" stop-color="#18191F" stop-opacity="0" />
		</linearGradient>
		<linearGradient id="paint10_linear_2155_6304" x1="0.315723" y1="0.768158" x2="24.7278"
			y2="11.9477" gradientUnits="userSpaceOnUse">
			<stop stop-color="#7A366B" />
			<stop offset="1" stop-color="#16171D" stop-opacity="0" />
		</linearGradient>
		<linearGradient id="paint11_linear_2155_6304" x1="0.434119" y1="1.0636" x2="24.1699"
			y2="6.85666" gradientUnits="userSpaceOnUse">
			<stop stop-color="#DF63F3" />
			<stop offset="1" stop-color="#18191F" stop-opacity="0" />
		</linearGradient>
		<linearGradient id="paint12_linear_2155_6304" x1="0.315723" y1="0.768158" x2="24.7278"
			y2="11.9477" gradientUnits="userSpaceOnUse">
			<stop stop-color="#7A366B" />
			<stop offset="1" stop-color="#16171D" stop-opacity="0" />
		</linearGradient>
		<linearGradient id="paint13_linear_2155_6304" x1="0.434119" y1="1.0636" x2="24.1699"
			y2="6.85666" gradientUnits="userSpaceOnUse">
			<stop stop-color="#DF63F3" />
			<stop offset="1" stop-color="#18191F" stop-opacity="0" />
		</linearGradient>
		<linearGradient id="paint14_linear_2155_6304" x1="0.315723" y1="0.768158" x2="24.7278"
			y2="11.9477" gradientUnits="userSpaceOnUse">
			<stop stop-color="#7A366B" />
			<stop offset="1" stop-color="#16171D" stop-opacity="0" />
		</linearGradient>
		<linearGradient id="paint15_linear_2155_6304" x1="0.434119" y1="1.0636" x2="24.1699"
			y2="6.85666" gradientUnits="userSpaceOnUse">
			<stop stop-color="#DF63F3" />
			<stop offset="1" stop-color="#18191F" stop-opacity="0" />
		</linearGradient>
		<linearGradient id="paint16_linear_2155_6304" x1="0.315723" y1="0.768158" x2="24.7278"
			y2="11.9477" gradientUnits="userSpaceOnUse">
			<stop stop-color="#7A366B" />
			<stop offset="1" stop-color="#16171D" stop-opacity="0" />
		</linearGradient>
		<linearGradient id="paint17_linear_2155_6304" x1="0.434119" y1="1.0636" x2="24.1699"
			y2="6.85666" gradientUnits="userSpaceOnUse">
			<stop stop-color="#DF63F3" />
			<stop offset="1" stop-color="#18191F" stop-opacity="0" />
		</linearGradient>
		<linearGradient id="paint18_linear_2155_6304" x1="0.315723" y1="0.768158" x2="24.7278"
			y2="11.9477" gradientUnits="userSpaceOnUse">
			<stop stop-color="#7A366B" />
			<stop offset="1" stop-color="#16171D" stop-opacity="0" />
		</linearGradient>
		<linearGradient id="paint19_linear_2155_6304" x1="0.434119" y1="1.0636" x2="24.1699"
			y2="6.85666" gradientUnits="userSpaceOnUse">
			<stop stop-color="#DF63F3" />
			<stop offset="1" stop-color="#18191F" stop-opacity="0" />
		</linearGradient>
		<linearGradient id="paint20_linear_2155_6304" x1="0.315723" y1="0.768158" x2="24.7278"
			y2="11.9477" gradientUnits="userSpaceOnUse">
			<stop stop-color="#7A366B" />
			<stop offset="1" stop-color="#16171D" stop-opacity="0" />
		</linearGradient>
		<linearGradient id="paint21_linear_2155_6304" x1="0.434119" y1="1.0636" x2="24.1699"
			y2="6.85666" gradientUnits="userSpaceOnUse">
			<stop stop-color="#DF63F3" />
			<stop offset="1" stop-color="#18191F" stop-opacity="0" />
		</linearGradient>
		<linearGradient id="paint22_linear_2155_6304" x1="0.315723" y1="0.768158" x2="24.7278"
			y2="11.9477" gradientUnits="userSpaceOnUse">
			<stop stop-color="#7A366B" />
			<stop offset="1" stop-color="#16171D" stop-opacity="0" />
		</linearGradient>
		<linearGradient id="paint23_linear_2155_6304" x1="0.434119" y1="1.0636" x2="24.1699"
			y2="6.85666" gradientUnits="userSpaceOnUse">
			<stop stop-color="#DF63F3" />
			<stop offset="1" stop-color="#18191F" stop-opacity="0" />
		</linearGradient>
		<linearGradient id="paint24_linear_2155_6304" x1="0.315723" y1="0.768158" x2="24.7278"
			y2="11.9477" gradientUnits="userSpaceOnUse">
			<stop stop-color="#7A366B" />
			<stop offset="1" stop-color="#16171D" stop-opacity="0" />
		</linearGradient>
		<linearGradient id="paint25_linear_2155_6304" x1="0.434119" y1="1.0636" x2="24.1699"
			y2="6.85666" gradientUnits="userSpaceOnUse">
			<stop stop-color="#DF63F3" />
			<stop offset="1" stop-color="#18191F" stop-opacity="0" />
		</linearGradient>
		<linearGradient id="paint26_linear_2155_6304" x1="0.315723" y1="0.768158" x2="24.7278"
			y2="11.9477" gradientUnits="userSpaceOnUse">
			<stop stop-color="#7A366B" />
			<stop offset="1" stop-color="#16171D" stop-opacity="0" />
		</linearGradient>
		<linearGradient id="paint27_linear_2155_6304" x1="0.434119" y1="1.0636" x2="24.1699"
			y2="6.85666" gradientUnits="userSpaceOnUse">
			<stop stop-color="#DF63F3" />
			<stop offset="1" stop-color="#18191F" stop-opacity="0" />
		</linearGradient>
		<linearGradient id="paint28_linear_2155_6304" x1="0.315723" y1="0.768158" x2="24.7278"
			y2="11.9477" gradientUnits="userSpaceOnUse">
			<stop stop-color="#7A366B" />
			<stop offset="1" stop-color="#16171D" stop-opacity="0" />
		</linearGradient>
		<linearGradient id="paint29_linear_2155_6304" x1="0.434119" y1="1.0636" x2="24.1699"
			y2="6.85666" gradientUnits="userSpaceOnUse">
			<stop stop-color="#DF63F3" />
			<stop offset="1" stop-color="#18191F" stop-opacity="0" />
		</linearGradient>
		<linearGradient id="paint30_linear_2155_6304" x1="0.315723" y1="0.768158" x2="24.7278"
			y2="11.9477" gradientUnits="userSpaceOnUse">
			<stop stop-color="#7A366B" />
			<stop offset="1" stop-color="#16171D" stop-opacity="0" />
		</linearGradient>
		<linearGradient id="paint31_linear_2155_6304" x1="0.434119" y1="1.0636" x2="24.1699"
			y2="6.85666" gradientUnits="userSpaceOnUse">
			<stop stop-color="#DF63F3" />
			<stop offset="1" stop-color="#18191F" stop-opacity="0" />
		</linearGradient>
		<linearGradient id="paint32_linear_2155_6304" x1="0.315723" y1="0.768158" x2="24.7278"
			y2="11.9477" gradientUnits="userSpaceOnUse">
			<stop stop-color="#7A366B" />
			<stop offset="1" stop-color="#16171D" stop-opacity="0" />
		</linearGradient>
		<linearGradient id="paint33_linear_2155_6304" x1="0.434119" y1="1.0636" x2="24.1699"
			y2="6.85666" gradientUnits="userSpaceOnUse">
			<stop stop-color="#DF63F3" />
			<stop offset="1" stop-color="#18191F" stop-opacity="0" />
		</linearGradient>
		<linearGradient id="paint34_linear_2155_6304" x1="0.3505" y1="0.852771" x2="27.4516"
			y2="13.2637" gradientUnits="userSpaceOnUse">
			<stop stop-color="#7A366B" />
			<stop offset="1" stop-color="#16171D" stop-opacity="0" />
		</linearGradient>
		<linearGradient id="paint35_linear_2155_6304" x1="0.481938" y1="1.18076" x2="26.8323"
			y2="7.61192" gradientUnits="userSpaceOnUse">
			<stop stop-color="#DF63F3" />
			<stop offset="1" stop-color="#18191F" stop-opacity="0" />
		</linearGradient>
		<linearGradient id="paint36_linear_2155_6304" x1="0.36344" y1="0.884255" x2="28.4651"
			y2="13.7534" gradientUnits="userSpaceOnUse">
			<stop stop-color="#7A366B" />
			<stop offset="1" stop-color="#16171D" stop-opacity="0" />
		</linearGradient>
		<linearGradient id="paint37_linear_2155_6304" x1="0.499731" y1="1.22435" x2="27.8229"
			y2="7.89295" gradientUnits="userSpaceOnUse">
			<stop stop-color="#DF63F3" />
			<stop offset="1" stop-color="#18191F" stop-opacity="0" />
		</linearGradient>
		<linearGradient id="paint38_linear_2155_6304" x1="0.337693" y1="0.821612" x2="26.4486"
			y2="12.7791" gradientUnits="userSpaceOnUse">
			<stop stop-color="#7A366B" />
			<stop offset="1" stop-color="#16171D" stop-opacity="0" />
		</linearGradient>
		<linearGradient id="paint39_linear_2155_6304" x1="0.464329" y1="1.13762" x2="25.8519"
			y2="7.3338" gradientUnits="userSpaceOnUse">
			<stop stop-color="#DF63F3" />
			<stop offset="1" stop-color="#18191F" stop-opacity="0" />
		</linearGradient>
		<linearGradient id="paint40_linear_2155_6304" x1="0.315723" y1="0.768158" x2="24.7278"
			y2="11.9477" gradientUnits="userSpaceOnUse">
			<stop stop-color="#7A366B" />
			<stop offset="1" stop-color="#16171D" stop-opacity="0" />
		</linearGradient>
		<linearGradient id="paint41_linear_2155_6304" x1="0.434119" y1="1.0636" x2="24.1699"
			y2="6.85666" gradientUnits="userSpaceOnUse">
			<stop stop-color="#DF63F3" />
			<stop offset="1" stop-color="#18191F" stop-opacity="0" />
		</linearGradient>
	</defs>
</svg>
