<svg viewBox="0 0 249 172" fill="none" xmlns="http://www.w3.org/2000/svg">
	<g opacity="0.3" filter="url(#filter0_b_2155_6283)">
		<rect width="96.5581" height="96.5581" rx="10"
			transform="matrix(0.866025 0.5 -0.866025 0.5 124.358 74.5879)"
			fill="url(#paint0_linear_2155_6283)" />
		<rect y="0.5" width="95.5581" height="95.5581" rx="9.5"
			transform="matrix(0.866025 0.5 -0.866025 0.5 124.791 74.8379)"
			stroke="url(#paint1_linear_2155_6283)" />
	</g>
	<g filter="url(#filter1_b_2155_6283)">
		<rect width="119.508" height="119.508" rx="10"
			transform="matrix(0.866025 0.5 -0.866025 0.5 124.358 37.8677)"
			fill="url(#paint2_linear_2155_6283)" />
		<rect y="0.5" width="118.508" height="118.508" rx="9.5"
			transform="matrix(0.866025 0.5 -0.866025 0.5 124.791 38.1177)"
			stroke="url(#paint3_linear_2155_6283)" />
	</g>
	<g filter="url(#filter2_b_2155_6283)">
		<rect width="143.438" height="143.438" rx="10"
			transform="matrix(0.866025 0.5 -0.866025 0.5 124.358 0)" fill="url(#paint4_linear_2155_6283)" />
		<rect y="0.5" width="142.438" height="142.438" rx="9.5"
			transform="matrix(0.866025 0.5 -0.866025 0.5 124.791 0.25)"
			stroke="url(#paint5_linear_2155_6283)" />
	</g>
	<path
		d="M124.887 5C124.887 4.58578 124.551 4.25 124.137 4.25C123.723 4.25 123.387 4.58578 123.387 5L124.887 5ZM124.887 35C124.887 34.5858 124.551 34.25 124.137 34.25C123.723 34.25 123.387 34.5858 123.387 35L124.887 35ZM123.387 31C123.387 31.4142 123.723 31.75 124.137 31.75C124.551 31.75 124.887 31.4142 124.887 31L123.387 31ZM124.887 27C124.887 26.5858 124.551 26.25 124.137 26.25C123.723 26.25 123.387 26.5858 123.387 27L124.887 27ZM123.387 23C123.387 23.4142 123.723 23.75 124.137 23.75C124.551 23.75 124.887 23.4142 124.887 23L123.387 23ZM124.887 19C124.887 18.5858 124.551 18.25 124.137 18.25C123.723 18.25 123.387 18.5858 123.387 19L124.887 19ZM123.387 15C123.387 15.4142 123.723 15.75 124.137 15.75C124.551 15.75 124.887 15.4142 124.887 15L123.387 15ZM124.887 11C124.887 10.5858 124.551 10.25 124.137 10.25C123.723 10.25 123.387 10.5858 123.387 11L124.887 11ZM123.387 7C123.387 7.41421 123.723 7.75 124.137 7.75C124.551 7.75 124.887 7.41421 124.887 7L123.387 7ZM124.887 37L124.887 35L123.387 35L123.387 37L124.887 37ZM124.887 31L124.887 27L123.387 27L123.387 31L124.887 31ZM124.887 23L124.887 19L123.387 19L123.387 23L124.887 23ZM124.887 15L124.887 11L123.387 11L123.387 15L124.887 15ZM124.887 7L124.887 5L123.387 5L123.387 7L124.887 7Z"
		fill="url(#paint6_linear_2155_6283)" />
	<path
		d="M123.387 147C123.387 147.414 123.723 147.75 124.137 147.75C124.551 147.75 124.887 147.414 124.887 147L123.387 147ZM123.387 106.15C123.387 106.564 123.723 106.9 124.137 106.9C124.551 106.9 124.887 106.564 124.887 106.15L123.387 106.15ZM124.887 110.45C124.887 110.036 124.551 109.7 124.137 109.7C123.723 109.7 123.387 110.036 123.387 110.45L124.887 110.45ZM123.387 114.75C123.387 115.164 123.723 115.5 124.137 115.5C124.551 115.5 124.887 115.164 124.887 114.75L123.387 114.75ZM124.887 119.05C124.887 118.636 124.551 118.3 124.137 118.3C123.723 118.3 123.387 118.636 123.387 119.05L124.887 119.05ZM123.387 123.35C123.387 123.764 123.723 124.1 124.137 124.1C124.551 124.1 124.887 123.764 124.887 123.35L123.387 123.35ZM124.887 127.65C124.887 127.236 124.551 126.9 124.137 126.9C123.723 126.9 123.387 127.236 123.387 127.65L124.887 127.65ZM123.387 131.95C123.387 132.364 123.723 132.7 124.137 132.7C124.551 132.7 124.887 132.364 124.887 131.95L123.387 131.95ZM124.887 136.25C124.887 135.836 124.551 135.5 124.137 135.5C123.723 135.5 123.387 135.836 123.387 136.25L124.887 136.25ZM123.387 140.55C123.387 140.964 123.723 141.3 124.137 141.3C124.551 141.3 124.887 140.964 124.887 140.55L123.387 140.55ZM124.887 144.85C124.887 144.436 124.551 144.1 124.137 144.1C123.723 144.1 123.387 144.436 123.387 144.85L124.887 144.85ZM123.387 104L123.387 106.15L124.887 106.15L124.887 104L123.387 104ZM123.387 110.45L123.387 114.75L124.887 114.75L124.887 110.45L123.387 110.45ZM123.387 119.05L123.387 123.35L124.887 123.35L124.887 119.05L123.387 119.05ZM123.387 127.65L123.387 131.95L124.887 131.95L124.887 127.65L123.387 127.65ZM123.387 136.25L123.387 140.55L124.887 140.55L124.887 136.25L123.387 136.25ZM123.387 144.85L123.387 147L124.887 147L124.887 144.85L123.387 144.85Z"
		fill="url(#paint7_linear_2155_6283)" />
	<path
		d="M7.13672 70.25C6.7225 70.25 6.38672 70.5858 6.38672 71C6.38672 71.4142 6.7225 71.75 7.13672 71.75V70.25ZM65.2617 70.25C64.8475 70.25 64.5117 70.5858 64.5117 71C64.5117 71.4142 64.8475 71.75 65.2617 71.75V70.25ZM61.5117 71.75C61.9259 71.75 62.2617 71.4142 62.2617 71C62.2617 70.5858 61.9259 70.25 61.5117 70.25V71.75ZM57.7617 70.25C57.3475 70.25 57.0117 70.5858 57.0117 71C57.0117 71.4142 57.3475 71.75 57.7617 71.75V70.25ZM54.0117 71.75C54.4259 71.75 54.7617 71.4142 54.7617 71C54.7617 70.5858 54.4259 70.25 54.0117 70.25V71.75ZM50.2617 70.25C49.8475 70.25 49.5117 70.5858 49.5117 71C49.5117 71.4142 49.8475 71.75 50.2617 71.75V70.25ZM46.5117 71.75C46.9259 71.75 47.2617 71.4142 47.2617 71C47.2617 70.5858 46.9259 70.25 46.5117 70.25V71.75ZM42.7617 70.25C42.3475 70.25 42.0117 70.5858 42.0117 71C42.0117 71.4142 42.3475 71.75 42.7617 71.75V70.25ZM39.0117 71.75C39.4259 71.75 39.7617 71.4142 39.7617 71C39.7617 70.5858 39.4259 70.25 39.0117 70.25V71.75ZM35.2617 70.25C34.8475 70.25 34.5117 70.5858 34.5117 71C34.5117 71.4142 34.8475 71.75 35.2617 71.75V70.25ZM31.5117 71.75C31.9259 71.75 32.2617 71.4142 32.2617 71C32.2617 70.5858 31.9259 70.25 31.5117 70.25V71.75ZM27.7617 70.25C27.3475 70.25 27.0117 70.5858 27.0117 71C27.0117 71.4142 27.3475 71.75 27.7617 71.75V70.25ZM24.0117 71.75C24.4259 71.75 24.7617 71.4142 24.7617 71C24.7617 70.5858 24.4259 70.25 24.0117 70.25V71.75ZM20.2617 70.25C19.8475 70.25 19.5117 70.5858 19.5117 71C19.5117 71.4142 19.8475 71.75 20.2617 71.75V70.25ZM16.5117 71.75C16.9259 71.75 17.2617 71.4142 17.2617 71C17.2617 70.5858 16.9259 70.25 16.5117 70.25V71.75ZM12.7617 70.25C12.3475 70.25 12.0117 70.5858 12.0117 71C12.0117 71.4142 12.3475 71.75 12.7617 71.75V70.25ZM9.01172 71.75C9.42593 71.75 9.76172 71.4142 9.76172 71C9.76172 70.5858 9.42593 70.25 9.01172 70.25V71.75ZM67.1367 70.25H65.2617V71.75H67.1367V70.25ZM61.5117 70.25H57.7617V71.75H61.5117V70.25ZM54.0117 70.25H50.2617V71.75H54.0117V70.25ZM46.5117 70.25H42.7617V71.75H46.5117V70.25ZM39.0117 70.25H35.2617V71.75H39.0117V70.25ZM31.5117 70.25H27.7617V71.75H31.5117V70.25ZM24.0117 70.25H20.2617V71.75H24.0117V70.25ZM16.5117 70.25H12.7617V71.75H16.5117V70.25ZM9.01172 70.25L7.13672 70.25V71.75L9.01172 71.75V70.25Z"
		fill="url(#paint8_linear_2155_6283)" />
	<path
		d="M183.137 70.25C182.723 70.25 182.387 70.5858 182.387 71C182.387 71.4142 182.723 71.75 183.137 71.75V70.25ZM241.262 70.25C240.848 70.25 240.512 70.5858 240.512 71C240.512 71.4142 240.848 71.75 241.262 71.75V70.25ZM237.512 71.75C237.926 71.75 238.262 71.4142 238.262 71C238.262 70.5858 237.926 70.25 237.512 70.25V71.75ZM233.762 70.25C233.348 70.25 233.012 70.5858 233.012 71C233.012 71.4142 233.348 71.75 233.762 71.75V70.25ZM230.012 71.75C230.426 71.75 230.762 71.4142 230.762 71C230.762 70.5858 230.426 70.25 230.012 70.25V71.75ZM226.262 70.25C225.848 70.25 225.512 70.5858 225.512 71C225.512 71.4142 225.848 71.75 226.262 71.75V70.25ZM222.512 71.75C222.926 71.75 223.262 71.4142 223.262 71C223.262 70.5858 222.926 70.25 222.512 70.25V71.75ZM218.762 70.25C218.348 70.25 218.012 70.5858 218.012 71C218.012 71.4142 218.348 71.75 218.762 71.75V70.25ZM215.012 71.75C215.426 71.75 215.762 71.4142 215.762 71C215.762 70.5858 215.426 70.25 215.012 70.25V71.75ZM211.262 70.25C210.848 70.25 210.512 70.5858 210.512 71C210.512 71.4142 210.848 71.75 211.262 71.75V70.25ZM207.512 71.75C207.926 71.75 208.262 71.4142 208.262 71C208.262 70.5858 207.926 70.25 207.512 70.25V71.75ZM203.762 70.25C203.348 70.25 203.012 70.5858 203.012 71C203.012 71.4142 203.348 71.75 203.762 71.75V70.25ZM200.012 71.75C200.426 71.75 200.762 71.4142 200.762 71C200.762 70.5858 200.426 70.25 200.012 70.25V71.75ZM196.262 70.25C195.848 70.25 195.512 70.5858 195.512 71C195.512 71.4142 195.848 71.75 196.262 71.75V70.25ZM192.512 71.75C192.926 71.75 193.262 71.4142 193.262 71C193.262 70.5858 192.926 70.25 192.512 70.25V71.75ZM188.762 70.25C188.348 70.25 188.012 70.5858 188.012 71C188.012 71.4142 188.348 71.75 188.762 71.75V70.25ZM185.012 71.75C185.426 71.75 185.762 71.4142 185.762 71C185.762 70.5858 185.426 70.25 185.012 70.25V71.75ZM243.137 70.25H241.262V71.75H243.137V70.25ZM237.512 70.25H233.762V71.75H237.512V70.25ZM230.012 70.25H226.262V71.75H230.012V70.25ZM222.512 70.25H218.762V71.75H222.512V70.25ZM215.012 70.25H211.262V71.75H215.012V70.25ZM207.512 70.25H203.762V71.75H207.512V70.25ZM200.012 70.25H196.262V71.75H200.012V70.25ZM192.512 70.25H188.762V71.75H192.512V70.25ZM185.012 70.25L183.137 70.25V71.75L185.012 71.75V70.25Z"
		fill="url(#paint9_linear_2155_6283)" />
	<g opacity="0.5" filter="url(#filter3_bi_2155_6283)">
		<circle cx="47.6215" cy="47.6215" r="47.6215"
			transform="matrix(0.866025 -0.5 0.866025 0.5 42.5947 70.5717)" fill="#2C2F3E" />
		<circle cx="47.6215" cy="47.6215" r="47.1215"
			transform="matrix(0.866025 -0.5 0.866025 0.5 42.5947 70.5717)"
			stroke="url(#paint10_linear_2155_6283)" />
	</g>
	<g filter="url(#filter4_d_2155_6283)">
		<g filter="url(#filter5_bi_2155_6283)">
			<path
				d="M134.531 54.5834C133.208 55.3473 131.063 55.3473 129.74 54.5834L125.009 51.8517C116.713 47.0624 103.154 47.0951 94.7895 51.9247C86.4245 56.7542 86.3678 64.5824 94.6631 69.3716L99.3946 72.1034C100.718 72.8672 100.718 74.1058 99.3946 74.8697C96.7493 76.3969 96.7314 78.8647 99.3546 80.3792L118.36 91.3523C120.984 92.8668 125.258 92.8564 127.903 91.3292L163.04 71.0429C165.685 69.5157 165.703 67.0479 163.08 65.5334L144.074 54.5603C141.451 53.0458 137.177 53.0562 134.531 54.5834ZM117.023 56.4622C120.959 58.7348 120.899 62.4539 116.963 64.7265C113.027 66.9991 106.585 67.0337 102.649 64.7611C98.7189 62.4922 98.7457 58.7847 102.709 56.4968C106.671 54.2088 113.093 54.1933 117.023 56.4622Z"
				fill="url(#paint11_linear_2155_6283)" />
			<path
				d="M129.307 54.8334C130.869 55.7354 133.402 55.7354 134.964 54.8334C137.374 53.4423 141.261 53.4359 143.641 54.8103L162.647 65.7834C165.028 67.1578 165.017 69.4018 162.607 70.7929L127.47 91.0792C125.061 92.4703 121.174 92.4767 118.793 91.1023L99.7876 80.1292C97.407 78.7548 97.4181 76.5108 99.8276 75.1197C101.39 74.2177 101.39 72.7553 99.8276 71.8534L95.0961 69.1216C87.0434 64.4724 87.0933 56.8681 95.2225 52.1747C103.352 47.4812 116.523 47.4524 124.576 52.1017L129.307 54.8334ZM117.396 64.9765C121.567 62.5686 121.636 58.6255 117.456 56.2122C113.283 53.8032 106.474 53.8227 102.276 56.2468C98.077 58.6708 98.0433 62.6022 102.216 65.0111C106.396 67.4245 113.225 67.3845 117.396 64.9765Z"
				stroke="url(#paint12_linear_2155_6283)" />
		</g>
		<g filter="url(#filter6_bi_2155_6283)">
			<path
				d="M134.531 52.2883C133.208 53.0522 131.063 53.0522 129.74 52.2883L125.009 49.5566C116.713 44.7673 103.154 44.8001 94.7895 49.6296C86.4245 54.4591 86.3678 62.2873 94.6631 67.0766L99.3946 69.8083C100.718 70.5722 100.718 71.8107 99.3946 72.5746C96.7493 74.1019 96.7314 76.5697 99.3546 78.0842L118.36 89.0572C120.984 90.5717 125.258 90.5614 127.903 89.0342L163.04 68.7479C165.685 67.2207 165.703 64.7528 163.08 63.2383L144.074 52.2653C141.451 50.7508 137.177 50.7611 134.531 52.2883ZM117.023 54.1671C120.959 56.4397 120.899 60.1589 116.963 62.4315C113.027 64.7041 106.585 64.7387 102.649 62.4661C98.7189 60.1972 98.7457 56.4897 102.709 54.2017C106.671 51.9137 113.093 51.8982 117.023 54.1671Z"
				fill="url(#paint13_linear_2155_6283)" />
			<path
				d="M129.307 52.5383C130.869 53.4403 133.402 53.4403 134.964 52.5383C137.374 51.1472 141.261 51.1408 143.641 52.5153L162.647 63.4883C165.028 64.8628 165.017 67.1068 162.607 68.4979L127.47 88.7842C125.061 90.1753 121.174 90.1817 118.793 88.8072L99.7876 77.8342C97.407 76.4597 97.4181 74.2158 99.8276 72.8246C101.39 71.9227 101.39 70.4603 99.8276 69.5583L95.0961 66.8266C87.0434 62.1773 87.0933 54.573 95.2225 49.8796C103.352 45.1862 116.523 45.1574 124.576 49.8066L129.307 52.5383ZM117.396 62.6815C121.567 60.2736 121.636 56.3305 117.456 53.9171C113.283 51.5082 106.474 51.5276 102.276 53.9517C98.077 56.3758 98.0433 60.3071 102.216 62.7161C106.396 65.1294 113.225 65.0894 117.396 62.6815Z"
				stroke="url(#paint14_linear_2155_6283)" />
		</g>
		<g filter="url(#filter7_bi_2155_6283)">
			<path
				d="M134.531 49.9934C133.208 50.7573 131.063 50.7573 129.74 49.9934L125.009 47.2617C116.713 42.4724 103.154 42.5052 94.7895 47.3347C86.4245 52.1642 86.3678 59.9924 94.6631 64.7817L99.3946 67.5134C100.718 68.2773 100.718 69.5158 99.3946 70.2797C96.7493 71.8069 96.7314 74.2748 99.3546 75.7893L118.36 86.7623C120.984 88.2768 125.258 88.2665 127.903 86.7392L163.04 66.453C165.685 64.9257 165.703 62.4579 163.08 60.9434L144.074 49.9704C141.451 48.4559 137.177 48.4662 134.531 49.9934ZM117.023 51.8722C120.959 54.1448 120.899 57.864 116.963 60.1366C113.027 62.4091 106.585 62.4437 102.649 60.1711C98.7189 57.9022 98.7457 54.1948 102.709 51.9068C106.671 49.6188 113.093 49.6033 117.023 51.8722Z"
				fill="url(#paint15_linear_2155_6283)" />
			<path
				d="M129.307 50.2434C130.869 51.1454 133.402 51.1454 134.964 50.2434C137.374 48.8523 141.261 48.8459 143.641 50.2204L162.647 61.1934C165.028 62.5679 165.017 64.8118 162.607 66.203L127.47 86.4892C125.061 87.8804 121.174 87.8868 118.793 86.5123L99.7876 75.5393C97.407 74.1648 97.4181 71.9208 99.8276 70.5297C101.39 69.6277 101.39 68.1654 99.8276 67.2634L95.0961 64.5317C87.0434 59.8824 87.0933 52.2781 95.2225 47.5847C103.352 42.8913 116.523 42.8625 124.576 47.5117L129.307 50.2434ZM117.396 60.3866C121.567 57.9786 121.636 54.0356 117.456 51.6222C113.283 49.2133 106.474 49.2327 102.276 51.6568C98.077 54.0809 98.0433 58.0122 102.216 60.4211C106.396 62.8345 113.225 62.7945 117.396 60.3866Z"
				stroke="url(#paint16_linear_2155_6283)" />
		</g>
	</g>
	<defs>
		<filter id="filter0_b_2155_6283" x="41.8096" y="73.5168" width="165.098" height="98.7002"
			filterUnits="userSpaceOnUse" color-interpolation-filters="sRGB">
			<feFlood flood-opacity="0" result="BackgroundImageFix" />
			<feGaussianBlur in="BackgroundImageFix" stdDeviation="2" />
			<feComposite in2="SourceAlpha" operator="in" result="effect1_backgroundBlur_2155_6283" />
			<feBlend mode="normal" in="SourceGraphic" in2="effect1_backgroundBlur_2155_6283"
				result="shape" />
		</filter>
		<filter id="filter1_b_2155_6283" x="21.9346" y="36.7966" width="204.848" height="121.65"
			filterUnits="userSpaceOnUse" color-interpolation-filters="sRGB">
			<feFlood flood-opacity="0" result="BackgroundImageFix" />
			<feGaussianBlur in="BackgroundImageFix" stdDeviation="2" />
			<feComposite in2="SourceAlpha" operator="in" result="effect1_backgroundBlur_2155_6283" />
			<feBlend mode="normal" in="SourceGraphic" in2="effect1_backgroundBlur_2155_6283"
				result="shape" />
		</filter>
		<filter id="filter2_b_2155_6283" x="1.20996" y="-1.07104" width="246.297" height="145.58"
			filterUnits="userSpaceOnUse" color-interpolation-filters="sRGB">
			<feFlood flood-opacity="0" result="BackgroundImageFix" />
			<feGaussianBlur in="BackgroundImageFix" stdDeviation="2" />
			<feComposite in2="SourceAlpha" operator="in" result="effect1_backgroundBlur_2155_6283" />
			<feBlend mode="normal" in="SourceGraphic" in2="effect1_backgroundBlur_2155_6283"
				result="shape" />
		</filter>
		<filter id="filter3_bi_2155_6283" x="56.7529" y="26.8982" width="136.648" height="87.3469"
			filterUnits="userSpaceOnUse" color-interpolation-filters="sRGB">
			<feFlood flood-opacity="0" result="BackgroundImageFix" />
			<feGaussianBlur in="BackgroundImageFix" stdDeviation="5" />
			<feComposite in2="SourceAlpha" operator="in" result="effect1_backgroundBlur_2155_6283" />
			<feBlend mode="normal" in="SourceGraphic" in2="effect1_backgroundBlur_2155_6283"
				result="shape" />
			<feColorMatrix in="SourceAlpha" type="matrix"
				values="0 0 0 0 0 0 0 0 0 0 0 0 0 0 0 0 0 0 127 0" result="hardAlpha" />
			<feMorphology radius="2" operator="erode" in="SourceAlpha"
				result="effect2_innerShadow_2155_6283" />
			<feOffset />
			<feGaussianBlur stdDeviation="4.3" />
			<feComposite in2="hardAlpha" operator="arithmetic" k2="-1" k3="1" />
			<feColorMatrix type="matrix" values="0 0 0 0 0.688818 0 0 0 0 0.743733 0 0 0 0 1 0 0 0 0.1 0" />
			<feBlend mode="normal" in2="shape" result="effect2_innerShadow_2155_6283" />
		</filter>
		<filter id="filter4_d_2155_6283" x="86.2785" y="42.491" width="80.9576" height="53.1904"
			filterUnits="userSpaceOnUse" color-interpolation-filters="sRGB">
			<feFlood flood-opacity="0" result="BackgroundImageFix" />
			<feColorMatrix in="SourceAlpha" type="matrix"
				values="0 0 0 0 0 0 0 0 0 0 0 0 0 0 0 0 0 0 127 0" result="hardAlpha" />
			<feOffset dy="1" />
			<feGaussianBlur stdDeviation="1.1" />
			<feComposite in2="hardAlpha" operator="out" />
			<feColorMatrix type="matrix"
				values="0 0 0 0 0.109804 0 0 0 0 0.117647 0 0 0 0 0.14902 0 0 0 0.7 0" />
			<feBlend mode="normal" in2="BackgroundImageFix" result="effect1_dropShadow_2155_6283" />
			<feBlend mode="normal" in="SourceGraphic" in2="effect1_dropShadow_2155_6283" result="shape" />
		</filter>
		<filter id="filter5_bi_2155_6283" x="84.4785" y="44.281" width="84.5576" height="52.2004"
			filterUnits="userSpaceOnUse" color-interpolation-filters="sRGB">
			<feFlood flood-opacity="0" result="BackgroundImageFix" />
			<feGaussianBlur in="BackgroundImageFix" stdDeviation="2" />
			<feComposite in2="SourceAlpha" operator="in" result="effect1_backgroundBlur_2155_6283" />
			<feBlend mode="normal" in="SourceGraphic" in2="effect1_backgroundBlur_2155_6283"
				result="shape" />
			<feColorMatrix in="SourceAlpha" type="matrix"
				values="0 0 0 0 0 0 0 0 0 0 0 0 0 0 0 0 0 0 127 0" result="hardAlpha" />
			<feOffset dy="3" />
			<feGaussianBlur stdDeviation="2" />
			<feComposite in2="hardAlpha" operator="arithmetic" k2="-1" k3="1" />
			<feColorMatrix type="matrix"
				values="0 0 0 0 0.222205 0 0 0 0 0.238795 0 0 0 0 0.321745 0 0 0 1 0" />
			<feBlend mode="normal" in2="shape" result="effect2_innerShadow_2155_6283" />
		</filter>
		<filter id="filter6_bi_2155_6283" x="84.4785" y="41.986" width="84.5576" height="52.2004"
			filterUnits="userSpaceOnUse" color-interpolation-filters="sRGB">
			<feFlood flood-opacity="0" result="BackgroundImageFix" />
			<feGaussianBlur in="BackgroundImageFix" stdDeviation="2" />
			<feComposite in2="SourceAlpha" operator="in" result="effect1_backgroundBlur_2155_6283" />
			<feBlend mode="normal" in="SourceGraphic" in2="effect1_backgroundBlur_2155_6283"
				result="shape" />
			<feColorMatrix in="SourceAlpha" type="matrix"
				values="0 0 0 0 0 0 0 0 0 0 0 0 0 0 0 0 0 0 127 0" result="hardAlpha" />
			<feOffset dy="3" />
			<feGaussianBlur stdDeviation="2" />
			<feComposite in2="hardAlpha" operator="arithmetic" k2="-1" k3="1" />
			<feColorMatrix type="matrix"
				values="0 0 0 0 0.222205 0 0 0 0 0.238795 0 0 0 0 0.321745 0 0 0 1 0" />
			<feBlend mode="normal" in2="shape" result="effect2_innerShadow_2155_6283" />
		</filter>
		<filter id="filter7_bi_2155_6283" x="84.4785" y="39.691" width="84.5576" height="52.2004"
			filterUnits="userSpaceOnUse" color-interpolation-filters="sRGB">
			<feFlood flood-opacity="0" result="BackgroundImageFix" />
			<feGaussianBlur in="BackgroundImageFix" stdDeviation="2" />
			<feComposite in2="SourceAlpha" operator="in" result="effect1_backgroundBlur_2155_6283" />
			<feBlend mode="normal" in="SourceGraphic" in2="effect1_backgroundBlur_2155_6283"
				result="shape" />
			<feColorMatrix in="SourceAlpha" type="matrix"
				values="0 0 0 0 0 0 0 0 0 0 0 0 0 0 0 0 0 0 127 0" result="hardAlpha" />
			<feOffset dy="3" />
			<feGaussianBlur stdDeviation="2" />
			<feComposite in2="hardAlpha" operator="arithmetic" k2="-1" k3="1" />
			<feColorMatrix type="matrix"
				values="0 0 0 0 0.222205 0 0 0 0 0.238795 0 0 0 0 0.321745 0 0 0 1 0" />
			<feBlend mode="normal" in2="shape" result="effect2_innerShadow_2155_6283" />
		</filter>
		<linearGradient id="paint0_linear_2155_6283" x1="14.4634" y1="4.1202" x2="110.189" y2="24.3943"
			gradientUnits="userSpaceOnUse">
			<stop stop-color="#303341" />
			<stop offset="1" stop-color="#16171D" stop-opacity="0" />
		</linearGradient>
		<linearGradient id="paint1_linear_2155_6283" x1="3.74952" y1="3.97513" x2="107.317" y2="57.4938"
			gradientUnits="userSpaceOnUse">
			<stop stop-color="#656984" />
			<stop offset="1" stop-color="#18191F" stop-opacity="0" />
		</linearGradient>
		<linearGradient id="paint2_linear_2155_6283" x1="17.901" y1="5.09949" x2="136.379" y2="30.1924"
			gradientUnits="userSpaceOnUse">
			<stop stop-color="#6368F3" stop-opacity="0.4" />
			<stop offset="1" stop-color="#16171D" stop-opacity="0" />
		</linearGradient>
		<linearGradient id="paint3_linear_2155_6283" x1="4.64072" y1="4.91994" x2="132.824" y2="71.159"
			gradientUnits="userSpaceOnUse">
			<stop stop-color="#6368F3" />
			<stop offset="1" stop-color="#18191F" stop-opacity="0" />
		</linearGradient>
		<linearGradient id="paint4_linear_2155_6283" x1="21.4855" y1="6.1206" x2="163.687" y2="36.2381"
			gradientUnits="userSpaceOnUse">
			<stop stop-color="#32364B" />
			<stop offset="1" stop-color="#16171D" stop-opacity="0" />
		</linearGradient>
		<linearGradient id="paint5_linear_2155_6283" x1="5.56996" y1="5.9051" x2="159.421" y2="85.4077"
			gradientUnits="userSpaceOnUse">
			<stop stop-color="#656984" />
			<stop offset="1" stop-color="#18191F" stop-opacity="0" />
		</linearGradient>
		<linearGradient id="paint6_linear_2155_6283" x1="124" y1="3" x2="140.751" y2="19.8118"
			gradientUnits="userSpaceOnUse">
			<stop stop-color="#303446" stop-opacity="0" />
			<stop offset="0.955" stop-color="#6469F4" />
			<stop offset="1" stop-color="#313442" stop-opacity="0" />
		</linearGradient>
		<linearGradient id="paint7_linear_2155_6283" x1="124.5" y1="147.5" x2="126" y2="105"
			gradientUnits="userSpaceOnUse">
			<stop stop-color="#303446" stop-opacity="0" />
			<stop offset="0.955" stop-color="#6469F4" />
			<stop offset="1" stop-color="#313442" stop-opacity="0" />
		</linearGradient>
		<linearGradient id="paint8_linear_2155_6283" x1="5.50001" y1="71" x2="18.9215" y2="45.4658"
			gradientUnits="userSpaceOnUse">
			<stop stop-color="#303446" stop-opacity="0" />
			<stop offset="0.955" stop-color="#6469F4" />
			<stop offset="1" stop-color="#313442" stop-opacity="0" />
		</linearGradient>
		<linearGradient id="paint9_linear_2155_6283" x1="243.5" y1="71" x2="230.197" y2="95.8082"
			gradientUnits="userSpaceOnUse">
			<stop stop-color="#303446" stop-opacity="0" />
			<stop offset="0.955" stop-color="#6469F4" />
			<stop offset="1" stop-color="#313442" stop-opacity="0" />
		</linearGradient>
		<linearGradient id="paint10_linear_2155_6283" x1="59.3143" y1="11.171" x2="16.9095" y2="55.3262"
			gradientUnits="userSpaceOnUse">
			<stop stop-color="#6E739B" />
			<stop offset="1" stop-color="#1C1E26" stop-opacity="0" />
		</linearGradient>
		<linearGradient id="paint11_linear_2155_6283" x1="146.241" y1="80.7417" x2="163.118"
			y2="37.5961" gradientUnits="userSpaceOnUse">
			<stop stop-color="#373A75" />
			<stop offset="1" stop-color="#16171D" />
		</linearGradient>
		<linearGradient id="paint12_linear_2155_6283" x1="118.904" y1="62.5391" x2="117.203"
			y2="92.1779" gradientUnits="userSpaceOnUse">
			<stop stop-color="#6368F3" stop-opacity="0.3" />
			<stop offset="1" stop-color="#33374B" stop-opacity="0" />
		</linearGradient>
		<linearGradient id="paint13_linear_2155_6283" x1="146.241" y1="78.4467" x2="163.118" y2="35.301"
			gradientUnits="userSpaceOnUse">
			<stop stop-color="#373A75" />
			<stop offset="1" stop-color="#16171D" />
		</linearGradient>
		<linearGradient id="paint14_linear_2155_6283" x1="118.904" y1="60.244" x2="117.203" y2="89.8828"
			gradientUnits="userSpaceOnUse">
			<stop stop-color="#6368F3" stop-opacity="0.7" />
			<stop offset="1" stop-color="#33374B" stop-opacity="0" />
		</linearGradient>
		<linearGradient id="paint15_linear_2155_6283" x1="146.241" y1="76.1518" x2="163.118"
			y2="33.0061" gradientUnits="userSpaceOnUse">
			<stop stop-color="#373A75" />
			<stop offset="1" stop-color="#16171D" />
		</linearGradient>
		<linearGradient id="paint16_linear_2155_6283" x1="118.904" y1="57.9491" x2="117.203"
			y2="87.5879" gradientUnits="userSpaceOnUse">
			<stop stop-color="#6368F3" />
			<stop offset="1" stop-color="#33374B" stop-opacity="0" />
		</linearGradient>
	</defs>
</svg>
