<svg xmlns="http://www.w3.org/2000/svg" width="16" height="16" fill="none"><path fill="url(#a)" d="M6.329 3h3.14l-3.26 9.66a.501.501 0 0 1-.475.34H3.29a.5.5 0 0 1-.473-.66l3.037-9A.5.5 0 0 1 6.328 3Z"/><path fill="#2269A0" d="M10.892 9.479h-4.98a.23.23 0 0 0-.157.399l3.2 2.987a.503.503 0 0 0 .343.135h2.82l-1.226-3.521Z"/><path fill="url(#b)" d="M6.329 3a.497.497 0 0 0-.476.347L2.82 12.332a.5.5 0 0 0 .472.668h2.507a.537.537 0 0 0 .411-.35l.605-1.782 2.16 2.015c.09.075.204.116.322.117h2.809l-1.232-3.521H7.282L9.48 3H6.328Z"/><path fill="url(#c)" d="M10.34 3.34A.5.5 0 0 0 9.866 3h-3.5a.5.5 0 0 1 .474.34l3.037 9a.5.5 0 0 1-.474.66h3.5a.499.499 0 0 0 .474-.66l-3.037-9Z"/><defs><linearGradient id="a" x1="7.473" x2="4.212" y1="3.741" y2="13.376" gradientUnits="userSpaceOnUse"><stop stop-color="#2166B5"/><stop offset="1" stop-color="#3AA3FC"/></linearGradient><linearGradient id="b" x1="8.492" x2="7.738" y1="8.231" y2="8.486" gradientUnits="userSpaceOnUse"><stop stop-opacity="0"/><stop offset=".071" stop-opacity=".2"/><stop offset=".321" stop-opacity=".1"/><stop offset=".623" stop-opacity=".05"/><stop offset="1" stop-opacity="0"/></linearGradient><linearGradient id="c" x1="8.077" x2="11.657" y1="3.46" y2="12.998" gradientUnits="userSpaceOnUse"><stop stop-color="#5FDBFF"/><stop offset="1" stop-color="#2892DF"/></linearGradient></defs></svg>
