<svg xmlns="http://www.w3.org/2000/svg" width="16" height="16" fill="none"><mask id="a" fill="#fff"><path fill-rule="evenodd" d="M6.004 2H9.11a.94.94 0 0 1 .69.29c.69.71 2.2 2.24 2.91 2.92a1 1 0 0 1 .29.7V13a1 1 0 0 1-1 1H4a1 1 0 0 1-1-1V3a1 1 0 0 1 1-1h2.004ZM10 8c.546 0 1.059.146 1.5.401v1.276A2 2 0 1 0 8.677 12.5H7.401A3 3 0 0 1 10 8Zm1.323 4.5a2 2 0 0 0 .177-.177v.177h-.177ZM6 8a2.986 2.986 0 0 1-1.5-.401V3.5h4.099A3 3 0 0 1 6 8Z" clip-rule="evenodd"/></mask><path fill="#FF505A" fill-rule="evenodd" d="M6.004 2H9.11a.94.94 0 0 1 .69.29c.69.71 2.2 2.24 2.91 2.92a1 1 0 0 1 .29.7V13a1 1 0 0 1-1 1H4a1 1 0 0 1-1-1V3a1 1 0 0 1 1-1h2.004ZM10 8c.546 0 1.059.146 1.5.401v1.276A2 2 0 1 0 8.677 12.5H7.401A3 3 0 0 1 10 8Zm1.323 4.5a2 2 0 0 0 .177-.177v.177h-.177ZM6 8a2.986 2.986 0 0 1-1.5-.401V3.5h4.099A3 3 0 0 1 6 8Z" clip-rule="evenodd"/><path fill="#FF505A" d="M9.11 2v1.5h.017L9.11 2ZM6.004 2V.5l-.001 3V2Zm3.481.073-.581 1.383.581-1.383Zm.315.217L8.716 3.327l.008.008L9.8 2.29Zm2.91 2.92 1.065-1.056-.014-.014-.013-.013L12.71 5.21Zm.29.7h1.5v-.006L13 5.91Zm-9.707 7.797 1.06-1.06-1.06 1.06Zm0-11.414-1.06-1.06 1.06 1.06ZM5.996 2l.001 1.5v-3V2Zm0 0V.5v3V2Zm.008 0v1.5-3V2ZM11.5 8.401H13v-.865l-.749-.433L11.5 8.4Zm0 1.276-1.125.993L13 13.643V9.677h-1.5ZM8.677 12.5V14h3.966L9.67 11.375 8.677 12.5Zm-1.276 0-1.298.751.433.749h.865v-1.5Zm4.099-.177H13V8.357l-2.625 2.973 1.125.993Zm-.177.177-.993-1.125L7.357 14h3.966v-1.5Zm.177 0V14H13v-1.5h-1.5Zm-7-4.901H3v.865l.749.433L4.5 7.6Zm0-4.099V2H3v1.5h1.5Zm4.099 0 1.298-.751L9.464 2h-.865v1.5Zm.511-3H6.004v3H9.11v-3Zm.956.19A2.44 2.44 0 0 0 9.093.5l.034 3a.56.56 0 0 1-.223-.044L10.066.691Zm.818.563a2.44 2.44 0 0 0-.818-.562L8.904 3.456a.56.56 0 0 1-.188-.129l2.168-2.074Zm2.864 2.874c-.69-.66-2.183-2.173-2.872-2.882l-2.152 2.09c.691.711 2.217 2.258 2.948 2.958l2.075-2.166Zm.752 1.777a2.5 2.5 0 0 0-.725-1.75l-2.13 2.112a.5.5 0 0 1-.145-.35l3-.012Zm0 7.096V5.91h-3V13h3Zm-.732 1.768A2.5 2.5 0 0 0 14.5 13h-3a.5.5 0 0 1 .146-.354l2.122 2.122ZM12 15.5a2.5 2.5 0 0 0 1.768-.732l-2.122-2.122A.5.5 0 0 1 12 12.5v3Zm-8 0h8v-3H4v3Zm-1.768-.732A2.5 2.5 0 0 0 4 15.5v-3a.5.5 0 0 1 .354.146l-2.122 2.122ZM1.5 13a2.5 2.5 0 0 0 .732 1.768l2.122-2.122A.5.5 0 0 1 4.5 13h-3Zm0-10v10h3V3h-3Zm.732-1.768A2.5 2.5 0 0 0 1.5 3h3a.5.5 0 0 1-.146.354L2.232 1.232ZM4 .5a2.5 2.5 0 0 0-1.768.732l2.122 2.122A.5.5 0 0 1 4 3.5v-3Zm1.996 0H4v3h1.996v-3Zm0 0 .001 3-.001-3Zm0 3h.008v-3h-.008v3Zm.009-3-.002 3 .002-3Zm6.246 6.603A4.486 4.486 0 0 0 10 6.5v3c.276 0 .53.073.749.2l1.502-2.597ZM13 9.677V8.401h-3v1.276h3Zm-3 .823c.15 0 .282.063.375.17l2.25-1.986A3.495 3.495 0 0 0 10 7.5v3Zm-.5.5a.5.5 0 0 1 .5-.5v-3A3.5 3.5 0 0 0 6.5 11h3Zm.17.375A.495.495 0 0 1 9.5 11h-3c0 1.046.46 1.986 1.184 2.625l1.986-2.25ZM7.4 14h1.276v-3H7.401v3ZM5.5 11c0 .817.22 1.588.603 2.251L8.7 11.75c-.127-.22-.2-.473-.2-.749h-3ZM10 6.5A4.5 4.5 0 0 0 5.5 11h3A1.5 1.5 0 0 1 10 9.5v-3Zm.375 4.83a.505.505 0 0 1-.045.045l1.986 2.25c.109-.097.212-.2.309-.31l-2.25-1.985ZM13 12.5v-.177h-3v.177h3ZM11.323 14h.177v-3h-.177v3ZM3.749 8.897A4.486 4.486 0 0 0 6 9.5v-3c-.276 0-.53-.073-.749-.2L3.75 8.897ZM3 3.5v4.099h3V3.5H3ZM8.599 2H4.5v3h4.099V2ZM10.5 5c0-.817-.22-1.588-.603-2.251L7.3 4.25c.127.22.2.473.2.749h3ZM6 9.5A4.5 4.5 0 0 0 10.5 5h-3A1.5 1.5 0 0 1 6 6.5v3Z" mask="url(#a)"/><path fill="#FF505A" d="m10 13.5 2-3V13l-2 .5Z"/></svg>
