<svg xmlns="http://www.w3.org/2000/svg" width="16" height="16" fill="none"><path fill="url(#a)" d="M2 3v5l6-6H3a1 1 0 0 0-1 1Z"/><path fill="url(#b)" fill-rule="evenodd" d="M8 2 2 8v5c0 .276.112.526.293.707L4 12l4-4 5.146-5.146A.5.5 0 0 0 12.793 2H8Z" clip-rule="evenodd"/><path fill="url(#c)" fill-rule="evenodd" d="M2.293 13.707A.997.997 0 0 0 3 14h9.793a.5.5 0 0 0 .353-.854L8 8l-4 4-1.707 1.707Z" clip-rule="evenodd"/><defs><linearGradient id="a" x1="2" x2="8" y1="7.5" y2="2" gradientUnits="userSpaceOnUse"><stop stop-color="#2A82B5"/><stop offset="1" stop-color="#32ADF4"/></linearGradient><linearGradient id="b" x1="13" x2="2" y1="2" y2="13" gradientUnits="userSpaceOnUse"><stop stop-color="#F88909"/><stop offset="1" stop-color="#C858B7"/></linearGradient><linearGradient id="c" x1="10.5" x2="2.5" y1="10.5" y2="14" gradientUnits="userSpaceOnUse"><stop stop-color="#7970E2"/><stop offset="1" stop-color="#5C52CD"/></linearGradient></defs></svg>
