<svg xmlns="http://www.w3.org/2000/svg" width="16" height="16" fill="none"><path fill="#9587EF" fill-rule="evenodd" d="M7.885 2.305c.17.844.278 2.876 0 4.127-.796 3.596-.822 6.567 1.71 7.58s4.988-2.14 4.153-4.665c-.77-2.33-2.356-3.258-3.165-3.731l-.186-.11c-.277-.168-.561-.326-.82-.47-.42-.232-.771-.428-.915-.566-.05-.28-.089-.564-.124-.833-.116-.872-.208-1.568-.653-1.332Zm1.16 3.61c1.504.688 3.668 2.38 3.668 4.381 0 2.001-1.176 2.51-2.037 2.732.416-.782.763-1.642.434-3.62-.234-1.404-.949-2.218-1.718-3.093-.115-.131-.231-.264-.347-.4Z" clip-rule="evenodd"/><path fill="#9587EF" d="M7.436 4.997c.39-2.033-.072-3.742-.235-3.905-.324.093-.224.255-.19.458.157.973.104 1.443.104 2.198 0 1.955-2.255 3.387-2.52 5.243-.174 1.22-.097 2.267.832 3.44.928 1.173 2.79 1.33 2.009.744C6.654 12.59 5.774 11.35 5.774 10c0-1.952 1.173-2.462 1.662-5.003Z"/><path fill="#9587EF" d="M6.215 5.124c.528-.675.547-1.999.455-2.58-.23 0-.128.675-.328 1.323-.267.867-.687 1.23-1.21 1.6-1.06.748-2.892 2.66-3.041 4.236-.047.5-.131 1.922.94 3.266 1.268 1.592 4.188 1.374 3.712 1.162-1.842-.822-3.03-1.643-3.31-3.527-.33-2.219 2.122-4.636 2.782-5.48Z"/></svg>
