<svg xmlns="http://www.w3.org/2000/svg" width="16" height="16" fill="none"><path fill="#0080C8" fill-rule="evenodd" d="M9.356 15c-.13-2.687.667-9.624 3.144-12-1.5 3-2.308 4.835-2.5 8 .128-.897 1-1.5 1.5-1.5.292-.583.64-1.204.997-1.837L12 7l.633.422c.214-.379.429-.761.635-1.14L12 5.82l1.505.014C14.56 3.818 15.24 1.93 14 1 12.507.104 9.61 2.744 8.587 5.782L9.5 7l-1.065-.71a6.567 6.567 0 0 0-.201 1.188L9 8.5l-.78-.52c.01.522.098 1.034.28 1.52.224.596.477 2.578.684 4.195.062.483.12.934.172 1.305Z" clip-rule="evenodd"/><path fill="#00A4C8" fill-rule="evenodd" d="M7.418 7.215A12.47 12.47 0 0 1 5.47 7 6.43 6.43 0 0 1 3 6v2.5c0 .8 2.08 1.451 4.702 1.497-.203-.49-.403-1.36-.284-2.782ZM8.1 11.22H8c-.885.019-1.77-.055-2.64-.22A6.31 6.31 0 0 1 3 10v2.5c0 .83 2.24 1.5 5 1.5.146 0 .29-.002.433-.005A80.221 80.221 0 0 0 8.1 11.22Zm1.65-9.13a14.02 14.02 0 0 0-1.05-.07L8 2h-.7c-2 .08-3.56.5-4.11 1.06A.62.62 0 0 0 3 3.5v1c0 .789 2.023 1.433 4.593 1.495.364-1.61 1.311-2.988 2.158-3.904Z" clip-rule="evenodd"/></svg>
