<svg xmlns="http://www.w3.org/2000/svg" width="16" height="16" fill="none"><path fill="#0E8ADC" d="M8.219 8.5a1.281 1.281 0 1 0 2.562 0 1.281 1.281 0 0 0-2.562 0Z"/><path fill="#0E8ADC" fill-rule="evenodd" d="M2 4a1 1 0 0 1 1-1h10a1 1 0 0 1 1 1v8a1 1 0 0 1-1 1H3a1 1 0 0 1-1-1V4Zm10.975 4.899a.281.281 0 0 1-.27.235h-.675c-.131 0-.329.268-.376.364-.047.096-.01.25.083.342l.477.478c.093.092.1.25.016.35l-.562.562a.266.266 0 0 1-.35-.016l-.478-.477c-.092-.093-.419-.044-.52-.01-.103.036-.186.172-.186.303v.675c0 .13-.106.252-.235.27 0 0-.182.025-.399.025-.216 0-.398-.025-.398-.025a.281.281 0 0 1-.236-.27v-.675c0-.131-.268-.329-.364-.376-.096-.047-.25-.01-.342.083l-.478.477a.266.266 0 0 1-.35.016l-.562-.562a.266.266 0 0 1 .016-.35l.477-.478c.093-.092.044-.419.01-.52-.036-.103-.172-.186-.302-.186h-.676a.281.281 0 0 1-.27-.236S6 8.717 6 8.5c0-.216.025-.398.025-.398a.281.281 0 0 1 .27-.236h.676c.13 0 .328-.268.375-.364.047-.096.01-.25-.083-.342l-.477-.478a.266.266 0 0 1-.016-.35l.562-.562a.266.266 0 0 1 .35.016l.478.477c.092.093.419.044.52.01.103-.036.186-.172.186-.302v-.676c0-.13.106-.252.236-.27 0 0 .182-.025.398-.025.217 0 .399.025.399.025.129.018.235.14.235.27v.676c0 .13.268.328.364.375.096.047.25.01.342-.083l.478-.477c.092-.093.25-.1.35-.016l.562.562c.084.1.077.258-.016.35l-.477.478c-.093.092-.044.42-.01.521.036.102.172.185.303.185h.675c.13 0 .252.106.27.236a3.291 3.291 0 0 0 0 .797Z" clip-rule="evenodd"/></svg>
